<mxfile host="app.diagrams.net" agent="Mozilla/5.0 (Windows NT 10.0; Win64; x64) AppleWebKit/537.36 (KHTML, like Gecko) Chrome/134.0.0.0 Safari/537.36 Edg/134.0.0.0" version="26.1.1">
  <diagram name="第 1 页" id="D7ydOHF5puaVHMUN6S51">
    <mxGraphModel dx="2053" dy="625" grid="1" gridSize="10" guides="1" tooltips="1" connect="1" arrows="1" fold="1" page="1" pageScale="1" pageWidth="827" pageHeight="1169" math="0" shadow="0">
      <root>
        <mxCell id="0" />
        <mxCell id="1" parent="0" />
        <mxCell id="8mCYiyi_JvIo1W-B_qy7-1" value="" style="shape=image;verticalLabelPosition=bottom;labelBackgroundColor=default;verticalAlign=top;aspect=fixed;imageAspect=0;image=https://user-images.githubusercontent.com/11435359/146857310-f258c86c-fde6-48e8-9cee-badd2b21bd2c.png;" vertex="1" parent="1">
          <mxGeometry x="-10" y="220" width="1200" height="687" as="geometry" />
        </mxCell>
        <mxCell id="8mCYiyi_JvIo1W-B_qy7-3" value="" style="shape=image;verticalLabelPosition=bottom;labelBackgroundColor=default;verticalAlign=top;aspect=fixed;imageAspect=0;image=data:image/png,iVBORw0KGgoAAAANSUhEUgAAARoAAAEeCAIAAADaQE37AAAgAElEQVR4Aey9B1RT2dr4TWiB9B5KejmhCFgAQcHeQKSoCCgqCkixo2DvvdF7lSrdLhB6AiR0RB3HMk4vNkgPOteZb5044+Uyzvt6XX7/l3vNWc9y7Rw2x81zzi9P2c/eR+d37aHVgFYDn0gDOp/oOtrLaDWg1cDvWpy0D4FWA59MA1qcPpkqtRfSakCLk/YZ0Grgk2lAi9MnU6X2QloNaHHSPgNaDXwyDWhx+mSq1F5IqwEtTtpnQKuBT6YBLU6fTJXaC2k1oMVJ+wxoNfDJNKDF6ZOpUnshrQa0OGmfAa0GPpkGtDh9MlVqL6TVgBYn7TOg1cAn08C/gdOL508ffnl3nMjLF89G60Aukz788t44GdtPP343emzPnz9rbW5sampoaqpvaqpvbqpvaqxvbKxvbKhvrOfX8/n8On59Hb+Bz2+sB6WBD55s0Ai/rq5Wc9S876itreXz6xoa+E2N4DX/uHID/91v8fn8hsbGxqaWxmZBU7OguVlw9979N2/evBve61evnjz+cpzo7atH/zK2VyMjjx58MU7G9u3Xj3/99fU7vf1d49/ASdBUe+rwznEi7a0No/+k+18Mnj4aM07GVl2WP3psTY319hMBWxuOtTVrghXLxpo5wZJlZcG05DItWDQ2hcI0NWebUbhUqiWTbsWmWzKpAO0PYZqampDJpL85yGQylWrG4zKsLZkTLJk21kxrCwaPTaOZmZJJJDKZbGpqyuZyLaxsrW0dJ9g52U5yjtl1YGRk5N3whl4+T7pwdJzoLf7soVev/jm2F89+OXd8zzgZW25GnEwqeae3v2v8Gzg11F7btzNsnEhLw63Rf9Ldwd4DMRHjZGwl+emjx1Zbc51OwVBN0aYmKDMS0oSEIBGQJAKChEMQ0cZYYyhK3xBtYIiFGZui4eYYuBnKmIQwJiBgBAQMqW8AgUB0/v7Q19dFo4xIBBiJgCATESQ8DIuEQvV13/4GREdH39AQhcURyTQShWVG4YZHbFOr1e+G9+L50zNHY8aJ3k4cihoZ+efYnv3y0+E9m8bJ2FLijkslQ+/09ncNLU6f/gtiDE41t67TzVB0czTFDE0xQZuQkCQiAnz6cQgyBk5AwnDGRngYlIw2puDgDAKcToBTsHAzDNwEDcfCDaG6urp/TxQEAkEgDQk4OHhBApKEg2ORUMM/cdJABTEwhKKxBJIJzYTCCYvcqsXpIxDV4vTpOfnA2zAWp5vXqaZouhmaZoammqLJRI1pIiDIeIQZBkZGw8gouBnGmIGHs8lInhmKZ47imiCZJASNgDBBw9AgHX9Ym79aKQhEBwYzwGFgRDyCDFo8OBZhZKj3r/0hEAMoFIMjkU1oG8I2aXH6wPs4upsWp/GD0zVzEzTddCxOJni4OcbYFG1MxcMYJASXDLc0Q9rQ0HYMtB0NbWWG4pIRDCJIFByq/1eQ/nDnQJz0MRgYAafBCQvHwY0M/4IfBAIxNIRiMPjQ0HAtTqM5+cC2FqfxgtOtm9dMiQhzMpJiijIlowg4BB4DJ2DgJDzcFA+nEmAMEpJtgrIwQ9rS0JPZWEcO1oGJnUjDWpmjOaZIChGBQ0D/Ln7SWCd9DMYYj0WAVwb9Q2NDfb334mdkZBQUtF6l+md8oo2dtDiBnPwHpSJuXL9GxMPJRLgJEUnEI7BoGBYJw6HgRCzcjIikk0GWAFOUtTl6IgvrAOCduAQnNmEyE2dDxQBmKDoJRcDA9HTfDxSIE1wfizUm4OAEHIKAQeCRcBjU8L0JDAhEd+XKVSqV6l0krcVJi9N/GE7Xrl3FoIzxWDgRj8Bj4RiEIRJuiEUYEzBwUyKSboIEzFCW5mgbKnYKB+fEIzoDRCcucQoLP4GK5ZlhGKYYMgFpDDV4r8HR04OgUEY4HAKPQ5JwKDIWRcQg0TAj3b/Bz8/PT4vTByI0upvW2Rsvzt7Vq1fgMAMMxhiHhWHQMBQcioQaoOGGeAzMlICkaXCyMsfYUNGTWVgnAO/MIznySJM4RCsanmeOY5rhTcloNNpYb0yCQYOXvr4eGg3D41FEHMoUjzbBoUlYFBYF039fZx0dHS1OoyH58LYWp/GC0+XL1fp6unC4IQplhEIZwaD6UD1dJFQPjzY2ISCoZATbBMl76+wxMI5c/FQeyYFHtuOQrOhECxqJTSWbmeCwOCTU6C8REQQCNdLDYhEkAsqUhKWScGYEDBmHxqORUEMDnfe5h1qcPhyh0T21OI0XnKqrq3V0dPT0dI0M9eBQAwNdiKGuLtxQD4c0JuMRVBKCYYLkmiAtzFB2dLQDGzuVS3TgEuxYJEs6iUsjMagkMxM8DoeCI2EGBnqQd4cuRFcXYgTTJ+CRZiQslUykmxDNyXgyHkvCY1EI2Hv9PS1OoyH58LYWp/GFk46ODgQC0YVA9CAQAwgErq+HQRiScXAQJzKSozFQEyhoWzpmIgtnx8JNYBEtGCQOjUQ3J5mS8QQCGo2Bo1DGKLQxGm2MRhkhYFCQT7gBCY8yN8XTzUh0M9JbnMgELBIF1+L04bT8rz21OI07nN7lEnQhECMDPQzSkISFmePhdCKcRUKwiQiuCRKcwzVHc80xHAqWTSMwzUk0c5IZGUckoPF4NJ6AJhLRJBKaREDiMQg0zACNNDIlYenmZBbNlEEhm5vgTYk4Mh6LRsPfG2tprdP/Ss57O2hxGr84gZVBUH0CxtgEDzMlwGh4GJOAYL0VIoJORNBICCoZRTHB0U2JdDMixQRPJmJBIWPNTPHmplhTMoqEQ+BQMBwaTjHBsaimHLoZg0I0N8GbEMHOBAzS0OAvsZY2FfGxRadanMYvTroQCApmYIKDmxHg5ngEjQhWPzCICCYBQcXDzXEwcxzMhIAgk1DmJjimOZFBIVJMceZknJkpgUoh0M3xVFO0GR5FxCJIOBTVlMCmkVlUMt0Ub0bCmRBxJBKGgEUaGbynlkJrnd5rfP7Xk1qcxi9O+noQDNzQBIcwIyIoRA1OJASDBNolczzcBKMRHNyUgDQ3wTLMCGxzIotKZFIJVHMCnUKkmxPopjgqEWWCQ5kSUDRTLJ2Kp5rhzclYMyLWhIAzJWJJWpw+1hC9Fy0tTuMUJ109CNzYAIeCk3EoMwJYQ8QgIZlkUBhkpBkeQUbDyWg4CQ0nYRHmJBTNFMcyx3PpZIBBZtJIdAqBYUZkmuLpJmhzItKMiKSaoinmaFMyxhR0CHFkAhg7EbEoY6jBX1PlWuv0Xlr+15NanMYLTpcvX9bT09XX1zU01DMy0kchoQQsjExAmBKRZgTQOjHBmj0k2wzFNkPRSEhTHNwE+xYnmCkBYU5G0cwxHBrJgmkKMMgsKoFlRmCa4BgENIWINCcizUlIU3AZFVqDE/YtTngMWEihxel/5eQDO2hxGi84XblyBQozRCCgaAycCC5MgpuR4eamSKopkmqCZJggmWQUxxTNNUezKWi6GcqMgDDFwE0xcBPQ34ODOJlh2TSiBd0EYJDZVALbFM80wdKIaDMC0pSAMCEiTDQ4mZAwYLpCY53waASI01940lqnD+RnTDctTuMFp6tXryKQMAwGTsAizEgIc1Mk3RzFpqI5DAyHhuFQMWBa3AzLNccCVAKbqkkzEBDmOCQFhzLX+HJ0MyyDguPQSFwakUMlsEzxDDKGSkCZYBFkLJxMgJGJoHUCcSJhTQk4UzwWj0bAjQ3+uu5Qi9MYTj7woxan8YLTtWvXsAg4AQOuF6SSkSwKagIHO8WaYG9DcLEjOU8kT59AdLQgTOLi7dhEKyaZScPRzNDmJCSdhGaaopkULJ2CZZjhWGYEDoXAoZJYpng6CW0Gro2HE1DgZckEtAkRa0LCmJGw5mS8ORFLwKGQcEMDvbHmSYvTB/IzppsWp/GC041r10xwCAsqxsWGvMyFtmkR7+TKyZkRMxNDnHM3zc+KWpIROS8zxDVh1eQjXjYhMzgzbEwncvA8BpZHwfAoOIBG5FAILHMc2wzPoRDYmsCJpsGJgDTCI41IOBiZgDYj4sxJeHNTAtWUSDUlmZFweCwCZjTW39PiNIaTD/yoxWm84NTedMt/Ov2Y/8TKPW4dcWsfJIf+lL3lZfHuFwUxQwUHh8vPvCg88DI7+lnqpu/jQvsP+haFzTrmYbttEW+1C32hrdk8GzMHgATQiFwqkUshcEBPD0shokywcCLKmIgxJhPhpkSUOQlHMyXSzUlMqimHYU6nkclkDAZlDDXUHx1BaXH6QH7GdNPiNF5wGn7Y9SA1VFK269Xlg69vnh+pPqWuPK6uOK4uO6QuOTBSfnyk8oy67Ji65Ki68OhIwcHX+buGYsN/PLP+7hG/mxGzK0NcTi2zm2tj6mZHsWMS2eZ4ugmWQkCYYOFkLMIEjzAno81NMDRwbsqUzTDjMukWHCaHRTU3IxDwSCRYXA6W770tFwzw99eudxqDyod81OI0XnB689OXr26cHbl+Sl26U1W4Q1W0S12yV11+UJ2/VZ23eaT6yKvyk+rSI+r83arUreqUrerMKHVWlDojeiRntzJ1myJ929PULde2LGoIn7vP3WbRJPMJNKwZAUnGwk1wCDIRaW6CZpji2VSyBcPcgkm1YNJ4LDqbCeJEJKAxKDgCDjWGGhhDDRBQw7WBgVqcPoSfMX20OI0XnP7x/V112W51yU5VwWZVbrgqf7OqKEpdulddFKMu2jlScfBV6cGR4v3qgt3qzK2qlM2qtG2qrGhl5i5Vxi5VWrQqc7ey4NBw1l7Z+bBvYkMFMZ6nPO3mWptSSQgyFkHGI83IaKYZnks1sWRSeSwqwKSxWTQmw5xiRiAT0TgMEoM0RsKhSBgUjTAOWqPF6WMeDC1OH6O1Md9JH/dxzMZg//h2QJ2/RZ23UZ0Trs4JU1/coi6OURdHqUui1SV7R0r2jhTvVRfsVhXsUl3cqcrarkzbokrdpkrfqU7fqUqJVibvVGbsVeYfVSZHq7IPKNOjfjgVXLt54YGFPFszFAYJBdcgmuGZVDLAMOcwqVwWjc2k0mimmnJYNAGHwqAQaKQxGgnHIpHrgtZordNH3FYtTuMGp6/71Fkb1Flh6rxIdXaoOnezujhm5FKMunS3+tKekUu71QUx6uK9GtmlvrhTlRelytBI+nZF0nZl3GZlwhZlynZl4nZl/A51RowycfPQqeAHe/0TvCetmUqfzMJRSBi6CZFtbsKkm7JpFBadQqeYaBZrYIgEFA6NwIIswXEoRHDQGrV265V/v5xPi9O4welxjypljSojRJW3SZ29QZ27RQ06e7tGSveAZqokRlW8R116QH1pr7p4lyo/WlW4R33xgCojRpW0SRUXqYrbpIzfokzaokzYpjwToUzaojgbqji6Tno8+En08r7t3icXT7RnEqkmWLoZnmFOYlJMmBRTzSopPImIweGQGBTIEigoxHotTv8+S/t2hmlxGjc4PepWJaxWpYeqsjapciLUBW/dvB3qkh3qkp3q0l3qssPqsgPq0j3qS/vUhbvURfvURYfVWTHKxE3KpM2qpO3KpB3KpBhF3HbF0XUgSyfXyQ+tkh1Z83JfwPCBoIfRSw8vtJrMwoGl5WQi3ZREMwEXPr1lCYWCw4wMjaEGMKgBwgiqjZ0+wtPT4vR/xtK+nWFjY6dHXaq4Var4Ncrk9cqscHV+1EhRtDp/m7pgu/rSbnXlAVXlEXXFYXX5EXXpUXXRfnXRbnVhtConWpG6TZW6U5m4TRm/SZkQrYzdpjgaojgXpjgVJDu4UnZsneTQmqF9gS8OBt6OXHBgtsVkBtGUiDMh4ch4DBGHwaAQMDhUT/+PeSeIJlce4K/dGOxjng2tdfoYrX3cV9eY3xqL0+MuZcJK5TlfZeJqVU6EKn+7uninKn+rOn/bSEnMSNWhkerD6soj6vLjqoLd6rxodeF+de4OVe5OZepmVcIWZcJGZVyYMi5SGRumOB6kOLsBlFMhilOhilOhskOrhnYv+2nrEmHAjGgnloUJGodFYXFINBxmaGiordkbc2s++qMWp/GC068PxMpT3qrT3qqkter8zarCKHVpzEhp9Ejx9pHCKDBLXn1CXXlipOqkunifKj9GXXRQnbNDnbldlRSuOh+kOhukPBWiPBuhPBusOLVafmSV4uQ65ZlgxdHVioMB8r3Lh7d7/rzJ/c6aWTe9HLdMYbIIKCwSjjCA/pUl7T57WpzeT8V/0KbKv34pUp70UZ73V6UEq/O2gG5e4TZ18RZVQSSYN8+PUpcdHCnZN1J+aKT8gKpwp6pgtypnmyopVHkhSHHcT3HcV3F4meLgCsX+pYojfvL9vooDKxRH/OV7lkqjPIe3eT3f5PbTxoWP1s/t85txxc0x0pZGQ8HgBlC9921lpC0y+jiitNbp/Rx+nDb/rd8a4+z9+kWb8qiHKj5QnROpKtimurhJlb95pHSHumS76mKEunCLumK/+tIu9aU96uJd6rxNquzNqtQw1YVAxcllikOeioMe8r3u8ujFij1LFLs95Lvc5bt9FAcC5NE+0u1eL7d7/bJ1yXebFn8dvnBw5Qyh+5TSWdYr2CQy3EhfD9yU7932SW8bWpz+rVv5rrMWp3GD0z2B4uBCZfwqdcGWkeIdqrxwdeFW9eXDI1cOqS9tU5fuHCnfqy6NAUsl8raqszepM8LVCWuVp5YqDi1S7Fuo2O8m37VItnW+fLenPGaxfPtc+Q53xeHVsn0Bw1Fev0S4/7DR6+vIJY9D3W6vmSP0mNQwf0LedMCdikVD9XTBjf0gOhqoNA3tpsof+VRocfpIxb37QvroxljrdEeg2DdfGbtKnb9FVbhNnRemKtikKtutrtilvrR1pHzXSOE2VfEO9cWt6qwIVVq4KilYedZPsX+hfNcc2a458j0LZFGzZWGu8u1u8j2e8hhP+Q4PxbFA+cGAZ5vcv14z9+GaBY+CFn0ZtOBBuPvA6hlt3vaNC23OTWHYYmCGenoaoECe3u4eq7VOH3dbtTiNG5zuChR756suBKjzIsF4KT9ypHgraJRKd6pLotSXdqjzNqrytqoyI1Xxq5XnVipOrVAcdFPsmi2Pni3fMVO+3VUa4SgLdpTvdJcfWqE46Cff5S3f5y3btfh5yNwnK2fe8Z72aNXcJ0Hzftqy5Iftnvc3LGj1mFI129KbikMYGIARlK7eWwOlTUV8HEvaeaf/M5b+Ou/0+k6rbM9c1bkV6txwdd4GdUHkyKWtI5eiwPDp0jZ1yTZ1XrgqyU8Vt0J11kd53F2xf74ieqY82lW+YwaI07YZ0rCpsvAZ8l1LFIf8FQd9FXu8ZFvnSsKmPVvl+NVSh04X63uejt+vdnm+ftaz8PlP1s1pd58scJt8wJYOaN67oa9nqAv54/WeWuv0cURprdP/GVFjnb3BVnnMTOWZZepcTZHRxYiRoo0jhRtHireMlGxSF65XZ61RxnqrLniqTi9WHJgl3+Es3+Ig22Ivi5gsjbCXbXSWhTnLt85W7PGS7/CQxSyWRy2QbpgxtGrSjx4WD9ysel0sb8+yfOI58RufSQ8WWd1eaCucad26wLZy7oTtVhQmAmagb6in+8eOsFqctDi9B4z/pET5YKts12zlSR9VRpgqY50qI0h9MUR9MVhdsGGkOFKdt06VtkJ53kN5aoHiyAx5tKN0o6001EoabicLtZOus5EG2UnXTZRusJdtnyvbOFO2aaZs8wzp+qkvA+x+8LR84GF9z23CndkWd+db311k0zUN6HDmtTjyGmda1sy1LppusZplQjY2Al0+CERXV1eLkxan/3CcBpplUa7KI16q5HWqpEBVQoA6I1CVs1ZVFDpSFDaSHaRK8VWeXaQ46irf5yzbaicLt5KFWMlCrKXrbaRBE6SB1tK1E2SrrKQbnKQhU0G6gu0lgbbPvCy/WWT52Nv23mKbvlm8rulApyvQ4sCtn8itmwg0OAE1zrzr0yxS7FnzyGgjPTDLp6urp8VJi9N/OE79zbKNToq9i5SxgaqEQNWF5apkP3VukLo4XF0Qps5Yo0r2VZ5ZJD/kKt89VbbJRhpiIQ2xkAVbSddaS1dbSwOtpKsspf6AdI2NJNBGsoIn8bMa8rX8eRHngQvv8WKbgTlW4umAwAEQTAWapnJv2XBv2HJrJgM37LjXHYAqR+5WJhkHNdAHX4UD0eKkxek/G6fXfU2yMAf5jpmKU76qpCBVor86yU+ds15dvFFdEKHOCFLF+6hOLpQfdJHvnCyLtJKu4UpXc6WBPEkAb3gFV+LPk6wAJMu5Ej9g2AcY9uYMeXCfLQK+n8390gW4O8OiaypPOAlosQea7IFmB+CmNeeqNfuqDfuqNeeqLeeqLfc4m0IxNtK8XEqL03uepQ8BTJuK+EjFfYhy/+c+Y1IRr3saJMGTZNumyw4uViUEqZIDVSl+6ux1IyVb1IURYDR1xkNxxFW+x166yVIazJUEsCSrONIA7vBS9rAXW7KMI1nKGfZmg7KYPezGfrGA/f00zldTefecueKJ3BZroM6C0zCRW2PDuWbFqeKyrliyr9hwLluzq6zYVTz2ORaFCzd+O+/k76fdeuVjHgwtTh+jtf+Zkw/86Ricfu1pkKy3k0Y4SLe4KONWqxIDVCn+Gpy2qQsiVUk+ylMLFfumymPspOE86Rq2xI8pCeRI/TQIubGHvTgST86wB3t4kUbms5/N4XznxHnowH0wDRDZATUA9zqHc43LqeKwixmsEgarjMMs5bIqOKwKgF0GMM/zKBOQxppkBMRPu0BjnCwf7BYLM5LOjBPp6+74fdTx5PGXmSnnxsnY+Lcujxra76/udg/vXyU/tlJ2fI0q98BI+eGRiv0j1068bkh9xU8Cq/UublGlhygTVyvO+iuO+ir2L1Mc8FXs8ZVH+8q2+8q2+cp3+MqifGVbfGWbfGWRy4c3rHgW4vt9yIonwX731vh1rFjRssy3cdnyhuW+tT7LapYuq1++vHbpsvqlyxt8l/NXLK/w91k/b46ri8v06dMOHDgwMjLybniS4aGivJRxorf87MTXr1+9G9vQyxc5abHjZGxVpRcVctm7sf1dQ+fvfvDX8yMjaplUMk7k1ahn4vfff//19Wu5bLyMTaVSjtbeb69G3gw9ezP87M3w899kQ78phn9TDP2mHP5dJftNJQPb8pe/yZ6/kT5/I9F0G3r65p28ePrm5Z/y4umbP+Ufz5/++vzp6+fPXj1/NvL0qfrpU9VfRP32/LOnimdPn//y888///zTTz8NDw//9ttv74b35s0buVw2Tu6pXCb9/V/G9g+5TDpOxqZUyH978+ad3v6u8W/g9HeX0J7XakCrgbca0OKkfRK0GvhkGtDi9MlUqb2QVgP/Bk6vX79SKhXjRH4dFbP+/vvvr169evny5YsXL17+zfFC89MXfx7veg0NvRzSHMNDQ8NDQzLJ8GuF7De1/DeV7I1S+ptS+psClDdKyRul9I1c8kY+/NtbkQ2/kQ79QyO/Sof+IQPlV+nQa+nQP5SK0Q/WP/7x6zhRmlKpGJ2H+P3333/77Y1KpRwnw1OplKPjut9+++0fv/7leP3rr++X17++fv3rq9Hy6tdXGhl59Xpk5NVbUY+8/ov88aM/+rx6NfLq1z9k5Fe1+leV6leV8h9q9ei4bvT9Hd3+N3Bqqrt+cFfkOJHWxprRf0ZVVZWRkZGBgQEUCkXBYRgEDINEYJFIBBxuZGhoYGho8K+HoaEhAgHHYtEkEtqMgqOB7ykz4VBNvB0B/iZP+YUg5Ul3xaHZ8r2z5dEu8m3Oss2Osu3O0vBJ0rU2En9ryVKrF56WPy20+mam1cMZ1vdmWd+fZz04z7rD1brJyfruvm2jx/bFnf5xorSDuyLLi7Nfv379bngvnj89d2LPOBne6aPRIyPqd2NTK5UDbZ39gq4+QXefsLtX0NUj6O5t7e5tAaW7SdRZLxTVCUS1gs46obimVXyrVXyjWXS1XnyVL75c21F5vaP8Skf55bZLVYKS8ubCkoa8In52Pj/jIj89rz49j5+Rz88s4GcV1mcX8rOL+dnF9bnFjRcvNReWtxZWCgsr2guKRBmpXXGnxWcO385JeyWTvhvb3zX+DZwaaq994MTL/4NuY0pgKyoq9PTAommIjo6+nq6hgR7cyABhaKiv+8fChDFrvHUgOgYGekgEFIOBYQkIAglpbophmGJXT2V3bl+kPL1ccWy+4vBcRfQMebSrbKuTdIONLHyKdMNkaaClxIsztID9yxz2d67cr6YBg1OBHgegyxFomci9ZcW5bs3p2b5xtLrvDfb9P1DIB/4XpYWZo5PRL54/PXM05gN/9//vbicORY3BabBN3C8U9QvFfUJxd6uou1Xc3SLuau7sahJ1NrR11LaIbrWIbrWKawWiWy0dN1s6bjR3XGvsuMrvuHyro+KqqKxaVFbdfqmqraRCUFTadLG4Pju/Nj23Jjm7JjmzJjWnNi2nNi2bn5ZTl5YDnk/Pq8nI42cVNuSWtOSVteSXtmfndibFi88fu52b/EomGX1b39v+L8GpsrLyLU46GpyMoPpwmAECavB3OEF0IcYwAywahsPCsTgEDocwIyEn0HEnPG2+P+KlPOMlPzJfvmemPGqafIerfPt00C6tnyRdP1G6esKwF+fFQs6PsziPnbkPpvMGpvLabAC+JfemJbeSxSpmMIWREaN1rcXpAzkci5NCcbtFeKe1/Y5QPNDW1aeBqlfY1d3a2dkM4iTmC8R8QSdf2MUXimsF4hpBZ62wq66tq1bQdbOh82pNZ/WNzuoboqprHeWXhZcqBEWXmvOLGnLy+em5tak5b6UuNbsuJasuOZOfmlWbll2Tml2blsvPvFifnd+cWyTIKWjLzBInxd4pyPqMrNMYnOAwKBoJRcGgf4eTvoEuAgXFY+FELPjKWjwWQcIh5libXN0wQ37GT3nSS75vrnzbVNlmB2mkA1jQEDYRXCux1lbib/XSnfPzXM7XLty7jsCgM+b6gAkAACAASURBVNDpADRYcW9ZcC8D7CI6M4dCawrT4vQxJSljcFLK5OLa+n5+653mzrttvXfae++0991pHxhsH+gX9vUJevpauzTS2dvS2dMo6qnv6GsU9zd19TV29fLbu2tau282dV+v77pa11l94y1RwuKy1oJLzXnFDVkFdRl5tWk5ID/J2bVJmXXJmfUpWbUpWXUgUdn1GTlNWRebcwoEOQXtGZl3SkteyeWjvyXf2/5vs04QHR1DQz0k+MIIIwTMUE937FY+b70+qJE+Cm1MeIsTBo5Hw01wsHWunNv7fFTn/BRH3RR7Zsu2Osoi7aUb7GQbJstCJkrXTpCstBr25j2bz/luJufBNG6fA9Axmdtky7nO5VzmsEuYzBwqLcuc1rhBi9MnwulGQ8/N5oHa9sGGzjvNPXdaeu+09t8VDg4Kb99uGxxsG7zdPjjYMXi7baC/paevqbOvqbOnsbO3obOHL+qqE3beahZfbxBfqeusrumouN5eVt12qVJYVCEoqmjOL2nMK+Rn5YFuXkp2bXIWSFRSBj85k5+SVZeSVZ+a05ie25SZ15pdIMjJH7h85ZXiXzJMnwdOuhBjYwMUGoZBGcOMDf66MxaIE0QHBjPAYmBELIKIg5M0ODFIqFM+9j+fXa064yvfP1e2c4Z8o6Ms0gGMl0KmyDbYS9dPGgqwHHLn/jyH+8SZe88J6J4ENFlwbnI5VWxWCY2ZS2FkUeiZFHrDhvDRutY6ex/p7Enlt6/w+6tr+6vr+i/z+y839F1t7Lve0n9T0FvT1lvT3s8X327sGWzuH2zu72/s7W3o6qnv7GoQdfI7QKlrE9W0im42ia7wxdX8jqpbHeWX20sr20uq2oqrhIXlLQWXWnKLGrPy69Nza1Izbyan30xIr03I4CeB0pic1ZiW3Zie3ZyZ25Jzse/KjVeKfyl2GX2L37X/S6xTRUWFribrAIHowIzBoAiDNjYyMnivbYJAdBBwKB4LIxNgJDychIcTUPDJTGx1sKv0zErFUW9ZtKts0yRZqK00dLI0eJI0eLIs1EG63mFomdXTeZzvXbkPpnIHHAHRJC7fknOFzS5nsi5SGNnmtAwKPQPEKeydfn///XctTh+Jk0QyUFbZW3ypt6i0t6isG5TynqKKruIKcUlV56XLnWXXuytrui7zu680dl9t6b4u6LnZ3n2ro6tG1FPX0V0n6qoVddYKxTeaxVcbOqvrRBXX20qr20sq20sq24oqhQUVwvwyQU5hS2ZOfWr6zYTU67EpN+PS6hIz6kHJrE9Ob0hKb07ObE7P6b18beSzxQmDhqFQRlBD/fduLKwLgSARUAIGbvL2fZh4OB4FD3Bm9O/zUZzxUxx0k+10lW2wka6zkgbbSoNswDV8q20lAbYvPYFvnDlfOnJv2wPiiUCzDfcqh11GZxfRmFkakDLM6ZnmWuv0MZ7evp1hY2In9bBkoPBST17+W+nOvQhKzsXObFC6si925eR35hZ25BW3XyxpLyjrKKrsKLnSUX5TVF3XeaWp67qw62Zb56028U2B+FqT+HJ9R2VNW9m1NjDRVyksLBPkFQgzctoS0wRnz7YePdZ44EDd3j01B47UHjvHP5NQfz6lPi6tIT69MTmjKS2zp7p65PNx9kZbJ2MjAxTKCAHTNzTQNTTQ1/vLTqi6EAgaASViYCQcwhSHMMEhCFj4fk+7b08GKk8sV+ydI9s2Tbp+gjSQJ11vIwm0kPrxJD4AuGhvAfeJI3dwCtAzidtsxb3B4VQzQDcvj8rI1OCUSaFnm9OatbHTRy2C+AtOw30X83uyc7qzc3ty8rpz8rqy87oyczszssXpmZ3pGeK0jI60jLbUjLa0TGF6riAjT5CZ35pT3HqxtLWwWlhyvaO8RnS5Xny1SXy1SXSlsaOK31Zxq630atulyraLFztSznWe2t2zJ7xn8/Ke9Yt618zvDpzbvta9dUNA6+aw1phdjQdP1J+Mr7+Q2piY1l3+WeKko6NjaKCHQBjCYAZGUAM4DGpkODaC0oVAUMaGJDSMjEWY4UCxpaOuhM4YOumvPOQp3zFLGj4Z3KRhjQWYylsBSJZxwbmmReyfZ3GfOHEGJgPiSbxGS24Vg11GZxRQ6Jlm9HQzMGrKpNCzzLWZvU9jnZRDQ11ZOeL0DHF6RldGVldmdldmTlcmyJIoPaMjLb0jJb0tKaU1MbklMaklMbk5MbU5Mb0pJaspLbcxs6A5u7DlYqmgqLqj9Jaook5cWS+uahBV1reX17aXX2srutSRntxzZtfALt8vgqd+4Wf5pQ/vSy/eF56Wg942t30m9y136Vzj0Ra5XrBrT8uRM715l0Zkn01mr7yiQlczjaujo6MLgUAN9Y2MDFBIKAZljEIY6uv/y2SuLkQHDTMkoOEgTgQEYIbatZD39X4v+VFv+e4Fsq2u0g2TpEHW0iAryUoriTdX4qPBaQH75xnsR1O4vXaA0Aao5XIqGaxiGjOPwgB9PAo9i0LT4vSBYdJ7u42xToqXQ20ZmcKUtLaUlLbU1Pa0dFFahjg1XZSSKkpOEyWnilJS25JTWhOTmhOTmuITG2MTG2KT6uOT6xNSweAnNacxI78pu7g1v0JYdLn90jVR2Q1RRZ2oii+urBOV3+worhLl5nbFH+87FDK4dfHdDS5frrJ7uNzyoRfvSzfuF/N59xZaDS6e3LdsZs9qrzvHDr4aHhodEr+3/V+UivgTJwgEYqCvBzeCopFGODQcg4IZGuqProqA6OigjA2JmLc4oaZZkBq2usuOr1Dsc5dHzZBtmiYNmSQLsZets5Ws4A17cIa9AIkn98V81jdO3DsTeJ02QKsVcJPNrmKwiqmMHAojQ2OUcsxp2VRajhmtKVSbKP8YAzUGJ+XLl4KM9NaU5NaUJEFKijA1rS0lrT05pS0puS0RlPak5LakZEFCUmt8YktcYlNsQkNcfH1sYv2FJH5scn1CekNydkNabnNWUUteaWtheXtRRVtJdXvZdXF5rbiiTlRxS1R2TVRULs7O6k4413N698C+1ffCZz7wt/lyMe/BXM6DWdwHM7n3XIE7s6wehvu9fv70vQiNPvlfhNOf9UQQCETfQA+JBHHCoowxKGNjqN6YFB/CyJCIRpiiURQCMsCR9u3+pYpjvrKYRbKt08FJ23W20nX20pUTJN7c4QXs4UXc4YWc5/NYXzlxeyyBdmsen8u9wmCV0pkFVHqOGS37T5ByKYwcM1qjNrP3KWInxdDL1sz01tQkkKjUVEFKWmtSSkticktCYktCQkt8QktcfCsocS2xGomLb4yLr49LqItNuBWXUAtaqrT6pIx6kKh8YU5Be26xMLdImFfccbFCVHhZVHRdXHxdVFgtLiwXXywT513qTM3sPrFncPuyu6udvvCyvr+A98CV+4UTcGcq8DjQ5/XTX0aT8972fyFOoL+nD4EZGaKRUCzKGIc0hkH/eKHlOxtlZKiHQ8HISISVOSZuySTpkVWKg0vk0bNlm5yk6+zAwryVlpLF4FYnQ/M4Q7M4L2ayf3JhP5rK7bUGWrjADSanksoupbGKqEzQKFFoOVRGLoWRR2HkUxmtYZGjda1NlL/XtfvrybHWaWioLTOrJS29OTW9KTm9MTm1ISG5Pj6xITauPvZCw4XzDbEXGmNjG2PjmmPjm+PjmxPimxMSGuMS+XHxNXFxtbFJ/Ni0+tjUxrik5rh4YVxcR3xC57mzXacOdZ083Hn6aOfp451nT4nPnRKdP9dxIaE9PrkjKUOUkC4+fbbrQHT/1sCBdfP7lzn0z7MamAo8XOn9+unPo2/re9v/nThBIBAjqD4ajJ2gOJQxCg6mzN+xpKOjAzXQw6JgJAxiiY1520Z3xeEV4P7622dJw+wlKwGpH1fiD0iWsIYXsodmsZ85cX5y4nxjz/liMtBtza1nc68x2JVU9iUaGDtdpNBzwcCJnk2h51HoRVRmhxanT2OdhlqychtTMvhJabcSkm/GJt44H3fj3IUbZ8/fOHvu1vnztRdi+XEJDQmJzQnJzUnJLUlJAlCSBfGJLbGJTefjWs9eEJ461X7scPvhvaLDu8SHYnr3hA1sXXp749L+SJ/eCO+eiKU9kSs6N60UbVstigruiIkQ7d3ecWB3++FDHUeOiPbvFe/Y2Bm6tGe5y5cb/V8//1yt0584GWFQhli0MQZpZKj3L9kIQz1dFNyQRUIec7P7+cAq5R4vWbizLHSqNMhGEsCR+FuAUdMS1tBs9ktX9lMn9veTgce2wKANT2QF8LmcawxOJZ1VSGEUUEGEQJzMQZcvj8IopjHFkdqK8k8QO8lfDtWmZl2PS7p8Pr7izPnK0+eqz56/fj7u1oW4W3EX+HFxjQlgQk+YlNKWktqRmtqZnNidcKEn9mzf2eMDx/cNHNx+Z1/4YMz6/h3reqPW9Uat79ka3LtpZW/Iot6ghd1r3DrWuLWtdW8LchcGubet92hbv6R9nWdbiFdb6NK2cH/h5jXtW0Pbd2zp2Lm9Y+vG2yeOvBr6rFIRf8ZOYBURBGJoZIBEGmJQxng0DI+GwQz/2PP+rY3ShUAQUAMnJqF67Uzp4VWyLbOkwZM1bp71sB8g8QWGvTigaZrDGXJhP3fm/jCV82gyt9+K224FNFhwr7M4FXRWEZVxkQb6eLkUeg6FlkulF1IYpXRm+yats/cJcJK+eHE5NrHqbGz1ubjqc+evnj93Kza2MTFJmJLckZTYlRTfnRTfl3DhdtzZwQvH75098OBE1KODGx/sDXkYHfhw69IHEe5fblhwL2TenaB5A2vn966d3716Xnfg3C7/mZ1+M0UrZrWtmCMImNcKyoLWgIUaWdQSsKh1lVtLoFtLoLtgjYdgnZcwxFcYHth/8vDI55XZ+1ecoFADBBKKQcPwGDgBC0fB/2X2CaKjQ4BDN0xl39u2RL7HUxrqKF03Gax+WGkp8QGGPcHdIYfns4fmsV+4cJ5N537nzHkwmddvA7RZAQ0A5yabUw4GTox80DqBIVPOH6aJUcxg1m/UFhl9Apwkz59XnLtw5fyF2vj4psS4tsTY7qTYgeQL95LOfxF/6svY41+cP/TlyV2PDm98vG/d19H+32xZ8nX4gsfBcx6sdb2/yunuCsfBZfb9PhP7vGy7vWw7vWzEHjYid9uORaC0udkJ3ScJPexblzi0ejkJPKe3ek1v8Z7evNS1afnspuXzmpbPb/Rd1LhiYbP/fEHA/L69G0dePn9vvDT65H9p7KQLWicUygiLhuOxCCIejkEZjn7zsoEuxImKKQ+YJt3rK9s+W7rOTrLSRqrZu3h4CQdkaRF7aD775WwQp6fTud9O5dyfzOu35bbygFo25xqDXUZlFVIZF0HTBOJ0UfNvMZ2Rx6FXRKwfrWJtKuKvWYf3nhmTipA9f34z7nxr7LmexPN3k848SDr1JP74V7EHn5zd9dWJbV8d2PBwd+Dj7Uu/2uj2VcjsR0EuDwIcvlg+cdDbps/DqsfNqnuhhXgBr2OhRcdCyzY3S8FCy9b5lq1zLFpn8QSgAMJZgHC2hWCOhXCulWCetWC+tXDhBKG7Xeviyc0eDo1eLg2es+p95tQvm9uwbH53dMTIi88WJ4gOFKqPQhljMXA8Fk7AITAoqN6obDkSqh/mwHy0zV2xe7E0fIp0taXEF5B6sYeX/LHT6vBCjXWaoYmdpnO/ceDcn8TrteW2AGBar5rOLtNYJ7DylUrLodALKcxCKqOEwYxjmKesX6PF6b3A/M8nx+Ckfvl8MPnMF7GHv4rd/+35Xd+cif7mVNQ3xyKfHAj6asfSx2FzH65zfhDoeN/PfnDZxH5P6x43XvcCnniBRfsC63Y3uzb3iQLPyQIfZ8Hyma2+s5p8ZzYtc2n2cWz0nNTsbtcy36p1Lk8wx6JtJq99Bq9jJq9jBq9jFtA+20I4z1KwwKp1oY3AbWKL+6RGD8dGT9fOqNCRF89G39b3tv87rZOOjg6Y2UMZ47BwHO4tTkbvaiMgOjpUpFHsAtuXe70VuxdIQ+2kqyykyzkSD7bEXYPTAjY43TQPtE4vZ7KeurK/mcq5OwnotgFaAO51JruKCuJUTGUWaIxSLoVRSGUUU5klTOZJmun+wFWjda21Tv8zRe9+Ogan1y9++SFh77ent3xzKvKrY+GPjoZ/dSj0yd7AR1sWf7HOZdBvUs8ym07vCSKvCe2e1m0eNsIlE4VeDoLlLoKVC1vXegrX+bQGL2sN8WsJW9kStrJ5Q0DzBv+WkBUt631a1i5p8Z/bstylycexxWOKwN1OuMiqfb5FxxyLjtkW7TN5IGOzeB1zLNvmWgrnWwkW2vZu8h/5PKdx3yYboFA9jMbZI2isEw5jbGQAvpFFFzz0pjNw9cGzFMf8ZDFzpBGO0tV2kqUccKJJ4+aBu4EvAK3Ty9ns59PZPztzQJwmA2IroJkD3GSAOJXS2UVUZhGFmW/OyAdxohfTmQUsxg5z8pZVK7U4vYPkwxtjcXr+4zenIx8fXn//0NrB/UF39q27tzvwTpRPX/iCtrUz6le53AqcVRPkXh+8rGn9UsE6D8F6T0HIUmHEytZNQYIt64Sb1wgiVwsi1wg2rRVsBEW4KUi4cS14JiKwNWyFIGSZUINW86oFLf4zBb4z25ZOa18ypcPdTrRwAugoztaYrJm8jtlWt8OXvfpsE+XgjhH6uhiUER6tWb6OQ+AwxjAo+N7lt7JqMu1OtI/quL98x2xpuLN0mZXEmzPsNRYncNLJmf2DPeerKdw7E4E2Nq+R9SdONGYx7Q+cCilg+xKDlcGm+ZFxwQH+Wpw+nKJ3PcfgNPL0hy8OhwzsXtMZs0Ycs65nb0jn3iDBrtUN0UE3ozdc2Rl5defWmpiohj1RLTGRgqj1gu3rhFHr2sBGsHB7kHBLoGCjf1ukf3ukf1v4yvaIQFAiV7dFgCKMDGiLDGiPWNUe5t8euqw1eGnreu+WII/WwIWClfPa/Wd3Lp8uWmwjmsfrmg10zgTuhC599exznXd6ixMWZaQxTaCzh8PAEHCo5jXmumgD/YNzLL7Z4608sES22VWydtKwGxeMmrzZw+5/ErUArIcYnsl+4cz+0QnMkg9YAx0A0Mzm3mRwqmjMEo1pKqTQL1JA61REZV5isbIt6Tu5pPiIIC1O7yD58MYYnJRPf2w/GNGyN6Jp/5amI9Etpw40nTnMP3Os7uzZmgsXbp2/UHP2HP/06caTx5qPH2o5tr/l6L7Wo/sER3a3HopuPbBduHezMCasbUdo+7Z17ZtXizYGdET4iSJWdIT7dYQHdIQFdISvFEWsFEWC/3aE+7WH+bZtWC4M9mkL9m4L9u5Y790eMEvs49zn5di72Pb+xmWf7zSujo6Onp4uGrROxuD+Kjg4EYvAIIz09fV1dPXICP0M78m/7PaSb58tDZkMzth6soY9WRIvFlgJ8dblWwjGTsOaVMRP09kPJ4PVeiJLoIkL4lRJA5c5FWukgEIHcaIwK3isBheeyM3m8eldWpw+nKJ3PcfgJHv2tO7UoZrTR2vOna6Ni+Mnp9WnZIKSlsVPzeSnpPNTUuqTUuoTUuoTkusTQWlMTG6KS2g8H9t8/nzz2bMtp0+0njgqOHaw7fCu9r1b26PDxNvXdm5e2RnpL44M6NwYoGmsFG8M7Ixc2Rnu3xnu1xm2ojPMVxzmKwpb0bJuUesat95gr4G1ix7sCX798jNORejp6aIQYEnEnzjBMSg41MBAB6I7wQxet2G+ZJ+XbPN08A2ZyziSZWyJNxtkyUPzSjIPzVuVPDhDc9nPXdk/TOM+mMLttgY6bIBGLnCTAWb2LlFBiwT6ezRmIYVZwmDdnMwb9HF+HrZEnnFWi9M7SD68MRanly9vpWffTMu6mZ5dk5Fdm5HDT8/lp2XXpmfVpWXVpWbyUzM0XIGbEGk+ZtanZPAT0+sS0zWr0zMaEtMa4tOaElKa45NbY+OE506JThzoOhDVtWtTZ3RYV9S6ri2ruzcFdm9e3b1pTXdkYHdEYE/kqt6Nq/o2ruyN9BdvWNq+wbN704r+zYEPTu9/Pfxy9G19b/u/NrMHgYBVsFiUMQENJ2FBwaMRCCND8O3ldpT7e5bLDy2TbZwuWWUBrg704Ug8/2TJnS1Zwpb4AhJvYGgh+6kr+3sn4P4kbqcl0G4J1LO5N+icy3R2KZVZRAUrysF/KYwSDrNx+oQHy2b8uGrBywsHRutam9n7QKLG4CQfljaUVPPzy/n5ZXUXi2/lFtRk59dm5tdkXryVfrEmLfdWWs6ttOxbKZk3kzNqUjJrk9NqElNq41Nq45Nr45Pq4pLq4hPr4hPr41MaElMak5KbU5IFSckdsfHis2e6jx3o3hfVuy20Z2NgT8TK7jD/rtAVXcG+3SErekJX9IT69ob49K336Vvv1Rvs3bvB9/6J3Z87TsZQAxzKmAguEwSFiEJgYEZIY/3DM6y+371MvtdLGjpVs9iWA+K0hD3sw5EsZw95gi6fxJcj8eaCOM3hfD+Ne38yV2wFtHKBOhb3Kp1dRXs776TBicIEnT2AKXThfeVp++Mal6HMU1qcPhCh0d3G4KSQylsv85vKa5rKbjReusIvqqrLr6jLLa3JKr6ZWXQr/eL19Nzr6bk3UrJvpGTUJKfXJCTeunDhyunY6tOx187G3TofXxsbVxMbVxubwAeXQsU2xcYJzieIzp3rOnG45+DOnuiw3k0BvRt8etZ5dK1dKA6cJ145R7xylihgdof/nPYVczqWuYqXuXYund65dNrdnUGvPud5J4iOjpGhHh5p9E+c0HAszAgHNzg1C/hx5xJ59EJp0GRNSRFr2Isl9WZJV3DBWnJfzetofblSTxa4efJs7hNnzj17rtgWaOVxa1jcK3R2BY1VAtbsgZk90OVjMK7bA7cDZvy8P0SacU7Z3qLFaTQnH9geg5NSpmi71thaVddcebO57HrDpav8guq6vPKa7JLrmRevZ+TeTMu5lpJ9IzWzPjmlOf5s65lDNXu2pm4Njt++Oe/AgSvn4m7FJd26cJ5/5kzziVPCY0dEB3f37t92e1fI4LYVgxuXDoR5DoS49wW596xx61y1QBwwp8NvTpvfnJbls5t9Zjd5z2nwnNHoMa1p8dQm9ym9G1d+1vNO4KYR+no4JJgrJ2HgZAyciIbj4EZEuEHyoglPozxkES7SldagdfLRvNF5BSDx40p9QQMl9WZLPVkSN/bzWewfXTgPHbn9k4A2G14Dj3uDwblG51TRWJeoYPF4MY0FZsmZjOZFTj8c2ykryJJXlKjbW7U4fSBCo7uNwUkhlbVW1TSWXK8vuszPr6rNq6zJKb+VXVKTXXgr6+KNzNzqlLRricmNaaltGantqecF5/ZXRQdf2BSYtHNH2fHT/LhEQWxsx6lDvYejBveG3YtZez9q5f2tfvc3+twLXXxnnfvttW79gQt6A+b2rJjVucxVvHSayMu5zWNaq7tT86KpTYscGhZOrZs/tXaBE3/BNPHGoJHnn3EqAkzu6UJQcEM8EkZEwUkocDM9PMKIRzS+umb6y+glsmAHWYCF1J8n9eVIfbnDfhZSf0DqxwYN1FLusBdr2I39dCb7u+mcL6dyu+0AoSXA53CvMzhXNTiVUJnFYCqCVUJhlLKY7cvnPos9qshOVCQdVV/J1+I0mpMPbI/BST4saSi5XJdXWZtbVpd9qSbrUk32pbrcSw0FZQ1FlTVFFZfzCm5m5wov5okLC0QFeU1p8VUnDhQdOXjj1BnhuTN9547cOx714GDwo10BX0Ute7zJ8+GGRV8ELxhcM+t2gEuPr3OXz9ROL4dOj4nihbai+TaieRM65li3z7Jqm2EpcLEUTLNscbZqcrJsnGbd7GLTHeI/8uyzXNz+bpkgREcHATXAIqF4hDEeYUxAwUkImMcE8v29y6QxntL19tLACdKVFpIVXMkqS7CiPMhWGmgJLsX1txjyZg8tZP88k/1kGnfQERDbAC1cbg2Dc5UB5iEqaKwizRxuMY1ZQmNWWrL6fWe+3LNevm+tdJuXKv2YFqcPRGh0t7/ixM+v4GeDLNVlFddml/DzypsKr7ZX8sXXW9tvCAXXwB1eu6/W9lypFVddby4srk9JE8ZdGDx/6NGpbU8OB3+zJ+Dr7Uu/ilz8MGTe/TUzBv2n9vpM6l5i273IRjTPsn22hWgW0OkKdE7ndTrzOp143U68vmlA7zSgaypP7MDrmAwIJwLN9txGR253kM/I5zyN+xYqA11dpKEBGmqAhRri4TAqDrnHzfr5yQ3ynR4gTkF20jW2kkBr6Vo76QZH2QZ7WYi9dN0USYDV8DLey4XsH2ZwHzpxeyYCQmugkQPOOF2h/1H/ChbsUcFSvRIms2Yy+7GH7fAqR0nARMkyS+WZzVqcRnPyge0xOCmGJQ0XK+qzy+pzSutzShovlrUUXWkvr+262tJ7s73nlqi3RjxQK+qt7ei7IRRX3WovLOxPifvq3N7vjm34fu/Kb6KWPop0+yJo5qDf1AHviX2LbboXWIpnWXS68rqmAV1OvG5HXo8Dr8+e1z+Fd3sSMDCJd3sKb9ARlD4HXpcjT+gANNvz6h15/Gk80fplai1OEB0dA11dI109mJ4extCQTURkrJgqObxets1dFuIsC54qC5smi5wm3+Qq3zxNFmEv2+AgXW8vWTlhyMfi2ULOdzO49x2Bbjuu0Bqo10zgVtPZ5XRwTXsRlVmo8fdK2ey2qeyfFrDBCtqlgHTVRFXqPi1OH4jQ6G5/xampoLIhr6wpv7S1sLStuEpUeq2r/FZnVW13Nb/3cmPv1Zaea82dl+tFZdc6c/PuJp/99lz090dCv4nxexTpdn+Ny+DyyX2LrXvmWvTO5PW68rqded0OvN7JID/9k3l9E3n9dn+KDa/fhtc7iddpzxM78jqceIJpvKbpvMbpvEYXXoOLRWfwcq11+sPv04VAQDOlbzjJBF23BEtXnAAAIABJREFUepYsxl8WMV8WNku2cbZ02xzZ9jnyXW7yfYtlMfNkm1ylwfYSP6uXHtxf5nG+ceUO2AEd1kCzBVDD4vyxNOMtTuCKDFDKuOwOJ/YvblzJagfZjmWKE1tHrpVqcRrNyQe2/4pTS1FlS1G5oLCi41KFuKy6s+xKZ9n1zvJb3ZU1vVW13ZW1orJr7QWl7SnJt88deHJs89f7Ah9t9ri/dvqgj+3AAovbs4DbrsAd8JV2vMGpFoMOFgP2vIFJf0i/Ha93Iq/bDhTxJJ54Mk88lSeaxmt34gmdeG1TwUaHE0/kxGufyusP9Bn5bHcyehc+vWtAIBCogaE3z+RumId8i5ss1FUa4iTbOFO+c6F8j7t8v7figLc8ZiGY7guyl6ywfLGE+8NszuNp3H47cPa2gaOZbqKyq2isUjqrhApmyUGc6MxqO+7AUqeXe9cq4vcrkk8oLuxTV+ZqcfpAhEZ3G4OTUiLtKL8srrjaXX2z72rdwHV+/9Wa7uobneU3u8At8m4Ki6sFOYWChDjR4ag7Uf6PItwfr3V6uNzm4WLeo7ncxzOBr2YAX7kAj12Ah9OAL525XziDXN2eAgxMAfqm8Ho10mPP67HndTloZCqvayqv05EnmqIBbNIfmIkm8QYDfF5pcXqHkw5EFw833DeD99MmT1n4LOkGZ2movWyjqzx6ofKAh/LoCsXh5fIYN9A6hTgO+9s8XcL5ejYHfOvMREBoBfA5nGt0djmNVfZnqV6hJnYqYjGuudo+jAmVpsUp0s7LLuwbPhQmy0/Q4jSakw9sj8FJJZX1X6+5V9PwsLHtUUv3o+aue7XNPdU3xOVXOy5dbSsoF2TkCM6d7IjZ0Buy6H6Aw7e+E37yAX724PzixvllAfhKux/ncL+dzf16JveRK/eBC3BvGnDbCQyWeu3BqKnbXiMOvJ6pYBKi24nX68TrnQr0OgIgY1N43ZN44om8jklgTmLA3+fVL59TRfm7l3n+EyGwBdGFQHQhulio/hIOoXb1bMl2b1mws3SdvSx8mizGQ3F4ufJkgOpMsPLEGvmuxbItM6Vh04ZXTf5xMfBoLjDgBAhteI0WwE0WmNAr1+wE9nZdRgGVfpHGKAFYTV6zvjl1aDgzeSj++NNj0d9Gh/6YGa/F6QMRGt1tDE4jCsVXLe3ft/f80NH/RNDzRZ2g79otccXl9pIqYUGZMD277ezJzpjQgbWzHnhZ/+DJfe7FHvIE5YUH+5cFnJ/mcb+dw304E/jChXtnOjDgbNHnwOtxBLrsgU57QOwEiJ15Ymde13SLbheLXleLgRm8O67AFy68e9O4d52BQWfwNa09jjyRI6/Dnjew6nNy9qqqqgyhhroQ8NDgBAF3MwI50jM20LfGISMnmNYstX+6a5V8m6c0aIp07URZxHT5Xk/FMT/VhVBV0nbV2Qj5/uWyLXMl6x2fL7f6biHwYC7Q6wC0WgINXOAGC9wJrIzyNgkB7rhSQKXn0xjFltz2NUt/uHDqp7hzTw7tuxu1uSN03WBcrBan0Zx8YHsMTq+Vqh9Evd8Kux82Cgev1/ZWXhNfqmovLm/LL21LzxKfPNIftfb+2llPfKx+Xsx64cl+6c167sl+uoT9ozvn6/ncB7OBu67cgelArzOva5qFeJqlaLql2MVSNMNaPM9GvGiK2N2xe7HDgJvdnUUW9xcADxeAX6AP5wD3ZwF3ZwL9M3i9LhZd0zWhlCOvd/XnhVM1FGqkq6sPgejqQCA6EF1dcGdlAyzMYLYZKt6JdXvNDMme1YoDwbLIBSBOoU6yrbPlB5YqTwcrz4ep4iKURwLkO9ykodNf+tv+5MH7eg73/gxu10SgxQLga/ZaqaSxSsEqcnDhba5mr5VCOqPUhtu8wv1ezLaeTRHNqwJueC0pXzBPcFBbAvsJdjJ6pVA8bhHcvVXXW329q/xyV1mVqLhClFckSk7pPhJ9N9Lzsd+U7zwtfvbgvPBkv/BiP/XmfLeE88SN+2A+MDgL6JvJ655l0TV/Ytcih04PJ7Gni9jHtXvZjB6/ed1r3PvWut8JXHjf3+XhctsnS4Cv3HiP3YAv5wN35wL9c3jdM3kiF16bM6/FEWi0BxomAiJ/b/Xn4+xVVVUZGEBBc/TWJOnq6UF0TZHGwTbmDR4Tfg6fpzi6QXk2Rh4TKA2ZLg1xlEXNVez3Vp5cpYoNV56PUJ4Olu9eJouYNbzm/2PvPOCjKrP+n5lJg0xPnXan3ju99/QeSA+BUFIoqaRXQknvmfTe6CqiKIruYl9XXbEASi8KKE2UlsykTBD33f/nDrv82X3ltay7EJz5nA+53rkz3jwz3/zOc55zzqO6EQ9L0xde4HFv8CMp9C4Xeo3FfglgPUeHa5x2UOBWlXBvPRp9J4f5oor/hxCfl0OD9nhpn1FId0gEW/jgW3nWPnu/AU4zRuNnr7zyyQt7D+55+dCefR8/v/fA9qcOdrQfWZ9+eo3vhVjB5XDONxGc72I438WBV2PBC1HQyQXcI8HgZ4HcgwG8g+GyTxICPk5L/jQn/WBu8sHc5YfyVnyWv/x4ftLJ3KRzmQsvp2ivLBV+vRj6MhY6Hc49Hso95A997A1+qIPeU0DvSsC3RdAbAvANPvgmj3MgLtb87e+mqTKMk7097OAhESgEytHege3qWO/LPJfmbypaMNWUOz1omG7fOLk+3piuM+YFTlUnTDelzbRmzHTlTHdkTxsyJssXGzN8b6+QfLcIuhgCndZDB3Xcd8XQ6xC4n8O2FDjBmRDbKX9vBraFRt/BZD4r5j0nE+/kQdtZjB0APJvaQgPetO6N+1s0VZ4xGj/d+/Ine/Yd3PPqwef3fbJlx8HmihP5MeeXSb+Khr6OAC+Fcy5Hg1fioEux4BdR3KMR/MMRwk9jZB8v8fo0KeLT9ORPi/MPVa4/XFN6eFPOkfLME6UZZ4pTLmTHXFnjdyVRemkJ/0Ic90wk91godNiP+7En9L4GelfO/ZMYfEcEvX3PxDBU7wihTxbHzv6ucLK3h9XJFonCOc73oroMhPAvrA0zbVgx2V5m2jFq2rFlun395PpYY46/aUPcdF3idN2KqZrlU9UrJjcun1oXP5kXOrFKe2Mx/+pCzpcB4BEd9LGS+xYPfIXNfpnJfpHOfhZg7rAU3u6gMrYBjK0AYweT8QyH9TSTtRNgbgPomy27PA1TgdfTrVtN/zbqdHDvqwf37Dv43N6Dm8c+ry85lRV2LkF4IRr6KhI6HwGdi+Sdj+aeieMdXyQ6vET5aXLQJzkrPi1d+3F5/qfleYc25HxWmX+kpuBETd6JqrwTG7K/LEq+mBlyJUl6JYF3Po53Kpz7eSD3E2/uh1rwz2roz1roPT33PS/u+56897347/sIP/AV/sVX8Bcf3l+8uJ+v+j3Nnfa+uNfRwRGBQDra2vnQnLctkFzJDZ+sSDQZyk1PbZnYt9+4c+dUY44pP8CYrjGVRU5VLpreFD1ZEmLK9jem+xhX6yaSlbcSxN9Gci8Egac8wU9V3A8lvDdBzh46cw/A2kNn77I0qYT3yKDCLG2nM3aymDsZjB0A7Pjd28xzkAz0k2n70zOsoYifGX548LJ/CUWYjabPXt5/aPeLh7aMHakvPZ0Zcj5B+HUUdCES+jKaezZKcCpKcDxW9NkKz4MZMZ+UZHxUXfGJofWgofFQ46bPa4qP1RYcqys5WVtyoirv+Pq1JwqXnkv3v5Qo+TqeezYSPBzEPeAJva8C/6wG/+zJfc9P9MECKdzGKFJ+YIH4QKj4owVSi0k+WiD6KFR0bO3i31Eno7179zo6zkOhbBVuuIEg0eX8qKnqFFNr2fhw9/jLe42v7J8a7ZmqWmHK8TFmaU3FwTBI+f7GDN1Esmw8QTgeybsZAV0Lhy4Ggad14GdS8AMR+L4A3M9mPw8wn6OxdgNwz9etlu3Zt1Fgp24Hg7GdAe/mNEKlD1GAARLQR6L2eFC7SdRXMqw4/SbqZDr84qsHt2w52lR2Ojvs3BLh+RjwXLTgbAzvdKzgeLzs86Waw+kRBzfkHWxr+7Sn79OurkPtjZ8ZNh1tKjvZUHa8vvRodcGRypzDpauPZMeeXul5fqnwy0XQsYXQp77QBzroPQ33PT3vgyD5gWjvA0uCP06K+mR1/EfJEQcSfP8SpzwQo/o4WvVxlOqjSMWBSMXRghV3bv5uMspf3Lt33jxHkTu6K1BwLj9uqilnsmvT7aGu20/vnHj51cld26bbSyfXLzIVhJjy/SYLgo3ZPsY1auMK8Xgs93YY54Y3+xtP9te+nNNe0Ody6AAPfJvFeZMFbzzzHA3OgXiGxtxu2QptMwXYSoG3zNjKoI9SgT4ytZtE6yJRO0mUThKlnUQxkCkvZaZb1elB2fmZx/+iTjMT40d3bj/euu6LvAXnlkm+jOOdjROcWiQ+uURxPNn3cHb8oQ25h9ubD49uPbRlx6G+jiOtFccay441lR1vLD1eX3y4MueTslUHcpZ8uibk+ArlmUW80zG8I5H8j0OEB/yFBwJFH4UqP4nyObg09GBy1KcrY+DK9vTlB9cs+zQl+uPEBR+tCPloWeBHCb4H4r0/WuR1rHjVb4zTRx+8091a9ZjYJwf+qUTvjTfe8NLI2pf7n6tfOz3WPLNrZPL5HaYXnjX94ZXpl5+b2dkzM7Bxqr1oqnntZH3iZG3S5MbFptIoU95CY1rIeFLIjaUhVxeFfh0feiZuwedRYR8vCH0/MORPgSFvBoT80T9on3/wPv/gvX5BL/gGvuAX+KJf4Av+AXuCAp7y9RvVe496+ox5+Yx5WszLd8TL542KigdxOnf21GMyaN2tVfv3PXf37vf3b2/89s2xwbbH5PaGe1vu3Jm9f293Jm5f2Dl0sTXnUnnMpYLICwVRXxbGfFGy9HRl1smO2hNbtp58bt+pl/effPnVE7uePrm56+xw6xcjhtNDhlP9jSe6Kj9vKTtcm3e4PPlUYcyX+QvP5oWfzo05kbv0ePbyE9nLTuYtO1mQcqI49WRZ+qmy1JMla06Wpp0oSz9ennmiPPv4+rxjGwqOwpZ3dN3ao6UZX3TUfD/xm25Ic//3tB5YR8A6Aj86Ar+gk9GPvt560joC1hG4PwJWnO4PhfXAOgL/7ghYcfp3R9D6eusI3B+BX4DTrVu3zp8/f+7/fJx/4HHhwvm/2/2T537i5T/63ufPnbtw/vx9++rCha8uXJgYH7//O/ztb3+7c2f21s3rj4lNmowP3tv309PjX38N28W/28TFr42Xvp6A7SL87+WL45cv3r709e1LX4//wyzPwpdZ7KLx0kXTpa9N8L+wTV6+eOfa1b/e/O6vt6//z/iN7299d/Pq5WtXrkzd+Pbu+I27t777/sa1mRvXJq9fM16/NvHdN8ZvYRv/5rLp1o3/+Z//uX97P/zww/jtm4/JuI3fuvkv93b71o3H5N6ME7f/+te/3h+3hx38ApxGR0c1lof64Y97F2i1Gp1e6+2t9/Hx9PLSe3nqvPQ67U+99mHvqtVovHU6b73OS6v10+lDfHwW+Pju2rHzwV/p/Jenh3tbhnqaHwd7448vPnhvlw58+FRUxFPREU/HRjwVG/F0XMSz8VHPLY7cvST6+aXRzy+Pej4pdldi7LZlMduWxexYGvvUsuinlkU/nRC5KyFy95LI5xZHvrgk+uXF0a8sjn41IeaPCTH7E2LeXL7obFH6TF+1ebTJvL396kBNf1Zy0ZrVb7aVX9jeemWo6nJb0eHWoteaSvfWlz5fU7inMu/FyrynC1f+cbD97p07929vYvzWzs19j8OgDfU0bxvtvvPAvd2+dWN0oO0xubc9u7ZOTZruj9vDDn4BTlVVVf9cSvTQ/0IgbGztUPPm2zs62to72NnaouCdlR56+U88gbSxcUChHG1R81AonK2d+3y0Bxrd1dr64K904tjhynVrf+b6xn/6sl07hh+8t7Ovv9bGohiYlA42tQOkdkHULh6ti0/r5gG9QqBXCgwo6ANKsFMjaNEpGnXqRp2iUS1uVAhapJBBzOrg0XtAYAgCRiFgK5exncvcwWfsErIOBCknypZP1WRN12df3phU4ScLksv6UqN3F6Z8WLbyWG7kO6khO1dH9CYv7E1aOLgqZjgloitG/0xV0fez5vu3d/PGd6116/7TA/Iz3/9f1p2uf/tNzYbcn/na//RlA10Nxt82UP6LcLK3R82fbz9vnu08R1s7FAr562myQdnYzEPZYu3ssbb2eDt79/loNhGzrfef2uo/zjh98dprnQxqJ4vayaF2QtQuPrWLD3QJaF1CWrcE6JEAfVJgQMkY1EK9PsqOkMDmBVGNC2IaQ8IbAoKafTxb9EqDUtQjZfWLGMN8+hYufRvI2Akx3/AU3iyMn6pKn6rOurQhsdRTrOQKy1YsyUpIKFwU9Up61MtJ/sOL/RvCvVpi/QdWRY+lx24KVfaW5NwxW3H6xUkbjx4nNNoetnl2dg9u8vwTUvQjT9siEU4oO5ydA87WnujgSEajo8WkT57/JwV4zHHqYFDbmZR2NqWdQ+nkUbsFQK8Y6JXQe2X0PhmjT8bolzEGlcxBDTjgK+sKC2uNXtYas7wlemlzRFxzWHhTYGCbt75dL+9UC/qlrBEBYwuX8ZKa901m9NT65KnqzEtlK4q1fBBgBXsH+PgEcziifD/1UKxXd5RnXbC0fqGmZ0XY5tSIdE9BSfoa88yMVZ1+qZo9SpxsbGzs7FBotAMW4zjf0e7fkSa4NzIShbWzx9nZY+3tifPmi6iELav9bv3lj/e/E3/7298eb5z2t9EobQDFwPgHUVxqt4gGU6Sg9yvp/Qr6oIw+LKcPK+iDGnafr6ozPLIjdkXHomTDouSW2GXNkXHNYRHNIUGGQO9OL1WvRjgsZ+9WcS+lhk+VJ07Xpp0rjk+XswEqIJBqmGIVmkimuxLDIWqZntcVJmwOkbRFejZFagJY5LSUlBkrTr+8fuSR42SLRTtg0Q4Odra/etZ0T6ockCicnQPe3p7oOI/tjC0OFVzoLrtz/OBcwenMa/tbADLMEovSAZI7OZQuDrWbR+sRAv1SoF9BH1JxRtScETV7WM0e1HD6fCQ9YYGdUTGdsUs6F60wLE5qWZzUHLOsJTyyNSy0PSig20/T7yna5iX6MjVian3yTG3qqZyI5RIODWBxBDIPltDWEY20tcM62MtJhBQBZRlIWimmB7LdXdBOy1essOL0S6VpU2nmo8QJ7sLlYIfDODrNt0ch/02abByQKLydg/M8RxoOnaCgfVyVPL179O6Z43MFp7Nv7jdA5DaQ0g5Su7nUHojWy6X1cYF+Ab1fAvTLgAEVe1jHH/YWD/rKBvwUfQHa7tCA7oVhPZGRPXFxXYuXtSesNCSktixOaopZ3BIZ1R4a0BmgHvWTn1wdPrkuaaoq9cDK0AgeiwowaSwu3p2ORNkjkEgUAjnf3o6CdgSc5jEw87AOdigUatmyZVac5hxONg72tjiMw3wHu3+TJnhfGQtOrvPn6RnO21d5T+1qN7/6zPdn5wxOX7y5v51HbudROyA4rNfDo/bygT6LNA3I6INy2OUbUrOGPHlDPor+YN+esKCeUL++hSE9EeG9URF90TE9i5Z2LF/dlpjevCK1aUlya0x828LgwRDd8VXhk2WJ361LGY3yl9MoJA8aBeBg8O5wFSUCLu+37KyNQFl2q79X+W/F6Vew9KjVycbGHoVymm/n+Os9PbhO/V5PLyeUPc7OgYabl+8LfWlYe2f/M7Ovbv/+zOE5o06v729jw9LUAVkC5Vxql4DaIwF65UC/gtGvYA0o2cNKxoiSMarlDfmrB0J9B4K9BoK9+8MCBhYGDywI6o8I645f1LlidVtyVlNyetPy1S3xS7ujFnyyKm6qPPnjzIRFcpkr0ZXoQnLzABydsD8Sz/nHqaVLrer0i8N6jxgnGxsbJAJhC++T/qs9PUtTL5gopCPSHmvn4M123ZsbPrm7x/zm8zOvDN89c2gO4dTKIhlAchuX3MYjt/IoBh61U0DtEdD6REC/mD4opI+IGKNixqicMaLnDgcqhoJ1g/7qIT/FUJBmKEg/GOzVv9C/Z1FcR+LKlpTMpqTMxuWpzQmJf1y19Jui5LH4SBGdhcERsXgXPMHNzsHxH+z8yM+lS5danb1fIVCPcu70Ix/jLz+FtDScRCFR81B2JNz88nDhV0PrZ994fvYPO8z7Bu9++flcwenMm6818SnNAqBJSG8WAs1CSiuf2s6ndvJhr2+QDwzxgRE+Y1RAHxHSRySMEQ1n2F80HCAb9hUNe/JHPEUjXrJhf/VgmGdf9MKuhBTDitSGxFVNy5O3L1v8WuKiNZ6eJBd3DAaLRmPnOWERKNv/Y7CXWudOvzys9+jV6f/4RH/mU3DjSYvKzUPZBfNc3yqPn9w3Zn77xdlXRmdfHrp79rO5gtPpP/+pTittUEua1NJmlbhFCRnkzDYpYBBTOwS0Hj6tXwgMi+mjEuaohD4qoY9IGcMK5mY9tMWLP+rJG9VyxrTsMT131EcwEqjojwjpXJzQtDylcemq5uhFRT6eMhp9vt08R3sHBwdHe/v5Ngjk/zHCVnX6FdL0iHH61R7eg98DuPekxdmjYOe1xMi+GauYfWfP7OvPml/oMO/pvntq7uD0/nsNft6NXromvaYFNpVBJzWouQYFo10KdIqBbimtH150Yv7d5IxhOWNExRxTs7bo2Ju17M1q1lYVe6uGvcUTHAkQ94UHtccva0pI2RgVFcqFPNA4lK29rYMDCs7msntwDP/3sXXuNMdwsoSTfv2c6R/fADgUYYtA2qJQQVzXd9ctmt43Yn7nhdm9/eZddWZYnY7NFXU6896fW3w9DT76Vr22Ra9q8dIYfHTt3qo2vaRdDbXJWR0yWjcclqAPKRlDSubfTcEYltPH1KzNGhaMk5K1TcbapmRt8eQMBym6oxe2Jiwri4rQMegE+/n3cII74Nr8xJ8yK05zCSc4+RXmCfFTH+s/qHn4TwQCiUIgsPPsauOUVzdvvPPWLvMfNpufrjTvaZ1969m7F07OFZzOvvuOQStr18rb9aoOrbRNK2vzVHf4ebb7erZ5K9t0wnY5s1MCpx0NSBjDMtjTg03OGJLRRxSMUTVrVMXcomRtFzO3ShjbFcwtenAoRN0VG7lhYbgOADD2DigUys7OzoLTwwfU8ozV2ZszOCEQCDtblL0d6if+Qv7EJ/73p++pk45FeLcmZfKVsTuv75rd02HeXT/76tjsm0/fPT9n1OnLd97okIMdcrBLwe1WiTrU/C6NoNNT3uGn7QjwavfXt3mK2pXMXim9X8oYgudOzLF7JmGMyuhjSsZmDWtUy9oiZWwVMbYKGdskjG0aaDhIVxMa6k0D5tmiUEgUCmX7c7L2retOcwYnWxTSwc7WDvV/TYV/HkrwVQik7XxH5IYoybVnDOZ39phfewr29F4eNO/fPrt/290vj8wVdfry7dc7JYxOGbNbzOiSsLoVUI+C3auBer2knf66jmC/Vn99q17QqWL2KhgDcvqIDMZpi5ixVcgcE9PHFIwxDWtEzxzTgFvEzM0C+mYufbuIsU3HbfVX+wBUe5gkC04/Y8ncitPcwAmJQDjY29rb/ay/kT8JFcLGxhaF4nqg361JmH5rt/m9fXdef2Z239jsq1tmX9s2+3L/3VOfzBWcvnjnjXYZq03K7JAwuvj0XiG9V8LokQP9Kk6fl7Qn0LstNKA1QGvwFLSp2d1KOEliWEbfqmBukzK38emjfPpmGWOzmjXozR3UgCMC+maQvo1N3yZgDigYAWSi/f31vZ+asdoiEGtWJFozyn8FUf/VdSd4R2dbpKOjnZ0d6idR+TkXIGwQGAfbFC/6d89Uz76/b/bt5817B8wvDc/+YZv55X7z7qa7Jw/MFZzOvvu2QSdsV3M7FOwuPtDLA3r5cOFgv5TRr+b0+sg7Qr07Qn3b/TVtnsJONatHCaeZDynpowrGZiljTEQfE9C3CBljOvaAD79PA40IGZsh+hYOfZgHLHAnOPx/d+BhXvbfz89DIvOTkqw4Pe44IREIeztbBwdb5P//aH8ONQ+9BoGwAZznbUv3Nr+x/c57e80v9c0802R+cWD2pUHzs02zO6q+P/rB3MHpTYOG36YTtul47WJGFx9ea+rj0voEQL+EPqgBe/wVnSHe7aE+7X7qDh23W0nvUQB9crhKd0RJH1PQN4sZm/n0LTLmsB7q9QQHlUx4fiVg9kO0BS44e+RPeNeWPeTgSCnOzrZqTcods7Xe6RfnGf1X1QneGt0WhfptYhAwY3YopD/f9Uhb2p0/vzS7f2x2Vy2M056e2d0G886amS0bvz/yT11gH+t6p7dfb5Mw2tRQm05o0PI6JIxuHq0XpMGp5XxgQAIM6MDeAFlnqHdbsE+7j7xLA3YpgT4ZXL4xIKMPw0QxNkuZYxI4r29AyxhQM4ZVrBE1u1cMhLli7X/Kx0MgECjLtlfkefY92anfW6txf3lixH8bJ7gbxMN8jYeK0EOfwDja5gbxvn2m+c4b283P15ufa555rsf8bKd5t2FmZ/3M1srvj74/V9TpzJv7W7gUgxhoU7Db9IJ2NdQppsO9Iri0Xh7QzwOGpPR+HdjjL28P8WoL9OzwlnZqWb1yYEBKH5TQB6X0UTljTM4YkTNGZYwhNWNARR9UMkbUnD4lYyGZYP+PCMRDAuV/FycbBFKFx+wqzLxrxekxxwnxk8uHDwXnx59guTqNpYdM/2F09gWDeVeFeW+P+dlu847m2ed6zM+0mZ9puXt6zpQPnn19v4FBagMpHQJqm4IJu3wqTqcU6BEBvQKgj0/v5wN9EvqAltPrr2gL8mzz03R48bs1zD4ZY0DKGBLTR0RwjuyYjDlqWdsdVNDhJSkpHLSIpbk43nf2fuzvmSUxH17eRSAQcR7E/SXZP1hbrzzOOP2WqvQPuAJ02DClAAAgAElEQVQg1wONq2b3bzbvaYbXbfe0mXc0mrc3zr4wNPv80Oy+sR/Oz5l6p7Ov7W+mk1tY5BYOqU1AblMwDWpOu4zRJabDHSME9H4h0M8HhiT0AU9eZ4Da4Kdp9xb3ePL61IxBOX1ICqfGwvE9AX2LnDmsZgwo6X2WRd4BKT0BcJmHgsM/D/sULIvqKBsEEotEFIDub63PseL0uIci/kHBv/kTaWPZJHqeLTLdD/xqpGx236h5b9/M7lbzrnrz023mnZ3mPSPmfdtnX93y/dwp0Dj9+v56hkcDk9TEJLdCFIOAYpACBhm9XUTr5tO6RbReGdAjg7Mi+hWMbm9Rh5+qw1PQqYN6tKxBpUWIJPRhIWOYzxgTMUZVjEE1vU8BhzH6pUAS4Iq1s70nPj86+kh44oRCIlAivFOziv52Vd5dqzo9zur0o5/irzoJz72QSCTL1al/le/tZw3mV7abXxgw72o072qc2dli3tZifnbAvG/L7POdc2judOr1P9Yw3etYHvUcUgNIbuZRDAJqu5jaIaZ18uBSwg450K6id6jonWp6p47d7isx+Mo69GCXhtGrpver6INy+qCYMQQTZamMUsDTpx4p0C+lrWW50XFY24enRMBOHhLpZGefxHQd8GS9U5Nvxel3ok6wz2KPQoVI3P/SkGR+aXjmpW0zuzvNzzabn2uf2VY/M1o9u9Mwu6fbvK3q+0/emCuhiJOv/7GK6V4Hkuq55DouuY7n0cgjtfIpnSJalwjo5NE6RbR2Jd2gZbXpOe16douPuMlf0+4l6NSyejT0PjVsFqLocHEUFxgRwm2PeuRAr4RaBnlIPFznOzoi4BnUj0TM4bAeEsXBOjUqaaNeTKs6/QqWHnGBxi+Xpr/HMhAIJGG+fWm48OqWdXde2WzeO2Z+vtu8u938dPvMWO3MaJV5a4356dqZ4XXf/+UPcwant/ZX8ik1PI9aLqmOT67he9QJSI0CSouIYhDT2sW0TiGtU0JrUwLtOrDdm9/sJ2kO0LX6Kjo8ud1a+j2i+pVwiG9ACAxCFqIkcDpSt4RWySWpPdxwTk7Ih+Fkg5hvi4qmEoc8GWN65tsVuVZ1+hVE/VcD5b+cn//9CtjTQyARkDt6x9rQqRcMs6+MmV8aM784ZH6mxby1fma4ZmZLrXnLevPYupmugjvv75srOJ3605vVSk6liFYlINUIybV8ci2fVC+m1EsojSJys5BsEFHahZR2EbVDwWjXcw2+EkOAqsVXYfASdejYXWp6n4o+aOnF1y8C+gXAIA8Y5gHDEnq3jFrDJ2s9XLBO8yw4/e9RhUMUDIxDmYA0rKWPaRh/2mjF6Rev4c45dbLMpZFwXrSfwP2DxtWzLw2YX+o37x0xP9s5s61iemvt9Gj1zOZN0yMF0335U/WrZ99+bq7gdPpPb9SqwGo5q1pEqRaRq4XkWgG5TggT1SwmtwjJLXyKQUBu45PbxJRONaPdm9fiI2zxlbR4iw16sEPD6FPT4bUmBX1ACvSLgAE+MMgFBuH+5tQ6ISWESfUgEO0eUtPugEQGknAdSuqgnj6sob+z3orT7wAnBAJpZ2s339F+dZDowmj5nb19s3u6zM91zmzeODOYOz2ycXqkyjxUPNOdNtm4xpQfOvvqlrmC05m3X2uUAvUydoWYXiWmVAspNXxyrWUeVc8nN8JQwY5fK5/Sxid3SKjtWmarN9TiLWzx4hv0UIeG0akButX0ATV9SAW7fP1iWKP6eXA8sEFKXizjchlMR0dHOOpgqV+Gy5gRCFu4IxiCNN8+i+vWq6MNaOkjSsbb66w4/Q5wsiiTLZUwr22V381d9bN7e2afM5i3V8/05s50pM105033l830FU23rJwsjzWle87uG5srOJ1967VWAa1Jyq6RQ9VyZo2UWSOm1vItYQkuqUFAbpKQWyTkFgHFwKO0CSjtCppBz2nx5jd78Vq1YLua0amCcepW0fs19EE1o18BDIjgpao+CdCkooWzPCguRHt7+3sSf6+fngUtBNre1s8d1yCndGmAARWcVvt2uRWn3wNOKLjPgYJNfG1TwtTuBvPuFvO2ypnBoumWxOmGJdOG9Jm+kunuoqnaJFNRiGmNZvbl0bmC05m3XmsUUhpE1DopvVbBqpIzq6RAjZgCu3xccj1ErodITUILUUKyAXb8YKJa9ZwmT26zjtOmoncpgC4F0KkAepX0Ph2zTwvL1IAY6BcDnVpOLJvijsVZygfhxoSW/AcUAomwQ6JA7Pxs0KNdRetWAX1qoE8JvFGeYw1FPPmhCIuX4rDcm3Wye6356Trz5g0zA9kzbaunKyMnKyOnW1bPdBdNNaSbSmKMGV7GJMnsSyNzBafTf3q9VkavlQJ1YnK9DKiR0arFlFohuY5HroVINWyPOqZHI4fUJCY3y6jNInILj9IuJBvU9CY9u9GT06KhtytoXTKgWwbAC74KoE9F79cxBtT0QTEwqGaniRlMZ7ydLbyYCwdzbBBIpC2cP25vH0Ujtipp7XJapwLoVsONMl9fl23F6feAE8IeZde0VHltS5l5Z/XMQO50R8pkZZyp0H+yImq6NW2qZe3kusXGrADjGqUxSTT70pzZkOb0u2/Wabl1Kk69nFkjB6rklBoxuZ5PauSR6rmkOo5HA8ujkUlqBElNEnKTlNIshCMT7TJqs5bZqOc0axkGJa1DRu2W0nqklv2gJECfmjngwx5UMoYVjA1SgO+MtbdFWTqp2cB/mJBwuTsP61TAJ3Xp6AY5zSCjdippPQrg9XIrTr8DZw+BQFJw818qiTLuqp/ZXjHdlz7VlmwqXWBM105VLJpuSpvctMKUt8CY5m1MVRmTxbN75wxOZ//8VoOO16hmNSg5tRqoUkWvllJqhOQ6AbmBR6rnkRq4pEY2qZFFboLIjSJKnYTcLKS0iymtalqTltGkZbWo6e0ySo+U1mvZW61PBPSK6ANa1qAnOKhmGeQ0T1fcfAd7uCP5PZZQqHm2dpFkYqOC1qEFDCrAIKW2y6idCtofy9da1el3oE5IWw2L8FlH2vSz7dNbqqb71051pBnLwo1pWtOGxaaNK0w5C0wZXsZU1USSZGIpf/aFwbni7J1557VGOa1JTmtW0Ju1nHo1p0bBqJBRKsXkGhGpXkRqFJCa+ORGkNzIJjfxyXVSUp2I1CqhtKhozVqgUcts0jJblbROKbVHQuuXUntFAJzsJ6QN6thD3tCIjrUYcCE42iMRtrYIWwQSbsTCR+NKWeRuJdChBbrUQJuC2iQjt0mpr66z4vQ7UCc7W2SiF/3atg2zz7Sat1Sah8qmmlcbSxYaM31N+eGm7FDjGp1xpcyYKJhIgMZj2DO7++cKTmff2t8iIMOhcBmtWclo0oCNaqhWya5W0Kul5HoJuUFCqZdR6iRwzgQsViJyrYjUICY3y6nNWqBJx2jSMpu1QJuc2iGldEloPRKgR0iDaxAFwKCePRIoKpAyGTg0ClYneCcaooN9ojvRwCH3iGk9GgtOKmqLnNwqpb5iVadfnv86x5ZxETYIgpNtZ6J6/LkW81ONM5srZgaLphpXmsqiTYWRME6ZvsbVKmOS0LicPx4PjS9gm5+ZMzidfnN/A4/UKqAaJLRWBdCkYTXpuI1aXr2aU6tk1SjodVJyvYxcKydVS0i1AlKDgFQHG7lJRmnWUJt0jEYdq0lNb1XBU6AOKbVbCnSLaZ18agef1icGBr24LT5CHcnFHmXrhELSnOaF0vCbxKQWMbVDSOtS0DrVtA4VrUNJbZZRXi7Psjp7T7izh0QgOG5Of6mOndrTPrOtFl607Vw71ZA8WbFsct0iU26IMVVnTJYaE8UTS/njkezxYLb5qYG5ok6n33mzXsppFALNIqBVTmvRMJp0nCYvQaOnqF7Lq1SDVUqgTkapl1LqxKRaMez+wcYnNYopTUpqkwZo1jKbVIxmNa1VTjXI4FlQh4zWCbc4p3bzLfEJHyhLxvQlO4cBHmvEjHIlUKel1WuoLUrAoKa1aakdKlqnktYqo7y8zorTE+3sIZAIeztkiNDt0li2eXcLvFbbkTXdnDxVu3Ry45LJwnBTprdxtdqYKDYuFUzEwdJ0y589s23OqNOZd99uUgubFVCLjNUqpbcq6K0qVouOayFKWKsFqxRAjYxSK4Wz+GolpFoppU5KaRCQ64WkBgmlUUlt1Fj8PQ2ME2wyapuc2imjdYhp7UJqh5DaraJ3+Arq/OTVPooaf3mVHqrWMOp09EY9vUUPtOpobRqgTU1rU9Fets6dnkxnz5IRA9eQIhA4J/uycP7E7grzrpap5lVTFRFTNfGT1UtMJZGmDG9jmsa4Sj4BswSOh3NuBbBuajnTW+aMOn3xzuttEmabjNUuZ7ZbSpvaNJxWHbdFL2jxljR7ies0nFoFrVZKqZVQaqWkehm5QUZulJJhjRKSmqSUBhWtTs9o1tIMKhinZhm5VU5pk1HbZDSDlGoQU7vE1H4tuy9YYQjV1QUpqr0EVVpWtY5Z58ls8mY1e9JbdYBBC7Srafs2WEMRT6g6WdJh4BId0M1pd16Y+cXWmaebLXkPXpMbIyc3LjZm+xtXSY2rZKZE4UQcZzyCfTuUfcubfUPDmd42d3B6e79BTG2WAq1ywKBmtuigZk9hk07YohEa9OJWLzjVtUEDNagYdQpajZxSp6DVKaj1SkqDjNwgpjQJyY0yaq2e3qhntGiANthno7ZKqK1SqkFObZNTYPdPQu2S0Hr17K4QZWOIotZHVKPnVGrp1XpmvRen0Zvd5Mlo8QLatcCrG63rTk8sTnDKpo0NMoDvdtCQan6l0/xs43TLmsl1IVOVcZPlMcZ0nXGl2JgsMi7lTURzxkPZt/1Zt3TgDR1neusccvbebNRy6z0lDd7KBj99fYB3Q4BPU4BXS4De4K9p9tM0B3g1+OvrvNV1XtIanahaK67S8uq0nAYNs05Ja5RSGyWUBjW1wYvTaNGoFhWlRUo1SGCKOkTwQauc2iKldMnovV6ilhBNjb+s2hOs0jGqtMxqHbPWk93gAzb5sQ2e9Fc3WZOMnlicbJAIpAPKLs2ffXnrOvO+DvOztdMdaycr4ic3xpoKg4ypamOyZGIpdyKeMxHBHg9i3/Zm31DDOE3NHZxOffDn2mDvulD/ugVBdQuC60ODGoKDGkICG0P9m0MCm0OCmsOCWxYEt4YFt4UGtAV6tfpqWnyUzb7yJl9pgyevXstqVAGNCnKDlt7gyWnUs5rUQLOC1iyjtMoo7WJqu5DaJqG1KKitckqHht4aKKkL0lR68yu19BoNUKOlV+sYdd5Qgz+/xYezr9KaAvsk4gTPmSzTJxcn24YlivHnqs1728zP1Ez3FExWLDPlBxnXqE2JQuNS7sQizkQsZyKcfdufc0vPvqFmX9dzJjfPGXU69d67NX7qOl9VvZ+mwR+2Rn9ts7+u1U9j8FEZvOUd3uJOL2G3l7jHW9TtLe7wErX5KFqCvBpD/RuCfOv8NHWewnotWK+D6r3FDb7iRh9+g47ToKI1KchtMmqnhNYuohrktBYdq9kbag4QNwZpavyklTpOjRqo09JrtYxKPavKC6rzhV6qsvaKeDxwam1tdf/tHh4eJA8Pkrs7ScNn7C6Nm361fXZ/l/lFw8xozWRtqql4oSnXz5ipN6VojCu1ppX6iWXaiRjN7QjdzYXaa6Fa485tDwbKT5861lq3rrmm7HGwvc/vePDevvjLu50LdN2h2p5QXW+YvjdM1x+mHwj1HAj1HArVDYdoNwepxkKUowvVQ5H6odiAwYSI3uWLOxOXtSUu70hM6k5M7FqW0LkkpmdRZG9caP+ioL64wN4Yv66Fus4wZXeYojdMNhQoGwqQ9y/Q9Mb69S4K7l4c0h4fbIjybVuo6lyo7AhXtUWoDRFaQ5TuldZNd+/M3r+927du9HfWPw6D1lxT1m2ovvPAvd28/m1b44bH5N62jnSZjBP3x+1hBzYPe+J/n7946eKHv+HjwIEPPzzw4YcffvbpxzcunPjrzUt/vXXpr9cv/nD1qx++On33y6M/fPH53bOHfzh1+IfTh++ePnz35OG7xw/fPXb4+6OHZ48c/uHbaw/e4fT05KWvzl18POz69X+6t5mJ8ctHD10+8ne7cuTQlSOHrt63zw998/mhb44cvHr00NVjn109ceTKyeOXT526dOrURfjf05dPn7586tTlUyevnDx+5cTRKyeOwHb888tHD186egh+56MHrx45ePXzg1eOHoLPnzhy+cSRSyeOXDz++aVj9y44dAm++PClY4dvXLzwP3/96/2hu/v991cuff2YjNuVS1/99YF7+/77O5e+Pv+Y3Nu1q5d/uHv3/rg97OAX4PSwt7Cet46AdQTujYAVJ+s3wToCv9kIWHH6zYbS+kbWEbDiZP0OWEfgNxuBX4DT0NCQ8jd6aFRqlUql02rWRPl/2p1zZ3+X+enaqea0yZplk1WLJ9fFWixmsiRmsjTWlBs9WRA7kR97a03Mt0mxV5bFXVoaN/7S8w+OwbkvTg/2NA10NTwO9tofXnjw3i58eeZxuKt79/DGH/fefWBKPTF+a/tYz2Nye1uGO+/cuXN/6G5/c3W0KLsvM6VnzYq+tKSeNYndaxL71izvTlnSm5IwsCphaPWS4VWLh1OT+zNW92Ws7s9Y3bEsoj0myBAZ0LzAp32BX1fsgt6E6NHlEaMpcd1xC7oD/Lv8YGvz9Wv29mn28WkK8G4J9m309+2IiuheHj2QsGA0MWZgRexAzILhZYvG1iwdigjrCQrpjlm6u6Ju8vb4/Xt72MEvwKmqqupH2iL+qlP3lpzg/slCj4/rF89uKZ5qXGHK8YJTilKEE0vBiaXQxBJoIhaciAXHw9i3wzg3AznfajiXVeAFBXRGDF4fmTPlgyePffYrKgL+Qy/Z/dTo99///6/szRvftdat+w/9v37p2zZWF88+sB3B9Ytf1UWFlftrSnWyUr2szEde6q0o85SV6MWlOtFGnbhSL6jWCaq9FJv8tOt9Nev9dEUKdj7HNZdGyHbH5pJwhUz3cjGrUkqtVTLXsz1KiMRCHL4IRyjA4nKw2BwMOguPziCi1+AwuSRyiZi5QUiuk3E2iVnrqG4bAUqVUrhRyC0R69YFJPTl1xpv3n4YRffPPzqckAhHO9slesaZ/rSZkZLJqkXGdKVxpciYLDIt5xqXQhPx3IlYaCIWuh3GuR3Mue7FvqLgXNKCFzTgMSF4bciK069ZjpxLOH39VV1ESJmvulQnLdKISjylJZ7SYp2kRC8p0YnKNaIKnaBax6/ylG70UZV7KtZ5q0tUvDy2a64HPtsZu9YNl0d1KRXSN4nItRLKBoZbMQEGKQ+Dz8fh8yxEZWIwazDolWhMOpFYLGCU8T2qRcAmMTPfwyUXjy9hMys8fTeEJ25MyBtc32a89biqE7xTBgKBneeQGyT8bqxwZjB/sizYuIoLWwrXmMgzLuONx3HHI9jjsdybodDNYM633uAlFXjRG/xSCx0VQdeGrTg94TjduPhVfWRImZe8WCcuUAsKNcIirahIJynSCEs0gnVqwQYdv1LHrdKLNvrI1+llZTp5iVqYy3RZ64zNwmEy8Zgcd3wJl7xO4FEtIG0EXItxhHwsLhuNhqUJPsBmzsekOWFWOaFXYtCFLEox5L6R71olouWTXdKJxHwuuCkgrDp+9ablWQPlDcZbj6s62djYoFAoD9z8psXayS1l081Jxiy1MZVvXM03JkMTK7jji7njMeDtMPZ4OPtWMPtmEPuaL/i1lnPBD/zCEzqqgL4ZteL05OPUGBVc5iktVAvylYJ8laBAJSjSCAvV/CIVVKLmlWt5mzRghVaw0VtaqpUUqUQFSn423TmDgMnAwJbtjC8E3Uu4blU8j41Ut1ICsQCHz0Zjc7DYLDQ6HY1Oc3JKdXJa7YRe6YTJcCPmAs7rOC4VInqxgF8gVK7zC9gQHFYbnVC7KHG4ZL3x5q37Tt3DDh6Nswc390ciQXfMUxlBMwP5kxvCTRlKU4bcmCoxJkETSzi3Y6DxKAguvI1k3wphX/fjXPMGv9KB5/zA097co0ro2mYrTr8DnCKDS/TiPCWUKwfzlNw8BS9PyctXcPPl7CIFt1TD26DiVCrBDTpxiVKQJ4XypJwsMjEDg8lEY9LgqREmn04shJwreR4VgGsp0bkIT8jH4POx+BwMNgODWT0fsxyDicdil2CxSXh8NsWljEfbqJZtCgyrCouvCo+pDF1QHxreEBYxlptjvHHjYRTdP/9ocLL00kbpmc7vFSycaVgxWehrylKaMlWmNLkxiT+xmDMeB42HQ3CBUxDn2yD2tSDONT/wa0/onB/ncxX0mQq8ttWK05OO09dfNYQHFukFeQp2roSZK2PlKqBcBZir4OTKmYVydomKs0HFrFQwN2hFRUooV0jLF5KyPPAZaEwWGpOKxaRisblkXCGLAOPEcC0lEIvxxCI8oRhPKMLhczCYVRjMYiw2zsU1CWBmcYVFMlm5SrXBN6AqNLI2bGFNaHBdoG+jv0+Tn9eW1NWm69fvY/Owg0eCEyxNOAe7Mi3rXH7Q1PoFpnwfmKUMuSlValwBV91ORIETMdzxRYLbAazrwezvQjnXgjlf+YAnNNBBMfeIN+/bnVacnnicLjQu8C3yFOVJgGwhda2IulbCsBg9V0zNkwCFcma5nL5RRi9X8wplrGy2y1oGIdMVm4mG1SnVCb0Si1nrhsmjEjZAbhUs12JnQiEel4vFrcXg1mKwa7DYZGfnlQxWhkyZ7+Vb5OdX5u+7wd+nMtC3JtC3wd+70Vfd5K1s9VY3eym3rlpq+u7bh1F0//yjwWm+g90qEfmjFO14ke9kib8p39eUpYGdvWSBMR4cj2KPh8FBiNsxgltB7BvB7G8D2Zd8OWe04CEx9ImAe9iT+802K05POE7XvzrfFKor0otyheS1PI8sPilLQM4UkrOE5GwhOVdIKZAApVLqegl1nZKTJ6RlUnDp7pgMPCYdi7HMizApaEwqDp3til3HdKlgusE44fC5WEy6k1MqHpdGoWQIBblabaGfb6m/T7mv5yYfdZWnrM5T3KAVNKl4rUqwVQkZlLxWNW9bYtxjihMKifBjuX6w2nu8LGCqxMdU4GXK87Sok3JiMReeLy1kjy9g34wEb4aAN/zZ33qxr+rBcxrwuBQ6LIU+U0Gf6qFLY1acnniczjWHqIq1vFy+Wybkkgm5ZoJu6aBrJtd1Ldc9W+CRL6QUiSnrJORSOWMtRMpwxmRYUEl3coLjEGhMFgabicbmErBlZGIF3a3EhZiHxWXhMOlEXBaVkisR5/l4FwT4lfrpy72UG/TiSg2nWsGok9EaJdRWEaVVAG+/0CqgtQlp25dEmP65iOG+Ij148N9WJyTCBiTO27JYM7EparLU15SrMWZrTNkaU5rclH4PJ85ENBzQuxnCuRXIvulnwUkH43RCCZ3QQ8d8QBinLVacnnScLnzZFCArVHCyea6ZHGIai5jKcl7DwKUycBls57WgSy7PvUDoXsb3KBUDmSy31VhMKhqT7oTOQKOz0JgceGUJl4ODvbtsZ0IJxbnQg5hLJKx1JaSTXbJAIFcpzvfRF/jpir1k67S8DQp6lZRcK4Q7HDZySS0gqRWktLDJLSxSC4u8LTbMdO2bB8n50eP/Ek73tvFCIpCEefaFOvrF8ojJDSGmPJ0pUzaZpzPm6Y2pcmOayrhcOBHPG4eXbtm3Atm3Qjg3Qznf+XKueHHO68BTntAJH/CIL/gXLXTRGor4VQ2u5tIy7oUvGnwFeRJqNkhMZ+NX07GrANwqKnYNGZNKx2Uy8GvZzvlc51LItUTgkcZwScJgVjlh09CYDDRmLRqTgcGuwGDCMZhgDDYci1vjhislO5dR3Avp1FyAnMNwy+VSCmS8Yr2kVC8uU/M3yBmVYnI1n1QLkRrYpAYmqYFBagA8Ghge9SzSWFToY4YTEt7ByRdwfi/Td6oxdnJjqClXZ0yTmvLUphyNcY3MuEo2kSgej+XDKUUBrFs+7Nth4M0w9lUf8EoA+0tv8JgOOuIFHfQB31GA50fmTCcja5LRz8w2+pcko+/Of1Gv5+TyXNYy8WkMXAoVk0hBp7g5rXJGryJj0mjYLAYul00oZbuUcF3SKbgUJ3QyGp2KRsMChcEkYXAqDJaBRmtxuDgiMc/VuYLkUkly20B1LwWAQgY5n+6cx3IrEtNLldxSJa9cxtwopFTw3Kv4HjUgvEtQDd29mu5exXKrYrkPR4UYHyN1skE42Npp3PG74xXjzUum6qImK8JMWUrjKpEpU2lKU8DZeivF4zHQrQD2TW/2DU/2rSD27Vjwm0DORW/wYiDntBd4XAd9puS+KwTfEYMXrDl7T7o6fXf+bK2akccm5jAIaQxcMgWzzA2zAodehXda5Y5OpWKz6LhcFqGE7VwCOaeTsClO6BQn9Co0OtUJneaEWYPGxWFxSQRigbtriZvLelfnSlfXale3Gle3SjeP9RTSOiapDCKXiGjFcqBUSSuTeJQL3Tfw3TfyPCo47puY7huZbhsYbuVMt3KmS09U4MTjgxMSgYScnboW8q7XR0+3xE/Vhk+VBxrTxMYMqSlTY1whNK7gm5YJxmOg2+HgTX/OzSDw+kLw23Dwkj940Rc65wse1UKHNdABEfQOF/qTHLxgXcZ94nE6d7ZaQc9jEHIAfCodt9wDG0/EJGAxK7DolUT0Gnd0Og2TxcAVsAg5IGGZBzYKjY6Yj1nmhF7lBC86rbVMnIoJxFJX5zIXl3XOLuVElw1E503OrhXOrlWurhUktzIWqVTKKVFxiiSkIoFrCc+1mOtcwnEuZbmU3DO2cxHTpYBFMET7j1+7+qPzpQdP/lfmTggbezvbeDH585KQma7E6YboqZqFpjy9MU1iXKs0rlFOrBAYUyQTiwUTi/jj0bxb4dD1hdC1QM5lX2kxI9YAACAASURBVM5XfpzzvtAJHXRYDh5Sgh+IobcF0FtS6Aurs/ek4/TtubMVMiCHhsuh4tYwsAke2DgCLg6PhzMYsJiVBKdUCjqdjs1h4JMYRDHeiTlvnhCNjsfh1uJxhc74UjdiibtzsQux2IVY4kwoJRJLicT1RJeNzs4bXVyqnF2r3dw2ktzWQUCZjFMsBQqF7vl85zyIkM8m5rMIeUxCDhOfzcRnMbEZLGx9tO/tR40T4l71BgKBdEXPNywUfNewaLI5bqoybHJjkDFDZsyQmTJhN8+0nA/v2rQIDkLcigKvh3OvBnAuaTlnFdBpLXhMCx1RQ0fV0BE9dEAF/UnK3c8HzwzMmcZg1rnTr5s7ffvlmRIROYuMzaJi19CwS1yw0XhcNA4fi8PFY7HL8NgUd8xqCiadhgsj4ShotBhPiCC5ZzE8yuhuG6muGylu5WSXEjeXYhdCIQFXgCcU4QkleGIZwbkc77KR6FLp7Frl4rqR7LoOJBULKIUSWp7AIx8kwu4lC7+WSchg4lLpmFUAeg0FXRPmffubR6ROlh56SBQKhUQikQikLRK5EHT7IMtrsiV6qjp0cn3AZKHOmCMz5cpNmVLjGvlEAm8ilj+RwLsZAX4XyrniD36tB79QQsck3DNe0DEVrE4nfcCjAdwPPcG3FeBLIPtEb9+DInvi2OHKdWt/5sf2n75s145/2hnRitPPHPB/CUVcPXs6k+Oa5oZO88Aku2MiCFgvLFaLRvtisAFYfAgOF+OMWe6OXkHGejtjvYjEFIBawKSVsDzKAbcKsusmktsGd5f17i4lzoQCAi4fh8vD4fKxuAIcvtDC1XqC80Zn141uLhvorqUgqVTGKpDS8nju+ZBrHuSSDRLWArgMEibdDZPhgm0M8Bm/+shwgjeVRNnZoZDw/l1UrMNovPTbmujp+oWTFYGT63xMuWpTnsqUozBmKoyrFePR3PGF4HgM9J0feFXPuaADz3txziiho3LolBd4RAkd1UGfe3MP+kLv6cD9YvZuNvNojxWnJ3zd6fKZ04lk1yRnbJIzJpyAFWOcXOztMSgU0c6O7OgEoJ2kWMwCZ0y8KzaciEtxxue6O+e7EwtdCcUuxFJn4joX5/VuLhvcXNa5OMOFgwRCPh6fh8XnYvC5WLjkqQiHLyHg17kSN5Bdy1lupWJKiYReJKAUcN3zQJc8BiHfHV/gjC8g4PMIuBY/30eGE7x/OLx9uD28syQCGcNzO1EZNdO+bLImdHKDr2m972Sp5yS86KSCSwaTROML2OOR0O0l3OthnEt68AsteC4IOuMFHVVBn8m5n+m4n/vwPvHk/kkFvS7lvMRhPQuwjvdanb0nHKeLZ84sdnePxmMX4vAaHNZ9nqMdEmWLtEfZ2cFJn0hbjMM8NQabiMOkEXHZzrg8Z1y+K6HAmVDoQiwiwopUhMeX4AjrCLCDV0wkwCfxOBgnmChcHg5fQMAVuxGLqc7FNGIxi1jMcilhuxYxiXk0Qj4Jvh6uOCTgsvHYOl/v249KnWzghslIFMrO1taOTZj/VILidlP8TEvMVO2CyY2wOsFW5G1MVxhTpRMr+OPR7PEozu048JsF4Fkl55QaPBsEnQmETnhDH0ugj/XcT3ygD3TQH0Xgixz2c0zmM3TmMauz96SHIr44fVro7EKdN4/thGajsW7zHF3t7ZmOjtD8eTxHR9l8tO98TBzGkpiHwWbhcTnOuBwXfKErocCFUEDE5+Nh1y4P9u7gWVMRAdaZfDzunkDlYDF5eFwhEV/iQSymORdRCcVUYinZuZRELCQTct1wOc7YtThsJg6ThsOsxjtV+3k9Qpxs4EkTAoV1sFurpZ+viJhqjJ6uC5+qCJws954s0pkK9KY8nXGNGO4MsYRnKWIHb8RxvwriHpNAxxTQCV/ohD901It7QMz9kxR6Uwa+wmc/x2I9TWc+xWBsBuiHunusc6efOSd58LI5lBVx9tRpFoFIn+8kcULr0Vg9GhOAwcRg0IswmAQ0ejkak+yEXolGr5qPXoOG04vSMGhLjRM2G49di8dm47A5GFwOXKwBFwtmYTDZWEwuFpdr8fcKcPhiIqHEnVhCIZaQiUVuhGI3QokbscgFn+2KSyWiVxHghPQUHGYlFr0K51Tl8+jUCWED44RCohRk3FuZfpMdCdNNUVOVIZPFmsli9WS+ypQuNRVojamSiSUCYzR3PF5wOwa8FsL5QgN9JoaOKqHPddCnWvCgnvuuiPuGiPMqj7OHxX4aYO6gM0YAeg+Z9kmXFacn3Nn76syZhWRyOB4fg8MuxsK2BItdhkEvx8DZD8loeNF25T9stRN6DdopFe2UjkZnWkpxszBwqlEWGpPm5LQKg16NQWc4Oa3FYCyV7dhCPL7ElVjkQSx0s8y1CMQiIj6XgE8nwiH4ZDw6GYteicGkYLCrcU4rMehNPt63HpWzh0AgUEjb+faoJBn5YkXUjCF+qiZsstwHxqlIY8pRmDLlphzFRCJ/PBoyxnInlotuxfG+CeackINwzrgO+kgJva+APlBD+7ngH0ScF7ns52GcGGNUoItEafMgf9TVbVWnB2XnZx7PIXW6fPZsCoe21BUXh8fF4HBReFwUHh+Hwy3GYpZhMMsx6EQ0bCssBylOaJgoJ6c0C1EZFqiyLDjBdKHRaWh0Jhq9FovOwWHz8Fg4xuBCKHSGNaqYQCjE47Nw2DUYdDIGnYhxSsKgV2KcVmKdknDo5Tj0CgJ6vf+jxAmeOGEd7DNl5KtlAdMNC6Yq/GGcSj1NuSpTptiYJp5I5I0v4Y4v5k8kCG7F876Nhi4Gg5+JoM9k0EE19I4AziR6VwHuY7H3cljPcpjPQcxtdKCHRDG4k1rcSX/p7LLi9DMRevCyOYTTpTNnVgDkBGdsPB4bjceHE/BhBMJCAj4ah1uEwy7BYpbiYFtisaUYTKJFr1bBUKHTnZwyMbA0ZaExuVhsriW7HPb08LhcIq7ADZ/vis+Do3Y4ONiAw2Wi0SkWMpdj0Mtw6GVY9BI8Op6Ajidg4pwxsa6Y4iDvm49s3ckSh6BhMW0B0K3K0KnqwKkK36ky78kirSlbasqQGlP4cLuiZOlEouRWrPDbQPBqEOe8H+dzEXRYxv1QBr4Jgm8JwTeE7N001lMAYzubsZPPGqBR29xJzR4eTW4eH3RYcXrCnb2LZ87Ekz1iCNgYAi6aiI/A40OJhGAiIYxAiMDjYwn4eDxM2iICNo6AX4THLsbDrmAiGp1scfwynOCa3EwMJsdCFOzjEfC5rrhsD+xaD2y2KzbfGVdAgIs40iwcLsOgF+NheKKImEgCJoKIiXTFxbrjFrmiF7mhSx8lTjYIgp1tEuR2ssBrpjFiqsJvap1+slA9WaAx5angfIjVkolE0cRy0e2F4HUv9jUv9lde4Fkv6JgOOqjlvi+H3hJCbym5r3DY2yiMESp9M8gY5tA6SORWd1KjG6nBzeN9K05PemTv4pkzcSRSBB4fScBHEWCcwoiEACLBm0DwIxAWEPDRBHwMAeYqznIQQ8AvImCXYmE/MAltcfwsvh/s42HQa3GYbCI22x2XTcJmk7C5LnBZYToWk4JFJ2HQSTjsEgI2loCNw2OW4DErcJgULDYHIBeJOZkkfAYB3ej36JZxbWxsGGj7IV/G+MaA6drAqfWepgIVrEtZUlOW3JglN6aIJhZD43HQ7RDOrWDwWhD0pQ48ogAP6cEPVdC7UugNMfSaHHyezRqj0vsptF4qtY1CbnYnNbuRGtxJda5WnH6NNG0qzZxDzt7FM2diSKRwAozTPVtAIAQRCX5Eog+RGEAghBMI0UQYpxgiPgoPIxdHwCXAMys4XHEvu3w12ikTjc7GYHMtYfFCD3wBCZ/jjs31IORS3HOY1DyIUSLmbVBL80HKChfCYix2JQabhcZmY7FlDHqzv1cFj17kjG/39Zt4JKEIBAJhj0T9v/bOBCyKI+//DKBi5JibgeEYZqYbGGCAGUDuYzhlOEQOUVFEjmHuizm4ERQ1okaj8YxyyH2DMYlJ3CTvvtlkN2+yed0kosaYxAioyGGIR9zs+/SQGBZdJfP3rxiqn3qwursai2/Vp39Vvzo6zMrs/VWM2+XhP5QE3FR5I+6HfLeJPLeJPOZEnudYCmNkGW0knj4SR7+e7PhdrPPnbMePXOH3XKHTDPgtZ/pJJ6jTkVZrR9lHtq0hIRRVWVpuIpCqLUnVBKsKHOk9YJ3mgXVKsbZehsHEYdEJWHQsGh2JwXDQGA4GG47FhmMxMVhMPAaTiEHuThmxRAw61cJc50M3X29mmm2GLHwS6vpOyKguHiO2RAuI5kp7q6ql7rtiOC8nx+1dmbR/7aqD69fujPQtdrASYDE5Zua5S8yF5mg52XprRFQ1x19Js34xLOTZzIpAoQzNFhjznYnfCNmT5SE3Nb435awJEWtc4DmR7zGR5zaWxRxdBiO753How9GOg4mM84GOn7g5fsCE33GC3oLpr9Oh15zo7TD1ENn2JRJ5K9GqimhZiSNVEUibCVab8JZleOJ7O3YCV8R0H8Ms48+Rdfr27NmVZBJXZ5oSMOh4LHoZBh2p6z5FYZBOVLiuHxWLRli6j5OuB2W2zgzxm+eYmeaameVZmOVbmPHR5nwsWkAmalzgXRGhtatTmnLWNuZnNQhy6sT8YyLBK+kJNSzHzRSylkiQWGCEWKzczqY6KqYmLbUsyGdHbPToM3JFoCDzxYciaGNFoTeLg24qfSaE7hN89wm+J7LAKct5LIMxGkO/xqENB9G/D4G/DYYH2NCnTPgvnvB7btCbML2PTnvNnd7hSt1nbbONZFVFsNyIJ27EW1YSLKvwpAosoQSLf7cG4KRPe+85wum7s2dX2VjFYyxiMYhbLwaLicEgfohopOOEidI1/CJ0F6eIiscirb5kXfcpw9Q003TJBvMl68yXZGJMs/EWfDJJ6eRYGRK8Ly2lbsO6Zl5Wa35WizDnuJhfLxPXySUHs9fsDvXa4UnbTLOptLUrZ3lWcEK2pKTUZK7fsiJp37qMsaFntDFYrD32w/XsH0rCJ+TeE2LP8Q1O49lO43ku4+ucx9LhsXTHUS50PZR2LQIaDEa28L/gD53xgd93c3zPCz7hRG+nUTuZ1AYnh11W5E2WpHI8sQKHhHIcsRxLKMMSijH4d2t2AOs0S4s0PdnzhNPA2dV25HisBVdnlEIx2DAsNkJnnSJ/JSpKx9UyXT8KMVA6jx/S3ntBN9RrbroGY86nkgtZLtWcwD2pyUdycmrFgnqJoEmU3yrKa5XmNynExwsU9Sr5MUHuvoSQ3QGM7c6U7TD8clzSPp54Ny9/54bsHWvX1qoKJq5fn17lHhp/8ssHFxigZB5WF3m6OeP5jIl8xniO8/gGx/H10HgGbXw1dWwl/QYX2ajoarzzd2HwBT/ofAj9Uzb0Nkw/yaS3Uh0aHRzqKA77yLbbLUmbCKQyHLEcTyzFE0pw+GIcrgRLKMbi390BcPqDW6dvBwbSKfbLsOhoHCYC6Swh/aUILIaj8+9F/mqgwn71niOMWSA+9EQ0OhVjsZaAyyFbKp2hmsjgV9OT6tZn1OZl1Qnz66TC41JhiySvQ5TVKVzfLuG3qRSNWnWDSnkkM+1gtM8eJm23M7w/Pv6wVHlAIn2Zl71rw9qGkqKbI09rj3LU/YWCKJSF0cKdfpTBfM8JvstEHmMinzkh8hzPcRnf4DS2GhpLpo0l6vb9iqBdCoLOh0BfBkGfeMMfMOA3qVA3ldZkTzlOdThmT9ljZfOiJdJfKsbiSpEGHqEIi9Ni8ciCSgQn0Nj7g+P0zcBACtWBi8NEYdARWMQ0cXQshWKwoRhMOAYdhbGIxqKjseh4HCYBh0sgYNNJ+HVkYp69tdqFtt2ftT8m9Fhq3PE1K1qyVrXkrW8WZDeLeE1SYaNM0iQTtYpyOvNXd+evbhdmNcnyG5TKeiH/1ZXxL/sw9rrAh+Ljj8iUByWyV/Lz9uZkt2ysvHnjaX1BA4VCVgwiX5kxNKQsWdjOoYzw3CbyXcf5rhNi9k0hG9nLf4PbWLrTaCJ1lEsbWUa7Fkb/ygceCHf8PBL+2Bv+swt0mgH16GYSHSXbHbC2f4lkU0OyriKQijC4EhyhCIPTYHSLkzG4Qizu9I6a6dYWLB+c3qJ7RPw5aux9e/58GsMlnkxeRiRMOR4isNgoLCYeb5GKR6/DYzYQ0UIiTmtFrKRab3Fx2OwB1/i7vxzKOhzp05QQ2rkqsWvD6s7cjNbcNe15mV2CnC5xboeE164QtRcoWtWKVpW0XS7oFKzryE3tyE1r461vzNtQm5m+n+O9z93pMJd7RCQ7KJYdEIoPCsRd1S/+MPrUvu+kwwmFfLTJMJZo8WEiZTyXMZHrMsFzmRB4ICsF83RjTSvh0UTq9WX0q5HIktsBb+gf/o6fBTt+7AN/5AX/2QPuodEa7CmHbexfIdvutrLZaWm12ZI0tVdGIRanxmC1SHuPoMXg3wZ9pz+6o/y7C1+tYfmsYDgvp1LiLPGxeItkIjrLFiel4csh0i57m1ds7A7b2dXDlEZfxvFIn7oY3/p4v+blgZ1JASeTfE6mBfZncPuy03v5mb3C7D5JXp+M1yvn9RaIe1SqTq2iSyPqUok7ZPx2QWZPbmpPVkLHGm5zeuyRSPYBL6g2KqwhO/sYn/cqL+9VXl7fpsrJ0adonZAVTijUQpShika4kEybyHIcz3KayGOMCxADhexKudppLIU2yqVdjaQPcqDzS6HPveCPWY5/9Yb+6gV/wIZPOUGdVFq9Dqe91rZTU10rCaQSZOsZpI2nwwmnxeDUACe9WHq+hnG/O39hNdtrJdN1pQucTCGvsrEUQVYbPR1qvGj7mJQ6mkMrxaEdprf7unVy/ZuXBzUsD2xaEdKeHt2zOvb1tOBTSay3kthvpoe9kZX0Om/166Ksk/L8E0phv0rapy3oK1Se0Aj7VaJupaRTxu/ir+1ZH9ebFtSV4NPAYRz1pjeGsFpTuS1rEpsykhoykl4rUUyOPC1XhI4lQyNDQ6zxgr3uVoMpVMTrsBZCvHl5LuO57mOrnMeW05GvCcbTrkXTh8Lo59jQ3z3hD1nwX7zgv/hB7zKhLnvacVuHI2TKfrLdHiubGkvrrUSrMjwRaelhke0yNDqQ1Bg8wOkRzblH33qOGnuXL1zI9vHOYntks5l5bKaU5VrqQ9/mS93jSz/oQalHZkVT25cyO+JCOtIjm1M5jamRzemxbetTu/PW9uWteX1N9NvJPqeT2KdXhr6TGfcWb+Upae5JlfiEVt5fpOgvUp7QyF5Ti06oJZ0FsnaZuJ2f2b6W27ncrznStX4pvTnAuSPGpyNuaVuCf1Ni4EllzuT1p/VBGmTtraGhsdEC8qJFdd5W15Kp4+m08TXU8SzH8UwnpMuUQB2NoY1E05DNVZZBwxH0ATb0oTP8PgOZoffnAOgtV1qnHe2Ijf0+a7t9Vna7dKO3lQRkxLZE17qbokiDRlgqANZpHlinKxfOC308JQH+yuDA4oiQsghfrS+1gEGodiHvc7GvdaW2+Lq0LQ9vy0xuzVzetCa+aU1cy/oV7fmZnVJej0LUJ8l7Kyf53fTQ99LD3l237O2clFOSnDc08tdKC0+UFfWXqnuL1X0aWb9K2K2WtKlVzaqCRhGvKSulMTmsgeN2PMCpLZLVFsNuiWI1RHv2C9ZMXhue3l1/aPzJOMp1W5AjC/hdTBf3BZKvp1DH0qhj6dSxNPpYGjyaQB9dRrsRTbsaQR2Mgi5HQpej6F96Qx85wu/SobedodPe9DeZ9A4Hh0Nku90km50k8nYiMnpbhiOW4YjFOIIGg1fpwhRUAKdHm6BH3H2OrNOVry5IAr2KokI3xkVXxkWURfhKmfa5NhYqW9xWht0hjk/r6uQOQU67OKctf3VLblprzsoOXmaXKK9LKezRKHoLNa+rFaclWe/y0k7z0t/ir31DmndSLT9RUtRfWtZbVt5dUdFZWtSlkXWrxB0aWYumoKlAWS8W1GdnNKTE1HMDjycENcYFNC7zr4v27RNkPFWckCWDKEMu3uLv4ZSxFNpYCnUskToWTxuL032sKZJ2LYQ26Ee7HEK/HAN9HQmd8Yb/6gy/D8FvOdLfYNL7nGgtDg6HbGx3kcjVyGQiywo8AlIploD4HpCO0y9hykABV8QjmHnErecIp6uXvq5MiNqcGLkliVu9fFl5hJ+MYccjWsitidV+S1/dkNOmLuzUKjuUwnZZXpskq124vl2U2yEVdBRIugrVveWlJ6qq3qwoeUcjfEeR/ZYs50254DWltF8t69cougs1HSUl7aUlHYXqTpWiXSVrUSma1QUNClmtML92w9rajJTalfHHkiKOcQOOxiztEaz94alZJwPEPCFb6sXi0Z+GOIwvp44up47GIp9pGo2kjYbQR0KpQwG0y2z6N770SxzorD/8iSv0kavj+wzolDO9D6Z3UalNFMoRsv1LluTNeMsqgmU5jliExRVhkFCIxWl0RGl0405aDP4d4NnTq733HOE0fOnrysSoLYmR25JityZxy8KXiuhWOTizAoi2O3VNs6aot0jVr+H3qPidKnGHkt8izmoSZrXKhB2agq7i4r6y0hMby09Ulp8sVb+pEZ1S8k4p899QCk4UiPoKRF0qSbtK2aZVt2q1LRpVo0rWoJDVy0RHxbxX+RuO5Kw+nJl6eNWKI6nxryZFvBof0CPKfHo4IV493ZZ64TiLvwU7jOrs0mgM7UYUbSSEdt2fds2PNuRD/8YDOsuEB/zgs37w35mOH7o6/skFftsdft0F6qYhPr19VjY7rMibCaT7OE2N2xbqBnA1GLwGjbj4tFjcO2BWxB8fp4sVcZzq+LBty6O2JcWoQzzXU/DrCGitj89hnri7WPNGkfRkoahfK+5RidvlvEZhVpMwp0UuaVMXdBQXdpcW95UW95cX95YX95Vq+4vkr2lEJwv4JxT8foWgVynoUorb1bJWpaxZJmmUCupE/KO8DYey1+7PzjiwfuWBzOT9GcmvpCfuTY7elxDWKtlw89pTdEUYohD3XhQO8z/BDmPxyFjtjUj6DQ7tuh9tkEW/wqJfZtG/cofOODueYTl+7gN/xoI/cIPfYcCnPODXmVAnnXqYbL/TkryNaL2ZaFWJtyzDEQp/beNpsfhCPE6DwSE74mIQF9/bNWAY9w8+K+LqpYuVcWGbY4O3JXK2LI/k+zLiydg0slVpzLIGhepEeeHrGwtfK1f3F8u7C/gtkuzjgizElyCXtqiUHcVFPeVlfeVl/WUlveVl3RsruspLe4rVvWppn1LQK8vvlvK7pPx2Gb9FnNuUv64xd1VD1sq6dalH1608nLn6wLpV+9em7c1I2bUy7sWk8O1xnDpxzsRTxAkZdEJwwlt8HOAwxkXGl26E00cCaMNs+rdu0CV36CsWNOAO/y/D8ROm42ds+GMv6E8u8OuOtH5HehdMbaZRXiHbvki03kQgbdS19IqxeO2UHw+NLdDNh1CjcUo0pgCDVWIwp7Zvn+5aAbMiHtFfmn7ruWrsXazkBm9eFrA1IbQyLjTNg84moGMoDpUrVrcUlfRXb+7fuqWvqrS3RNmhzG8UrW8QrD8u5DUp5O1F2p6Kir6qjb2VFb0VZX0VpT0by7sqN3aUl7UXabvU8g65oFXMaxHmNgtzjvM3HM/NqM9MaFgZWZ/CqU2NOrqKeyg9Yd/KhL2piTtXxG5LjNyaEFkrzZ+4fm16lXto/El59hCWjAwN/c3N3vO2uxHjMBpLGwmiDbvTr7jSL7ohbbzPPeAv3ODPXeC/MeGPWND7TPhNmN5LobXbOxy3pdTZ2e8j224hkCpxlhU4xKdXpDNNBRicwgIjt8Co0FgVGqOwwCgtkA8Gvwlw+uM39r6qiPWvjAncvCxEG76UA5GtzZZ42zlUrc5qrazurdnZt31796bKzmJViyy3QZDZIMhsEvNaVfLO0pKuqsquqqquyoqu0uKeYm1PaWFneWl7eVlraWlroaZZJW+UCRvFeceFefX8nPr8nGPZGUfXJB5LDj+a4Hckwf9gQsAr3MCXY4N2c0N2xIVuiw+vlQueME4VFRXGDzsWGBsvWrRooYmJicliJ3OzNg+7azHQ2DLH60FOV1ycvmE4f8VkfMFknPF0OcNknGE6f+Tp/F+ejLdcnfsgxw4a3EiFXrWnHrKnvmxLqbayqSRZbyRZl1laFRFIGgJJTSAW4AkKLF6FJ6hwSKQAi5fh8KdmuiI+KdcKS9X8uRCaGw5Of3V9cebTuZCrqTy0Hj9y9+7d+9m7fm14+2btHMne1o2q27dv3c/b0KWvSmMDVWFLJYGsNHe6MwmLNTNlw9BWnrB9267ul/b21Ozort7cUaxpkec3SnIbJbmtCkm7VttRXt5WVdVWtal148bWkuKOIk1nkaqzWNNWWtxcUtJYVNRYqGlUKRoV0kapqF6YXyvIO8rPezUn68ja1MOp0YcTQw7FB+6P9X85aumeaP+d3LDtSdwGlfLmk50VMTw8/I+HHZ9//o/Pfz0Gvvhi7PzZny6du3fp3E8XB346P3Dn/Lk7FwZunT9364IunD83eeHcDxfO3Tx3bvzcubFz50YHzt0YGBg5O3D97MDw2bO/hC/PDiHhyxlhUHdl8Msvb/774pNbt24ND12ZI2Fs9N9m8t++9eMcydjw0JWxsRs///zz/Sp7795P164OzZHsXR0enJ63n+7eGf76wpWL57+7cO7rc2cHvvziiy++uHD+/LXvB8evXR+/PjJ+7dr41avjw4NjV74f1YWxwSvjQ0Pjw8NjV68iYXh4bGhofGhoYmhwfGhwbGjofhgdHBwdvDJ65Yruwcs3rnw/cvnyyOXvRr69NPLN1zcuXbxx6eLIpa9GLl28dunitW+/GR0c/Oe9e/d1+0+R39HY+0+/AlwHCgAFphQAOIGaABR4YgoAnJ6Y04exawAADFRJREFUlOAXAQV+B0737t27c+f2HAn3/r0h+89//vPunTtzJG8//fRbX/9f//rXvXv3fvzhhx8nJ6fCrcnJX8MPtyZ/uD2J/PwPYXLq+u3Jyds/Tt55bJicvDMVZqSc/O3Zn+7cnl7pf/7557uIcHOiWO/euTMzb3OmTO/evTu9Xzc9n9PjvwOnL8582tVaN0fC2c8/m/5nfP/dpe62+jmStw//+0/T83bm008L83mlAn6lgL9JKNgiEtSIBLvEgpfE+bsl+Xuk/D1S/m5p/m5Z/kty/m5Z/m7klP+SnL9TLkCuyPl7VYIDReJjJeLGUmlzqbS5XN5cpmwukTcXS5qLJa1FkrZCSZtW0qaRtKolrRpJa6GkGQni5kJxY6G4UStu0SIXWwslHzQduzfNs3dzYvxkX/sc0e1ET8v0N9HE+GhvR+McydvpU/0//jg5vVgfGv8dOL39Rt/0AcFnG3/37ZPT/565PIzb091tYmS0xMjI3NgIbWxEXGBsvWAB1WSRk9kSF7Ml7uZLWBambLSZF8bME2vqjlnigTb1xJiysKaeOFNPrKkH2pSFMWXhzQJJZnG2FtlOWCHTUuRpK2XZKZk2ahei2omogYlamKiG8Co6XknHyek4CYyTwFgJHSuCsFIIq4TwSoighAgNspy7t35zRl+/NrytUv1si/L+/z7j27hXh65UFIru3322kX27No2PPdHVuACnWZbojE9Nd3d365ZXIj+mPmVvYIAy0M1x1G2vgTJGTQVDI92KZkNkkwADXRz5qbuL3DJCGZguNPQimmVQ8UIXgoxlU8C21TKtNK5EjaulxpWgZhCVTnglhJsKciecFNLhRMcq6Xg5TJDDhDqAk17D3wAnfaa0zRKYRyebgVNXV9evFP2//otCGSxeYOSON9vgbK32sld5kgvZFC3bQeNho2ZaqV0tVQxLpSNBAeFlEFZCQ4KUipXRsHKdyVJAuDpZNrBOjy6+h94FOP0BcdJNjEQtWbTQ386yJMR9c6BLoZd90VKa1puqZdmr2fYF7mSFM15Gx0ppWAkVCQoHrIyKldKxMjpGAePqgXUC1unBF8Zz1Hd6otYJ2SsKZWiIM128kuX0Slzw5iDHMj9aqb9zib+z1o9WwLZVuBBkdKyCipsiSuqARQINJ4NxMgahtoAHrNOD1emxV4B1+gNaJ90qTSOUoeECY2MaCasOZ+9P9HsxwmMzx31jiFuRH6Ri2ymYloiBcsRLIJwYwv3yEyaInQliV9IxgBOwTg++POandTJAPBjGCFRGhotNFng5EKvj/A+kR+1IDKmIYGl8aQpPa5krUcrASZzxYme8mEGQOltKXK1ELiQRgyhlEOoUwLOnz3sWWCd9VHuQWz2u/P9zRcxwZSw0Nox1tdu/Pu5Q1vIt8SHaABeZB1nmQpA64yTOODEDL3EjSpgkmbu13MNWzrSRM63rVPl3p83aBo7yWZYvwOmPjxMKhSKZv8ALZO5dF1+THqWN8JL6QBIPG7GHjdjdVuxOFrtbSdytpe42Mg8HGQtSeDvVFSkATrNEaHoygNN8wMlwgZExjYjNDnHfuDxQE+kl9IGFLDshy1bMtheyKQIWRchyELHpYh9nsa+bxN/9aKnm7u3f5hkB6zSdmUfEAU5/fJx0XSkjYyMjB6JFqgddFuQh9IFFLBuJh6WERRZ6OeR70fnejjy2k8CXIQ5gSoI8assBTvpUDICTPqo94v00+1tPre9kgHyzxMgQZbzAyIiCQy93g8WBHhIvSMqyEbGshF52Am8638cx39tJ4OskCXCVBnvUVgCc9KkYACd9VJs9M49I+TRxQrx8BkYGKMR17mxN4gX7y4PYQm+ayMtO7OMg8XMUBrgIA13EAS7SIDdZqGftRoCTPhUD4KSPao+AZPa3niZO0319aNMlqUuXlsWECn2oMi97qR9dGuou5niJOZ7SEKYk2E0S5nmsqhD0nWZflPdTApzmHU4oFMrTwa6cGyH1dZR62Ul9aeIQD1GEryzSV8HxkoR5iMI8azcVAZzuQzL7CMBpPuJkhbGQRIQUh/uKvakyP1ga7CHmeMs43opIL2kkS8LxOrapBOA0e4rupwQ4zTucDAxQJgsXxLM9XkxOUPi7SZbC0mB3SaS3jOOlCGMpI30kkb5HN5UBnO5DMvsIwGke4mRgaIhysiNVpawojwqR+DlLAl1l4V6yCB8Zhy2P8BVHBx3bWnl32vp2MO40S6IATvMRJ5SBgekLizaEB9akJRaEsSRBrnIOWxrpI4nylUT5SWNC67ZVAZxmidD0ZACn+YiTATKyi/JxdNi+OrUkLkwaxpKHe0mjvCQxflJuqILLqd8KcNKnYgCc9FFt+gtJ7/izcpQjTnOUgQEKhcUsUSVGb0mJU0T6ycK9JFHe0lh/RXyYIj6ibtsmYJ30KFmA07zECaHJyNAIxfVmlCZHFywLEEd4SSK8JTG+0tggKTesdkslcEUAnGayMV/XO00ftn1IHNnSBYXs2uJARudG+qu4ocIIbwGHJYxgC8O9RZG+RzcDR/nMujQbuoB10ke12Sj72DTPsrGHWCdky6SFixbE+3oUJkaLIpfmctx5Ia68IMfcEPeDldo7YEb571+QC3CavzghX9oyNGJR7QuXc4vjInJCmFn+0Hq27Wo2bU+R7A5YPghwmmETQGPvIU29Xy4h+/QZogxJGDQvirM3c42Y47fKi57mapnMsN6hFNwB21YCnABO/5mfGXcQ754hytjEZFGUJ/OoQFidlprq5RpLtYpzsKqRCwFOM+rSbE5BY2/eNvaMdN0nIyMjQzcKeUdmxmGhZENIMBeGo+wo1SLxbWCdgHWa8QoBjb0ZJun+KbINn44nY0NDN1tC5UrucaVMHcdNZHpEO7lViWUApxl1aTanwDrNU+s0NZRrYGCwcIGxJ4VYvSK8QyXcsT5lhYcb18W1Wg5w0qdiAJz0UW02L6rHpnm2jnIdToitMllgvNTBcltiaIc084ggY50PK8nVdatSAazTY0vwwQQAJ4CTUQDVakcCp4O/ulGSww8KSHFz21agunML7GT0u+sGwOl3S/bgO0m/K8/aOv3SjTJZaBgCkV9K5LTmJLXJczXcqDQ39+0KNcBJj2IFOM1bnFBTPL2wyCjS2XZvUvjxzKhWaUZNRupab3aNCuCkT8UAOOmjmh7vrQcfmSPWaYmJcawrZf+KqGMrQ4/lxh/Kz8zx992lUYFZEQ8W2WOvAJzmO06mJgviXR0OJMccSQ7anurbLM+ShQe/rAU46VMxAE76qPbYt9RsEswR62RmsmC5K/XAiuiDywNUYY77sxPUMSH7ijVgCuxsCnFGGoDTfMfJfLFxsjvl4IqIvQl+WSxbWYJ/YULkgbIigNMMVGZzCnACOBknMyn7k8L3xC9NdiL5O9uKYziHKsoATrPhZ0YagBPAyXgFk7I/kbMrls2l4QnmJsm+HocrysFq3BmozOYU4DTfcbJYbJziRjmQEPZilEeYPcbECOULUfaVg11g9akYACd9VJvNi+qxaeaIK8LCxDjF1X5fXEglx9Xb2gxlYEDBYbdpCkBj77El+GACgBPAyTjZ1e7luJCyEBcP4hJDlCHadEm5Qg5wepCWx14BOM13nMxNjJe72O6JCy4NcWPqcFqy2EQtEoEpsI+F58EEAKf5jpOZiXE8w3YXN1gb7OaEfwFlgFq8cKGUlwdwepCWx1558ji982ZfiSp/joQHlg9+UqoWzJG8Ndcf/Ne0o6ury/AZHEbmixdyGbY7uEGqIFcI+4KhodHihQtF2Tm3/n017otVmjmiW3WF8va0bWGuDl2pKBLPkby98tLm8bHRaaX68KjBwy8/7Op333790QfvzpHw/XeXpudx5PrVjz54b47k7dzZf0zP28WLF195Wsf+X48D+w8cOXTwRHPdp/3dH3Q1Hz966MCB/QcPHHzv9Ol7P927n71bt3785OO/zBHd/uev/33v3m95+3Hyh799+P4cyduZzz6+M+1TCfcFnBH5HTjNeBKcAgWAAjMUADjNEAScAgX0VwDgpL924EmgwAwFAE4zBAGnQAH9FQA46a8deBIoMEMBgNMMQcApUEB/BQBO+msHngQKzFAA4DRDEHAKFNBfAYCT/tqBJ4ECMxQAOM0QBJwCBfRXAOCkv3bgSaDADAUATjMEAadAAf0VADjprx14EigwQwGA0wxBwClQQH8F/g+W4o/TMfuAfgAAAABJRU5ErkJggg==;" vertex="1" parent="1">
          <mxGeometry y="1280" width="282" height="286" as="geometry" />
        </mxCell>
        <mxCell id="8mCYiyi_JvIo1W-B_qy7-4" value="" style="shape=image;verticalLabelPosition=bottom;labelBackgroundColor=default;verticalAlign=top;aspect=fixed;imageAspect=0;image=data:image/png,iVBORw0KGgoAAAANSUhEUgAAAQMAAAJGCAIAAADQznfeAAAgAElEQVR4AeydBXhUx/r/1/W4rbvGiCMhSHAPLiG4QwghCQkugSDFrUgEIhCstEhL21unLVAcKtSpocm6Rej9/09SKL1ACLRXfk93n3mSzeyc3ex33s95Z+YdYfwz+AgqEFTgn/9kBEUIKhBU4J9BEoJGEFSgQYGgTwhaQlABWoEgCUE7CCoQJCFoA0EF7isQ9An3lQj+/nsrECTh713/wW9/X4EgCfeVCP7+eysQJOHvXf/Bb39fgcZIWJm/sEe3xG5dErp0bt2lU+tO9aljp9YdOrbukJSY1D4xqV1iUpuEtgnN2zSPTYyNaR0T0zY2pl1cbLsWce1bN2+f0Lx9q/h28bHt4uPbNW/ernnzNnHxzWNiYqKb9IiJiYmPi2ndunlSUmLHDq07JiV0TGrVqWPrjh0S27Vtndg6Pi6u4Z1ioqNjY2ObJya2a9u+U4dO3Tt17dXlQeqWfOilI/e/bPB3UIEnKtAYCVOnjNKoIJVcLJcCcikgkQKUBKAkIElCFAGROERgEA4DCMCH+WyIzQRZTITFRLlsXMAlAAEOCHARD+VxUB4X4/FRHh/mcPksFovR1AeHzQQALoGLJSRIEWIJIZJSoIQEMQSAAC6Hw7z/RiwmkycQISBCYpRCItNKlXqZQi9X6BUq044dRU/89sEXggrcV6AxEqZNHqlRgsr7JEilgEQC1BslRBEgRfxGAgYKUCEH4bAQDhPjsXEBhwT4ElhIIUIKEhEiQX0SEkIhyueJ2Cz2fft96m8WiyESsXFMRBGghBDLSEBGAlISeIQEJoPJZnNEPBEMIhRGKSmZRqLQ1ZNgCJJwv66DvxtToDESpk4eqVX8ToJcCsgkgJQEJcRvJJAYRCIADgowIRvnsnA+ixRxJCBfCgvkmEiJixQYIINFUlAsBcUUKMbFApDH5jIZD27mjcPAZDKEAiYKCygCkNT7hCeSwGAxGGwmm88VwQBC4qSCkqulSq1cqQ+S0Fj9B1+7r0CjJEwcqZVDSgWokIMKGSiXgDIJIHuIBAqDKAQkQCEuZuNCFilmSiGOAhEoMZGWBHQSQCcBNTioxiAlAslgSAKJUCGXz2KymgYDk8ngc5kwLCCx30mQEI/zCTQJNAyMehgghCIlKqlCK1cESbhf1cHfjSrQOAmjNHJY3ZAUiEIKyyiQ9gn4/YSBElQsQYQSiCsBuTKYo0D5GlxkoECTHLIoYIsCNskQIwnrSUhDQHIUpEAhzGcLOMymdBeYDAaXw4QALo6K6t0CKCFACocaWkdc7sM9DiaD9jRMBoPFYvP4IhhBKVKikMrV23cUNKpA8MWgArQCjZEweeIolQxRyxGNHNXKMWU9CXTTCAPqk1iKiWWYSIYK5AhPgfBUuEBHiA0S0CSDQlRwuBZppkHDVJhVgZmlqFGKaEhYjoEEKABFHO7v/d0nNpF+JwERUjjdKqM//SkkMBkMNpvDF4phDKNIUr5t245gVQcVeKoCjZEwcdwoOQUrpahKhqlkmFwCSwlAgopJWEjCQgkqkKICBSZU4HRSESItBRgloFkGWZVQmA6O1mOxBiJKT0SoiTAVbpGjBimmphApBiGQSMBns57WXXiYBBIH6t3Ck0hgMJgPvx2ThgGAEQTfsvXFp6oQLBBUoDESJowZKcUhOYUoJHSS1XsDAubjdOKRMEeKCuSYUEUAGhLQUYBRKjbLQKsMDFUBkVoo1ojGm4g4IxmtI5upyVAlYZYTOimmJFESBQERl/1w6+ZxjuFREigCIHEQR+lRVN4fWkf3G0e/vw+LzeEJAXDT5i3Bag4q8FQFGiNh/OiREgySEbCMRGUkKsFBAhHhIBcDORjIaSBBgQlpDCSgUQaYZYBVBoYogQg1GGOE40xYcwvR3ETGGshILRmuJqwKwiDFVFKUwiFIzOc8zSkwmQwelwmDXBwVExhA4nQiMJoEGOTzuaw/uAFGPQy/k8Ckuwxc3voNG56qQrBAUIHGSBgzagQOAxIUkuCwhIAJFMQgEQpyECEbBdgEzG1oHTWQYJKBZjkYooLC1FC0EW0VQrSw4i3MRAuaBCJKV0+CEjfKMI0Ek2IQBAg4T3MKLDZDKGJjqPhBII+O5WEQjkIYAopFfBb74RbR7xA8/GzN2rXBag4q8FQFGiUhNQUHRSQCkihEYTCB/E4CImYT0CMkKMDQehKi9HBzK97c8oAEPEpH0D6hngSdFJNRCIqIBPxHbuoPmzCDwWIzRCIOhgIPSKAD2zgNA4aCYjGfw3laA4vBWLNmzVNVCBYIKtAYCaNShsEiAQYCOAwSCIRBAAoKYTEH4rFgAYsEuRKUJ8MEGlKso8eLQLqjrKR9QqQejjVjcRashYlobm7wCTQJIUrcJMf1ckIpxUkcBAAum9NYZIHNZgIiLo7S8WwShygClhIIRcD1JEAgKOLx2P/aQPojS4wgCUEbb5oCjZGQMnSwkMuGhHwEEKEAiAIiWMwH+GwRmwVyWLiYQ8E8GSZUkYBWCpqkoFkB0a0jFRShhSMNSKwZb26hmlulcUZJlJ6q9wmESUWYFJRGTkgoBIaF/EbdAofNBMU8AockJColECmFyCWYhEAJAsZxGEFAoZDHelpnI+gTmmYJf/dSjZEweNAgNpPJ47LFfB4oFIBCgZjP43NYPBZTyGYiYg4BcWWoUIUDWgo0SECzHLIqkFAlEq6hSYg24XFWSXOrNNYopUnQkFYNZVZLDEpKoyTkEhRFARHAYbOZj72vM5kMLocFggKqngEZhcqlmEKKSymUIuiEohAACrmP9pv/6BaCJPzdbbxp378xEgYNGsSgY7ZMLpvD5/D4HB6Pw+awmRwWU8Bmwg+RoKFJgOhIggwKUcChGjhCj0YZsWgzFWORRBulzfSSMA1l1UjMakqnJFUKXEYhOAqAIIfHZ7K5TPpt2Uwum8nhsDgcFovNZLGZPB4LhkQUiSokhFJGKGWkUkbKJJiEpEnAMBiCxEESmlbRwVJPUeDpJNCDk/SDxWIy6xODxWTwOExIxMEAAYWIFDigJkFdvVswSuCGyFqIBg7VIs30RDMDGaElwzRkiJqyqCmjmtQqSLkMoyiYwAAYFgAgVwxwGhIA8ACALxbzBQIuj8cRCrkoCsgkmEpOaZQSjVKiUlByCS4hUQmJEgSKoPRg6uN9yn3PEPQJTzGB4Mv1CjSJhAaj+m1aD7OBBBYk4qCggERE8noStCSok9BtJIMEMMoBiwoyqSGLCraqEKsKt6gIM91DIPQKQiv/jQQcA1EMwOgEEhhEYDCOwRiGwDAEgkKhkAcCPAwD5VJcrZTqVDKdSqZWSB6QQJIYgkICAS9IQtCY/7wCz0DCAx5YDS14IQcF+Q0kqHA6zEzPP61PBiloVEBGOaCXAXoZaJQhRgVmVBAGBaGTkzQJUkxCwkT9kCg9IkShcgkmozAJhVEUhhMIDAMAwIcgAY7BChmpVcn0GoVeLX+YBIrEEAQWifhBEv68HQTf4ZlJoHsOdOuIBYv5BCSiELEcB+pJEGtJIZ0ooU4i0kkBLSXQkEINCWokkFqKqKWYVko7BI2CUssIGYVKCFhCQDISVkoxpZxUykm5nJTIcJyEEQSAIAGCiCQkrFYQerXMoJHpVTKtglJIMCmJSEiUpFAMhwGA3/jwUbB1FLTypijwXCQwGAIuB4PEJApJMUiBg7+RQAk1FE9D8bQUX0vyVThPiQkUOKgkIAWJ0InC1TJKr5LpFFK1DFdSsIKEFRSslKFKOalWUEoFTQJBwggKwIiYwECZBNUqKb1KYlBR9S6FUEoRKQVTFEJRCEHAACxgNTqtNUhCU+wgWOa5SGAyhXwugcASDJFisIKAVQSoIUEtBWgpUUPSEAIlTq9cU+CgHIdlBCIjUDlJqKSUTinVKWRaOamWYyo5SmMgw5RyXKXAlQpCLiMkJIyjAIaIJTikkKA6JalXkXoFrlXgahmmkPxOAknAICSkw3NPfgRJCFp5UxR4DhKYLBZbLBSRGCrBMSmOKkhERSIaEtFRcH2CtCSowkUyXCRFQQkGSTBEgqIUhspwXEmRWplEL5fo6U4wpVMRGiWuVGJKBSZXYEqaDVIhQaX0AlFITsBqKb00QqvENHJMTccTEBkFUwRMEfTwEUmgMCjmNjrnIkhCU+wgWKZxEgY/eqtlsVh8Hh8CxCSOSHC0gQQliWhpEhADhRkkmI6CVTggxUUSVExhIIVBJEonCQ7LJZhaQujlpFEpNWmkRp1UryG1DTDIaXPXKQmNBFWRsAKHlRRMdzDkmLp+nVA9Bgj1OwlYPQl/2OXi0X84SELQypuiQGMkDBk8hA4iMOk1MOz6mBePxxIIOCAkxDCQpPebAKUEKCdBFQlpKVgvRU1S1CjDdDJESQEyQijB+BQmIDEhgQlJVEjiIpkEVEohrQwxKnGLRmLVSS0aqUkp0SlInZwyyCijlDRQuIZElSSiJBE1hSilqEKKyiSwlEIk9d0DikRon0DgJIYhYpDPamyTgCAJTbGDYJnGSBg2bCiXy+bwWDQAIjYA8CCIiyJ8Eq/fd4gCZBQgpwClBNDQi/chkxQxyxCLDDXIEY0MUklEUoInwXkkxiNwDp0IjlQqUEiFGhlgUMIWNR6qo6waqVUlM8olBrnEJJMYJaTxNxJgJUl3qeUUTHeRJb/1khvCavRPAidRDBVDIhaPRS/nf/wjSELQypuiQGMkpKQMEwg4IhEbADkwwqtfLiOSECKFBFTLIZVMrJECGimgk9BzUQ1S0CSDLVIkRIrSCzXliEYKKQmhrAEGmgS2BOfIKYFCKtDIxHolaFIjVg1h1VAWlcSkoEkwyiiDhNSRuAZHFTgsx2EpHW2ox+A+CRRFD6HeJwFBAVDE5gZJaEplB8s0okBjJAxPHSoEOCKQCyMCAhdLSUBBipQSsU4GmJSgRQmaFaBJUb+NhQy00Os24RAZEiJHQhVoCL0UAdZSgIoQyXG6mUTiHAnOk1O0Q9DKAZ0SMqgQswY3awijlqS7zgpcKyO0ElxDYUoclWGwFKvvHJMwRdIOQUKhFIVKKHoBnYyenYqTKIICgJhepvDE4aOgT2ik+oMvPVCgMRJGjBgGgDwI4mP0JitievY1JTZIBVaZIEIljlQDURpxlBaIVIujlKJIpSBSIaKTXBSpBJupkRA5aJLQl6gIsQwXSnCBlBAqpKBGgdBJieiUiEGF0UmD69S4VolqpPQAkZKkMZDQ8y/oRTkkCdOJQqR0EBqXUriMwuUULiUwEoVRQCzmcRrZMyZIwoPKDj5pRIHGSBg1agSMADg9EipSYkIdLrIQvAgpN1bJb6UTJegFbU3ipFCgQ5i4faiofYignZWfaGK31DHiNaxoNSdczglRCExKoU4mVkkBOQVKpJBKhWtUlFZNaVWERopopLBWihoVuElNGJWEVooqSXpkll4ih0EEARNEPQYkTNA+AZNLcbkUV0lIlYSsX6sAo7CYXt3PC/YTGqnl4EtPV6AxEsamDpEAbCXCMVGCGA3SwSJNjlaPTDRn9IxeODRh3qD4OYNjF49ssXJ8m5UT2i4e1XxhauyCoTEz+4RM7GRIaa3oHoEm6kVRKlaIjGWScg0UXysRG9W4SUua1IRBiRkUmEmBmRWERYGb5YRJjuukhILE6B2NYDECCRFEjNCz9GgkaJ8gwZVSUiUlNTI6qeQ0DAQBwYhIIOLUL3J4TBsp6BOebgXBEo3v/DVz7KBYBbdTKDa8tSG7X8vVY7sUpPXdnzPkzfxxn2xOP7Vh2gdrxp3aNPlSwczLRZmntkz9cOOkk+smnFia+tKcgSXTe6wY0iKjo2l4HJUcjnSxwG31QJxKEK0BYrRQuFJskfLNMpFVAYcqiRAlZZIRegmmpQilhKBwCEGEEMxHUBGKgxgBEfX9BLmUUMspjZzSySmdQqpVS1UqSibFcAIEQXpN82O3mQySELTzpijQmE8oWDx5dnLo5skdDy8Y9vHGtGvFc34qX3CzfL6tYqH38DLfK8sc+xfa9y/yvJzvO7LS+dIy24G8qn15t8sW3Sie9+OOWRdXTXxz9qCyCZ22pLRaNTB+fu9mk9poU2KlQ+PlvZqRiTpRtJzTTMYPV0BWGWqUIToJoqEQlRSTYiCOiHBUiOEATsGEBCEkdHdZISM1dORBalTKDBqFSac06GQqFSmR0svfxCIuj8Nh03uu/uERJKEpdhAs0xgJnx/bcmnn1J9fWmQ/mu8+ml99bMW9YyvqDufVHpxfd2jhvcOLqw/M91bM9VTM9x9YUv1Svn9/nndvXqBiWW3Fspo9eTV789wlC37akvHl2imfrZ1ybtWE13IGlEzqtHtKt/Uj2mR0NA2MIHpY0UQ9GEaxTSTPLAMMElCJi2UIn4Q5JMolcRFJ9y5gqRRTyCmtWmbQKoxquUmtsOhUIUa12aDS6aRyOU4va4YAQCSkYaB3zKATi0EvLVoX3OUlaOZNUKAxEhyn99qPLPKdWO45ssRWkevem+urmB2omFO9b07t/rmBfXM8e3Kd5bnuPfP8B5fUvJTv27fEU7bIX7bYXTTXvjXLXzAnsGu+a/ss+4uZroIcV+Hsm5vTv1k94Yct6Z+umfhqVu/tqQnrhidk9QhPjsAStYIYJTeUZBlQthpmySCmDGVJCb6UEksloFyOKZWUXqcw6VUmrdKiVVn0mhCj1mxQ67RyuZwgCBhFIQgUCwVcHpfN5bC4HBafyxbwOBs2rG+CDsEif3cFGiMh8EmF95X53sPzPftzXeWZ3vIsX1mWrzTTX5rl35Pjr8h1lMy0l2R59s6rPrTEt2+Rt3y+p3S+t3iec1u2bUO6e9NM//Zsz4szPFvSfS9mBHZk+bZmeLfNqN6dGyjJvfli2pVVY86tHvfagmGbx7TP7RE6NJZMULBDIIYOYCgAhhJlKki+SgaqFKhSiatUlEGntBjUZp3KqlOF6DUhBp1Fr9FpFXIZSZIIhsEIvb5HIBLwhHyukM8Vi/ggINi8aePfvZKD378JCjRGQu2pPf59szzlmZ7SGZ6SdN+udF/xdP/uGdVlWdUVOTUHZrvLs5zl2d59c6oPLvDvnesrnxMom1u9e46/INu3dYZ38/TAtkz/tgz/9pmBHbMCO3P827IDBTm+gpyaknmB0nm2guwb2zOvv5j1+Yb0DxanlozvlN0hpIcRj5cBZpilBhkKhKWUCDUKWKPC1WqygQSLTh2iVYdoNRatxqhRalVymZSiSIwgYAwFYUgIgnxAzAUBHgwKEEi8ZXOQhCYYwt++SGMk3PuwtLp0hm/XdH9xmr84zVcw1V84rbYko3ZvdnVFdmDfLN/ebO/ebG9Frn/fbH/FHF95rr8kp7Ykt644u2Znhn/b9MCODN/2md7tWf6C2f7COZ5ts1zbZjm2ZHl25Nbsnh/YPd+xPdu9I9dfstC+M/er1dPeyBm+dmjnyW0jO+nRMJilFjIUMEtFCTUKRKsmDVq5Sacy61R060ijNqvVeqVSo5AppKSUwujdLlAQgYQwyG9ICCRAQOGWTcF9Uf/2Zt4EARojofadwkDRlEDR1JqitJrCab6dU/y70qr3ZFbTDGR692b5K2b5K3K8e2d59s7yV8z27cn1lORUl+TWluTWFGcFCmb6CjJd22c4t2V6duR4d852bs2ybcqwbcxwbp7p3T7LXzDbszXTvTGjwWO4t836ZWP2uWXpL6Wn5PWIH2YlEylhM4Kjx5gaQqhTEHqVzKhRmNRKs1JhVirNSqVJodTJJSoKl9M7IME4CiKwiAbgtyREAeHWIAlNsINgkcZICLy5zb9jfG3BpNrCqTUFU31FUz0l6Z49me69me6KrMCBnOoDuf59uf6KHA+dcr0Vc/375gcqFgTK5gVKZvtLZ3t25zoLsx07s9w7sn3bZ3m3Zrs2Zjg2zHBsTHdtSndvmuHfmOFZM82zflr1tiz/i1mVa6b/siL9lzWZZ2en7hrSam5bc2ozWTzJ0YMsLQlqZSQ9X1UhN0tlRqnErJCblQqDlFISmBxHKAKiSUBECMRDID4KC3FYjMPircHWUdDMm6BAYyT4X9/ifXFMTcGEusIptYVTvUVT3SXTXeUznXszXRVZ/n2zAvty/Pty6knI9e6d7a2Y59u3MFCxuHrvQl/ZPG/pXHfpHHfpHO+u2d6CWe4XZ7o3znCtn+7cMN21Md2zKd27cYZ/wwz3C1Pcq6cENqb7NqTbV02uWjbZtnzqj4vHXp2bejI7pWxU90lx+gSpyIwLdBJEKye1MkovkdBJJtXKJSoJHZZW0HuB1fcTYCEE8WAaBgEOiWgStmxqgg7BIn93BRojwfvqBtem1MC2sbU7J9bunOwtnOrene4un+muyPJUZPkrsgN7swN0uyjXR6e53or5NAn7FldXLPHvWeQpm+8um+/fsyhQtsBXkOvanOFcl+7eMMOzMcOzcaZvU4Zvw4zAunT3ikmuFRN9a9I8a6bZl4+zLRltXzL21qKxN/Mm3sxP/2zOxN2DOo6P1MRL+AaSp5RACgmukVJamUwpp6QKgpLhlASjJCiOQQgqBiE+IOaIhWxQzEHEPAwUBX3C393Gm/b9GyPB9+oG98YU/+aRgRfHVm+f6Cuc4t093VtO9xC8e7J85Zn+8szAnlnV+2YH9s+tPrDAf2BhYP/i6v15NfvyAnsXe8oWuMsX0CSULvDuzHFtznBvmOHbnOnbNNO3aWZgc2bNxozqddM9yye7l03wrprifWGqbeno2/OG2BaPvLto9I15Y+7Mn3BnwZTLGSMKBrYbESmPlQu0JFdJwhoppZPLZAqKkOGoFEFJBETEYpAnFLN5fCaHx2SzGRw2fQqJiMfavH5d06QIlvpbK9AYCdUnNnk3DfduGuHbNNq3dZxv52TfrnRv6UxPWaanLNNXn/x7ZlXvn1N3aEHd4cU1h2gMavcvrdm3xL9ngbdsvqdsvrdsvm/XHO+OWd6tGb7NM6u3Zvo3zfBvmlGzKaNuY0bNujTf8oneZRO8Kyf5Vk1yLBt9e8Fgx9JU59IxlfNGVc0d7Vo48fb8iR+nD9iQ3HxohDxGLtARfCUGKiWERIrjFArjEAAJeQI2i8tkcegjF+jYcv1e9Mz67frWrQ2en/C3NvEmfvnGSKg9sdm/IdW9PsW9PtW9abR3xyQ6pFA6012a6SnJ9JVkeksy/eWzavbP/efhRb++klf70pKag3m1B5YG9i50l8z2ls31lc3zlM7xFuf4d2YHts0MbJkR2JTu3zAtsH5azfq0unVptaun+JdP8C8f718x0b9qgm/VGNeKEZ4VI/3Lx3rzxnoWjHbNG3EnN+WrrMFvTuyxqlv04FBpDMlXClkSWEjiEIqAQhGPx2Wx2fW233Ao8x8nHq0NniTSRFv4exdrjITqYxvcqwfbXxjsWDPUtWmkv2BydcmMQHl2YE9OoHyWv54EX1l2zb45v760sO7lvOpDi6sPLK47uMS/Z569OMtbnhson+MrmeUvyqremVmzbUZg0zTvmgm+NRP8ayYEVk+oWT2heuU4//IxgeXj/MvH+VeMrVkz/tcNE6pXjvQvGxHIG+lbmGrPHfTz9N4/zki+NLXPkdSOS5MikrWYVcCS8hkEyAMEXC6TXsLMfLA8oWH31ofm4AVn4P29Lbyp374xEnwvr3as7OdYNdC5LsW7dWygaCpNQllWYE9O9Z6cQFm2t4R2Dv49OTUH5tUcWuA/sCBwYFHdwSWBivnu0mx/OQ2Mb3emryA9sD3Nv3Wyd+1Y14pUz4pU7/LhvuWp/vxU39IU/9KUwLJU39Lh3qXDq5ePurdqTCAvxbdwsG/+YNe8QVU5/W/M6PPz9OTPxnb9KLXjgf6JCxOsyVo8AuXKRSyYw/yNhAd+IEhCU6s+WO4PCjRKwuEXHCv6udcM8m0ZWV0wqbp4mn9XmmdXOt0oKssOlM/ylsx07c5wlWZ66cl5c7wVc/z75tceWlx7YEH13pzqPbMCpTN9RWne7ZN9W8Z71492rxzuzBvkWTrYkzfIs3iQd8kgz4IB3kWD/EuGeBYNci8Y5Fs8zLcoxT13gDM32Z7d825Wjxsze/48vceNtORvx3W7nNrxZEqHgwPaLmwT3kONWkQsksUAWTQMjz2LpMExBH3CHyo8+McTFGiMBPehFfYVfT3rhlRvH1u3e1pN6XTf7jT37nTaD5RnV++d5SnJsO+abi/JcO/J9tGRtdn+innV++dVV8z2l2ZU75oeKJrm3zHRu2WMd/1Iz+oU59IBzsX9nAuTXfP7uOb2ds7t45qT7Jqb7JybbJ+TbJ/T1zV/kGf+0KpZ/apm9XHMTq7K7nNrRq+b6b1+nNTrx4m9vhrT9WxK+7cGty3tnZAba+pIAVo2A2UwRCz6cAfa7h94hodbR8Ee8xPqPpj9sAKNkeA6kG9b1tuzfkjNznH3SqfXlqf7Sqd7SulOc/XenNqDc/17s11lGc7ymd6KWf79s+nAwp4c/55cugW1Ky1QOLmmYHLgxXHeDSO9q4e5lw90LO7jWtjHPb+3a25PZ24PR04P5+xeztm97bm9bNk9bbN6OecMqF4y0j57oC2nr2N236rM5FvTe92ZkXx9cq/rU/p8O677+SGJ7/aJO96r5c4OMZNDVa0xoZLDFDMZ9AlVzPpdvBtgaGgj1f9cEyTh4QoPPn+CAo2SsH9pVV5P19rBgR1ja0vTqsume0vTPKX0QGrNvpx7Ly+oPTjbVx9l8+2fFTiQ46/I9pVn+Uqzqksyaoqn1RZMqtsxsXrzaO+aYZ7lA11Lku3ze7jm9fTP7+2b09OV3c2Z1dWV08OV29s5u7ctq2dlZg/H7H6/rhznWTSsKqff3Zl9bkzr/tPErjen9fpxSq9vJ3T/elyXy8MST/aKerN71OHu8evaRoyxKqIRPsxg8BgMTv3JPw2OgfYRrN9O9Qy2jp5Q9cHsPyjQKAkVS6sWdXe9MCCwfUxNaZqvbLq7dBpNQlkb9aIAACAASURBVNnM6n05916aV3swx7cv07sv038gq3p/ZmBvRnVZRnXJDBqDnRNrt42r2zImsC7Fk9/ftaiXY153W25n9+yugTk9vbO6OmZ0tKd3dGZ2c+f29sxJds7qXZnRw57T997qcb6lw+9mJ/8yrecP4zp9M7L99bGdrk/qfm1U0pdjO301uuP5QS0/7BP7VnL8gV4tliWE9lFhGiYDZDCEtPHTjoFerVa/i2XDCSNBEv5Q4cE/nqBAYyS4K5baFnZzrxwQ2PYbCZ7SNG/J9EBZZk1Fds3+bH/FTPfedM/edP/ejMCe9EDJtEDxtOqiKdU7JtCR6XXDqlcP9eX3cy7o4ZjTxZ7b0Zbd3pXdyZfd2ZnW/u6k1nentLXP7OLN7eOf1987p78zu48jJ7lm2XD/wiG2jD53JvX8cVTHa0MSvhiacH1spy9SE78Z2/Hnab2uT+35xZiOHw1MeLV3/M6OkVPD1LEgj2QyYRaTx2RymXSEreHE8yAJT6j0YPZjFGiMBO+ePMe8rp7l/apfHFNXmhagm0bTfKXTa8ozayuyavZn+SsyfHvTvXvTfHum+ndP9hVM8G4f69s6yrdxuGfNIO/yvv5lfb0Luztnd3LkdHDMSnJktvNkJ/ky2jmmtL4zvuXdSW2cmV19s5OrFw6sWTDYN7u/Oyc5MK+/f1Zf9+Tu9jHdfklp/1ly3IVekd8Nb/Pt8DY/jut0Z0afylkDb8zse3FE27eT4w92j8tvGdJDjqg5LJzJENG9Z/q4aDrCcL//HPQJj6n2YNYjCjRGgm9PnmtuV08+TcK90rTqkmnekqn+0um1ezJrKzJrDswM7J8RqEj37U3zl070F47zvjjSs3G4d/0wz+qB7uV93It7eBd2dc3p6Mxu58xu68pu58ps48ts65vRxjkpoWp8K8eUtr6s7v45NAm1C4cE5g70Zvf2zOjqmdrZMaK9bUj7n/q2utw1/ON2xi/7xV9Paf3z6KRbk7reSuv5c1rPy6lt3u8T93qvFkWdY6eEypuDHAWjngQmS3yfhAYegiQ8UunBjMco0BgJ/rIlrjldPHnJNVtH/VoytXr3VM+uKf6StNrymTV7MgJ70wMV0wP70vx7p/hLJvh3jvZuoTHwrh3kWZnsWtzVOb+De057Z3aiI6Olc2YrV2aCc0ZzT3pLX1qCa1JL58SW3rR21bO6+3J6e+ck++cO8M/u55nZ3TGxjWNMQuXA+Fu9Yr/vFn0pyXqylfZK94ivB8T/MCzhekrC10NaXBvc6lyf2JNdot/p3uJw9+ZrWltGGslwkIcwGQImU8xkshl04JlT32cOkvCYag9mPaJAoySULnHldHIv7l2zecS93VP8xZPchRP9u6bWlKZXl033lU/z75nm3zPVXzbRXzzWtz3Vt2mwb80g36p+3vwergVJjtzWzqyWjhnxtrQY+/RYx/SYu5Ob2SdFuibFOMdHOyfE+9Pb1czq6srs4sjs6sru6cnq6ZreyTa2VdXw+Nv9In/uFv59l/DPO4WdSdSf62S90qvZV/1iv0iOvNjJcj7JcrpNyAdtIt5Jin29S1xF56iVbSJ66mRaIT2OBNYPJbEZDF59dyFIwiOVHsx4jAKNkeArWezMTnIv6l69YdivRRMCO8d7doz1F06s2TU1sGuKb/ekQOmU6rKpgd0TvAWjfC8O8W7o513Vy7e8u3dJR9fc1vaseNuM6KqpzSonR1RNjqiaGHFnbMjdsSFVY8KqxoQ7xkf6prWqnpnkTGtTNa2NIy3JPb2je0qSc0wr29DYO/0if+nZ7MceUd/1iLnaMfR8h9ALXcOv9Gh2uUvomUTDRy31J1uY3m0Z+lZCszfaRB7tGFnatXl2XEgHCabjsvD6ZhKXyWjYQTtIwmOqPZj1iAKNkeDetcCe1c69oHv1miG/vjgqsGWEe/Nw74sjfAWjPQVj/MXjA6WTq8umeYsnuran+l4c5F7X3b2ig2dpO++CBFdOnGNGZNWUsKoJIVUTwm0TwmzjQm1jwuxjQipHWe+MNFeOCrGPi/RMjndNau6Y2MIxvoVrfCv3uATXyBa3+0fcTI74JTn65z6x13vHf94t6lz70E+Sws91CD/TLvSDFsa3ojRvRmn/EW95q1XYG63CjrcOO9Q+uqB9bEa4rjUqlDIY9bG236Znrw1G1h6p9WDGowo0RoKraG5VRmvX3M6Blf3rNqYGNg7zbBji3jzUs324Z2dq9a5xNaVTasrS6FbT9lTvi/3cazt7lrfz5iX65rXwZEU5p4fbJoZUjbfax4U6xoY6xoQ6Roc6RofYRlkrR1oqR1pso0Jd46JcY6Mco6MdI6JcI2PdI+JdKbG3ksO+72L5tmvodz2jvukRd6Vj5OnE0JOtzB+2DjnZOuzd5pY3o/SvRmpPxBhfj7OeiDcfj7ceSQg/1C52VZy5vxw2chkQi3YIDWsVgiQ8WuvBnEcVaJSEgtmVaS0dszr4l/a5t3ZI9fqh3vWDXZsGubYOce8cXlMysbZ0Sm3Z9EDxZM+OVO+WZPeaDt4V7XyLW3lzYz0Zka6pofbxZttYk3201TEqxDkyxDnC6hwRYh9htaWaq4abbalW+4hQ+/CwqmFhVYPDbIMj7IOa2fpH3uwZ9mU7/RftDV92afZ5l5izbcI+ahXyXnPzu81D3msR9k58yBvRpuPNdMea6Y5HGo5FGY5GmY7GhR5JiHqxZfh4ozwK5mBMBp/J4HKYTBYjuD7h0VoP5jyqwFNIqJrWwpHVzreoR90LA2rXD/VtHOKmSRjs3ZlaWzq5tnRqXen06l1TvNtSXBt7uVYl+Za38y1s5cmOdqeFOydabWPM9lFmx0iLM9XqHG51DTM7UyyOYWb7MLNtqMU21FI12FI10Fw5wFLZ11qZbL3TO+TnruafuoR+2cb4WRvTZ0lhF9uFn2xufD/O+m6LkLfjQ96JC3srPvRElOlohP5IuO5IhIFOzYyvRIe8FBde2CJiRpiuJQbgDAa/vsfMYjKC/YRHaz2Y86gCjZHg2TnbPrWFa0Yb39wutcv63Vs3tGZzim/zUO/Wof6CkXVlU2pLp9WWTq8unuzeMsy5prszv51vaRvP3HjXzGbOKSGOsWbbSKM91ehIMTuHmR2DjY5BJscgk3Ow0THYaB9otPU32PoZKvsYK3sb7/Y03u1hutnZ9E2C6ru2xi/bmD9tbbqQYP0o3vyPCM2bkcZ348Pfjgt/Iyb0RFTI0TDTyyG6V0KMR0LNr4RZXgm3HA637As3FsWE5YYZ2+MIyWAIGQxe/SKeIAmP1now51EFGiXhxVmOCXGutFaerCT//O61Lwyu2zTcv3moZ8sQf8GIehLSakumBwonujYMsa/sas9L9CxKcOXEONPCnBMtjlFGW6rBkWJ0Dq23/v5GWz+dra/e0d/g6G+09zXYkw323rqqnvqq7vqqbobKzsabSYavmiu+bKn5srXpaivz6VjjO810r1nVR8zq15uFvB4ZejTM+kqI+ZBJd9CoO2wxvmI1vxxieinEdCjEVGHSFjezzgs1dSZxOYMB17sFFiPYOnq00oM5j1GgMRJcG2faR0U6JzR3TGnlyGxfvax/3fphgU1DPZsH+3aOqCubWlueXleW7t8xwbF2oH15Z/uiBPf8Fq7sSOe0EOdYiyNVbxtmsNMYmJwDjI6+ensfnb2Pxt5H5+itd/TS23vq7N11ti56OnU0VnUw3mpv+KGl7svm2q9aW660snwcaXgrVPuqRfOSXv2yxXg4xHTQbNin1+5Vq/Zq1AeNxpdM5oNG4wGD/oDJuN+kLYmwLg2z9pFSWgaDYDAE9fG1/4V+wq+//nrv3r26urqamhqbzX7jxs1ffv7l52B6ggK//HLj5s2bNpu9pqa2rq7u3r17v/7662OM9y/NaowEx7r0qpQIx5iYqrFxVVNa+Rb2rl1Hk+DePMi7I7W2fNq9vRm/ls/07RhnW9PPmd/ZsbCVc3a8c2aEc7LFOcZkT9Xbhuidg0yuAUZXP6Ozj97eQ2PrrrZ119h76Jw9DY5uOnsXna2T1tZJZ2+vr2qjv9PGeKON+duWhq9aWj9tGXIm2vx2mP64WXfYoDtg0O036PbrdXu0mnKVeq9Wu99g2K/T71VrK7S6QybTAaOuLCJkRUTYAJlUR5PAFLGYnP+eT6irq6usrPz22+/OX7h4/LXXC4t3r1m/MS9/5aK8/GBqogJLlq1Ys35jYXHJqydeP3fh4rfffVdZWVlXV/eXIvDbmzVGQvW184GPX6s5/Xr16TcCn7xZe+X9X699fO+rj2u/+qj2m1P3rp/75w8X/nn9Qt03Z6q/OFnz2bs1V/9Rc/mNmgsnas6+WnPmePWpY9UfHav56Hjth8drTx6v+eBYzftHq9+jU817x2reP1bz3rHqd49Vv3O0+p1j1W8fq37rWOCt4/63X/W8edz15quOf7xW9fqrt1479surR386fuyHY0d/OEb/vH706PdH6J8/Hj/+w9Fj148c/eHosZ+OH//x+LHrJ177/MSJj1555VhFxeGKfQf37du/r+LatWv/DuEaec+6urrvvr9+7Phr23cWrlq97km1vnjp8mB6rAKPVWzx0uWr1qzbvrPw+Ksnrl//4S/3Eo2R0EhlB196kgLfffd9YXHJv9z7V61ZV1JafvzVE++89/6Zs+cuXL4STE9R4NLl05+ce+e9948ef21XafkLa36/oSzOy1+ybEVB0a7vvvv+3r17T6qIZ80PkvCsij2+fCAQuPrZZwWFuxruZ4uXLl+9bkPhLtqtnzrzyaUrVy9d/TSYnluBi1eufnz6zKsn3igoLlm9dsPipcsX5eUvXrq8qGj3559fCwQCj6+VZ8kNkvAsaj2hrN3uOHL0+MoX1i6qv11t2rLtpZePvHfywwuXrjx33QcvfKwCFy5fee/khwcPv7J567Yly2gelq9ac+z4azab7QmV09TsIAlNVeqx5X799dfPPv9i5ep1DXepFS+sfeOtt89dvHQx6AT+nT7w4pWr5y5cev3Nt1bU330WL12+dsOmr776+rF11MTMxkj4/PPPP3jocfLkBydPnvzwQzp9VP/z5MmHXv7Xpyc/+OC3l0+e/OCjj05+/PFHp059fOrUqVOnPz59+uPTZ06dOf3xhdMnr1855/rus9qfrt37+Yu6Hz6tu3617rsrdd9drv32Uu3XF2u+vlD79YV7X1/89euL9748X3ftXN0XZ2s/+6T2s7PVn56tvno2cOWc//I576Wz3kvnvJfPea9c8F254LlywXnpnOPCWceFc4Hbt5qoxbMW8/v9b771dv7KFxbl5eevfGF36Z6z5y889k4WzPw3KXDm3Pni3aX5K1cvystfunzVm/942+v1Pms9NpRvjIRBgwY92DeIyaRXB3M4LD6PJeSzRAK2gM/isB+7w9Bv+0s0LJ9kMhgcDkMkZsOoGMURnERJGSKRITI5qpEi0RLu4k4hn2Qn21eP8K0e7F7SwzO/iyu3vSurrSOjddW05pWTY+xTon1T4gKTY71jItypFtdQU1Vf/d1exps9TD93Nl9PsnzT1vJZgvFKK8uV1iGftWv2afvo820iTsZb3o42vBtj+al81/NJ0/hVHq/38CtHlyxbsSgvf8OmLa+eeOPcxUv/pvoOvm0jCpy/dPn4a69v2LSlAYYjx45XV1c3XnePfbWpJNDWzfwjCTwmm/UkEh4QxGAxGXweE4A4CCpCUQjHIUqKSKWwXAbpZUALheCFns2uzh3kWDPcs6K/e3E3/4IuntlJnlntPdltnRmt7dPi7VOiPZNjvROjvKPDPSmhrkHmyj76270MN7qaf+hg+rat6es2lk8TzOfjjedbWC8mhJ9pFfJejOGNcO0bEbo3o8zXy4of+83/TKbX5ztw6HBDi6h4d+mZc+cvXQl2iP9rCly8cvXM2XOFRbsb+mkV+w48BwzPQ4JIyKZ9QgMJj9t27gEHTAaDzWKIhCwI5qCoAEMBHINIEqEoQE6JQuRANzNSOCzhu2XDXWtTnPl93Au7+uZ19OS09WS38Wa38WQmOqe3tE+Jdk6I9IyL8I6iSXAOMN/ppb/d3fhLZ/N37YxftjZcS7RcTbCeiTV+HGP+MMb6bqTpNavmiFF5xKI9Gmr4ZlfRnzH6R6/1+f3HXn2twRsUFO2mMfh3tomDb95EBc5duFRYvHvJshWLly5/5cixZ20mPRMJDA6HJeSzxWKOSNg0Epj0cR4gwIIRLo4KcBTAUZAgIIoQKTBOrFI0rqXm2LRut1aPcq8Z6lra0zW/oyunrWNmgiOjlWtmK09GK9e05vaJUY6xEe7REb6R4d6UUEc/y+3uuptdjT91NH2daPi8peHz1pYrCWGnYi3vRpjfDDOdCDUeMekO6VT7NOp9Ou21wsJHrfm5c6qra44cO96AQWFxyalPzjaxnoLF/gMKnDrzSWEx7RmWLl91/NUTzxR9exYSWAwuly0ScSGQBwBc/lN9ApPB5jDFQjYCcTCER6A8gj4FUESigATla1Bmkg5c1i/mkwWDbWtHeVcN9OR1d89t75zZ0j69uW1anD0t3pkW75gaaxsfaR8d7hwZ7hkR4RkaZutjudlJ90tH0/Uk0+et9FfidJebW863CDsZZX0j1HzMYjxqNb1sMu7TaEoUqhKl+rMdBc9t949e+MEHHzY0inaVlJ+9cPE/ULvBj3gmBT45f6GwiI7q5OWv/OTsuUdr8Ek5z0ACm83k8zkAwEcgAQjw+LzftuV90Bb6lydMFoPHZwEgF0O4JMqVoFwJ3ACDmIK5JpQ5MJzYM6XLN6tG219I9eT39S3p5pnTxpnRwjkt1j6F7ijbp0bbJkdVjWtmGxXmTA13DYtwDgy929P8cwf9j+1N37Yxf9pcfz5G+0mc+aNY6z8izMcsplfMpsMW8wGDsVSlKZYqiuTqq9v/MhJ++PHHdRs2L8rLf3F7wemz556phoKF/2MKnL90eev2nQ0w3LzZ1JHDZyCh3iHwIUiIwEIQ5D+VBBaLwedzQJCHIXwC5dEkIDwJQh8OK4XZURR7eqL6gwWDb68f61w52LOkp29BJ++sRE96vDetuXtarH1StG1ilGNytGN8pGN0hHN4hGNwWFVyyK2u5h/a6r9PNH+VYLkUbzwTo/8oyvh2uPGo1XDYbDpkMu/Xm8qUukKZulCmLlJqrv5FPsHv9+8/eGjx0uX5K1e/+fa7/7F6DX7Qcyjwj7ffXVk/46ti/0G3x/MkP/BwflNJYDKZfD4XhEQwAsCIGIQETSCBKRBwQViEoiIcE5AYX4LxpJiQRMVyiJ2oFK7oE/HV6tG29aPcy/t75nf15rbzzmzlmhLjnxbvnRrnmBBpGx/pnBTtnhTjHBPpTIm09Q+908tys5Pl+9b6b1qZv2hlvRhn+TjG/G6E8VUrvVxhv8m4R6cvVWuL5KqdUmWBTFOg1Fz5i0g4ffqTpctXLcrLP/DS4WDg7Dms8z95yYXLVyr2H1yUl79sxaozn5xtSoehqSSwWCyBgAfBz0aCUMgDEQClh4xENAkET0IIJahIDbK7G5Ci4S1vbRrnXJPiy+/rmdPRNTPBnRZnH9fMNynGOynaMTbCPjbCMynGPzneMybGlRJZlRx6u4vlRpL5u1amL1taPmsRciEu9KPokDdCTa+YdEfCQioM+l0KdaGCbhQVyDUFMs3Ov4gEm62qYVLd1m07/5M1Gvys51bg/KXLa9ZvWpSXv3rter/f//Dt/7HPm0pCg0+AIDECAzAsFIs4HDYdK2hkEJXNYolFYhCBUAxGcQDFeBQpkhICCcwNIwWTEgxvZPaybRjjXDHQu7iXJ7eDe0Yr16Ro26gw7/hI38Ro5+hw+6hQ19hm7tFR7tRIx+DIm90tP7TTf59g/KqF6bP4kIux1jPRYR80C3nNYjygVR8wGMu1ul1KTaFCWShXF8jUfxUJv/766/FXTyzKy1+5et27H5x87roJXvgfVuDkRx8vX0WHn995573HWv/DmU0lgUGHitkAWO8TQL5QwGKz6FgBvRnvEx40CWIARGAMR1EcwjCBRALIcK5UzEzUwvl94y7npXjWj3Iv7euZ19WT1d49raVzXKRjVJh3XGRgQrRjVJhtuMWeGmofEmofFFbVL+znzsZvWmm/amH4PM50Jdb6SaTlZLj17VDrMZOhQq0uV+tKNLpipaZIri6UqxpIKFCo/3zr6G5l5YbNWxfl5e8qKTt/6fJ/uDqDH/fcCly8crWkbA99C3thrcftftjuH33+DCSw2SyxWIhAYgjgCfgsLoc+/Zs+/vVxDyaDyWaxRLRPgFEcxXCEICApBShQtlrMSA6RFI9q//2qUTXrR3qXJLtzO3kz2rgmxdM94xFhvjERgbGRztSwqmEW2+CQyn7Wyj7W2z1Dfuxo+qqV/vN449VY87ko60fh5rctxhNm08sGY4VGW6rS7VbpihTaQgXtDX5Lf0Xr6PSZs0uXr1q2YtVrb7z53LUSvPC/osAbb72zbAU9MezU6TOPWv/DOc9AAovFFAq5AMATizlCPktQn/g89qMw1J8ASB9rIxSKIJgmgSAwkkTkpFiNMkNhxpQW+hMzet1dM7pm9TDPwl7OWR086YnuCXGOkRHO4WHekRH+URHOoRYbvf+FpbK36U4Py62uIT+2M3/V0vhprOlStOV0hPVdi/lVg+EVnf6gzrBXY9il0hWptIUK7e8YyDRFKt3VHX8qsub1+vZU7F+Ul79+05az54MBhP/alIrnA+n02XNbtu1YlJdfXFLWeNT5GUhgMunImlBIB5iFfJZYzBGLuWIxj8tlP3L0JZPJoA+4EQoEMAxiOEKSmJRE5YTQjDE7qwWre8dcmD/I8UKqf2l/99xujox2rqmt3ONinSMiXClh7tQwd0qofYDB1s/o6G+197ZUdrfe6mS93sZ8Ld50Jdp8LtL6cXjoWybzEa3uoEq7T20oVxnqvYG2QKHd2eAQ5JpCubZI+WdJ+PHHn5evWrMoL//lI8eerzKCV/13FTj40ssNKz+//vqbh53Avzx/BhIYDDpmLOTTk45EAjYE8BBIAEECgYDzaIyNPsiDyRALuDgMEDgqwVEpBilQbqyUl56oOz6168/5qe5lQzzzenhyOtmnJ9onxjvHRLtGNPOMaOZJCXMOttr7GOzJJm+/UHfvEFvXkJvtzd8lmD6LM16IMp1pFnIyPOQNs/lljf6AUluhMpSpDEXyegyU2p1KesioUKEpVPwFJHzw4Uf1g3EvXLwcXHbzf8whNBB4+uzZhtkxJz/8qJHh1GcjgcVi8nhskZAtFnFgSIAgYhgWC4X8RxtIjPqDMEEhG4fFEhSWYIgcgXQor6sJ3zo08eqCoY6VIzwL+7lyOruzkhzTExwT411jY7xjon2joj0p4Y6B5qreOmcvo69vqLuXpaqL5Ze2pq+aGy5H6T6JMH4cbn0/LPSE0fKSxrhfpa9Q6UuVerp7oFDvpEnQFii1hUpdUX36k5G18r37FuXl7yws/u/e2IKf/mcUWLeRnrN96PArtbW1/+IKHvz5bCQwmTQJYjEdOYZhEQoDCAwAgIDNbjjZ7A99ZzaTAQhYJCyUoKAUhpQwYMWFI+N0x9J638wf4Vs2xD27pzurozOjrXN6K8fEOPe4GP/YWM/IKNeQMHs/U1VPraO7wdPL4uxqvJNk/Lm18ctY7YUIzalww8kwy9tW6zGD+ZDasF9lqFAZSpQ6mgSleqdKW0AnTaFKV6jSFKn+VIy5rq6uIVT50itH/0xNBK/97yqwdx8dZdu6fWcjK56fhwQA5MIgH0ZEOAqhCAhCAg7nMSRwWAxQwKQgnhQF5RCghoUxpDg7KeLUrAGO/GGBhcnerC7umUn2tAT71HjbuGjn6EjPqCj74FBbf2tVH8PdrlpbF62zq6mqo/52W8MvieZr0fqzYZqPwgzvWS0nzOaXtfoDav1+jalCbSyR3ydBrSlQqQs0mkKNtlCjLlSpr+7Y+YD7Z33yyy83Glbov/d+MIzwf7Jp1EDgW+++37B0wel0PskGnpUEBo/HBgA+TQIswhAQRQAQEnC5jycB4jFJgCuBxDJQpIe4HRTitX3iv5g3yJc3qHpuT192Z29G+6rJcZXjo+6OCLMNC3MODatMNlb2MlV2N97ppLvbUWfrZLrdznAz0fxzgvWLKOMnobqTVsNbZtNxneGwSvcICZqdanWBSlWgURfSMKiL1JpPdz7/DLyz584vyst/Yc36j09/8t+9qwU//c8ocPHSlYYpAteuffnXkEC3/llMAZ8DAjwaBogPwwIYEohEXM4jgQUWgyFkMjE+lxDzKSE7HOVNilaemNzjdl6Kb0Ef36xO3swk7/S2leOi7o4Msw+nMXD1D7H3Ntu6mao6Ge4mGW63N95ua7qRYPyhhfmbOMvVZubToab3zYbX9fojGt0hNU3CXrVxj8pQqtDtUmh3KTUFCsVOhZz2BhpNoVpTqjN9Ufj8a9b+8dbbi/LyN25+MTjz9M8Y4v/CtavXbliUl3/69Cd/HQlMJp/H/Y0EkI/A9CRtCODzOI8MpdK7VTNxMSABhSqI1VELb+gT99mcIc6lQ7y53TwZ7bzpbTxTW9tGR1amhDiGhXkHh7v7hjq6m2xdjJUdDLfbGm4mGm60Nv3YwvxtjOWzSMulcMupUPN7ZuMJve6IWndIpdun0e9V0SSUKfS7lQ0kKHfKlUUabZFaW6zUlmvN1wqffx3zwZdeXpSXv21HwSfBpfr/x9flbd66fVFe/utvvPkXksDi83hg/RAqAgsRRITCYgQSirjsh09Bbug7s5lMHBTLxLwwlDcuVvP6tN63lo5yLejnyEhyTElwT0rwTmxpT42oGhriHBLqGRjq6mO1dzNVdTbcSTLcaqO7kWD4qYXx+zjTV5HGq+HGC6HmU6HW98zm1w2GV7SGgxpdhVq3R60vVxpLwmIJDgAAIABJREFUFfQoKh1SkKsLFKpdKm2pSlum0lSoTdcKnt8nlJSWL8rLLyjefS64KOf/OAk7C4vp4aOXXv7rSYDpealiDBHjKIBCYjGfbh81nAf+YAIGk8GA+BwFj9maApZ0ivpswUjnspHOnO62KQn2cfHusfG+MXGOlDDbYItjkNU1IMTZ+zcS7iYZbrXV32ht+Lml6Xq86ctI45Vww/kwmoT3rZY3jMYjWsNBtW6vWrdHqXuIBF19GEG5S6neo9JWqLQVWsO1P9E6Kt5Vsigvv3BXSXDfiv+FFs6f+R8K6tf77zvw0l9PAgqLURjAUBDDIBQWg0Ielz7MiT4I+QEJDAaDy2DouIwBenL3oLY/LRntWDDQkZ5kG9/cPirGPTLalxrtHBxqH2C29zfZky32XuYGn3A3yXi7vfFWoumXBPMPLcxfR5s+bWY6H2b+2Gp+12J5w2g6otM3kFCu1JUr9KVKQ330QFukVBUp5CUKeYVKvV+j2aPTfv4n1jEX1S+KLdpVGiThz1jh/8K1BfVV+f8XLfzFJEAgv4GEhhX69HCqWCRgsxqOBH/YM3AYjGiYm9PC9O7EnpULU5zZ3e2TE2yjo52pzTzDInzDIlwDQmzJpso+pqpepqoeRlsXQ1UHw532+lttDbfamG4kWH5oYf061vJppOVcqOlDi+lds+l1o4luHal1e5W6crmuXK4vVeqK6aQpVsqLFNJSheyASrlPpyk2KC8X7XjSl39qfpCE/wUj/kv+h/8cCQjwGBKYDAbGZiSbJMUDEr/OGeyaN8A1s4NjQnPHiCjnsHD34BDvQKuzn9nW23C3p6Gyh6Gyq7Gyk7EySXu7ne5WG93NRCPtE5qbv44xXWlmPhNqOmkxvWUyvWowvKwxHFTrK5SGPUpDWT0Ju5X04oRdSuVupaxMITuoVe/TaTZrZWd3bnuqxT+pQJCEv8QK/xfe5D9EAoFBCCgSctjs+qZRg0/gMBlcJsOE8DITw96f2qdqYYo3t6drWmvHmGjH8AjnYKtzIH3CiL2Poaq7/k437Z1uusouhn8h4adW5u/jzdeizZfDTaetpvfNxjcNhmM6w2GN/qDaUKEw7lEay+T6ErluN520u5WaEoWyXKk6pNWXG/QrFJKT27Y8ydCfmh8k4X/BiP+S/+HfTgJWv38RQUAoCIh49PaQD5pGPCYDYjJbKdG1yS2v5gx0LhjgnplUNS6aDh0MCbEPMNmSdfR5Uz11VV20d7po73TWVXY12DobKjvq6WBCG9ONRONPrSzf0SRYLoWbToUY3jUZTuj1RzXaQ2rtAZV+n8pwnwRtsVRdLNPsUmlL6FU76gM60y69YY4E/8fWTU+1+CcVCJLwl1jh/8Kb/DtIYPK4nPv9BHrsiMAhgoAfkNDQY2YxGGIGQ85lDYxQV4zq9OOCwe55vZ0zEuzjmrlGhLmGWOlTN3trKnupbd21VV11d7voKrvobF0M9s4GWydDZQfj7TbGG62NPydYfmhuuRZjvdTM/LHV+LZB/5pO/3J9WG2/Ul/xgASFdpdMXSRT7NKoSnSaEq1mj9G8zWSajMFHNq1/kqE/NT9Iwv+CEf8l/8O/hQQul/0oCRgE0ksVmEwOk8lmMjgMBsRghIm42e0j38/oX7VsmHd+N3dGC+/kGN+oCPcQq62v/nYv9Z1e6qruWkc3mgFbV4O9q8HWSW/raLibZLzVxnAjwfRTK8v1FiFfxIZcDDd/aDG8ZdC9ptO/otEf1Oj3q+oDzEpjucJQptKVqbRFclmxWr5LryrSqYvMxjVG7VBQvG/tmqda/JMKBEn4f+y9B3CT17rvbRtIgNBCspMd3NTlhnHv3ca994Yrrtj0ajAdjLsl2ZJsuffei6zee3Ojk5AASQB3anayz/3mNTmcnD3fuXey7dyBuZr5j3gxYs2CeX7r/zzvamsShR9CI2tPgqqK6oZ167Z+9snOHVtXTnfc8s4Tdm7funXjp5+qqa1XVd2gqrJJVeUrNRWHLzaWhzjcvrjvVV7UyxzXV0etXqcbvYjRWwyBzQWCnvlrPfPXmvUFLXhDFj3gix6wBXfIrBto1hX8zAn6kx3ksTX0B0vkfTOdaSOkWB/GREDJUPAIQAK0CwTp0IICSy00YC0a0BZNcBsY0qChUav5TbW2OgGsiYeDLmn+3XfTxuYiJQkf8eK5taLo/yYJ27Zt/PTTdQAJn6ipbFFT0dqgGgze0Zvi+1N+8ptrYcvHHd8esXmZumchHD4fBJkPBM0GgJ75g2Z9wQve0EUv+KInbH4v5LkL6Lkz6KkTBCDBCvrQAn4XeHEEE+jAmHAoGQobAUP73nnCH0lQh7TtArWoazVqajZAQPVIGBYOPvX1Fz6frm9ResJHPj28JjD8FSSobFBT27J5w8qc2tadO7d++cW2v325/Yvt23Z8tmnTeiBBAmplFRXExvXpRpqsQ8GzefEvzvstHbF7e8h2Md7geRBoLgC0FARZCILM+kPmfCEL3rAlb9iiF3RuL+iZs/azlbeoK54AAyaYjRAKAxj/dxLgKyRAu7RgHVqw//QEWOsuSMtXWm3qK+svYKAmHRgeqpXz5Zaozap9ZUpPUHrC9NqTAOzhVFPdvHn9zh1bvvh8286d2778ctuXO7d9uWPb51s/+2zDp5+oqX6qqrJdRWX3Z5/m2iOkJ0NmL4UvnnRfyrZeTjWfjdJ5Gqg956+9HARZXHmFOu8LnfeBLfhAF7zA/0LCI5v3JMAFOlAmHEaGviMB1qUF/yMJzeqQpq+02tXBbZparRDNLj1IjxGiaQ+40gQqb/73T41X1glrMh5/CI38VSRs2rhuxzZgtcUXn2/ZuXOFhx3bd27btm3Tpk1qahtVVb5UUbHauQkdYHr7bNjc+ZDFo3sX0q1mYw2fhyGfB4DmA8AvAmEvAmFLftAFH8i8D2weIAGy4AGZdQU/dwYDc8z20CfW8O8skLeNYQoDuEAXzkIgVkiA9WnDOv+VBGjzN6AWTVCzpnobZNfIHhjPxVjubzcV4To70v0/FcT/x58rSfgQgnhN+vCXkKAGHFqxbmX3JrD87h0Jf9u548vPgRNTt6xf/5mqivp6FR/ozvYk5x8uRy2dD14+4rqYZPk0THc2BDkH5EWgpQDISz/YC1/YIoABfN4XtuAHW/KBLbjD5tyA+YSfHWCPbeDfmsNvGsHkBlChLoKFRJCgiCEw/P+PBEiTOqhRXatRe1cnQp1irXMzyPbnJJ/ZNP835P7/Y8T/T19QkrAmUfghNPJXkfDpJ+u2b934+fZNn28HYPji861f7fz8q52f79y2ffsnG7aqqoA/W5dkBaOeCHqWF/PynP/LbOelePPZEL35YN3FEPhiEGTRD/zCB/zCG/KOhAV/2HIg8mWAzrI3YsEdPuuC+NkJ/sQa/sAMOr0bItWDCHThTARiHIoYgiB6Qf/iCdAmTUiDOqhWQ6MRrN5rCGK5Gd6NcpxN936+3+MV8X9cdPU/AfD+50oSPoQgXpM+/GUkbFDbDizC2/T59o1fbN/05Y5NX+/c/tXnO77ctn3HJ59sV1XR27HxjJeJ7ELM/PXol6c8X6bbvdxnuhSqvxisuxgMWwwEL/hqL3mDX/hAF33h8z7wBX/YyyDk62C9l76IJQ/YnCv8ZyfEIxv4XTPYxG6wSA/M04Ux4HAiFD4Igfe+z440f3+L2qQJadIE12upt8I1hsxgLDfDqVCr+/scbkXazA62vo/sP/ugJGFNovBDaOQvIQG4TlNNddtnG3Zu/eTLbeu/2fGJxs7Nf9+x6W9bNn+1dfsXGzd+raZi+fWWvECLyXORi+dD3hzb+3q/5VK43pw/fCkQ/iIIuuQPWvQFLflBXgbrLAbozPnBF/yhL4MQb0KQL/ygS56wub3wZ846j2yRd80Rk3tgYgM4BwmlQoDJhEFg0dFKxbxyqkUrsPQImE9o0QI3a2l0wDRGzeBcd+PJKPv7Ke7fZvkt0Qb+LADvv68k4UMI4jXpw19CAnBasJrq1s3rv9jy6d+2rd+1fYPWjk//vvWTLzd/8tXW7V9u2qi+TsXhmy0lQeY3c8KWzga9Oej8MsF4MRQ+HwBbCoAu+4KXfLUX/UBLgbBX4brLYXoLwcjFIPiLEPibEMQLP8g8UDdDf3ZEPLRF3jZDThojxbuRwEZ+CGgEDB4EQ96T0K65sghPE9oK7NrRbtXW6NWDMJzNZmK8Hh+JXriSvlx6/B8K9vvI/rMPShLWJAo/hEb+QhK2f/bpF1s3fbVt4zdbN36zY+PXWzd9uWXT37Zv/3LzpxrrVJy/2VIebH73dNjSqYDldLulWIOlMNhyKHIxALrkD37hD34RBHsRqvMqSv9FhN5iqO5iEGwxCPIiELLsA5rbC3rqDHnsAH9ghbhpglDsQYoMkRw9GBkGGQaDB7XBfZrQTg1oh8bva1FbNKGAIWhotoI1hywMZZEBz84efoW6/Ft9yX+0Y//X3Yk/C8D77ytJ+BCCeE36sEoSwlV/34L2boHpfx3stU5VddvmjV9s3fLVti1fr+hv27Z8sW3las3N67U3qHhpbK2NsHlwJmz+mPdcssVctO5SJPJFhO5CEHw5GPEyBPkyTHc5Um85Um8xTHcxFLEQBF0IAC/6gRd9wM/3gn5ygnxvD7trAZ8ygksNEQIDBEsXToKCh0H/RUK7BnQlNQJ29DdrajdofNMC1yK62Nw9mPoWV/LPFsJvHbW/dtT+8/bU+8j+sw9KEtYkCj+ERlZLwspmzHdbMv/bRQlqqqpbPt2wY+uWL7Zt+3Lbti+2bdm5bcvn27d8vv2zLzerIT5TiUJ+MZDs/uhs+PODbs8TTOai9ZaidRcj9RZCEQsh8KVQ5FKE3kK4zlwYYi4UuRCGXA5DLAXDFgMgC17gZ66gJ46Q72xht81hCiOY2ADG0YXSkBAiGDQEAvVpg3s0wZ0akHZgm85KxQyci6pdq/H3Vj0wzdf5h5yD/6xB/dZQ8aqyZLk87xeZ4M8C8P77ShI+hCBekz78VSQARfO69Vs2b96xdduObdt2bNuy43cSNn69Wc3iy09P2MAFx8Ke50Y9z3CajTdZiDNYiNGbjUDOhevOR+gtROovxe5eiNadjdSZi9BZiNRbjtBZDkMsBMBmPSFPXUFPHIC7c26Zw2RGML4elImEjgNFgvagtnafFrhbC/JHEpo1oQ0g7TroNx3GcHaQ8+MTyb+VnP1H4cmlC+mLOYm/sMfeR/affVCSsCZR+CE0skoSwv6wBe2P2/SBNElVVXXDhg1bPtu8HcBg845tmz7ftnHHlvW7tqh6Qr7ABts+uJi4mBs9m+4wl2C6mLBnPlb/aYTObLTBwr49S/Emy0mmS0nGSwmGy/t2v4jdvRylt3IqMPS5B/RHZ8gje/gDG8RNM7jUEMbTBdMRoDGQ1qC21oAWqFcL3KUFbtcEt2hAmt9JE9wI1mpE7OqzhAsDbB9lBL88tW/pcPDT1L0/JTm8JLb/WQDef19JwocQxGvSh9WT8F+1wb8+qa6ch7cJOA9v26b12zev+3zzus83qoK2rYs1Ag2lBzy9mrp8JmIu3Wk+yXwpyXg+wfD5vt1z8SbziWaL+82XUyyW0yxeppi+SjJ5nWD8Mmb3UpjOvD/imQfsiTP0oT38nhVyyhQuMoCykRAaHDIK1h7Q0urTBvVogzs0Qe2aoD+QAGoGa3boqJOtYZO+po+jHebjHediLH8KN3wcovdi4N8/70hJwppE4YfQyF9JwgoZ6zeobf5U7bNPVLdvUN2xXmXnBhWdHRuybfX5x6LmLiYsHQtYSHdeTLZaSjZdSjFfSrNeSLNeyLBdkfVChuVyusXL/SavEoyWYwwWw/Tm/XWfesIeOcEf2MFvW8InTOACAygLCaPBoWNg8ABIu1cbtGIIoFbgZRHk3YRak5Z2G1h9SE+Dbwu742n4Q8CeHwMNn4cYzoUbPo/a83qk8f0Y/2cflCR8CEG8Jn34S0kA8iVVNdUN69Q2rlPdoqayXU3ly3Uqe7789Kyr0dTpfbNnohYOei+nOy2lWi+lWr44YPPqkNPyQacXh11fHHZdPuS0lG27mGm5lGy8FGe4EKk3F6L7zFfnR3fE987wu9bQKTOoxBDK1YUykRAqDDoKAQ9CwD3aoA5NbcAQtMCNGqAGDe0mbe1mba12yK4xAw2xA+K21+7v/Pc8CjGe3Wf9OsP1zWGfXxnKdUfKVdmrXpX9r8XBf8uQ3v2hmipw7aDqJyoq21RVvlZTsVffWuRneS8ndvZY0GK2x1Ka00KqzVKG7ctDji+Pui0fc39x3PP1KZ+3p71fn3BZPmS7nGK6nGC0FLV7Llj/Jx+dx27wb53gN62g8j1gvh6YhQBSIyIENKQNGgCBe7RAreoarZqgFk1w/Tda9bu0G9+RANUY3qMpcjW4G2rzJGnv/JHglzkxv11N/fVG1j9FtD9rBe+/r/SENRmPP4RGVusJ/1sSgJOzVYAdy+uBI7RVVDapqKirqgYivmqIdPghJ3r+sO9iuutcss3cfqv5TOulI07LJzxenPJ5kRPw+lzg27P+b065vzhsv5RusZxovBRt+DxE70cf5Pd7kQ8ckTOWcJkhhA8YApQKA4+CQf0rRUKXNqhVXat1ZW1Fg6Z2g7p2o6ZWI0ijAwkat9afCXd+eijy1aW030qP/1Z26jd0zuuiU/8QM99H9p99UJLwIQTxmvRhtST8pwf868zaf/5cTUXlExXVzWqqGzerqn2uoqL7qepBKygp1fPnU+Hz2Z7z+x2fJ1k9T7Gey7JfPOa6fMbn5bnAV7mhry+Evc4NfHHSc+GQ/XKa5XKC8Xz07p8D9R55Ir91Rd6xQ06aI8RGcK4enI6EjUOhg9rgHg3tLk2tDg3tFg3tVm1IixakSQvcoKldp6lRD9LsNtJl+jo9PJz48sbp3zCXf8NdfYvOfVl4cu5y1msu+c8C8P77ShLWJAo/hEZWT4LqHybXfo//PxiF2srBp5+qqW74XFVVU0XF5W/rSnz2yI8EzgK1sutckt1cku1cpv3iEdelU14vzgW9vhj+5nLU64uRr3ODl097LR12epVp82a/xYs487lQ4yfeBt+66NyyRSjMkCJDBFsXQUXAxyDQAW1Qt4Z2p4Z2q6Z2i6Z2sxa4WRvcpA2p19Ku1dBogGj3W5vyY8OeXDnzGlf0S2Xxy/Lr8wVnnl48+Ohk0jJDOZ+grBNWWyeEr2Dw7rBTYI75/ale//mgqgbkRWqbVFRAair22z89YqQ+muT2w6nw2YNec/sdnidaz+93WMx2XT7p9eJcwKtLEW+uxb69nvD2yr5XF8KXzvgsH3F5fcDubYr1yzjLuVCzJ96GD1x0Z2yQUhM4bzecgYSToPARbUi/FqhLQ7tDU7tVS7tl5Tj4BnVQgzaoTlOrVkO9CQYZdraTHkj5qSTvBQGzWFH8vOjyj5dOPDydee9g3Dx15P0Y/2cflJ7wIQzna9KHVXpCpIrqBhXV9Soq64DdyyqqwC8rWq+i8qmq6kZgv7Lq39VUkJ+s8/hi6wkTcHeU8/0zMYs5kbPpLrMJNs8SrGZT7BYPui2f8X11MfTN1dh/3Ej8rSjt1/z9by7FvDgTsHzE9WW6zYsEs7lw4x99dz/cq3/fRW/KCincA2PrQalw2BgYNqgF7tEEXp52AHMIAAmNGqDaXZp1mpq1GsBnqx583Mtt5vThnzFFczjUz8XXf7ic8+D0wVuH9stTo34eH/qzALz/vpKENYnCD6GRVZIQBWCguk5VVU1NVfWd1qmqrlNR3aCqul1N9XMVFW01FZvtnyTAvyp22TMW53nvZNzixZQXJ8Nm99vPJlg9T7R+nmq3cMhtKcfv1ZXwt9fjfi1I+bUk69eC9LdX9r3ICVw87LqcarO4z+RZkOEjT/0HLnr3nPQnLJH83VCmDoQMh41CoH2a4B4N8MpRX6AWDS1gsZ2mds0uzRoNjTpNjUawZoehDtXX/f6Z408Krz+6fvn26WOK7DRRciwnOoQS6vPdgHIfszI7Wm12FLVypJ2qmqqKmqrKyuUIaipq61VU129QXfflunVQVRWn7esO6n7d6GeuyA6ezU1+dSljOSdxPtt/NtluIclmcb/DYobz0lGvF7nBb67G/HIj6ZeC1Fd5KUuX4ubPhD074vks03423vR5xJ4f/Q2+d9d/4Kx/x1FXbg7n6kMYyD+SABx6166pvUKC1u8kqGvUa2s0w0A9Rnp0T9ebGem3jxyWpqYywkPH/H3697p0O9u12FnMtDa/H+P/7IPSEz6E4XxN+rA6TwiPUFUF5grenXq9AoSamuq6T1TV/rZO1XD7+ijkN3kue3ojHWUHAmcvpPxy/eAvV7OWTu57nu41m2S/lOb4Ksv99VHf1znBr69E/ZKf9I/C1Lf5qa+u7V8+v2/+ZPDzg25PU6yfxhr9FKz7vSf8vjP8lgNyxlZHbAJn60OoOlAyHD4KgfVpgrs1QJ3A9TnajeoaTZpajdqAJ1RraNSBtdoQ0H6T3WQne4aXN8XXf9jVo8vWttXSotHEqM7IsNpQf7K+/s8C8P77ShLWJAo/hEZWR0IYsD9h3UqhAMwaqAFWsFFF9Rs1VbuvNx+xhNQG2zAz/G6eiv7pUsab4jO/lZ77R97hxVMxzzI8Z1OdXh7c+/aE/9uzYW8vxfySl/hrUfpvRVm/FmT8cm3/m9yY5WP+sxlOzxMtfo40fBKo89AdetsJOmkLl1shuUYwmi6EhICOweDDUHivFrhTA9SmAWpS16rfpdmgodmgpQWQsGtXnZZmGwLev2f3kJlZj4lZu5FZs4FRvY5eLRxJgMGqYLBKKHSCoDzvSJkdrS47igyPVlNZr7YCwwYV1U2q63eoqIE2qrl9sy3HDjEc7zp5JOS73Pif8rIXULlvsfn/qLj+Nv/o0pno59me8wfc3pzw+TU37NeL0W+vxL/N2/+Pgoxf87N+vZ7268WEX06HvzzkvbDfbi7W9GnY7if+Ot+5w285QhU2MJEFkmUII+lARuGQYThsCArv1Ya2a0KaNUCN6tr1GqB6TVA9cK/mCgmamq1wWLeefpeeQQtSrxGmWw9B1oFh1ZrgKi1wpRaoUgs0sYr7mJWe8CEM52vSh1V5Qmz0vg1qn6gCnrDuExW1nSqq8E/X+2t9cdVZj5jkfv9E1LOLKXMFR5ewV143oH+pxb6pyH99PXvxVOjsQfeFw3vfnvb/58WIXy/HvLkU+/ryvteX4l+fj3uVE/32ZPjbI/6v0l0XE6xmI4x/CtT/wVvnvitsxgEqs4YLzHVpu+GjSPAQFDwIhfRD4N0gWDtwzyy4URPcABxgAWoEQxq0tWs1NOu1tJqgkFYYshmKbIQgGkCIOi1ojQaEoK5dqaGN19DG79KewFe9z3b+7IOShDWJwg+hkVWREBkRpQacAK+2QXXdJyoqsI3rgqB/L3I35aT4PDwVO3sxfSH/9AKu8FVb3X/0df7WUvcKfWX5YuLzQ3t/Tredy3Z+ddLrH7lBv+SGvDoTtHQyYPG4/8Ih3/lMz6UMj+UUl6UEm7ko06fBho98dB/shd9ygExYQyTmcJ6xDkUfNgwF9YO0+rTBvSDY7yTsAjcANy6DgLtCQOAGbUg9CFwPAjdAIA1gWJ0WpEYbUq0FrtIEVWqAsOpaFRq/S16pJEGZHa0yO4qIXq8GXJOzSUXlcxUVV/Ud19xMWemBP+XEzJ9NWLp+fBmdt9RY86a/7z+GBn9rJLwozFk6G/08y+nnVIvnWfbLR91enfJ6fdJr+aj7fJbzXJrTsyS7p3FWz6Isn0eaPw8zeRpk+KOv3nd7EbccoRPWILGJNt8IwtqDGNeBDoC0e7Q0ujW1u7SgHdrwFk1owy5Q7TdaNbsA1WqCAAZAkHowpA4CMFClAarSBEzgHQPoXRpo9d8lq1TeOKgkYXUkxETHbFi/YaOKCmiDmvPfd+Q6GhFTA77NTVi8lrKcf2ip7PJSNfZ1Z8c/Bgf/o6/716qyl9ePLOdEzR3a+zzTbi7LafmIy8tjrq8OOy0dsJ/fbzkbb/48yvRpqNETX70n3ro/eus+8dT7Ya/uXUf4lBVUbAzi7AYx9cF0A/gYAtynrdWlod6prtWpCZDQrAmr/wa4P+odCTUaWjXa4DoQtA4CrQZBqzRBAAOamuXqmmgNLfQuLZS6xjuVqmtIlSQoT42fWh0JERERn6iq/n292t5vPs+12zOSEvTgUursjcylouyXFefn8cXLzfW/9HT9s7fzt5aat2WXX1xIf3k6avGI91y26/whl8VDzkvZDssZ1gtJpnMxhrNhes8DdJ/6IH5wAj90BP3gCPveAfmtPfKmFVxqDOXqg+gIbQocTEZCh6HgXi2tDnWN9l1a7StXSDVpwOp+9wTtGnUtgrpWtTa4FgytBkMrNUHluzQxgAlolu3SLN2lUfqNRom6evF/SqIkQUnCKkkIDwvbuV7N5uvPc2wNiSnB3149sIw+uYw+uYg5u1xdOF+Hf9XW/Laz+U0T/hX2+vK1Iwun418cj35xOHDxoNd89t65A47zadZziWZzsbvnQnWe+8OeeYB/cgb9YK31vZX2QyvwfUvobUu4wgQuAGaUwRQoiAgGjUKBHTm92lodmppt6lorWzRhAAnq4JpdoFoNcI0WuFoLVK0NrgFDK7XB5bs0S7/aBejrb4q/2VX0912Ff99VuGtXwTff5K9IhMf/2UL5/feVFfOHUOyuSR9WVTGnJyebQ8BpjpbdGVFPSk6/rb32z5aiN80li03oxfaa5Z72twM9b3qaXzSgFzAX5/OOzl/MeHk+401uyquzcQunw+ZO+M0edp8/4LKQar+QYL0QbTYbbPLUz/hHL+PHHqbfu5s/2Gtxx81q0tlCbGfBszZnmptRzMzHzc2IZmajpmYDRia9e0x7jCy6jSw7jSzb9pi1GJq1GVm0GVu0Gltly2m8AAAgAElEQVS0mFq0mFk1mJpXGezBIg2wuruxBoYVKyrfbYjebYDebYAyBCRrUM6sKeuE1WVH74fG/2cflJ6wJuPxh9DIqjzh/1kA3v/DlSR8CEG8Jn1QkvA+qv+dByUJaxKFH0IjShL+HQDe/x0lCR9CEK9JH5QkvI/qf+dBScKaROGH0MiqSHg4fX+CLp6gixVMsYIpAT4ZIjldJKMJpTShlCqS0cRSukRME4uoIj6JzyNyV8ThjrE4Y3TOGI07QuEOU7iDZG7/OK8PEL9vnNc9wu0c4nYM8Nr7eG19nNZuVnMno6GVVtdMrm4Yq6wbwdeM4GpGcLWjuJpxXA0ZX0fG15Px9TR8Pb2qnk5ooBOaqNXNtJoWWl0bvamT2dLLauulN3cxmtrZ9Y2cKgIfg+YV3eBfvyC4dvZHgfL+BOW7o9W9O/p+5p6CIQIEkCCWM0QyhnAFA4GEJhBTBWKqUEwTCCl8PpnLJbI5AADvxOSMMTijNO4w9R0JnH4St4/I7SVyu8fYHUPs9gF2ax+ntZfb2stp6WI1dTAaWmi1TQAJ+NphXPVwRfVQedVweRWxgkDC1pKwtWRsLRlXS8HVUfF1lKqGFTVSCI3kmmZqfSu9qZ3W2EZvaGXVAiTwMBhe0Q3e9Qu8KzlP+EoSlCSsjoQfbt6bYAkVgEQrEspYAhlDIGUIJAyBmA5ISOPzKVwOicUiMlhjdPYYk01kcYks3jiLR2TwRxn8UTp/hC4YpvMHKbx+MreHyO4cYbcPctr6uW2AJ3DbugEYmtsZDS3U2qbxqvqxqtoR3DsS8MSKKhK2hoytpeLqyLhaEqC6cXz9OL4OUGXteFUtqbqOXNdIrW+hN7Qy65s51bU8HI6HKuYWXuXknX8s5Pw7idHK31FmRx9CYrMmfVhVdvTdzG0Zgytj8uQsvowtULAFsj9IzBSImQIhnc+ncrlkNnucyRpnskksDonNJXMEJI5gnC0YZ4sAcSTjXPEYWzjC4A9SBX0kQQ9R0D0i6BoSdA3yO/r47T3c1k52cxujsYVS10yqbiBW1o5gq0axleOAJ1STsDUkbM04tmYMW0PE1RJxdSuf1URcFRFXNV5ZRSJUk2sbqXXNjPpmTm0Dj0DgYdEcVAG76OpjMV9JwpoE00fdyKpIuDcxIyIxxFSWjM6Vs3gTbMEkVzjJFU5wRQquWMGRyDkSGVssYYqEdD6ABF0gXJFoJWUSkngiEk9M5suoQgVNJKMIpCSeaIwlHmVKRhiSIYpkYFzSNybuHRJ1DwjauwEYWjoZTR20hjZKbROJUEeqrCHjq0k4AglLIFZUjVVUjVYQRrDVI9iaEWzNKPYdCZXjODwJX0WuqqcQGuk1TQAJNbX8Kjwfh+aUFz+WiZQkfNRBvCadXxUJd6VTglGqaJwhpXAmGPxptmiGK5nmSqY5kkmOdJorn+LKJ1c0wZVPcOUKrkLBUcjZcjlTKqWJpVSRlAIU1nK6RMGQyGkiCYknGmeLiSzxGFM8QhMPkcQDRHHfiLhnUNjRw2/r4rR2M1p7GE3djIYOWl0LvaaRRqijVBJIuMqxCtxYBX4EWzWCJQxXAIXESEX1GLaaiCWMY6tIWAIZW0fBNdArG1iEem51HY9QzavCc/AVjxVyJQlrEkwfdSOrI0E0wR8giYapUiJrksKbYQhvMUUzTPEMQzzFlNzkKGZWdJM7eYs3BYg/fZM3M8OdmmYrppjyCbpUQRMDokvldImUKhKTeUIgZWIJR5mCYZpgkCwcGBf1jYh6hkRd/YKOHm5bN6u1l93Sw27uYjW1sxtamXWN9OoacmXVGBZPxFWO4gj/nYSacSB3qiZXVJMraigVdTRsHQNfx66q41bXACIQnkxOKkn4qIN4TTq/KhLuC+TinlFpH1E2QFIMUieHaZOj9IlR5sQIUzHKmhrnT65oiiSYIgunaZIZhuwmQ36TIZ+hy6ap4kmqeIIinCAL5RSBlMwXk/kiEvcdCYIxJn+Yxh8k8wfGBX1jgt4Rfvcgv7Of394taO0UtHZwmzs4ze3cpjZOQwuzrolW00CuAupjYmXtKLZmGFM1jKkcwVQSMQRSOYGMIVAA1VAAGGqo2BoavppBqGbV1LBrax5PKW8cVL47Wt27o4c8ibxjUNYxKO0YlLYPAJ+dQ9LOEXHniKRrTNZLkvaSxD0kcQ9Z2kuVDzImR9hTo9ypMd4UkTdJ5E4SuRNE7sQYV07kSokc8ThHTOKKSVwJmSsisYVjDMEwRTBIEvQThb2j3O4hbucAv71L1Nomam0VNLfymlp5TW3cxjZOQxurroVZ3UQnNNAqa8kVBCIKN15aMV5aQS7FUVB4MgpPRuNpGAKtnEDFVJExlWRsJaWyil5NYNbWPFKSoNyfsMr9CQ/ZPEVLp6y5U9LUIWlslzS2ixvbRQ0dooZOYWOXsKlH0NTDB9QrbO4XtQ1IOkakXaPS7jFpN1HaOw6onyIbpEqH6ECJPMqUjLMkJI54RaJxlniUIRqmCQcpgr5xXs8ot3OQ19HNb+sQtLbzW9vfeQK3sY1X38qvbeZXNXBx1dxyHLsMwygqoRcUUvKLKAWllCI0paScUopjovAMFI6GwlExOEoFnoKvohEIjBolCUpDAP4HVpUdfUdnyuubZHWN0roGSV2DuLYeUE29sKZBUNPAr24EVNPEr2kGIrW2hV/Xyqtr5dW38erbefWd3MYufnMfv31Q0DUq7B0XDZBFg2ThME00whCPsd5LOMIQDlJ5fePcnlF2Vz+rrYvT0cXt6Oa0drEa2zh1zbzqBj6OIECXC4sLRTeuCa5d5F46yzp/mp57hnI+l3r5CjUvn5Ffwi4s5RSWsYpRjFIMDY2lYfG0SgK9uubR1LSyTliTVPujbmR1JNBostra95LW1gKqqZXU1Ilr6oTVtQJCrYBQJ6iq5a+IW1XLqaplV9Wxq+rZVY0sQiOrpplV38pu7ASK4LZ+dscgu3uE2z/OH6AIBqnCIZpomC4cogkHqLw+EreXyOkZYXf2c7r6OR297JYudn0zu6qaU17OLcrnX83lnzvMP5HCPxzHORDFTA+lpUfQDsTRD6cyTh5knznJO3+ed/EK92oeJ6+QVVTKQpUzy3HMSsKjCWWdoLSF1XnCAwpZQqhaEUFCIMgI1RJCtaQakLi6WlhFEFQS+HgCD1/FxVWyKyqByCvHMQDhGeWV9IoqGpZAw1XTKuuohEZaTQu1ro3W2MVo62d1DHK6Rjk9Y8BKpH6SoI8s6B3n945ze4ns7jF21wiwHKOpk11Tx8ZiuMXXOJePc04lcbMCucnOgjgbYaw5P9KMF2nJi7bjxbpw4r04SaG89GT+wYP8EycFuecFV/P4+cXcEjQbVf5IplB6wkc9nK9J51flCXdJJAEev6IqAb5KXEkQV1aJqgiSqmpxJUGAB8TDVfEq8JwKHLscx8BU0NHlNFQ5HV1BR2PpaCwVXUFGY8noSlIFgYSrIVfWkwnNlNpWan0HvbGb0dLH7hjkdA5xu0b43WP8biKvh8TrpfJ6KbxuoqC1j9fQwidUCjH5grxTgrPJ3Gx/bpKDcJ+ZJMpQGqYvDdWTButLgveIg034wTbsEFd2hB8nLoKXmig8lCU6fUJ08bzwypUfBQIlCWsSTB91I6si4RaRxKnArQjPwVbysFV8XCUfXyWorOLjqwAGcFU8LEACUMiW45joCga6nInCMFHlDFQ5DYWhlmHIZWhyWTkJhSOh8QAP2Boyro5c2UgltNDr2lnN3ezWXl57P79jiN85yu8m8Xvogh66oJsq7BwTtfWLm1vFtVXi8gJBwWne+VT+8XBRtrd4v6M01lwevkcRoj8RpDcZoDfht1vsbSD0Meb7W/KCHQQRHsK4QElatDQ7+SldebuUMjtaXXZ0k0gCEh4MjonBs8pxnHI8oAo8F1fJxVVysJWcihWV4zkYLAdTwcaUA0KXs1AYRhmaVoailqAoJWXkEhS5FEMqrRgvw5LQlWQMgYytpeDraYRmZl0bu7GT29ItaOsVtA/w20d47SR+B1XQSRF2jos6RyWdA9L2TklDnbgSJcZclxafk1/Jlp+Ol2cHKlJcJ2OtpyKMp4L0p/yQ096QKU+Iwh0q2asjctcXeZlI/KylwS5Ph7qUnvBRD+dr0vlVecIMkQQk/QAJKyrHMsuxrP9SBau8goWpYKPL2WgMG41mY34XC42io8poZWWUklJKSSm5uIxUjCIVo0nFGFJJBRmNp2AI1IoaBq6eSWhi17XyGtr5TZ385m5ucx+3eZDXOixoHxV1jEg6h+SdQxPdA4r2LllTs7yhfrKmcgpbOl18afrq0ZmcxOlDwVNJLrIIE1kActoXOuOpPe0GnnCBKBzhMgcdqb2+xMHw53blzeRKT1idJ0yPk+hYHKMCx3wngIQKZjkAABODoaNRKypjoEoYZYCYpb+LUVr6jgRq6e8kkAES3vGAoZRiqWU4GgrPKCcwcbUsYHFEA4fQxK1u4tY2c+ua+Y2twqY2SVOrtLFV3tQ+0dI50dwla+qQ1rfLapsV1fVTlfib2OLbJRdvXjk0cSJWnOYpirGRBhoqfHQn3fUmXPUUjnpyOwO5lb7cYvezlgalJ6zJsPpRN7IqT5gmUxj4SkC4SgYOT8fi6BVYenkFA1NOR6MopSWU0uIVFVJLCmkropcU0osLaSUlNDSKhkLRylC0UhS1FE0tQVOKUZSiMnIBilqEphWj6SVoRimGiapgoys4GCy3HMctx/Iw5RxUqQBdJsSUiVAl4rJiSVmpBIOWYMrF5VhxOV5cXimtwCuw2Gks+k554Z2SSzevH5s8lzJ5JGpiv/dkjIsixF7sbcF3MuLZ7uab64nM9X5uVp53pPSEVXoChUarqqXhCVRcJRVXScPiKRVYMgo9XlpKLC4aK8gfK8gnFhYQC/PHi/JJxQWU0kJaWREdVUJDlwEkoNE0NAYQqpyKwlCLUdSiMkpBKbWolFZczCgsZBQUsAry2fl57BvXuHlXuNcvCa6el1w4I809Ic09Jjl7WHwmS3wmW3w6W3z2kPDcUWHuceGFk8KLp8VXzkiunZXl5U7eODeZd3Yq7/TNKydunTs4cyJ96kC8JCGEF+rB9rJnOZqybQyetNYpPeGjHs7XpPOr8oRJMo2Mrx7HVhHLcWNo7FgZZrQUNVJcMlxYPFxQOJyfP5KfP1pQsMJDPqmogFpSRCstpqNKWOgyDgbNxWB4aAwPjeah0Xx0Ga+0mFtSyC68wS24xrtxhX/9IjBZduWs4NJpwcVTwvMnRLnHJDkHpYeTpQfjpQdiRRlRgrRwfloYPy2UnxHKywjnHYjiHYzhHorjHkniHkvhnszgncnm5RwS5BwRnTumyD2pOHdcceqg4kiaLCNOEh8qDPfk+dk/6W1VkrAmwfRRN7IqEhRjZCIaP1pWPlSCHigq7S8o7s8vGigoHCgoHCosGiksIhYWjRcVkYpLqMUltJISZmkpu7SMiyoToMskGLQUUyZDF8tKC2SlN+QlV2WF52U3zkqvnZRePiq9eFiWmy3NyZSeSZecTJOcTJUcT5UeT5EfSpSmh0tSQiTJgcIEf368LzfOhx3nw4n3YSf4sBN9Wcn+zOQgxv4Qeko4PT2alhFHy0ygZSbRs/dzDmfwj2aIjqXLTqQrjqUpDiXJM2MlyWE/EweVJHzUQbwmnV8VCbLB0dGCsuH80sH8kv4bhX15+X15+YP5hcOFRcSSYioKyH+YKBQHjeaj0EIUSoxCS1FoWVmpoqxoujR/uvjKdOH56RtnZq4fn7l8cOZi+szZpOkz+6ZPRE8di5w8HKbICpUfCJGmh4jTQsTpoeK0UElKsCTRT5LoI4r34sd58mI9ODEe7FhArFgvVqw3I9abHutD2+dLi/OnxAdQ4oMo8SHkhBBKYgg1KYyeHMZMjeBkRPMP7BNmJwgPJgmzk3+ijStJWJNg+qgbWRUJ4p6BgasFQ3kFw/lFIwWARguLSCXFNFQJC4MS4DCiCowEg5KjyyZRJdNlxTdLim4WFdwsvHY7/8Ld6yfvXDl8+0LmzbP7b52Ku3084vbhoFtZvrfSPWZS3Kb3u0wmOsvjnKX7HEXRzoIoZ0GkC6AoZ36EPT/Cnhduzw2z44TYc0Ls2WGOrDAnVrgrK9yNGeHGiNxLj/SgRXrQojzfiRrtSYn2okR7U6J9AMX4UuP8afHBtKRwRkr0I9KokoSPOojXpPOrI6Grd+hq3lhePrmwiFZaykKVcTAofnmZuKJMVlEyiS2ewRTMlF6/VXT5Tv6Fu3nn7l49c/fSibvnD909l3b3dNzdE5G3D4fczPK/le51a7/rzUTHmTjbmWjLqXCziTATeYiJJNhYFGTMDzDmBhiz/U3Y/iYs/z1sbwNAPgYsbwOW126W9x6mjwnTx4zpZ8H0t2YGWDMCbOmBdvRAO1qwPS3EgRZiTw2zp4Q7UcLcyOEelAgPaoQnLdKbFulNj/KmR/k8GulVkrAmwfRRN7IqEhTd3aRr12j5NzilxUJMmRSLUuDLpnDFtyoKb5dfv4e+cr8k9/6NU/evHHlwIevB2fQHp/ffPx53/3DU3YOBdzI9bqc5zyTaTe6zUkSaKUKN5EGGEn99sa++0EtH4InkeyC5Hki2B5LhgaB5ICiAYBR3KNUNQnOF0F0gdFco3RXKcIUzXXWYrrqMvfoMd0OGxx6GpxHdy4TubUL1MaH5mtL9zGj+5pQAS0qgLSXQnhLkSA1yYgS7MEJcmSGurFDXx8o5ZuVOnVXuT7gz2MMvuioqviYty5tC37iJybuDuXqv7NL94vPfFp5+eOPod5cPPDibfP9k7L0jYfeyA+9m+NxJcb+Z6DQTbz0dYzYZsUcWslscuFvkp8f30ed563E99Nju+ix3A5bHbpanIdN7D9PPiOG7h+a7m+y3m+yrT/bRI3khyR5IijuC4g6luEEprlCqM4zqDKc5w+kuCJarLstNl7VXH5C7Adt9Nxtoag/T25jlY8b0Maf7WNB9LJg+Vixfa6afLTPQ4fFAh9ITPurhfE06vypPeDTaPYO+NIO6eLPs/O3S3LslZ+8Xnfr2xrFvrx367nLGt+cS75+Mvn0wcCbdcyrZeSrebiLWUh5pIg0zFAfrifyQAl8E1wvO8USwvfXZPoZsb2OmtynTx4LpZ80KsGUH27PDHTlRTpwoJ1aUAyPKnh5pSwu3poaYU4JNKYEmVD9Dso8B2VOP7I4kuyGoLgAMDGcY0xnOcoGzXRAcVyTHVYfrost11eO46XP2GnAAMAzZHnvY3sZsbzOWtyXLx/pxn/ItqnJmbXUza09HWh+Unb5XcuJuwdG7Nw7fzTt4//qBB5fT759PvpcTd/t42FR2gCzFXRhnz4u05ISZsEP3sIMNWUG7WQG7WT67mT57mL5GDD9jZqA1O9SBE+HCiXLnxHqx9/ly4vw4Cf7c5CBeagg3JZibEsxJDmAmBTASfRnxXox4D/q+vYwoZ1q4PS3EmhpkTvU3ofka0T130931mXt1mW66LFddtosOZ0VsJx22E4LtjOA463BddXlu+jz33VwPI44nwMPj3malJ6zJsPpRN7IqT3jWX/NtftaD65l3L6fevrT/zoXkexeT7+Ym3M7ZN3UiUnYwWJDhw0p0pUbajYdZjYZaEsMtyZHWtChbeqQDM8yZGe7GinBnRXuy4/w4SUHc1BBeZiQvO4adFcs+EMM6EMvOimNnxwOfmXHMjH3MjFhmRgz7QCwnM4qTEcFODWUlBbDivRn7PBgxrqwoJ1aYLSvYihNgwfE34/gYczyNOO6GbHcDlqse2wXJcUJwHZEcRyTHCQkQ4qoH5E6eux/3KNcdKT1hdZ7wU0/Vvatpty/tn7mQOHkufvJswuTZRMXZBPmZeOGJGEZ2GDUjaDzFbyTRZzjBZzTRj5QSSM0IZmSGs9LD2SnhnJRITmoUOy2KnQFEPyd7H+dwPPtIPPPQPsbBffTsffSsffSseMaBeGZmPCsznpWRwM5I4GTGczLjOJmxnIwoTloEJyWUnRzETgxgJ/iw4rw4+9y5MW68KBdehCMv1JYXbM0NtOD5W/B9zYTeZnx3Y7aLPtMRuSI40xnBdkU+7qpVesJHPZyvSedX5QkP2/GKc8nSM4nC0/G8k/HcUwncnGRuTir7bBr9TCrp5P7x48kjR5OGjiQNHd4/djSDdOIA5XQ2/cwhxskszrF03tE07tFU7pFU9tEU5rFk5rFE1rEE1tF99EPRtOwoWlYkIzOSkRnDyIxhZkZzD+zjZcbxM+IEafsEabGCtBhBegw/I5qXEc1Nj+ZkRHIywjnpYdy0EG5KEG9/AC/Jlxfvydvnxotx4UW7CCKdpRFuwkB7tqcZw82Q5WLActFju8A5TrAnHdVKEtYkmD7qRlZFwq3mSvbJdOapdPqpNNrpVNrZA/SLRxhXT9CvnaJeO029cY58I5d8PXf8Wi7x6nnSlYukK5dIVy6RL12gXTzLvHCKc/4EJ/cEJ/cYK/cI89xBxtkDjNMZjFNptGPJ1KOJ9MPxjENx9IP7GFmxzAOxQLJ0IJabESNIjRKmRApSo/ip0by0KICEjBhOZgznQAz3QMxK4hTOSQvlpIZwk/15SX68RG9+gpcg3luW4C+KdOcE2nMCrAX+lgI/M56XAddN54nSE5RvUVf5FnWitYmUc5J0/hTp4mnSpRxK3gV60TV6WT4NVUBFFdEwpVR0GRVdRkGVUcrQlDIUpQRFKUKRC4qpBQX0gjxmwXUWoGvM/CvMvEvMaxcYV84xL+cwLp5iXjjByj3GyjnMOpPNOJlBO5pCO5xMP5jIzNrHy4wSpEfy0iO5aZHc9EhORiQ7M5p9IIabFQ3oQDQ3M5KbHsFNC+OlhghSg4WpQcKUINH+QFlqoCjOixfpyotwEUe7SaKcRGHWgkCzH/ublJ7wUQ/na9L5VXmCvKdv9NoN4o1CUmExqaiEgkJTK7BUHJ6Cw5NxeBKu8ndhK6lYAqDyKgqmkozCkVEVFDSaAqzKRtPRaHoZmoFC0UvL6MUljKIiVlEhuzCfm5/HuXGVc/0i+8o55sWT9Nyj9LOHmKcyeUeT+YcTuIfiOFmxnAMxnAPR7ANRvKwYfnaMIDtGkBUtyIwSZEQKMiKE6RHi9HBJeoQ0I0KWESbLCBYm+fDiPATxXrJkX0WyryLRUx7n9nRUuXtTWTGvrmKWjZBGUZXE8hpSRS2pomYcV0uqrB+vrCPia4m4mjF87Ri+hrhyARQJV0PC1VCwNZSKanJ51Xg5frwCT67AA2fRVeAp5YCoGEA0FJaOKmeUYVgoNKesjFtWwi0t5BXnsYuucgov8/LO8S+c4Oce4edkcU5lcI+l8Y4k8w7FCw/uE2XHirNjJFnRkgNRkswVZURJM6JkmdHyzGjFgWh5ZqgkJUCY5CdO9lekB09nhs5khtzMDJmjKNeiKklYHQkKKodY0zpe206qaRsntBKrWsarWohVTWP4+jFc3XhlAxEP3OgxvgID8ImtHi8njJdXAiSU40nlOBIGN47GEdFYIho7jgaex1HY8bIKUimGjEJTUSg6CsVEl3HQZVxMKb+8RIAuEhTlCfOviK5fEF0+K8o9ITqdLTqWIjoUL86OlmZFyQ9EyDLCpamhkrRQSWqYJC0C8IT0KFl6pCI9VJ4SJE8OkO33V6QGTqUHT2eEzGSFzVKHlNnRmiQYH3Ujq8qOpjgSausAtXWA0tJPauwl1XWT67rINR2k6rZxQvM4oYlY2TCGAw6vfqcxbPVYBUACqRxPwWApmHISGjNWhh4pQw8DwgyXYUfKKkZLMaMlmLES1HhJCbmkhFpSQi8tYZWVsstK+KgSWWmxvCRfUXhNcf2C4tJpxdlDsuMp0sP7JJnhkvRgaWqgNCVAkuQvTvQTJfoLEwMFSUGCpCBhUqAk0U+a4CtL8JYA8pQmesmSfGRJPk/HlSvwlJ6wOk+4KVCwuon0rjFaxyigtmF6yyClqZdc30WqbRuvaR6pahjE1Q1ha0dxdaO4OuCqm3LCWHkVCYOloNCUsmJSSdFIccFg4Y2eGze68vK780v6i8pGSlZIKC4bLyomFxVSCgpphQXMwiJ2QSE/P09+48rEtfMTV85M5B5VnDmgOJEsOxQrPRAiSfMTJ3uKEveK4twEsW6C2L38GA9utAcn2oMd5cGO2MsOd2aHOLCC7VjBtqxga1aoDSfUlhNq/WRQudpCScLqSLglmmT1khgADERG5xi9fYTeNkxt6ac0dJPq2ol1rcPVjQOVdf342kF87SCudqiCMFReRQSqgnI6poSGKhgrvNp1+VzdmeOVx49UnjzZeO5i99X8sWI0uQRNLiqm5t+g37jOuH6Zdf0S5+ol3pULoks5inNHFTkHFKfSFMeS5Idj5dkR8sxgWaqPJMldGu8miXcRxzqJoh0FkU78CCdeuDM3zJkd4sQOcmIHOrACbBl+VnRfC7qvOcPPnOlnxvQ1fdSrfHekJGGVJAjlrN5RRtcwrXOY1j5Ibe0nN/eRGrvH6zvH6tpH69uGapv7CE29VQ29+Jre8qp+DHaoHEvCVtCwaGZFMQ2TP1RwoSHnCPpASlFKEjozq+HU2f4rN6jFGFYpilmQz8q7xLl6ln/5hOjiEfH5g9JzBxSn0yeOJU0cjlVkR8ozQuVpQfJUf3myjyzRQx7nJotxlkY7SiPsxWG2olAbYbCNMNCGH2DD9bPm+FhzfGxZXtZMTyu6pwXdw5zhYc7wNKN7mvzQoyRBScLqSJjhi+idvdT2HnJLN6mpc7yxfay+fbSubaS2daSubbS+faihfaCurbemubeytqcC34vBDFdgqFXlzGoMk4Ci44qGii415hzBZ6ViM9Pqjx7tu3CZeqOQV1wmKCoU5V0SXTklvXBIlps6eTZh+lTMzLGIm4fDZrJDp9MDp1L8JhJ9FPEe8jh3eaybPNpVHuEsC9Mny94AACAASURBVLWXBNqIA6xEfhYiYHmFqdDLROBuxNu7h+Oyh+1ixnAypzua05xMac4mNBdTmosp1dX0+y4lCUoSVkfCJJtPae4cb2gfrWsZqW0erm4CVNM8XNM6XNc22tA90tQ70tw71Ng1UNc8QKgZrKwkEvD0+ip2cw23qZpZgxtDF3Rfzmk/e6wv9yTp2kVe4Q1Jcb688PpE3oXJyyencrNmcpJvnYq+fSz4zmHfOwc8b6e730rxmE7cOxXrOhHpJA93kIXYy4LsZAF2Uj8bqbel2NNM5G4idNsjcDEUuBgIXPQETjo8RwTHXpdps5thZUizNqRa7qbaGlDtDKkOe6hORt93KklQkrA6EhR0LrG2bbSmZaS6aYTQMFLVOEJoHqlpHa3rJDb2UlpH6F1EVg+J1TPO7Bqit/XQ2zpZHR287i5hb5+wu5/f2sGoriKV5pMLLnAKcmVF56eLcm/mnbp99eidi1l3zibfPRFz90jo3Wy/u5nud/Y734yzm462ngy3UISYSwNMxd4mIk8Tkbux0NVI5GQscjQSOewR2RuK7A2E9npCO12RLVJsBxfZwoQ2UL41nG2JYJrr0M2QNDM41QJOs0TSrHVotro/tCnPO1KSsEoSaDxiTcdYdesYoZlIaBonNJOq20j1PZSWQVr7GKeHKhxkSoY5ilG2bIQhHaZIh8nSEbJslCIdoUj6SZKuQVFjkxCPFqGuTpScvV144l5e9v2L+x+ci39wMurekcC7mV53Ul3uJDrdjrWdDrdQBBjJvAwk7npiNx2BC5LvqMO3RwpskQJrHYGVrtBCV2ShJ7bUFwOfOmJLHakVUmaDkNnApTZQoRWMa45gmSMZZjC6GYRmCqGaQ+nmUKoV7PvWGuV8wkc9FbAmnV/VfMIETTBe202u7aTUtlNrWyl17bT6LkbzALN9lNNFEvXSZQOsiSHW9DBzaoQxNcqYIDJl40zJGFMySJV2jSpauhS1NRPY4unS87cLjt6/lv4gN+7BqbB7h/3uZHjcTHSairKeDDefCjKZ8jOa8DSUuuqJHXWE9nCBHZRvCxVYwYRWcJElQmyhIzbXEZshxWY6kj9IZqEjt9KRW+vIrHWE1kiuFZJppUO3QFAtoBQLGMUSTrGCk60RD1uVq7KVnrA6T5hkCMn1vZT6bnp9J6O+nd7QyWzsZbcOcTvGBV1kUTdV2kOV91ImekkTveMTg2TFCF00wuAPUEWdI9KGzglC9VR5yc3Si/cKjn97Nf27szHfHgm8l+l+O8lhOtpaEWwi9TYQe+hK3ZAyZ6TcASm1RYqt4EILqMACKjCHCM0gYnOY1AwpNUNITRASY5jUGCE1RkqNkZIVAX9kjpRa6EgsdQSWSK6NDstGh26NpFoBDFCtkFQbJNVO94d2ZXakJGHVJFAaemlNPcymTlZTB6upk9PSw2sf5HeOCrqI/I4xcQdR1jkm6xyVdQ5JuoZEPcPc7mF2W4+wtlGBLZ8uvXErP+fulYPfnU96eDLsQZbX3QSHW5EW00HGkz67Ze46YieYyB4qtoVIrSFyK5jcCi4zh4nN/ksSM5jUFC41ASTeA5UYwaVGSMk7mSB/9wdzHZE5km+O4FshudY6HGsEyxLBsIIzrRFMayTTVuexsk5Qrspe5arsaaaQ1tLLauvltnfz2rp57Z2Czh5hd7+4Z1DYNcRvGxIBFzOPyrqGxR39gtZuXks7s7GJRajkl+VP5p2+feng/XP7vz0R+SDL516Sw+1w05t+BtMeupMu8EknuNwBJreFym0hcmuwwhI8YQGetIBMmsPlplC5KUJmipCbIqQmSKkJQmoCl5jAxUZwiTH8nRtIVjCQmuvKLHSl5noiU6TABM63gAss4QIrhMASybcAfsu1RHDMYY+blXWC0hNW5wk3OUJWRy+3u0/QOyDpH5QPDk8Mj0wOjygGhqW9Q+LuYXH3qLhrVNQ+KGztFjS0CGoIXGwpt+gC/0KW9HjUVHbgrXTPO8mOd2PN74cY3PNB3neH33OG3XOE33VE3HZA3LJD3LSD37KD37KF37KB37SBTVvBJ03hE6YIGQAATGwEFRvBxMZwsQlcbAYXmyPE5kixOVJijpCYI6XmOjILHak5UmwKF5lChSZQoSlUaAYRmkEFpjC+KYxnCuOYQJ80KfesKUlYHQm3BSKAgaFRxRhpmky7Q2fcZzLuUqgzo0RF/4ioa0jQOcxrG+Y19/Pq2wVVBCG6UHD9lCAnWZgVIE10nNxndTPK5E6Y3v0gxEMf8CMP0BM30I8u0B+dkY+ddL531PnOUedbR51vnXQeOCHvOiBu28JvWsOnLZFTFsgJM7jUFCYyhQDBbQoTWsCFVgiBFVJghQTKaCuYxBIms4TJLWByc6jMDCI1AYmMwUJjiNAYKgAE45vAeMYwrjH8SaPSE5QkrI6E72WKqXHKbTrrPpv3LVfwkCf4js29R6XdHBmT9w4K23r4zb28xh5ubRsPXyMsLRReOSE4vk+Q6i7ZZzUdZXQn3OBBqM7DENiTQNjPvtCfvWHPvGCz7sjne/V+dtN/7Kz70En3W2fde07I246IGTv4pDVEYQVTWCLklgiZOVxsAhOYQoCh3RLGt4ILbRBC4I0qUmgNE1tDpdZQuQ1UYQWdWMms5OYgqSlEAtQYcJEpQmiK4JvCOSYrJDQpSVCSsDoSnt+6/T2X/0ggeSSQfc+T3GfybpMZU8NEec+gpL1b1NwpamgXVjcLsVXC4kLRxRPiY3Hi/R6ySNPpEL17wYjvQxCPg+E/hcCfBcGf+cOf+iJ+9kL86K772E3voav+fSed2w6IKQfYhD1MbgeTWEFElhCBJRTI9S3hfEu4wALOt0LwrRF8G7jADi60R4gdEVJHhNQBLreHTTjApuzh03bwaTvYtC100hoyYQOV2SCkNgixNVJoCedZAEUC2wyurBPW5H38x97IquYT5u/e+1EgeswXP2QL71A5EyNUad+YpHNA1Notam6XN7UpaupkFRXSgmuS3GPSQ7GyZI/JKMtbIXoPAuGPAqA/BcCeBSGeByOfBSJ+8kM+8kZ854G864accUJOOiBk9gixPVRgD0wd8OxgHBs42wbOskGybPXZdvpcB0OBk6HIdY9k7x6Zm4Fsr758r+6Eh86Uu870XuS0K2LG9f9j7z3gorjWxv+ZbXQUO2zvve/Se5PeBERUrFGx19jFRtsOu8BS7R3Eboy9YEE6WBJjbu69b4pdOqh5//93WV1XRG9+Es3V7H7mo4eZOWfa8z1POc+codz0pd3yo93yod30pjZ5kus9yLUe1GoPaqVOdejc5YuOpAti8r9NHrMpdtTP2NGDm7f+cf7iD6fP3Tx+qqb8+LW9h6/sPnh1Z9m17fuqt+xo2FTSkKOsz1hTuyK5dnZc/UTfpnjhd6NYP0XTfo6i3IskP4gk34+i3ouk/hxO/SmE8n0Q9YY/pc6Hes2TdMWDcsWTVuHNqPBlXfTjXPDjXvDnXfAXX/R3vhTsdjnU7XqER22UZ+Moj5uj3G7FON6KFtyO4nwXzvwujPF9MP27QOqtkdTbAfTbAYyb/vQmX3qdF73ag1btRqt0pV1xJl8SUy6KyeeE5LMC0r9M1pGJhH6S8D+1tU1Hj9UfPFRdduDanv3XdpdX7j5wfWfp9W27qgoLq7Nk1RuX1iyZWDc9pHGc661Y9g+R1H9GUn+Jpt+PYTyMYtyPZPwSTv9nGOVOMOVmILXen1LtT7vmy6jw5VwJEFwLdayMcrse630tzu9qfMDVhKCrY8KujY2oSoqqHR/ZMCHi5sSwOxOCfhjve3es293R4rujeD9GMX8Ip98Jpd4OotwIpDT6Uep8qdXelEoPnf9wWUyqEJEvCsjneeQzXPJpDukkm3iSRfxps8lPMPkJ/fMTfqq8XrP/wPV9+yv3ll3bW1ZVeqBuX3ndjp21hXk1io1VKXOr5ydWT/avHy2+FdNjEUWQfo4g/6YjgXUvmv3vSPYPoYwbQZTaQGplAPVKAL0ikHMxSHg53P1arH/VuLD6KTENyQl1yaPrdP+Oq585vnHWuJszx9xOjrszM/ru9Ih/TAn6xwSfu2Od78YJfohh3Ymkfx9GvR1CaQog1fmSqrzI1zzIFS6kC07kcyLiGS7uNAd/ikU4ycJ/y8CfoOO/oRG+oRH+sckURTWR0D8SfrhcWbm3/Oq+A1dKD1wpLa8sLa3Zta2+QFEvWVK/PKl+ekj9OLf6GH5TBOtOBPvf0YxfYhi/RNN+0VlHzH+Es26HsuuCmdeCWFeCuZfDhBVRrldivSsSRlZOiq1JTmpYML1x6czG5bPqv57W8PWUG4un3lo06c6Ccf+cF//PORH/nBH8jyl+PyW5/yPR+W4s//toznfhjJsh1KZgWoM/pdqbdNWDeNGZcE5MOC0knOISvuUQT7BxJzi4Exz8t2ziSQ5RpxAYpBN0/E+bCk0ZeJ+7v9v/8++Xx3yn4nrlnkPXSw9Xlh6s3Lvv2rZN17XymvRFdYvjG7/y+S5R9H0M63YY/XYw/U4o4244/W4E7W4E9Yco+q0oVn0krzpKXBnjdjnO+8rYgGsTQyu/iqlOTqiaNeH6nKlVi2fXrVjUkLKkMWVhw+pZTSun3Vo65fslST/Oj/tn8sh/TfP+5ySPH8c53R0tvBPDvRXOagym1QaQK72Ilz3xl9zw510IZ53wp8XEkyLSSRH5tJB6Skg9I6aecaSccaSec6Sdd6Sdc6SdFdHOCin/2mbKwDPphP7phNsVVVf3HK4uPVS3Z2/dlpJqjbRq4+LqhQl1k7xuxnF/iKT+I4z8Ywj1bgj9TgjjViitMZRaH8GoG8W9HudUMdrr8viQymlxVXPG1yyaUrt0eu3y5Lrls2pWzK1aNq965eL6tcsbNyy7sWHRjTUzb62c/N2ScT8siP9xZuiPE11/HC/+cQz/u1HcmxGsxmB6rT/lmhfxkjvhrAv+pBP+pDPxlAvltBvtjDvjjAfrnAf7ogfnohfnoi/3kh+7wpdd4cOu8GZVeLEueTIuuTN/3mX6MrmJhP6R8N3lqmt7Dtbu2tu4uahJnVG3bkHN/MS6SQGNcaJbEYw7IaQfQ8j/CKHdDWd9F8luCGdWRXKuxTldGe9bMS3y0pzxVxbPqFmzqDF1RVOG7hPitanLq9ctqUpZXLP26/p1y29sWH5r/eLv1s65vWLSd4sTvpsbfSc55IcpPnfHiu7Ec29HMRpCqFV+5KuepAo3/DlXwmkX4kk38kk3+ikv9jl/4cUgx4pQp8uhTleCxRXBwoqRvIoQQUUIvyKEdzmIe2Uk+3Ig53IA50oA55d9plnjTST0j4S7V6/X7ilt2FpyQ512Y93shnnx9RP9dBhEc+5EMn4Io/4QTvs+gn0ril8fJbg+Snx1jPfVKeFX5o6vXDWnNmNVrXRtgyy1UZHeqEhrkK2vzVxduXFp1brF9RuWNW1YdnPd4lurZt9eOvn2/LjbyWG3p/h/l+Tx/VinHxIEt2NY9cGUSh/sRVf0GSfMSUf8SWfSSTf6GW/ehUDHS6Ee12J8r48OqBkTUDXa52q0+6Uw8fkg/sVQ4aUw4aVQwaVgXkUoT4dEMO9KMO+Xsq0mP6H/dvbn3kK//IT/uXzp5vaSm7mSWxvn3low6sZk75vx/FtRjNsRtFuR9BtRzMZoXs0oceVo18tjva9MDb8+P6l2zcIG6fob2Zk3ciX1Wek10g3VGWtrMlJqM1c3ZK6oz1jWmLqkcd2iptXzbiydfmPeuJszom9MDriZ5H4jwfFWnOBGDKc+lFYbRK70IVxyx51zwZ12JZ31ZF7wF1wKdrka6X09NrB6TGhdUkTD5OiGyVG1E0KuJ/pdjvW4GO18Kdq1Isa1Isr1UpTzpQinSxGOFRGOlyPEP5ebvqlj0gn90wk/n/3mRq6kKX3hzUVxt6Z63h7D+34U7ftI6neR1BvRzPpYQdUYt8qJAdeSo68vSqpLmXdLvv52nub7kuJbRXl1OZk1ivXXM9ZUblxZlbaiPmN5Y8bSxvRFTevn1a6cWbNocvWshJrJoXXj/RoSnBt7GLgZxWkMZ13zJ131J1/xpV72pVX4sa6MFFaGu9XE+tUlhtSPi6hPiqqdGFM/eVTD1NjGqTH1UyNrJ4VVTwi6Pj6gMjGwMjHw2piAqwl+V+J9r8R7XYn1uhzj/vPB3Sad8Ln36P0//37phJ+P7buR+XXj8glNM/xvjePdiWPcHUX9Pob+3Sj2jQRxw0Tv2plRtV9Prl+/qEm+7rs85Z2SgpubtzYUb67Oza6Ur6uSrKpOX1GXtrwxfemNtMWNG+fVrp1RtXLy1SVJV2bFX5kcenWsV9Vo57pYQf0odkMMqzGG0xDNrQkX1IQLa8LFNZFO1VEu1dEeNXE+tWMC6saF1I4LqxobUjUu9HpS2PWksKoJYdUTw2smhdXo/o2onhhVPTG6akL09aTIyvHhlWODdVSM9v/F9BVa0xhzP8eYW79vfHDxm3unyu4f2fKwPP9xad6T0tzHpdpHZUUPDmy+f3TXvZPl9y58++DaxYc1lY8b6h43Nt5vaPq1tu7nyqv/c/ncr5fP/FZx5n7FmYcVpx9eOnnv4vFfzh3++fSBf58s//exff8+tON/yjf/Ulb8W2nhb6X59/bl3ystuFdadL900/3SzfdLt9wv3XqvbOtvZdt+27/t1/Idvx3Y+Wv5zp8PGC+7fjm4+5eDe349tPe3w/t+O1z2q345VPrLoX2/HNzz84FdP5fvbL1zy6QT+t+nfu4t9EsnfLAAfTEVi0s2p6xPLd60taq27nMXhb/5+ZtI6BeVJhK+GH5MJJhIMAWOdHfARIKJBBMJ/Sbh8ePHv3zo79d3/z60yffV+/WXX3795Vf9Hrryr7/81nMCv/32W3t7+wfTYLKOTNaRTnji4uKAD/qBIIgw+pmZmZmbm5uZmSEQCBgMBoLgB7X6zkpQAICDEDgMDoOAMBBAQAArM3CAtYWNhc0g20G56lwTCV+MQH/whfTLOuoPCbCeHwKB0GNgbm6OQCDgcDgUCv1IJFjCLcygMEsziBUCNIOBA6wthw6wG2Jjk6PKNpHwwQL0xVT8y0iAQCAwGEyPgaWl5cdTCAAAQAEQDsIsoZaWMAsbhJU1zNIcirCzth46wBYzwKpInWUi4YsR6A++kL+GBAAAQBDUk2BtbWVtbW1hYQ6HwyEQyJ+uEAAAgAEQBAizgJjZwGwtobploLntUBsrpDXUBTukbFO+iYQPFqAvpuJfTIKlpaWNjY2ehI/hIeiQ63ESzCEwWyhiIMLGAmJtAbEaam2Ls4Vzh8KneTGuHNpjIuGLEegPvpC/kgQ4HG5lZWVra2ttbW1ubv6RFAIIAAgIxBoKt0OY2cHNrKHmthCzERZwzmBYHGd44bSQf14+YSLhgwXoi6n430KCmZnZRyXBBoqwg5sPAKEDoYjBMAQaAQkiD8pM8LicOau56bKJhC9GoD/4Qv4yEiAQCAKBsLKysrGxsbKygsPhH8NDAAAAAoAWENhAqPkgqPVAwGwwzMzBEsEfZrUgUPTN2uR/bU3vvlNrIuGDBeiLqfh3IcEOajEYZjscZjMCDqfaIkbx8FvmJN7dlNZ6sOD3f9wwkfDFCPQHX8hfRgIIgubmZjY2Nra2tpaWlhAI5J0DY/3YAPboBEsIbCDMbCjcCgk3I1mAAYTBaQl+VcplLaU5z45u+l8TCab3E/qZd/TBI2v6KKq5ubmeBDMzsz/fNAJ1TYI9sSMLEDIQAhsGh2ERoNMQ+BxP6jerp9zfKXt+MP/ZoeLf7zaZdMIHd6VfTMW/UicgEAhLSwsLCwsYDNaPfr+vqhAQAtONVetJMAPAARBwKAyk2UJiGcPzJvh/l7uiozzvxeGijgNFz+40mkj4YgT6gy/kryQBCoXqcy7+fNMIAkLhuvylHusIMAfBARBgKARwcrBaFio6vyG5rTT7+dFN3cc2tx8s7jaRYLKO/lrrqK/O/M9YBwIQKEQXk+3JszCHwGygsCFQEAkB4oSkrXMTfipJe360+NnRzV1HNnce2fL8rsljNiVm9+/9hH76CX+G1PfVRg8J+g0wEGIJRVhDoPZQgGcHSYnxqlQubz1Y+Pvxbd2HN7cdLO4+vPn3H00kmEj4QkkAdfrgVZ4FFGoFgkRrWAIPs2fJhJ93Zb84sev3E7u6Dm9p3qftKC/4/a7JTzCR8BeR8OdHinrphh4SICAIAyEwALSGQZ0ww9ITAmrVK9uPb/79bOmzE7s7Dm56ulvdtk/z4k6dyWP+YEfzi6n4F3jMOkf2z34XpxcIOnUAAFAIFA6BmAGAvZVFnBPn8Jrpv+6SPT+zo/v83pajW5+W5rXszurcpzaR8MVIc38u5MslAQQQcLgZBGoLAuwhA5ZE+TTkr2s9lPv7mR2dp3c+KM19sFPRti+7qzz3xQ/1Jp3QHxn6Mur+BSTowjofZ0T5tWYAARAKgcGgZiCIt4aPc6LuXTH1tzJN14nNz05sai3Pe7BD/nSvsvtw/vMTJb//ZBpZM/kJn9xPAEEQ2vP7GDaSfhytZzgNBCAgDAIMhABumEGSsf51eaubjxZ1ndjSdaiwZU/W4x3Stv3Zz78pfn5qy+//umnSCV9Gv96fq/ikOgEEQf1Lmx9PJ+hg0A2n6bKYzAEAZw0d60I/ui75tzJ1+zdbOo5taSvPb96T1bJH1XUo7/mJkmcnt/z+k4kEk074hDrBoA2gUN2412tL5k8tvYyeQqAgCNiAgBhpty4x4MbWzI6T27pP7eo4trVlf37LPk1Hec7zowUvvinuPlry4keTdWQi4ROSAIVC4XA4DAb7OG/kvJwYpocEEIAioFBwBAKMF5H2rJ5672jR83N7fj+zt+vY1rbygvbyvOdHCn4/Vvj8cH53ufb5HZPHbCLhU5Ggn+DIzMzso72R81LJQAAAAoIADGGOgNLsYCti3Oo3bei6uPv3i/v+9/TurqOb2w5oOw9rfz9e/OJo4bNyTfe+7Be3a0x+Qn8s7C+j7qfwE/R2kVnP7+O8tq9PtNOZWToSenK+beCgD8mueF7MbwfVLyr2/n5+d9exko7yvPbynK7Def97NP/FAc2zvcpnuxW/364ykfBlSHN/ruITkQCHw/UzGn0cD+Gl/OszLCA9eRb2FtApXowzkpkdp4p+v7S7+9Tm5n1ZLXsV7ftV3YfUzw9md++Vde3M6N6Z+eJWpYmE/sjQl1H3U5AAhUL1c90hEIg/a3RZHzB95Wy/dBL0JEABwBoEmMPMMpMCv9uy9sW5TS8ubG8/qn24Pf3pzozOMvmzA8quMnn7ttS2zes6tm18fvOqiYQvQ5r7cxWfggR95PTPmtjr5aDBKwje/h8BAMPhYBDNYfeypPsHlC/OlXSeKGguy3q0La1lZ0bnPmlXqbxjt6R1y8bm4pTWLeuf3bxiIqE/MvRl1P0UJOgH0f5cbfBaC/RGATQDAIIlYpYv76x03pOjOR0ntE9KZU/3SNp3S7r2SDv3SNp3STp3Sdu3pj8pXtu8ZX23SSeY3tT5NG/qfAwSesu/0d82ACCys5IlBt4qWdd2NLe5XPF4V1pHqez3UtXzvfLOXdKOnfLuPar2bdJHResfb03rMvkJJhI+GQlGgtrf4pseQu/WQAAYjgDDKUPKlyXd25/VekT7cLekeVf681L573tVXdvkbVuk7duV3Xty2ndlP9kma92b9dw035GJhE9DQm9p/Zh/QwGAZGM224N6XbGw7WhB62Ht492y9j2Zz/ZKn++Wt23KfFqc0bZN9WxfQde+/M592mcHi/7XNMZsIuELIaFHTeh1hTkACIYOkMR7/Vi8tuNoQfshbds+Vfc+aeeO1Gc7Je2bMltKpB07sp+VFj4rK3p+oPj3w8X/34+md9ZMY8yfaoz5I6oBPQEQXeIdHNBNYBFAGLZzXvyDPbLOI4UdB/O7yjXdezLbt6x7viOza6ukY6u8c5eme1/+s7KiFweLX5Rpf//e9M6aiYQviQQIYAUBSLawSe7Uc+lzWw/kdB8p7DqQ312W3bUzvWPrumfb0zq3prdvlXTsUHbsVneX5T0vz+vaIX92wzSyZiLhcyfhlUIAILpEbDsI4Iy1Sx0XeKtkY8chbeehgo6y3I7dyq4dad3bN3RvW9+2KaWlZF3LptTW7ZLufVnP9irbitZ11140jSd8GWMC/bmKTzGe8HFNI32mBQSAgsAwCBDBQu9ZPuleeU7bIW3rfm3bXk37LkX3zvQXu9J1JBStflKw6nHhmubNG7t3S7q2pT7NXtxRedpEQn9k6Muo+zmTAAKgPsdIpxlAOABQrMEFfuxrWUueHslvOVTYvL+gvTS/e3fWsx3pL3amdpSkNBesai1c01aS0lqS0rV5bXfJqqfy2R1XTV8SMVlHn7l1pCOhJ9kIBCHmAODqYJM1xuunTevajhW0HiluKS/q3F/4bE/2860bX2xd11GU0pK/qqN4TdemlPaiFV1Fy54XLG7JnNp5+ZhJJ3wZ/Xp/ruJz1gk9L2rqJsSGABAQYgsA0Sxs6YK4B7szOo/ltx0ubC3P7y7Lf75T9WzTuhcla7oKU9oKVnUUreoqXtGVv/hZ3oIXmtmtG8Z2XTpkIqE/MvRl1P28SdArBBgMREDAETBwpg+/InNuy35F5+GctgOajrKcZ3vUz7ZldhWselaworNwZVv+io6C5V35SzqzZ3crpndnTGpeFtV5tsxEwpchzf25is+chB53GQoFbKAAbaD5+jj/W/mrOsqVHeXK9lJZ127ps22ZnUVrOjSLu3KWtOd93aZd2pn/dVfO/HbZV20bx7WujHk027/jW9O3N01+wmfuJ+i+OQ4DICAwFAbxIgwtnBn38/b0rgPyzrLMzt2p3dvXd5WsatMsalHMac+e36pZ2J63pEu7pCt7Tlv6xOYVMY/mB96f6tJxfLtJJ/SnN/0yDjMtswAAIABJREFU6n7GOgEEAQisZ+pTACBYwye40Y+kfPVkn7R7v6R7X2r3jjXPSpZ15Mxtlk57kjmlVTmrVbOgI3dJd+6ibmVy2/qxzUvCH83wfDhB1Hlsq4mEL0Oa+3MVnzEJuqARFACgIAIEhA4WGxK8qtVLWkulXXs3du9c3b1p8bO82W2yiU82Jj7akPhUMrU1e16HZmFX9tyOjKktq+Kezhv5aIrLo3H8zqNbTCT0R4a+jLqfNwlAT+DIFgL4kwduWxDz0+aUtr1pbVtXthcv7MxL7lJMaN0Y/3hN1KOU2CdpE9uUs9qz5rRJpzevG/t4ScTjWb4PJ4ofJXI7j5hIMPkJn7ufoJvTBRgGAxIEqFMbJj/ctbFlx7onhYuac6a3Kye0p8c9XRX6YFnw4zVRzanjOuXJ7dIZzRuSHi6Nfjg78NFX7g+TBI/GcDqPbDbphC+jX+/PVXzGOkGfc2QGATBW0OVhwgb1/Na96S3bUp7kLWhRfdUhT2pJiXiw0Of+Ar+W1TEdqeOfSaa1bZz4aFns/blBD6Z7PZri8niC4Ekip+uoiQSTTvicdYJ+kiMbCMAZap41MeBfxSu6SzPatqS05C5oV331TD6hfXX4vTke9+Z4t6+KeZ6a9GzjxLZVCU8WhT+a5f9kmufTyU7NSbzmsexuEwmmN3U+6zd19CQMMYf4U4fvW5z4cPuGZ3szOzatbctd3KVKfiGb3L4i8v5Mz/vJnu3LIp+vHdO+PLZlYfjT2f5PZni0THFunSBsHctqGU3vPlxiso76Y1d8WN3ahsbTZ8+V7i8v3V9+8PCRa1XVH9bOn1Xrc7SO9NmnIAQAEQCAtrEY70K9mD67dVf6sx3pncVrO3O/7lbOep45qW1Z5P0ZXvdneLUvDn+2PKZ53sgnyd5Pv3JrnuzYmiRsTeS2xFOfxJC6DhaZSPiz5OmPt1NVW5ecPHNAz49IJG7fueuP1/0Ye352JOg1AQQEoHAAtAYAxmDbJWHON3KWd+1Kf7Z1Q3fR2md5S5/JZ3elTmz5OvLhTP9HyX6tC0I7FgQ/me75eIrzk4milvGClkROSxz9SRTxUTi2s7zARMLHkK33t1lVWztp0iR9xv6AAQMKi0vev//H3voZkwADgAEA4OQwSDkx6H82b3i+K/3F5nUvilJ+1y7vls9q2zCxZWn003nBzXNHts4d2Zzs82SqS/Mkcct4fusYTms8ozma8jgM/zAE17m/0ETCx5azt9s3kaDvBfrzr8460n1zGdC9mhNCs9+7LPHRnoznu1Ofb1rzvHD187ylXbKZbRsmtK6Ib10c2bowpG1O4NPpHi1TnVsnitvG8doS2K2xjOZIyuNQ/KMgQmeZyTr6C2JHJhL6w4C+bs+LOSAIAwCcBTjZnVihmttSltG9I6WrcFl33tddWfPbMqa2rk9qX53QtjS6bWFo6xyfp9NcWqc4tyUJW8dwW+PZbTGMlnDq42D8wwBcxz6TTjCR8HlGUXXT0EMAGwBgDoEvDed/v3llR1lae8nXrZo5HcqZbZlTn24Y37YusXN1fPvXYS1z/VqSPZqnOjVPEDSP4TTHs5pHMVojaC0h5EcBhHveuPY9Jj/BRMLnRkLPdKggDAQREGAgCLjj7DRfBd7fvaFrX9rTvPmPMpKerB/dsi6+OWV02+rRHcuiWucHtMzwaJnm0jJF1DyO+3Q042kMrTmc2hxMeepPfOiJu+eGa9v5iXRCTX3DqbPnDh4+sq9s/8HDR06fPVddV/+2Af3+NZXVNSdOnio7cKC0/MDxb09eq6p6//7GW69dr/r29Omy8gP7Dx48c/58dW2d8db3l6tqak+dOVu6v3z/wUPfnDxVVVP7/v2Nt9bU1Z89f+HAocOl+8u/OXmysloXMP1/so6q6+q/PXX6wKHD+8rKDh09dv7ipdr6BuNDvL9c29B4pidie+josYqr1/rc+bPxmPWTq0JACASEwkFd1t0wOBArwB1aM761LP3ZvrSnmrn3UmIeLA1sWRnWtia2fXls68KQlmSv5q+cmqeIWiYJWhKZzfG05khKcyilOYD8xIv40BV/zxnfvuNTkCBXKEcGBzOZLBKJhMPhiCQSk8kKCg6WyRXveqhShSI8PCI8PGLW7NlVtXUVV66uXbfexcWVTqPjCQQ8Hk+j0Tw8PJcuX1FZXdPn0325sqHxyLHjs2bPEQqFdAYDj8cTCAQWi+Xo6DRn7tyz5y+8r25j0/adu2LjR7u4ujKYTFxPXRqd7uLqunjJ1+cuXHx/3es1tZrcPG8fHxabTSQScXg8jU738/dXazR/kITLV6+lrFvv6eVFZzB0LeBwJDKZw+FEx8TkFxTW1jf2eQIJYxL1t27l6tXXqqpXrlrN5fFweDyJTObz+QsWLTp7ofdVf34kQEEoFABgAEAaDJ8XIriWNf/FIfmLvWmtOfPurY56sNi7fUVw5+rozqXRbXMDW6a5Nk8SPJ3AbUnitiQwWkZRWsIpLUGkZj/yEw/SQyf8AzGxY0fxx4sd1TY0Hjx8hMPlvsc9cnR0PHTkaG1D74caOHKkvhaPxztx6rSrq+u7GiEQCGUHDrzdQk/XW7dy9WorK6t31UWj0Tm5eX3WPXfh4sTJU2Aw2LvqDh06NFuT8y7Ndu36dR8fn3fVnb9gwfjx4/Vb+4yi1tQ37N67j0Qiv6sFCAQSFRV9+uy53jA0NA4ePFhfKyg4eNXq1VCdyLz+QaHQmbNm9ar1WZIA9pDgRBwunxZ6d+vaF0cUz/emtmsXPlgb+3Cxf+fy0GcrYzqWhLfO8mmeLH6axHs6ntucyG6Jpz+NpjwJIT71Jz7xIj5205Fw35H08UiobWgsKikhkUivH0JPqdeDAQCAyWTu2LW717MxkIBCofB4fK9Gev3p4uJ66szZXi2cPX8hIWFMr+8YgSAIh8ONqw8YMCAnJ7cXDCdOnuLx+Ma79Vk2MzNbuGjR5WuVvQ69/8BBkUjUq4rxlwOgUOiAAQP0O7xNwvWa2oxMycCBA41bAEEQBntDpkEQ9PTyOnHq9BtHNyKBSqVZWloaNwIAgKWl5eZt296o8hllW7yaeh6i1wnWABDGJ+5eNeFBmfTZAWnXrvWdRUuaU8c+XRravTy8e3lE+4KglhnuTycJn4zjPElkPR3NfBpLfRJBejQS/8gX/9iD+MiV+MCRcE9Mat/+sXTC2fMX6HS64TFAodCw8PCUlLWqbPWalJSIqChra2vDVjabffFShfHjMZBg2AeBQAQEjpw3b/6atWsnT5kyYoS9YZO5ublaozGuXl1blzxzpjEGDkjktOnTJVKZKls9fUbyoEGDDNUdHBy27dhpqH756jVXVzfDVigUKhI7zl+wUKZQpKxdl5AwxsLCwrB1wIABGRkSQ926xqaLl6+EhUcYy72Tk/PSZcvkSuWChYv4AoHxWQEA8DYJW7dtRyKRhkPA4fDRCQkbNqZmqdXLli/38vFBIBCGra5ubpeNrX8jEgz7gCA4dOhQc3NzAADYbM71t+zJz04n6OayMAcABzgw1Zd7Rj6n+ZC8oyy9c+e6zuJl7ZlT2lfGdC+L6FgU1DLLu3mK49NxvMeJ7CejGU/i6E9iqE/CiI/8cQ988I/ciY9ciA/ExHuij0hCcHCI4UnY2dllZEqM+92a+oaNqanGdktc/GhjeepFwrDhwzW5b/Tc3548xWSxDIcYOXKkcfUdu3YbCxOdwThz7rzxDse/OWE4OgQCmTRpsn5rbUPjtOnTjeU4Ln70lcrrxnV37Nplb/+aw6FDhxp7O9r8AmPIE8eOrTOy/S5evuLvH2A47T5JcHZ2MeyAwWB65WJU1dZNnzHDsAMIgouXfP369N4igUgi7dqzp66x6fylitlz5qo1Oa93fpV9+JmRAOomAgasIQDTDrI6zr2ucHnHEWVHaWr7jrWdxcs6pdM7V8W3Lwp5Osvr8VSnx0n8RwnMh7HUR6Ooj6MpjyPJj0OID/xwDzywj9yID52J9x2Jv300Ekr3lxsL06LFS4xlxfAk0jMyDYa4nZ3d4aPHDJuMSYBCoVnqN7p8/W7pmZkGmUMikYa6tQ2NCxYtNsgKi82+8KbC0e+pzsnVd5MAAIjFjidPn6lrbDp4+AiNRjPUHZuU1OeZFxQVDx06zLDbgkWLDEePjonRrwdBMCIy6uqbFNU1Nl2vqTXWOb10wtZt2w23buDAgaqsbOMexHCUBQsXGexMkUj0mvM3SRgwYIBCqeqzBUNTdZ+fddRzgwfAABe0Zfa0kT9uX9t1RNHZQ0J78fIOaXL7stFPZwc8mOz0MIn7KJH1YBT1fiTxYSTxaRT5aTjpcRD+oQ/uoTvusRvxkTPpvoj0q4DUtu2jWEczkmcapITN4VRcvWp83w3lqto6F7eXdoiZmVnK2nWGTcYkODqK+3RMDxw+jEKj9QeytrY21K2pb3B1c9evNzc3X75yVU1fYcfzlyqEYjEMBkOj0cEhIUeOf1PX2FRQVGRnZ6evi8PhelvhrzrRyuqamJhRhmt0cHCo6gnL1jY0Ojg46NfbDRqkA9hIIRjOcNu2HQYLvhcJQUHBhmbDIyKuXe87Unyx4jKDydTvOWzYsJLNW142/iYJPj6+fyTR9XPTCTqVAAyEQ3wJtpvnhf+6d0PXYVlHWWr7zrXtJSvapDNbvo5/NMP33gTBoyT24zHMBzGU+2H4hxHE1mhqSyjpSSD+UY9p9NiV9MiZfE9A/oVHat3655NQXVfvYhTqWbpsuUEC3i6sXL3G8OATxowx9F7GJCxfvuLtinWNTRcuVRg8chgMZtinuq7ezMxM3yyRRCo/eMiwybigC7Sfv3D+0qUrldcrq2t0h25oXJOSYuiSZ82eXfPuQY/DR44azhyBQOiPsndfqaE6h8OtuNx3F3D5WqWvr5++ujEJ12tqbWxsDc1K5XLjEzYuV9XWjR33Mvr0f870xrS0l1vfJGHO3LnGtd5V7hcJHxx8/GIqFpdsTlmfWrxpq747NNzlk2fOMJmvLfj40QlLlnz9rmX06ATDgx85Msjg/BmTsHnLVkPjxoWr169TqFR9dRAEDZtOnT1jaJPD5f7HQQNDxZr6htj4eH1dKBS6YWOqYdPbhdr6BjMznQ8KAAAcDs/V5tc1NkmkMv0aAADc3N3frqVfc72mNmnCRP2exiQcOHTYYLABADA+acK77tviJUu8vV9HaefMmftS771JglyhfNc5GK83kdAvKt9FwuGjx8gUikEg/njBy8v7/MVL+idkTML+d3TqldXVVFofJGzfuctwUCdn5+t/eEi4uq7e3d1DX9fW1rZP58RYgGi0l8ExGAyWKZXWNTYtNPJPRsXGGe9sXK6pb5i3YIH+QMYkbNux06DNDJfwRwoTJ07uk4T95QeMj/uusomEj0JC6f7y/zgC0OfTdXZxOfVqqMiYhOPfnOjzEb6LBKUqy9C+f0BAn3X7XFldV28YDrOzs8vVavvczbDSy8tbfyCdAknVKZAJEyYYDj1m7FjDnm8X1qxdq3d5jUnQFhQaR0gNTf3HQtzo0S9dqTd1Qq+o19unoV9jIuGjkLD/4CECkah/eCAIMlksFpv9R5YxiWPPvwry9IeEvPx8g+i4urr16S73KRPVdfUenp76ugMHDszJy+tzN8NK1qswLgwGU2Zl1TU2zZ4z13DoMYmJhj3fLqxaveZtEopKNhlIAEGQ9Ydv3YKFi/rUCX/EXe5v7KhfQvRFVH6XdXTsmxOGQCQEAjn9ZiD/bZnoc01/SNizr9QgjgKB4OLly30eQh/QvHTliiG8U11XHxzychgEgUCkZ2S+q6JufUOjjY2N/kBwOFwfvUlLzzAc2svb+13Va+rqZ82eo9/TWCfs3rvPYB1BodALFe8883e1XPemTvgUJJxeu7rIx6PI7+VSHOBRHOhVMtKrJNhzU7Dn1gifrZG6ZVuU3/aYgG0xgVui/UvCvfNDPHNDvHNC/HNC/XND/fNDfYtDfbeEeG8J8d4W7L2jZ9kZ4rM71HdvuG9pmH9ZiG95iM+RYN9vgn2+CfI4PtKpdnLE/bWzOpQrunLWdeSmthVIf8zasGly7KIQr5UTRu3JWN64SfavkrSfVMvuZs6/kT730vrkY6unl6+cVbp89s7F03cs+mr30hnbF0zePGe8YmzotYN7P5jKd5FwseIyj/86VUGuUr3zsenkqanPTLL+kHCp4rIhgEOj04+d6Nu4qm1oTFm7DoPBEIkkXz+/TVu21tQ3TJj40pEFAGDJ10sNsay3L+HMufMGoUcgEGXl5XWNTdu2bzes5PF4V95KxNC3U1ldM3rMmLdJOHXmrPEAdtGmzW8f17CmtqGxj9P79CQcTJ4mwdhLcPZSPFJKQMqJSBkRKScj5VQHBc1BSUcqmSglC53FwWTz8Go+IYtHUPLwUg4ug01M5VI28mipPGoal5LJIcmYBBkTr6TjVVScioLJpmA1dEwOHaNlYAtomE1U9HYKejcZvYfisIc89II3699fhbUvn9i5Nrl9/dzm9EW3Vs+SB4pHkYbFO7NkyWOOr511ec1XTaumNC0Ze3luzPGZ4Xunhm6aFFE4MTJvfHje+HBtUrgmIUgxyneFF+fsx8m2iIiMNAiEm5v7e9JFV6xcZWVlhUKhnF1cVq5abUgE6A8JNfX1xFfm2YCBA5VZ2YZe3yBGdY1NVyqvG87TzMxM7xVsTEs1ZEMIhcJLV/oOg9bUN8yY+XrMxM7OTh/4r66rN+RxDB06NL+w0PiIhvLpc+cpr4IKxjqhrrHJsB4AgMSxY3vF5QwtVNXWjU9KsrKywuHwHp6eGkPq1Kcn4fDMGQocSk5AK4gYBRGjImNUFIyKhsmioVU0lIKm40HBQKqY6CwuRs3Ha4REjYisFlOVTkyJKzfTjZ/hKkx3FqY7CdJFvAwBN5PLlrIYUgZFRifpqKBjsumYXBq6sAeGbRT0DjJqF9X+W1f63aSg1q+TulKmt62b+SR1/q01yYogxwj8kBAOZcWEuOKvp+VPiT6+YPylJRNOzR514KvgnRNHFiQE5CQE5o4NzU+KzEsK14wLl8YGLPHindr+UWZ5yZRIDSQAALBhY2ofvVdj0/Fvvx3xKm0BBoPNmjPHYNP3h4Tahsb40aMNJxAaGtqnkbCvbL/Dq/QeGp1+8MgRXae+Y6dhJQQCWb9ho0H4jAv7DxzEYrGGQ0yYOMmwNSIySr8eBMFRsbF9vkSxcPESQ91eJCw22jR06NDC4mJDy8aFPftKB73KObWxsdF7KbodPj0JR2clq/AYJQGjJGJUJGwWBZtNxaoZGDUDk01HK+koJR2pYiKz2Gg1G6Ph4XIEhFxHUq4zTePJVfk5yfxdJQFemQE+6X7+qT5+qV4+aa6e6c6umSKxVMCVcRlyNlnJxmezsHlMXAEdV0TFllAwW8joA0LqjdH+TxeN61w9tTXlq0cbZ99cPU0eJArFD/OikafFxqTPT57i65oS5b9lelzpjNgd4wJL4r2VYU4ZIY6KGG/N2BDN+HD1hOgNUf5TRdTDJdo/3Tqqa2y6Wnkdg8EYHjYWi9Vq83vBcOrMWWeX1wk2AwcONB4C6w8JdY1NmtxcQ7KnhYVF8syZvcbIrl6rdHR0MpxhcEiInpYrldeND21nZ7cxLc3Ap14WT5456+3rY8gTMTc3P9ozPq3fqspWW7/yH6ysrObOm2d84bUNjRKJ1Nb29fBZLxIqrl4bPny4gSU+n19eftCYgbrGpsPHjhtH5wQCwetU3E9PwpHkZCUWo8QZYMBkUbFqGlZN05GgZmN0AHBxOVycRrdgcnhYDZ+gcSRpPJhqX7FqpLsy1E8WESqNjM4Ij0kPjckYGZnpHybzHSn38pK6OkqcuBIxXSGkZvMpORxyLpOkpRGKyLidbEp1pO+DOQltSyc8XTHh8YbpN1ZPygzgBqCG8DHYML+R0ydNdmYwRjIpC0O91BOiiseHaEd5ZQRwU7zoaSFi1egAdVJE1qRRS0Z6hBBG7NQoPwYJdY1NxSWbDM4fAABmZmZz580/ePjImfMXTp87X1BYyGQyDdY8FAqNf3cG3v9rFLWusenS5Sv+AW8kuvn4+Ozas+f0ufOnz53Pyy8wmE+6YfuBA43nWdm8bZshOQ8AAHNz86QJE/YfPHTm/Plvvj2ZrdGgUCgDQjAYbM68ecaSWnH12sigIMOlAQAQHBpaWrb/zPnzx45/k5ycbMiz0DfSi4S6xqaVq1Ybp45bWlquSVl79Pg3Zy9cOHnmbHp6hnH+HwwGe08GXp/K0Phs9eV+RVEPzZghQ6NkWJQMh1bg0UoiWkVB6RYqSkVHaTjYHC4uh4/LEeByeFg1D92zYNQCvNqRpHZjZHkLVIEeyvAgRVSULGa0NDpBGjlaFhonC46WjQyR+PlmeLtmeAglbjyZK0cpZmULGTkcupZG3sahXo/0vT9zdOvi8c0rkp6mzmhaOXGDN8tz2ADKcAeR0M3TL4RCZ1PRGE8qYbK7YG2YR0aosyRUtMGPmRYiUsT7KceFpSaETXThiYfYFitkH4mEmrr6+QsWGHd+AADAYLBhw4cbXiXRiwIcDo+KjLr6ZoKNccf8ASTUNTaVlpez2WyDyOrm2QfBIUOGDB482FhM/08u165f30s4Nm5MNU6w0zcydOjQXkKsTzU/+darEbv37GVz3ji07sKHDTPIt/FrEm+TcP7ipYSEMQadoz+6mZmZvYODQdEZVk6ZMvUNN+zT64RD02dIUUgJBinFoqQElIKAVJAclBQHJRWppCPVHKxOIfCxeUJ8nhCXK8Bq+Bi1AKMWYLP52CwhQelMV/qIlcHeiogweUycYlSiPHqsPHKMLGK0NDw6IyQsNShw40ivND+3DB9nmYej0k2oduLl8Vhb+PTKSN/7yaPbFo9rWzGhNW1m/fIJq1zprkMGkoaj6EwnmsgbSeXZDRo+zMqSO2xABBX5lZCwPsRxbSA/ZaRofaRHSpTvbH9XfxKaZInIlX0sEuoamy5fvbZ6TYohXdRYKA1lMzOzxMTEt9+96j8JdY1NR44dDwgMNORsGg5qKCCRyHXr1/cynOoam2rrG7LUagKBYNjz7QIcDp8zZ+7bZ66H6vCx48bZEL2qo1DoqOhovay/TUJdY9O5CxdnzZ5jHEfq1QIAAHZ2dvPmzzfEGF7C/OlJOJg8Q4LpIQGPlBP0gSMHObUHBjoyWxc1Qqu5GA0fmyPE54kIWjEx15GoFRNzxMRsIUHlTFN6CpQB7oqQAGVEuCJqlCoyQRU5RhExRhaZkBEZlxYRvTE8bGPwyLQAP6mPl9LbXe3hnOvMLxYzKyJ9fp0e17Y4qWPV1OaNs64uHDtfRHQaNoBkjybRBGSu2yAUDW4+0AICH4aAEiyhLiOsk8TUSSJSkoA03pGeKGb5k3H0gVZDoaD6Y5KgfzZXrlWOSUwcMmSImZkZAoGAw+EIBMLc3NzS0tLdw2P/gb7TAcIjIq2sra2srQcOHHj2HW8MX6+u4fH5+t2Ms7KNO/iqmtoMiQRPIFhYWOiPDn919KCg4G97MrGN9zcuX7p8ZepX04YNG2Zubm44czNzc1tb28ioqENHjhrv/Ha5sqp6Q2rasOHDjatbWVkFBQVdunxFplAOHTrUytra3t7+dSbpq1xXfWtHjh0PCg6xtbV9+9aFhYUdP/Ht2wf9P2XIYrH092TYsGFvQ95nlX5ZRwdnzpBgkRI8UkZAykhIGdlBTtGRoKAhlYyXJGRx0BoeNkdI0DqSC1yohS70IldGvisj14WpcedmeYuU/i7yIC9laKAyIiIrYlR2VEJWzFjlqPGyuPGZo8amjRq9MSI6NSQsMzBI7uef7eul9nLMdWaejvD857TYliUTO1ZNe7hu1qlZo7/i4kTDBpJQGDyJiSXzre3QINQaBsLMoFArCDACAfKH2To5DBANs+WPsBMgh2FtLOxA0BoEsxSKj2Qd9brjFVeubtm2XZWtTk3PUGZl7dy95/TZc7080V5V/sQ/axsayw8eVOfkpqZnyOSKXXv3Xrp85Q+2f+161c7de3rOPF2uVG3dvuNtc+g9TV2tvL5n7z5VdnZaekZOnvbo8W/6fOHhPS2cv3ipeNNmhVK1MS1drcnZW1rW5+sW72nhP27qFwmHZs+QElEyEkpGRuoZ0GOgYqB0kVO2TidkcTAaHjZXQMgXkQucqcWujGJXVpE7t8BLnOfjpPZzVQW6KYK8VCH+WWEh6rBITURsTnRidux4ZfwE6eiJmQlJ6bGJadHxGeEx0uAIRWCgMsA9y4N7PML7zrT4x0smP12V/O+UWbsnRMXTHNhDBxBQaCyOPAJJNrceCgGtISAcCoHBYFAECAzu+VLtcAgwDAYdbo6wAkE4ACAgUKXyY3nM//Hum3b477kD/SLh8NxkOQWjW6hoOQ0lp/aYRnRUFhOjZuNeBo44uFweIY9PyuOTtEJyoZhW5MwudBUWeLvl+ntrAn2yQ3yzQv2ywwKzw4I0YWE5YVE54bHqyHhVTKI8Pkk+bpJ87GR54mRJfJIkaowkPFIS5p8d6HooNvBm8ph7S6f9ujL55oqZkjBPX4wdcZAV1gGJQROGDUNbmA2CgWZQEAaBIAAYAoRCYSBgBrxc4AAI100YAwEhULn8E+mE/56nbjqTt+9Av0g4OGe6hIySUtEyKlpGQ8lekaDqIUHDwWk4uBwuPo9L0PJIWh4pn08uFFCLRMxCZ36Bl0uer2dOoLd6pLcq0EsZ4JU90ic3KFAbGpIbEqYJjVBHxqhiR6sSxisSJ8nHTpEmTMmMn5ARm5AZE6kI9d8XG1w7c/y/V866vXT6sa9GJzuxGAMsh1tb2g8fYW+PGTTIHg61hgAwEIDqpo2EIHo+0wnq55uHALrvs+l/AASUyeWfxjp6++6b1vz33IF+kbB/9vQ0okM6xSGTgpRQHCRUpIyKlNOQSjpaxUSrWRgNC5vDxuUonFSsAAAgAElEQVRxCFrdQtRyiQUcciGXViBkFbrwCzycC/zc8vzcNH6uWT7O2T6uOf4e2kBvbaB37kjfnJBATVSYOjZONWasfOwkybhp6eOmpY2dlJ6YKIsK3zIq7PLsSd+vml+xYLIqynckccRwC5itldXgwcMGD3WwsR0C6j6u0CPzAAgA0J7y27EH3RqZ/CPGjv57nrTpTN5/B/pJwoyNRGQqGZ1OQaVTUBk0ZAYNKdXxoM87QmXRUdkMtIaFyWXicpm4PCZeyyTqFg5JK6AWOrNKvITFvo75vk45PmKNlyDHS6T1FuZ7CfN8RLn+LrlB3jmRQdmxMcqEsdJxkzPHT09PmpY2flJmXHzBqKgTMyZdWz63bPrYeR583oiBA6zMzK1trAcOthk0zMxyoO6T5ToS9D/9N9le/fXm/7KPHzt6/zMwbf1vuAP9I2HerI00fCoNn07Dp9NxGTRsBg2TSUdLaCgpDSnTpR6hlDRkFh2pYaBzXsKA0zJxeSxsHhetFeILXWjFHuwiL16+N0/rxdV6svLcmVpXmtaNke/ByfcR5410zwkbqY6OVo1OlCVOkoybkj5ucmbCuOxRo3ZMGFeaPEkeHxrFxGHtrKwH2CBsB5rbDLSwHQyaD+iZHMxAgm5M6U35f/2XiYT/BkH8y8+hXySUL16QzmWkcekZXFoGh5rJ0WWVStlECQsnYWEkTLSMgZIzkEoGKpuJyWHh8tg4LRufz8ZrOeg8rn0e30ErwhQ4EQvdqIWejAJPeoEHNd+VnO+Mz3ciFDqTi1wZhZ4CrZ9rbpCfJjI8e1ScfPTYzMRJmQlJ0th4RWxMenTIDHehyN5ukBkMYWMDs7KFWVjDrWwBuNUri8gAgP5jPHrlYFipA8RkHf3lUvjfcAL9IuHgymUSJ2GmoyDDkZsh5mSKWVIxUyaiy4RUmYAo4+BkHJycjVGyMFkcTI4uiITP5+MLeIR8PkYrQOXxHfL4yDwhqkCMLXQhFrmSit1Jha7EAmdcgROu0JFY5Egucqblu3G13o65gV65YYFZMdGyhHEZCePS48csDw6a4iz0J6AwCN2cwSDCAmJmDkWYQc3MAahZj2mk9xP03b+BgTctJdDkMf8FU8b/N4h+r3PoHwlrVkndXTJcnTJcxOkuwkwXgdSVJ3PlKpxZcie6XESS8wlyLk7Owyh5+lEFXJ4Any/C54twWhEuT4DL42O0PHQ+H5MvwhY44YpcSIWupAInQoEjsdCRWCgmFYrIBWJqvguzwJOvDXDWhPur4uPSRyekJoyZ7e8bQiMxBuq8YwgAgcIsoTA4FALCYCAAMWbgtSHUR8lEwptjur3k4+/zZz9JWCl1d850E2e4iDKchJnOAqkrX+7GV7jx5K4cmRNDKqZKhEQJHyflYZU8XbpRjgCbK8D1ZCIRtAJCgYBQyMMX8LD5AqxWiC0Q4wudibrFiVToSCoUEor4+AI+sVBELnJhFHrx80d65ESFZ8ZEZYyJT/b18sZh8ZZWAwCoGcTcwmIADA7XfXbKyPbpQ/R7rdJZR6Yoqkkt9O9LIgdXfS1x5UvdhFJXodRZIHXSLXIXocJDpPQUKb1EMndupgs9Q0zKEOJ7YMBkc9FqDjqXg9bysPk8XCGfUMQjFPDwWj4uj4fVCvAFYnyBmFAoxhUKcYV8TAEPU8jDFQmIJWJqkQurwEucG+STFRUsjYuY5e3qhcegLawsABgMhJtbWsHhUN20qb1k3ejPPjeZ/IS/T8f/nivtn05YvkDixJA5sxTOXIUTVy7mycR8hZNA7iZWeDrKvR1l3iKZB1/iysp0pEiEBDkXo+KgszloDQeVx8FoeZgCHq5ARwIhn4fXcvH5PHyhEF8kJhQ5EgpF2AKhjoQCHq6QRyjhk0sE1EInTr6PS16orypq5HxvJ18CFmVmCwfgEBCKsEBA4ZDXgVMjAPSRozf9g9ebTbGj98jH32dT/0j4eq5EQJEJaQohQyFkKgUshYCjEHPkzny5q0DuIZR7iuQ+YrmXQO7OljlRZQKCkovL4uKyuVgNF5XHQ+frSMAXcF8uhVxcsQBbIiaUOBGLnQhFYlyRCFvEwxVy8EVsQjGHWMRnFrmJCvzdNGG+SzwdA/EYNMIaDsCgYI+PoB9C6LPnfy35vUsymck6MllH/bOODi2eI+WSZVyynEtRcKlKLk3FYygETIWQJRez5a5cpYdA5SPO9nPM8hEp3blyR7pMSFEIyCoBIVuAyeFjdAYSD1fExZewMcW6BV3ERRcL8S9hcCQWi3WuQiEHX8DCFtBxhUxKsYid7yrUBnisdBOGYbFouCUMgEJBCAQK6hTCf3aVX37b/NUIA8SUd/T36fjfc6X90glHlsxV8MgyDlnBJinYRAWbqGSTVDyyik9VCalKR4bKja32EuT6Omr8XdQ+YqUHX+rMkogYMhElS4TXiHBagU4nFHIxxWxUMdOhmOlQyHbI56CLeHrNQC5xohaLKEUcYgELq6Vh86nYQiZZy6NrPRzXOvIi0Sg0zAwKgBDwFQZ/lARoz4ADCIPAspQqU97Re0Tkb7KpXyQcXbZQJaAreGQFh6Rg4xVsvJKFV3EIWVxCFo+ULaRmO9HVruwcL2Gur5PGzznL10niKUh3YWc60ZRiYpYQqxZic/lYLQ9dyEUVcVDFbFQRG5nPcihgo4p5uE0i0hYn+mZHerGIUsgl5DGxWiq6gIbLYxC1Yu5aASsSaY+GwXVJRcYk9DZ/ev2t1wkw/SC0LRyRm5VtIuFvIu7vucx+kXBsxSKVmKUUUns0A0HOxukG0ViYbBY2m41T84hqAUktouW46GDI8XfJCnDN9HVO9xCmuzCljiS5CKcUYrIFaA0fpeWjigToYj66mIvJZyLzGcgiNraER9wipm1xYpQ40QtFJC0Hp6WjC6joPApGy6OvZVMiRwxFQyFQvaFjsHp6SX7vP0FQl5AHAwA4AEBGmJkXqdUmEt4jIn+TTf0i4fCKhXInpsyRrhDR5EKSgoOXs3STu6iYSDUTpdYNLeOyuSS1mKZx42p8nbL8XWX+rpm+TpkePIkTTeZIlAuxCiFaKURrRGitCF0oxBYLcEUcTCELU8DCFrJxxXxysSOtxJle4EjJFRK0XGwRA6ulYfK5lBQmPmr4IAwMfP0Nuj7CQ69X9Xx6oScfW4cBDNQtAMXWZntujomEv4m4v+cy+0VC+bL5GY50iTND7sxQONJ0I8ostIKBUtFQ2TRkFs0hm47JZuHVfIrGmaX2EGT5Oin8XWQBLjI/kcyDI3elSR2JEjFWJkZniVA5InS+CF0kxJYICcVcQgELp2Vg89l43bCaMzXfmaxx1M0MUMInFrDx+VzyWjouargdBqZ768Dw039+6s0/9Qi88pB17yVAQQAGA2BWACAeNHB//keZ7+g9N9206b/wDvSLhLIlc1P55EwRVeZIUzoxFCKykqczkJQ0lG56C7J9FhWVzcCqOQS1gJrtws72FmT5i1WBTsoAR4W3QObBljhTJWK8VIxRiVBqESpPgMrno4uFhGI+sYCDy2Nj87h4rZCY70TKccKrHTE5YkyJiFgoIBYIyOuYuGh7OyxCl1mh//XYR6/kvkfy9f7zm2FVnUsB1WEAtQeAoBFDvin+FF8m/y989qZTMr4D/SKhdEHyBgYmjYOT8MgKMTXLka4WU3WTnzIwcoqDkuyQRUFl0zAqJlbFwqmEZLUbO8eHl+0nUPmLFP5imTdP4saQOpHkYpxKhFYLUDk8VC4HpeVi8rnYfD5eKyBpBaQ8MS7XEasRo9RCpEaEyhfhCsTEQidyKgcfixmENnutE0BAl4BkAMMwoPZKHbz0J0AAAgMgAwCADAATsMhLWzeZrCNjmfh7lvtFwv65M9LJqEw6VsoiKHhkpYCSJaSq+GQlh6BgYBU0TBYDm8XAquhoBQOtYGFUQqLGhZbjzdb4CbMCHOW+QpkHR+ZCU4iJKhFOLcDk8DC5HB0MuVyMbuFhtAJcngibJ8bk9JDQAwM6V4wtcCKmi/CjMYOxiN4kGGsA47JOb+i8Bl1CBhwAhgGAozliLhl7bdtmEwl/T+k3vup+kXBw5jQp1kFKQMqoGBmDoOCQlDyKkk/V/cshKVg4JROrUwgMtIKOktMdFEwHNR+b60LJ9eLm+IuVPiKFJ0/hylQ6UVRiglqE1wiwOTyMhoPWsFA5TIdcNlKXqSrA5AvRWhEqR+igFiCzBQ5qAUrrSMwUERNxQ/CI1x6zXif0lv5XtpPufwgEhMIgIGgGAFgIJGTwoFUMUs12EwmmMeb+jTEfTv5KhrKXYe118x2RMVIGXsYmKfkUhYCq4JNkbLyMhVYw0Vks3WvNKiZSxbTPYjnoJod0Y+T4iLK8BUpPnsKNpXSmZTmSs8UEjQivI4GN1rCQOQz7HIZ9HgtZwEUVCNAFuuASKkeIyuLbq3jIPBFeIiSOxw4h9ZDwyh/QWUfvIwEGBREICAixBACGGXwiEZ3Go9buMFlHJhL+BBJGSNEjJFiHTBIyk4rJZOClbJJCQJbzSRI2XsLASBm6TyioOVg1F5vNQmUzHdQclEZMyvZgqzy4Cne2wp0pd6UrnSlKJ1KWmKAR6iZRzWWje0gYoWXaF3BQhTxMoRCbL8LlirDZAqSK55ArxMgEhEm4oXSEroPveWNf7yS8mwQQABBQAAGDQMABIOBsY76IT5Y502p3/vlfoTVWu6byZ3EH+mcdJU+VYIZnYIen4xzSCQ7pZFQGFZPJxEm5eBmXIOHgM5joTIaDjIXK4mE0fJxGZ/kg1VxklhCvdKEqXGkKd4bcnS5zp8tcqXJnstKJmC0m5IrwWh5Wy0LlMey1TPt8FrKAgynk4wuERK1Ob2BVXAcNDynj478ijuBZwgeAABwAdalHOoXwbhIgL0cRICBgDwOD7G3WujNVnrTaXSYSTDqhfzqhbObUVNzwDYThG4gjNpBGpJIcUinIdBoqk4mRsjFyDk7K0ZEgZdjLOSgVD6sWYDVCbLYQqxThZI5EqStJ5k6VedBk7nSpG03mSlU4k1WOxBwRPk+Az+Oi81hILdM+j+GgZWJ0Ywg8Ur6QmOtIyOKh1Fx7GQc3i4J0HWRrD4Va9ngAEN1AwXtJ6LGizACAZgUbTxku82Hm+FDq9hSZPObPotv+qCfZL52wa/aUlcRhq8nDUygj1lJGbCA7bKA4pNGQmXSkhIGSsbEyDlrGREoZ9hKGvZSDUglxKjFB6USQOxIkTj0kePSQ4EGXutOkPSQonYhKsY6WHCEml4vO5aByGOgcOjqXjs1jEfL4OhKyechsjo6EBXSs/4ihWEsrKyMSjD1kfVk/zqwfVYYDwHAo4D7MYokAn+NN0Xri63ebxhNMOqF/OmHb3ClfU4Yup45YRR+RQrdfR3NYT3PYSLNPoztk0JFSJlLGRss4GAkbmcFyyGQj5XyMQkxQOBJ0CsGFKHMny73oCm+GzJMhcadJ3KhSF4rcmSAXYZQijFqMyRHqMrc1TJSahtTQUD0w4POFRA0Pk81Gyni4xRxCGBZJGTDAVje1I6h7n7mvV9b0JEAAAAEAAwGAagGJwQxOc6Vq3Yn5rpj6XfkmnfBRu9vPovH+6YTFM1ayHJbT7VcxRqTQHdbRkRt0i30qwz6N4ZDORGawMJkcdAYblc5GZrBREi5aJsAqhASFmKhwJsndKQovptKHrfDhyLzZEk+6xI0icybKHfE6tSDGaIQYjQCjYaNyGMhcOjqPhtYyMIVcvJaLy2Y7SPjYpVxSLBnLGTxoCAwG05Pweoj5tW7Qk6BzmAHAHgQ8BlnOY2NV7vQ8Z1y+C6ZhZ4GJhM9CWD/qSfaLhL1LZ63h4VaxkauZ9il0h7V05PoeEjbQ7TcyHTYyUalsVDoLo1vYqAwOWtKjIhRcjFKAVziTFG46EhQ+HLkvT+rDkXgypW5UmTNJ4URQOeKzxRi1EKXRDTwjc1hoPQl5VHQ+DZPPwqrZGCkPt5RHGoVHsWyt7Xpe1NFR8O4YKggAFgBANQPjUAPXOZI1blStM1brjK3fabKOTNZR/6yjfctmrxXhU3iYNRz0GhayBwaHdXSH9Qz79Uz7jUxkz4JKY6F0yoGFljJ1boOMiZRzMEpHgtKFJPegy71YMm+OxJMlcWdI3KlyF5JCTFSK8SoxNlvUk2HBR2n03gINmfv/s/ce0E2c+d6/JJvmLlldmj6akWbURr2424DpJbQQmjHuGHAvuFvVjR7Se9lNdjc9m55segiBQHpCKgnVttyAfe/e93/eMzIpd3f/9z0bJy8b7nB+x5bHnjkz4vno+2vP8xCq6wn1QQrcZ4D6LEijCV+BqAxJcdJp06ZHfaMfheAfXsXweEIez5E8s4RU9ri1+z34TS7woB149x7OO+JImBoJDzRUdFrRLivSwcDtRqBdp+rQKTsploROWtlNKVhxoBRBSsVioAf6aKBPq+zRynto5QADDdixfreWzaKmU70sBrpo0Iz3O9ABB8ySYAf32VgH6YAZPKAHD+jUB3Tq63XAAQrcpwf6TGiLSbNRh2eolRqRKGHatL/Tg+iC2AK285RNsLKCgEzjz1cJGyzYLq9uP7u+GHTQpn73bq4XlSNhaiT8vq6sk0F8NsxnQTtNUAcNdNCqTvp7EnRREqIB9A8k9OqUIa2sR6foNQD9FqTfRUzWE3q9unAa2ecm2PjBgUySsMcO7XNA+20Q24VhhA8YwAM0cD0NHqCjJBjgdjNZylCLKNIIqpNnzZok4YcZO7G82Gn8mbGxMwUxsdOigmAXTi/QqbrcxG4Pvt8J3uiEDlo5EjgM2HdganFCVUmXAQgwaNCCBsyIzwh1GwCfAejWq1hl0Mm7SHk3KffrFCFK3WMAewxAj17do1OEdYoeStlnAvqtWL+L7Hfr+txkr4vodWl6HVivHe61gwN2iJUFJ7LfgRywIwet6A0MetAIRxcbBg7qwb0mpNtMFOvxLECGSURx06dfzplG5+BM4/On86dP482K5U+f7DxFBbzFoKjWggSd2IAd3O8ADtoBVhM474hbBm+KJPxhR0k3BQSNcMiMhEyo3wSzZgS7DeofSOgi5WxelU0lqcMGIGwEevSqMKUMaeW9tLrfhLCT3RzEgIvsd2p6nViPHemxwz12sN/GkrDHwZJwvQO9wYbdaMUOMsh+GtinUx6klAfMUMhKlFKwUzRTMSt2egw7mZkXXQlyGp8XtWkC9rtgOo8n5/EcibwiStHpxsM2uJ9R7LerD9pUB23AsXu43BEnC1PThD9VlQQodYAGAwY4YESCJthvRrpNQLdB3UVf1gRWFghpNyHt0sr9lNJvUIWN6l5aFdYpeilVjx7oNSN9NrzPQfQ7Nf2sIKBREuA+KzhgBXfZ4L02aL8dOmhFD1rZ6Qo3WJD9euV+SrbfpOp3EtUWPEM6Sz1LMPMnq7wIop1IMWzJOYbP4yXyeLo43gokpZ4BAk6oxw70M/K9ViXb420Bj97NkcCRMDUSHqkpD+khH6326QGfAfKbkG4T3GlSdxnU3XrV5YiZlHXhkg6MtS6NzEcpQgZVj0Hdq1f10MoQpQrp1WEz3GvDBpz4gAP/gYRetscO6GfUuyzAHgbcx66pys5fu8WpucEKHTAp9pgVu9xoi4tYCCThibFx7MLAP653xK7iwo8V8ASzeDwglpchnrHDArXbgJBN1W9X7bIqd1kUe9jOVvU7d3G5I46EqZHwWH1l2Iz6jFCXEewyQt1mmI2bjeoOo7rrexK6SXk3LutEU9sRcQcm9hHSIKUI65W9BqCHVgYpZYBShYxA2AL32bF+B9Znx3ptrIPUawV7oyQMmIHdJmCvCdxvgg6Y4Rtt2K1uzQ12cI9FscsNd3k012okdMr0+MmJ/d+XFGLYPQWnx/JihDyeIT5mJSrsTCMCdnXYIhuwKQesyn6LcsAKDFjAw3dxmsCRMEUSmrb3OIiAHe9mc6loB5tOhToYsMOkbjcoOylFN6Xw6xRBQh7QSH2IuBtO9eESPy4JaeU9enWvQR02qoKGqJnBHjvc50B6nUi/E+tzYD02pNcCDbArzkN7GHivCd5jBPcY1HuMwK1p2uud8C6bapcT9DuxYkphTmI7UgXsyhUx7OaC7PzMmGmC6TP4AoWAlyGZWWkBA26s1wH2WuQ9jCzMyMIWZZ8NHLDB79zDVdY4EqZGwsNN20KTJNiwLhvaaUM7bEiHBeowqzsMKra+RrH1hIBWESQVQY08gEv9URICpCxEK0MGZWgSA6MqxLAk9DqQsBPpc2LsmhdREqJ7L0C7zdBeI7TXCO7Rq3fp1Adt2EE3vt8L7/MgPS5suxFypsyQxfDjYqfHTIsXCGbF8mfM4E+byY8RCfj6RMFqNLWFbfhD+x1An0XRwyjCjDxsUfZYgV4b9DZHApc7mmLu6KGGrQEb5rNh3VaUNTve5cA7bXCnBew0A116VRdbX1P6WBdIHdSpWB5ImZ+QdpPSbp3cRysCeiVrRmWIUYetUMgBBZ1w2In1OLGwDelhoD4z1G+EdhnBvUZwnxHaqwf3kOo9NHC9A7s+DT/g1ez2apsdZI48WT09ZpYgli+YzudPn86blcCblsDjq2J4GamzturUISfR78D6HWCvVR22qEKsqUMWddgCHuIiZo6EKZLwx9oKnxHxmRAfg3RbUZ9d43fiPjvms8NdFqjTpGajZz3bcxFtQAKCtDpIq/w6RZdW1qGVd9EsDD5a4TcqgiZVyAKE7CBLggtjzc6S0Ps9CXuM4D4TzNbXKHgXodxjAPfZkes9muszjT3Z1pUEgMXNjGPryQI+u7eUIIXHU/B4psSZqyDJTiPWb9ewJW071GsHe60Ai4FZFTKpQ2b1IS5i5kiYIgl/qC7rpsFuPegzwn4TErRiIQcedOIBB+qzI11WqIsBL/NgUvtMoN8EBowqv4EtQnfo5J20vJuS+2i5Xy/3mxQBRhWwQwEXEnQhIRcSYkmAe8xQrwkaMIK7TZMkINfT2G5C1a9VDBiB/XbsxgzjvjmuMjvFCBOkAl48nz+Dz+aLpDweNStmniq1XAd2G9FeM9xvRfodSJ8D7rFDYSsQMqsCZmXIpORI+FV7PH8rF59SjfmPVaXdFNBNs3VlvwEOWbAeGx524kEX7ndiPifaZUc6rFCbRd3OqDsYdRcDdjOAz6zuMqg62SiCJcFPyf201KeX+Exyv1UdcMJ+NxKIkhC2oD0M0meC2PZVM7jHBO43wgf08F5K3U/K+ynlPjN80EXty7HtzGDyoVR0Jl/C50n4PJWAp5s5bbYiuZACmhncb0RCBnUvm55C+tnZEUiPFQwzqpBJETYpDt3F9R1xEfPUIuaHqsv8BpDtvtYDfgMUYtCwBQ878JALD7g0AQ/hc+OdDqTNBrZGYeg0q7vN6m5L9Kte1a1X+FgHSe6nJN2UuMMo7WKUfifsc6E+JxpwomE71mPD+s1sBilqwC4DsEsP7DVCu2jVAKXcrQf2mtFdTiqYxRQZYbc4AZsp0CfO9IqTF4GSQlrdYMe6HZoAgwUZOLrYHjs1YpcNGbBAfWZVr0neY5IfuusgNz/ht/LJ/evd55Q04ZH6rSELGjAhkxZi0JAFC9lZB8nvwgNeottLdHnwDhfSZodYWTCrO82qbhNrbMFBr/DTigBrMpYEfWqHSdZlU3c7oG6WBCzMFtqwfgbqN4P9ZrDPrO5jJ/IDAxZoF6MeoJW7dMrdFNCrh/o9hk4PvUUPrSBU64x4mdNY5zU2u4lWB9RhhzrtbJI3aEN77Gj/JAnW6BVMyj6T/G2OBC5OmGKc8HjTtj67pseKhi1IyAKHLHDYioTsWNCJBZx4wEMEvKQ/jej24F2OaHbVxBbdOqPGVt+Mar9RHTCpA0ZFNy3poMXtBmmXRdltVXfbwQCbUWXTqb1WuMcChRkgzAA9FrDPDvVa1AMMsMvAysKAVtWrU+62E3szzf1znF2zXTuzre3Z9q5sps2NtdrVnU7Y5yW63XjAiYTZOAFhF5+0QrstwG6Lup9RHuZI4EiYKgkNFQNWtJ+B+xi4l4F7oiT02NnP8rCTCHt1PV4qnM5a0E367XiXBeowge0GoM0AtBqAdhPQxYA+BvQzap9J0W2UdRpknSapz6IIWFUhO9DjhHqdcI8NmiQhyABBBghbgV5GvYsBd5uiMNCqflq92wTvsRPX51r3LUjrmeMM59gC2aYOD97iAHc6oHYX2u3Gg14s5EbDbqTHBffZoX4bEDX1Ya4XlSNhiiQ8UlvWY4J6zFCYNTjMoD02vNdB9rh07OazLl3IQ4e9+h6vIeylQy6dz6bptGDtDNxqhlrMYKsZ6rBAXRbIx0A+BvCZ1F0mRadR1m2S+xlFwKoIOlRhFxC2gyEbFLACfgsQMAMhE9DDAH0MOGAG+k2qAaNqwKDerVfvMkJ73dT+bOueXOtAjjWcbepK07a4sWYH1OKEO11IwIsFvWjQC4fdcNgF9zqhPgfY7wAO38t1W3AR89Qi5j/UVnSbEJ8Z9TN4wEIEbdqgkw65TSGvOeQ1+92mgMcU8JqDaUwwzRz0mn0uQ6eD7rCTbTZNqxVttaDtVqTdinRZ0S4L0sXAXSZ1h0HRYVJ0meXdFoXfrgo5wZATCjlhvy2qHiYwYAbCZqA3an0mVZ9R2U8rdxnUu0zggBXb5aH2ZJv25Nl6s81dGbpWr6bFjbW5kHYX1OWCul2w3wMHvWhP1Ho9SJ8LepsjgdOEKWrCg03VXQ59t9Poc5sCbmswzRrIdIQyXKFMTzDLE/rBst2hbHc4yx3MdAXSbd0ec5fH4PPQ3S5dl0vb5dT6nKTPTvhsmm4r2mGG2s3qDkbVaVH57EDQCQdZlwYLOlCfFfIxLAkhEwtDmFH3mFQ9RmWvQTlgUO8ygD0mMGjD+zMMu/OsvTmW7ky6PZ1s92jaXWibA2pzgB1OsNsD+9OwcAbek46F09BeD/I2N6OfI2GKJDyvB70AACAASURBVPyprcmf4QxmucPZXtby0sJ56aHc9FBuRig3I5yX+b1l9MzO6Jud2Tcnq29uRm+utz/XNZDn6M2xhrMsoYyopTOhNLPfa+h2Uu12rN0CtluADhvQ7YQDbizkJth8lA3xMZCfYUmImjpkUoajJPQb1P1GIGgEAxakx0vtymF6cy3+bH1npq4tjWh3YZMktDvATjfsS8NCGXg4He9JR3vTkLfv5zrwOO9oat7RQx1NwRxnKNcVyvWE87zh2d5QnjeU4w1le0LZ3t689J68tJ4cb2+Oty/XO5CXtjvPuzvXuyvH1Z/j7MuxsyRkW4NZ1mCWPZDlDGQ6/Bm27jSmw2Noc2pb7XirFW13YN1Ojd9NBp2E36nx2VG/DfZbwYAFCJrUwWiROGxU9pnUfSYgzMBBGxp0k+F0fU8OE8wxd2VRbWlEmxNtc8BtDrDNCbW7kU4v0u1FfWlYIB0PpWGHfsetBsmRMDUS/tha50tn/BnWSQtk2AIZNn+6Lei1htNtfVmOvixHb4a1J83Sm2bpS2P6WTP3eUw9XmMo3RTMMAezrIFsuz/b5c/1+nLT/Dlp/hxvd467K9PRmcZ0ePVdHsrnpYNefTjNEE6jgh6t34EF7FEYGHXQrAqZlWG2LKDuM4E9ViTkimKTRvfkmEO5TFeW4XsSEBYGF9zuZq3Tg3Z50G4v6k/D3vwdt0IwR8LUSHiwaUeXQ9flvGzdTp3fSQUddMBFB11U2En1OHVhhzZsJ3vsRK+dGLBrdjnJAaeu10OHM0yhbFs4zx2ekxbKzw7k5wXzZwfnzwktmBNaMDuYnxOYne7PdQaybMEsa0+mpTeLYXejyjAEvGTAhQUccMACBazRflJGfZkEGxJ2EUGPLpxu6MkxB3MZX46hM13X4cLbXWjULpPQ7oY7PEiHB+3yIm/cz2kCR8LUSHj7gbsf6aj7wR7tqH+so+HxjoYnOhsf72h4vL3uibbL9mRb7VPttU+31z7bWfdsd8PT/uY/h9qe7Ol+qj/w1ED4yd19T+weeGL3rif27Hpy7+4n9ux6Ylf/EwM9T/QFnujxPRnuejLc+VSo4+lQx59DbU8Emh/3NTzeVfdYR83jHdWPd1Q92Vb1VGv1n1trnuyofaK78Ql/85PB1ifDbY/3tD0abn042PyIr/Hh7vqHu+se6q790Xy1D/vqHvbXnXjrL1y3xa/XxfBbufKUui1+9gC6ak689bY72rv8t95+1+Gj7/5W/su5+/yn7wBHwpSo5Ej4p6Pqt3iQI4EjgQsS2HeAI4EjgSOBI2FKFLAnc97Rb9ER+qf3PCVNOHbs2DO/yr9nn3lm0i5f/dlnn5m0F5595tUXnvn03TfHv/n4f5868f9989F/nnj3bx8d+l/vv/G399/423uv/8exV/927NX/PP7a3yZfHHvtP9999W9HXv3bO6/+7yOv/eeR1/7X269ceuvlS2+9cvHNVy6w9trfTn/3s4ngSPino+q3eHBKJKxcufIfdin4RQ5MLnf9/SLw3284HsPnJwt4WCJv53L7+/t3/PWulv/YU3ph55LI1rSzG03DBcbIOnpolWZkpWZitXZ0BT6yXDN2DTm2VBPJxyJzsIvzydG55Ol06Csn8LUL+dyKfsJgH1s0w3ffxpHwWxy7v+w9/3uSwPu7vXH40S01Y3l8IZ+nTeKH1mecuKn+0u1NF/oKx5oWjVRmDG5mIpuMI+up4dXk6GpyYrV25Bp8ZBk+tkwztpiI5GPDs7GROZqhHPxbN/iVHT7pIT93kB8x+PtGzeCdXI2ZCxWmFjH/aprwg7BcloVJjZjG44sFPEuq4Kbyhd/e1nzp5trxwLrRurkj5e6hzeaRTYaR9dTIGmJskoTl+MgSbHQpPraIGM7HhvOw4VzN2Uzsayf4pQ0+6aE+d+jeNxPv0vjZ27kaM0fClSPhe9fnh0HP7pD2Dwd/2BWEXQh7Oo8vj+VlKGP/WL9q8M6dFw9uG+tcFanKGdxiGywwRjbqR9fTY9dqx1aT46uI4WXY0GJsZLFmZCExNBcdysOHZ5NnMrAv7OAJK/S1h/rMSR03aY5Q2BmOBK4re4pZ1Klowj+O+388EkVjcv1rdjPl6TwBNIu3BI9/qXP9+J3NF/cUD+9cMrg17dwmZnCTcXgjPbruMgljq4jhpejgYiyyKErCHHRwNjY0lzydgX1uAz6zg1+nUZ+yJGBHaPTMHZwmcJpwRTXh7xRgkoS/OxhdBj6Gx24IMmMGL4ZIFBRZZe+GCv/XHfUT4fVnq3PPltgHN5sjBaahdbrIWu3oWu3oamJ0JTm0BBtahEYWaiILiMHZ6Pk8dDBPcyoL/dwBnHCg32TqP/Pqjlvxd4zImTu5+QkcCVeUhB8do+9f/f/IQgyPFyvgz4jjx1olcb586vO+ov84WDHSvuxUhedsETNSzIxvYYbX6YbXkCNrtKOriNEV5OBifHAhFlmgGZ6vOZ+HnsvBzuTg32aiX7jhzz3YN9mGz9Lo9+zkOwx+5i5OEzgSrhwJ3w/+n34X8HiXt1T+r/rAbpETy5+WxI/JBkT3FmSf6tk8Hlp3vn7OmTLnYDEzUWq9UGQZ3UAPr9UNryQj1xAjy8nBxZrBBXhkATE8T3MuFz2Tg5/K1nybpfnSi33u1XyZSX/s1R13aI/YiLNcFpWLE65gnPBTAqKvfwiOL4fOP4VBwOPP4vNlAv5yjfyVuuXnA+vONy86W5U1WOGMlFgvlFovFJovFJhG19LDKzUsCcvIocWaoQX48AJiOJ84l4udzsZPZRPfZZNfpWk+82g+TSPfc+FH7JqjDvLcfbdz9YRfNjf/W7zav1U94bJzNPktGimzUcM0Pj+ez0vl80wp0+rT8I93rjzXumyofs7wjvThCgfrGhWZL2w2XdxsGruOGlyhOc9GCNjoMnJ0ETmUrzk/Bz83hziTS5zL057KIb/OIj7zao7bobct6iMO9Hi6bvCBOzgSfotj95e9538rEn7Uie8FQRAjiJnF56fweHTytAJGdd8678md1ww1zBupzRnd4R2psI8VmScKTRc2GcbX6yOrteeW4OcWIoMLkPGluvElusg8YnAOMZhPnZ1NnptDnczSfJ6GfuiEDxllrxmkh+3wsQzteY4Ezjv6d/KOfsTg+wozn8eLmRYzI4nPh2J5ayjJHWscx2oXnG2YP1KTN1qVPrLdNVpumyixXCg0ja2jh1aS55ZiZxchZ+bD5+ehI4uI0QXE8Fz8/BzN2TzyuyzNd1naEx7sAzt8hAHe0CteN6oOO7G33eSZ+7gaMxcx/3tFzJdhYKNm9h8bKE/jx8pi+Xmq+D2LjMdq559tXji0I3t0e/rINlekwjpSxoyXMBMFxuE12jOL0TML0bML0bPzkXNz4aF8bHAOei4XPZ2NnsxAvvDAX7jxD63oMTN81IQcZrB3HOQRD/W6g/z2Ho4EjoR/QxIuBwuXNw+M4/Nsolltsw2v7Zh3rnXxcE32cIV7tNI9stUxXM5ESs2jRaaxTcahVdTZRdjZhdhkymgwHx2cjZzPQc5lo6ezkG8ykC/cyOdu/EMbetyCHrfix13Ue+nGo2nG1+3ak3dzJHAk/BuTEMvnpfD56hjBJqPqzxXzT/tWT7Tkj1Q6hostYxWO8UrnSIU1UmIeKWRJGFmjH1yqHVysHV6ijSwkh+diQ7PR4dloJI9gC2rZxMkM4mSG7lMH/r4Vfc+Jv+fWHk83HvbqX7cT33IkcHHCv2OcIGBrBzOnCZIEfGg6f4467uAK10ctqyMdy8frskcqrMOFpvEK+4XtzrFKW6SUJWF8EzN+nWl0hX50KR1ZTA3PJyJzsMFcNJKnGZmjPZ9LfJuJncwkTmZoP3ViHzqQjz3Eh2nUMS/9pkv7igU7eRdXY+Y04d9JEy7ni/j82Gkx8TECKZ/nEc5qzyYP1S6N+NdeaFsyXps9UuEY3GQYL7NeZEmIasJm43iBeWKteXS5PrKYGppPnpuNDuYigzlwJE8TmU2eycS/9IJfpWPfpJOfOJEPnegnaeSHafRRt/Y1h+ZFM/w1tzM5pwlXVBO+Dwii0fH3aVO+gCeYLmB3zqTjppVZwOe2LTjjX3uxe8Wl1gUTdTnDZfbT67UjRebxClukzDxYZBjapB9dbxxdbRhcRJ6bqzmTh57KBM9mQYM52Ngc3dgc6myW5ss06OtM4rscw6cu7AM7+r6LOOYk37LiLzPoCwz8NacJHAlXjoT/OivtRxj4MTx+HJ+PxsWupmT3bEw71btxPLj6Yseiiztnj1Wnny9lTm+iIkWmSKl5cIv+/Ebd0Hpd5Frd8DLt+Xn42Tnod1nAyTTluRx0MA8fyaeG5+pPZZFfpOHfZNEnsw0fu4n3nJpjDvItBnvZiLxkxl9gNF/fxUXMnHd0xbyjy70VbKfRT6YlCHg8dgPZWF4+Lt2/2vNh56oLA2vH/csudSyaaMoerrSdKzYOFptGyyzDRcZzG3Xn15GR67SRVeTwEiKymBxeQJ7Ogb7NACL52vNzyXNzdafytF9lEZ+nk59nUB95tMcdxDGn7h279mUD+jyNv8RQz5t1X9/FdVtwJFxhEv6+BTuGxxPH8EwpsXV5hlebVozs3vi3vpWX/Ev+2rngUlN2ZKvlXCE1XGyOlFqGCg2DG7SRDdTEenp8jW70Gt3FlYaxxfT5ucT5OcTwPOrsHOK7PPLbPN23efQ3OcYTGfQxh+awFT1sI95iiBdo5Fkae8Gsf8ZIfXkHRwJHwhUmQRB1i9gvkxoxjcdTTefNR1Ju25DxVU/BRN91F7oWXWyfN9qYM1blHi41n9tMj5RZIyWWwU36weu0ket0Y2up4WuIwcXEyGJqdBE9spCOzKNO5+InM9HPvfAJD/pFBvFZBvW+S3PMgRy2wodt6FsW7EUj8qwee9ZIPqnTnLiN68rmSLhyJPD5MWwVme22juXz+dP4vHg+P57H08TFbvOgL9UuHhkouBBYMdEy71LLnOEqT6TCOlpmGS1mxkrso8W24Y2G82t1Q2upsbX6kRW6wUVkZCE1skA/PE9/Nk/7JcsA+IFd+b4d/MCJHrNj79rQ91zYMRd6zKN5x6191aZ53kQ8pdc8hCOf3nIj14H3y3az/RavdmU68Ph8vkAQw+MLeDNmCGbM4PP5M/i8ZD5PHMPPhYQ3X+c54Vt9sW/txc7Fl1ry/9qcO7zdMVRmGa+wXSi3jxbZx4vtkY3Gs6vIsyvJkdX02Ar90EJqcJ72/Fzt6Rzim3T0hAv42AkesyjedyDvu/AjVvSYE3vfg7/vxd/PpI5lGt50Uy+YySco5EEE+OimGzgSfotj95e95ytGQowghs8XxEyfKZg+PUYgmMXjiXk8Mm56dTb1RtPy4Z41l/xLLrbMvdiYe6EuI1JpH54koYIlYaLIHtlgOHUN9t0SeHCZJrJcd2Ye8W02+k069pUH+dKDfOFBP7RDRxn1h27Nx176iE1z3E0e9xDHvcTxTPpolvFNN/2ciXiEgH4Hqj68kSOB846ukHfERgUCAUtC7PQYlobYZD4fmsZfCAvvL553smfDROiai+1zJpqyxmu9Y9WesR2u0W2Osa328TLb2Bb7hS22yDr61FL42wXgucWawcXkd7PxL9Phz5zAZw7oS6/m6yzqAwd81AJ84CY+8NDv2ImjTt1RN/GOmzzk0b3hol+y6Z7UY3/AgHtBNUfCL/vh+hu92pXRBDZE5gsEfME0wfSZghlJghgpn+8QzWzPJd/tuHZ818ZLwWUX23InmtIu1LsnatMu1KZfqPaOVdpHS6wXCq0XCmyRa6nTS+HTi+ChJeTwUupMvvZktuaEC/rECX+Zof0mW/+hCzvuQN91ao44iMN27REnddRrOOSiXrGSz5vIp2jNwwR6PwLcDYIf3Mjtx8xpwhXShMsk8GKmsxjMEPL5YCx/OSZ6uCjzdM91l/qv/Wtg8aW27AvN7ksNngv16eM16aM7PJFyS2SL6WKh9cJG89Aq4sxi+MxCZGgJeX6R9ts8/KtM9BMX9LET/jyD/DJH/3G69qM06oiDeMuKHnHRx9KZ45m2t1zG583kE1rsIQ36II7eCyN3QfAHN3F9RxwJV5YEfmwMf0YcL0bG56XJEoILDB93Lh8OLp/wL77QteBie+5fW7yXGtxjNZ4L1RkXarxj5dZIgeFiATOxzji6Rje8XDO4VDOynBpbajw1m/jMA75vU33ggD5LJz/L0H2cQX2caTziIl81I68ymtft9Ks2/XMG8lES/iMG/x5F70PQOwDkFjV0nNMErtviynVbsN4Rnx8bI4ibwRNo42MqXPCz1fnne1aM+RdMdM8fbZ0z1pw50eCeqHFEttlHK50T2xxjpczIJv2FDabRNfT4amp0hXZoCTG4WDu0RH8yl/jQrj5qkh+zgR97NO97iPfSqfcy9G85iBcM0PN65AUT+YyeeJTAHkCg+2HoHgS9C0JvVsMHlcC7N3BZVE4TrqQm8Hn8mNiYWckC/nxCcsemtK971o73LZ/w5Y93zok0ZQ/XeMaqHOM7HJFy60iZdbzCNlHMjG3Qj62hh5YToyt0YyvpoaXE6fmaU3OJLzKRY1bVEaPyXRt03Kk5YseOeIjDHt0rNvwZA/gUDT9t0DxGon9A4ftg8G4IvAOCbgHg61XAfoX6yEGOBI6EK0kCTxAbExMbq4gXbM/Wvtm8ZGLvur/2LR3vzBvZmTlU541Uu8d3uCYqHSNllrEyy6Uy26UtzNh19NAy4twidOQa3cRqw8gy+sw84utc/GM3dMSsfIcBjtmwd2z4mwzyhl3zmpN8nsH+TENP0PBjFPYHHLofBe9GwNtB9U1q9fVK9T6FapdceZgjgfOOrqR3xONPi42Jj+WTKTEd+dTxnfMnepb9NbRotC17qMETqfNO1KRd3OEdL3eMljATJcylIsvEBmNkpW5oqXZoKTG6gh5fZRhdYTy/SP9Vjua4VfW2QfGuFXvXoX3Tgr9kgP7CYH+xk88wmsdp5BEK/ZMWfUAD3YdDdyLAzaD6gEK5W64YkCv75Mq3D3L1BE4TrqAm8PgzefxUPo+eyetIB45XZYz55rGC0JI52uAdr/NcrEm/tN07UWpn52cWRBdxWckyMLHKeHG1eWKFcWQZNbzUcH6x8YtMzSG99A1K8a6dOOqgXjXgz5Lg8wbseYZ80kg8RKEPkujvcPgBLXYfgdyOgjeCyt1yeb9c3iuXhxTyQzdwJHAkXDES+LG8mBQeH+Dz5khjb1lKfdEyd7Rz7nhb7nhL1kRjxniNZ3y7a6LcfqHUOrbFPLrRMHadYWyNcWKVcWIlM7GCGVpEn5qDfzeXOJVPn0jXvG1QvW2Cj9qpt630Czr0zwT4tBH/s4l4SIvcjwP3ouCdMPA7reZuErsZAfapFf1yWY9cFpLLg3L5WwcPct0Wv9Fy2C9421emssbn8afxYmU8PjNDUGtT/aUybzBwzUjb3InW3AtNmWwBoco1utU2Xma5WGa5sMU6toEZX89cXGe9uNY6vJQ+v5A6NVvzZQb8RQb6JbumHXHMgh21ao/a9a+bqOe02J+12DNm3eN64ncoeCegvB1Q3wqo79OSt+PYAUDVr5D3ymVhuSIoV/hlijc574iLE65UnMDnCWbwYsBY/gp10j0rbJ+2LBsNrRztyB9ryGDbK6pcYzuc45X28YrockaFlvENzNg608S15tGVxjPzyZN52Dc52FeZ6Ik07FMv/mma7n2X/l2H4bDN+KqJeo4injXonrOZH9Hr7oTUN8nkt6iAm9XQnSRxAwwPyOVBiSQsVQTlKp9U2SmRvXGA0wTOO7pC3hE/GiRoZ8bWWRSvlmScbl843j1/vCV3pNo9tt05utU2WmEbq7COlTPjpZaxzSwGIyvpkWX08GLdmXzNyVzku9nEt3m6E+nEBw7suIM87qDfsejfYPQvGaln9dpnzIZnbOY/UtrbAPVBmfIGOXi9EjwAIgMqVVAq9UskAZnSL1d3y5QdYvnrHAmcJkxZE1b9ZOrlD7Nu/u8vBDxeEo/nSpo+kIN+WJU11pl/sT17vN49Xu0crbSOlrOLVgwVG4dLmQtbHROF1shq/dBiYnSRdnQRdXYefm6+dmiR8Uy+8TMvedSMvGVA3jRoXjdqXzZon9MTT1Kax426P9HkPRh8M6C+XqHaI1X2SRUhmdIvlfvkcp9c6ZMruxXKTpmyXSp//XpOEzhNmKom/GskTE5ZFvB4M3g8FZ+3WDXr9yuNZ5pn/7Uj9687vZfqHBNVjvEK61ipabTYNFrKjFZYJyqcowXM0HJqaL4mkq8ZWUCen4dHlhgiS5jvZus/crKb4rxOoy/rkBd12PN64ikaf0SHPUTh9xHwbZD6BjWwXwEOyFUhiaJbouiUKjplim6Zslum7JIpOqTydqn8NY4EThP+H2vCJAkxPF4ij6eZziuhU18uzhhtz7/YlHah1n6pxja+zTpeYRkvNY0XG8dKzewktSJrZK1hcClxNh89mwefyYO/y4UGF+nO5FOfedBjZvCwHnqDRl8k4GdJ5GkSeUKLPKrDHtaT9xLwTaDqgFK5R6HqlSmD0h9J6JIpO6MYcCT8grmX3/qlppg7+tc0Ieo2sbM2xTyeVzi9J0/7Sf2CS+3zL9a7J6qtl6qs41stExWWC+XMRIl5tMgwvNkY2WiKrKTPL8JP58HfZqm/yVB+la76Lhf9KiM6F8cEHjYgb+qxVyn8eS32hAZ6hAAfo8knGMP9OuwmULVXoeiTyoMSmV+s6JTIOiWyDql80tqjgsBpwm99BP9S9z9FElb+32OCf/iLWB4Pmca7DhU9tinzfNuSSztzJqrtY9vMYxWmSIlhpFh/scw4UayPFFBDG6jIOmPkGmpwAX4mF/kuB/wuG/omA/wqDfrMDX3swt63a46YNYdM2rcY6kWafBQF/oACjxrIx63G+3TYQVA5IJMGxJJukaRbLOtKlXeIWXeoTSz9qb12/fVcPeGXGk+/3etcARJm8HhMYkybQ32sasFI64IxNko2R8oNQ0X685t1gwXk+BZqrFAX2UAOr9ONXWccXa4bnIefm4Odz9cMztOdykO/8EKfuuET6dpPvPQRhnjdQL7J6J+jNX9CgN/D6gd1+AN67a0YtEep6JHJAmJJpyi1M1XWkXqZgVaR5Kf22gGOBC5inmrE/C9pAp/PbijIT+DxciRxN87WfF03b6Qua6jcECnTR8oMQ8X0cCE1XECMFpCjGzUj64nR66iJtYaJZVRknmZwLjE8nxpeqD+dR3yRhn7iRk+kUx+5qTcM6PME+JJe+xgGPwCq7oPU96Dg7Qi4XynvlUnDMplfIu5ISe1IlbalylrFklaReOdPrDVV/CqnCVzEPOWI+QcSLq/h9fdLeUVXMvp+zVOBgCeYxhNIePyVQPLDyw2nq7NGdjiHS+lIqX6s3Dyx1XqhgpkooscLyLGNmpG1mtFV5Pg1uokl1Oh87eBszZnZmm/zNF9lYifSsY9c2IdO8ohF8yIJPo4on9QgD0Lq+0DlPSBwB6y+CVTslol7pJKQVOoTidqShO2pkjaRtFUs3ilKbRKJJq1ZmNqSmsqR8Nt1aX7BO/+lvKP/CwkxPH4ML3Y6LzaRJ4B4/CI89eW15rPl9pEK83ApNVisGy41Xai0X9hqmSjSX9yim9hAjqzBh5bikUXE+ELdxALq/GzN517wQ6fyEy9yIpN8340dsWJvmLDnSfAxRPkYhjwAs9Pz74LA22HoZgjYq1L0yWRBibQzObUlIbktVcyR8AuOm6vvUr8wCf8QHrMH2P3SeIJYXmwcb1oyj6+fzmsyS48X2ofLmdEyeqSMGik3jm21XdjqnKiwjm/RTxRQFzZoR1dphpfgo4vIyFzNxHz94GzqhBt63wl8mkWeyDV8mE4ftmteN+N/MWmeofBHCeR3EHCXWn07ANwMADcAqr0qZZ9MEZRIu0XijmRRm0jcIpLuFEmaRZImkfgHaxaKX+HiBM47+sW9o39CAv9HEhJ5MVIeLzM5dpdH/WWxbazUOFpMRkrIkXLj+Fb7xQrnpQr7xSLTxQL60nrd+EoishgfW6g9n41G8nRnc3UnPMiHTvh9r+aDTPq9NPptB/malXzZpnvOrHuUxO+HwTsB4FY1eJMauF6l3qtU9ckUITZ/Ku0SittFkmahpFkka06VNQklP7VX9nMRMxcx/2IR898FCD/+yBfwBdFAeRovNoXHh/i8VUDKPXPJb4us44W6kUJsaItmuEQ/Wm69WOH6jwrnX4sslzbqL6zVjS4nIgvxsYW6M9nImSzsZBr+mRv7wIEesiKHHZrDbu0hJ/Wag3rRSj1lJB8m8PtQ+A4QvgUAb1RDB9Tgbrm6T64MimU+kbQzRdKWwpLwAwCNIvEP9vL+A1wW9erzdv7VJ/qVvKPJ1eBZhRAIYtjl7niCmbxpIh6f5PO3alVPLTefKTCNbMJGCtCRLZqRIsN4ie1Smfs/Sp0XNpqja19rhhfjkYXE2GL6bA76XSb6lQf7xIEft2NvMMjrVuxNh+5Nt+EVO/2MgXhEhz6IoXfD8G0AdKMavl4N7VUB/XKgR6oMiOXdIllniuwHEn4AYPJFQ4qYI+FfHTRX5d//UiT8nVskiO4h+yMJAl5MPH+mhMc38/ktRuC1lZYzG/SRdejoRmyikBzfYpgosl0qclzabBtZRQ8vIYYWYkMLsMgC7fhi47k55KlczZce/EMbdpTBDlk0r1nwN53UIY/pLzb9YyT2ewS8FwJvA4Cb1OBBFbRfBe1Rgr1yICRR+VLlbEFNKGsVsuFBo1Dc8F+tXsiRwLlG7Dvw/5CEmJkyHt/D54dN4JGVlvPr9CNr0LH12ESBdmKzYaLAenGD9cIa09BScnA+NpSPDeXjw/N1o0vM5+ZRp+bSX6STx83oIT10yEK8xuBv2qm33OaXLPqHNMg9gOpOtfpGlfp6lfqAyreGZAAAIABJREFUAtyjAAdkYEgB+aXqrlRFp1DeJpTuFEoaReKGFHG98LLVCcW1rIn+wnlHXMT8K5PAFhIE/NioxcTFzFTy+Pkz+QctwAcrLZHrDKOr0LFr0ZG1+Mha7ehaw9ga0+gyangBOTKPjMwlBudozs0lzy+gv5tHfTuHPuHVvWtAXyeAl2noRR30CkO+7jT+xaJ/VIvdBwN3guBNKlV0nr5qgPWLAL9E1SVWtKfKWkXSFpG0eZIEobg+9bLViSZJEHMkXJXezr/6UFPXhB+D4594SAI2ccpjfSQBL0bAZ22mIFbF461JnX6fFz2x2jKy1ji2Eh9diQyvgIeuQSPXkJFluqEFRGQeOZavG8rVnMnCTuUSp/N1J/N1X+ZRn3ipowbsNQ3wgkb1LKF+UY+9bKFeYKjHtPjvEeguGLpBqd4rU/ZJlT0SdVCq6pYo21PlranSllTpTpG0SShtEEkaRBwJnC/0z9+BKZLw3/SiToYKURIEsQJBbAyPr+bxikHh47Opb1bbIqv048vRseVIZDE0tAiOLCGGFxLn87DIHN1wnvZMGnrSA5/MxE7NpU/m05/naj9y644aNG+QyIta8DkSeo5GnjdonqKJhzXo/ShwO6DeL1MMSOQ9YnlQrPSJFF2pclYNUqXNQlmzUNYklDaKJJPG8iD60U3iIuZ/9ePzqvz7KZLwQ7fFT/Tg8ks+nyfg8wQx7JKPsXx+zDQeH+DxtqHi52Ybv1tli1yjnViGji9BRhZAkfkw21k0R3M+Gx/MIc9nEt+6kK8c0Fde5LvZ9MnZ9GdZ2vecmndM+Ft67GUae4HCnqWwP+vQxwj0DzhyDwLerFbtk8v7pfKwRB6QKLpSFe1C+aRTxJYRfsyfiptEqZfTR9HQuVEofoWLE7g44VeLE1gaov12LAmxLAmCmXwBwONVgsKns6mTy5nhZeT4YmRsPjyWD43MRgZzsfNZ2PlM/Fw6cTqN+Nat+cqOfO5AvvJqv8ygP/GQR63o2yb0TRP+kkHzgoF8mtI8TqB/0iAP4OhdMHijSrVPqeqXK8MSuT9KQptItjMaHkySMPk12nuX2iz8L8aRcFV+xv+rD/XracIkCbwYfkwMP4bP58fyeCoer1yd8udM8uulpuEl2rEF8Hg+MjoHGclBhzPxwTT8XLrmtFfzrZv42omfsKKfmJHPHJoTbuojt/aYBXubwV43a16g0ReMuueMuico7cMk/jscvQ0Crlco9iqUfTJlUKLolrIN2K0i6c5USRPbb5fK9lZElaFZKJ7E4Pvj7G85Ev7VQXNV/v2vToKAx+4Y8l9J0H29jBlcrB2bj4zno6N5SCQTHfSiZz3YaRd20kl87cA/t+OfMuiHBugDE/KRnfzAqX3XRhyyal414U9rkeeMuudM9JMG6iEtcR+G3KxS7ZPKdsvlvTJFQCKPksCmjJrZwOCHWnK02+J7Ehp/8JFEXD3hn0eQV+Vw/28e6lclQRDdWzZKgoDdXROY1IQs/TfLrEMLybF8bGwOOpKNDKYhZ53oKTt20op9acG/sGo+t+KfmND3aOg4Db9n1rzv0B21ad+0EC8ZsCc18NO09mkj9ThN/ZEg7kWQG1TKvVJZv1QWksr9ElmXWNYWjZWbvq8hNKSwlYRGVhnETSnixuiPkwfrk1Nf3sd1W3Aw/FqVtck4YZKEqCKwJPBBHq9ImfRoBvXlEuvgAmo0Hx/NxYfSkXNO9JQVPWnBvjRjJ4zo5wxxgiE/Nmneo/F3KfyYiTxmpw/bqFdNxLNa9DEceZwkHiOJP2o0v8OwOyH4eqVyl0zeK5EFxbJuibRTHK0hpEobhZL6aO2sViiqFYrqJ6vL0eLa5JFaoaguWfiXffu5vqP/5sPyf8ivflVN4F9e1iWaRorl85U83nWpM37nQj9dyLAkzCVGsvDzbuQUA580wt8YsC9o/BMK+8yo/dSk/chAvq8n3tUTR4zaw2bqTZPuRRp/UgM/giIPodgDCHoPAN2phm5VQwcU6gGJPJQq84tlnWJpe7SG0CyUNYgktUJRTbJw0qKjP3WSgR8O1iQLX+JI4HJHv2ruaHJmAptBmiRBwJfweEtn8W81qD7INwwuoMfyiEgGfsaOfGMAv6LhL2nsc0rzsQ7/VE9+bCA/MJDv6bVHDdpDeu2bBu0rBvIZEn8Uhf6EIA/C6D1q8Da5+ha5+kYVuE+h7hcrgqmybrGMLSpHSWgSSuvZKjJLQjVrKTVC0Y8WPVKdnFKdnMKR8D/kU/+/f8xfUROiJAjY6QlREqbFCCQ83rwY/gGt7Phs/dA8w1iedjgNP22FvqLVX+igL2j0BEV8rNN8pCc/pLXv6cljBu0Ro/YNmniV0ryk0zxF4I8g8AMg/HsQvUsF3iJV3SgHDqrAvXJ1b6o8IGJXr2gXy1tTZS2p0iah5EcSUlKqUpKrUpKrU4Q/WNX3B1/cv4/zjv77UfI/4bdTIuFnD6Cr5sRbb7ujvct/6+13HT767v+E4XIVPyNHwpSo5Ei4atjgSOBI4FKo7DvAkcCRwJHAkTAlCtiTOe+I847YcfDa7393X9vOu3c23N5QfWvdjjsaq+9sqr6jYcft9dvvaNxxa13lrbUVt9VU3FlbeVd95b11lffWbbuvbtt99Tvubay5u6n27uaaexurbttWelPJpluK1t9auO7GddfetO66WzdsuHXzpjtLC+/ZWnhvZcGD1UW/3154V+H6W9dee+uaa2+79tpbr119y+qVN65acXDVigOrVh1Yc+2BtesPrNu4d+36fWvX3VRYeNfW0jsqCu/ZXnR/den91cV3by24s2T9A+WbH9lR8dD2yruKSw6s27h/U/HNFbV31LZ/8PKbP5sIjgSOBHbwPOjvbJ+d1ZzlrfXaqt1MfZqtMd1e72Vqveb6dKbWbax26euc+kaXsclrbPOY2j3mdo+5w2tpS3c0ZziaMx2tGbZaM7mNUO1AJVWQrEIq3CaT7JDLq9WqegLaaYBbjWq/De02gs2gvFrE5kBrkpOrUxK3JydsTYwrS0goSUoqThaVCCXFqfLNKZJCsWQbDDXriTot2GSA2y14hxVv0qlqEUmbRhk2kiGzsVmr2wrhlRpzvS2nJXPpaw8+xpFw1Qzon/0gU4oTHvB1tOZlNGS6qt2WKidT67XUei01bnON21jnMdW4DdUufa1D3+A0NLlNbW5jm9vY7mZJaE2zNXitjWm2lnRrrYXcplFtQ8TbgdRyScpWWSoLg0pRpwF36sEWg9rHwF16VSMgrhYKq1JSdqQk70hO3pacVJGSWJaUUJKcVJyUUpQsLExJLUgWFgpFlYCqSYfVksoGrarVBLUzSCOprFSlVKvFOzVou8HYYrQ2MK5mz5yOOSu7Fm188+GnORJ+9gC6ak6cIgntrXlpDemOKpd5u9NQ7TZXu81VLmO101jrNta4DTVOusZONzj0TS5Tq8vY6jK0uUztXqbFy9S7zQ0ec3Oapc5CVhKKCii1XJVSIk4skwrLpaKtKmktDjTpoSa9spMB2ihFg1JYnZJclZxSmZSyNSmlIjm5PDmpNDmxJDmxKCmpMClpc1LSxoT4guTECoWkkQDrCEUjqWgzgF1mtEmrKpUnb05NKgOgGtrU5Exvy13YtXitb+WWrtVlbzz+HEfCVTOgf/aD/CIk2Ktcpu1O/Q6nscrFWrXTWONkXaMaB0tCfZSEFpexxWVocxrbveYWj7neZajzGJvSzHVWcispLwFTiuUJW8TxxeLkInFKuUJSjakaKaCRVnQYgTZSVq8UVaUkVSULK5JSJq0s6TIJW5ISC5MSNycmbYyP25QUXyYTNuCqRkLVRKraDFCXCW3WAsVy4aqkhA0KsII2N6TndS5eE1izxX9dRce15a9xJHB9R1PMoj7o72jNc9enWapcBpYEB2tVzqg56Co7VWXXVVm1tTZdo5NudtA7HXSLQ9/qMra4TSwJTn2jW19rJSoIeaE6cbNkVkHqrM2ihEJRUrFUtB2S15HKekLeple2ELI6uYjtmEgWlceLyuKFpQlJJYmJxVGLkhCVhcSEgqT4QlFSJSDdgcircQWrDBTcQCFlsHKjSlVMUjvsnsacue2LVvhWbfCtLmxbtfnVR5/iNOFnf5ReNSdOSRMe9Le35rnr0pgdLv12J73NQW1zUNud1A4ntcNB7bBpt1u1VVayxkrW26kmu67Jodtpp1qd+p1uQ72TrrHp6uzaGgteRsgKlAkbU6dtTJlRkBK3OSW+SJyyVS2tweR1uLSVUkySEPWOUrfGCSviRWUJyaUJl0koSkjckpS8OSllY1LS+sS4dYmzNkuSi1Sp5ZCsElXU6NBGE11loLebmTqPtyk7r2X2vLZ5izuXrOxafm3H0mtfe/hxjoSrZkD/7AeZEgl/8Le15jrrPKYdDmqbTVdhJSus5Dab7rJZyUqG2M5oqi1ErZVstGkbbWSTjdzpoJqd+gaHbodZU2XWVBnhMlyySRa3QRi7KWXm5qS4gsS4ImFShSK1GpLUouI2nbJNw3pH1akp1SmiqvjU7fGibQmsj1TGKkNSYUJyQULK+oTka+OTVsUnrklKvC5VuFEpKUGAChKpNdJtXndrWlpbTk7XnLldc+d3zJ7XlpffOXdB9/xFXfOXvP7HhzkSfvYAumpOnBIJD/pbWnLsNW79druu0kqWWzTlFs1WK1lpJbdaiG0MUWnWbDdrqhi81krUW4kGm6bRpmlyaJtdVINNt92IbDfAVTRShkgKJHEbU2K3JM0qTIzbHBdXlJSwVSKqVktqQHGbVtVGKBrUqTViUa0otSZBVJMgqk4UbUtOqUhJKU5KKUhIWRefvDo+ZUVC8srk1LVS+Xq1qgCGynTaSqOx3uXszp3dnTcnMDc/OG9eYG6+L3dOV3auLyfPl5fXnZP3xgMPcCRcNQP6Zz/I1Ejw7dyZba1xU9usRIUFLzdjZWa0gsErGE05g1ea8EoTts2E7jBhNQxeb9HUW/EGK95o1zQ5yVobsY2Gt+qAbVqwDBQXiuMKkmeUJMcXJ8RvmTWrOD5+qzClSi6uBlNbSVU7qWpUS6tTo/WExJSaxJTqJOG2ZFGZULg5KWVdUvKaJOGqZPFqiXIDhG4hdaV6fYXZWGW31bndO9MzuvPmdOfNDubmhnJzQtlZwczMQFZGMCvdn+HpTnO/cf99HAk/ewBdNSdOjYTuxtZspt5LV1qxUj3EmhEqNyGlRrjMCJXpoQojXGlAtunhHUa4hkHrWEMaLGijnaizEBU6oBSVlwKSInlyYcqsLQkzShPjyuPji2fM3DJzZllS4napsFolbMaUHTqwGZZvFyVvTYrfnpC0LSFpa1JCaXLS5qTE6xITViUlXSuVbQCxUtq03e6qdqfVZ6Q1ZaW3ZGW2ZmV1ZGd35eb4c7LDmek96e5wujPktQfT7AGvNeCxBNymt+67iyPhqhnQP/tBpkhCQ2u2qc6j3cbAxXp1CaUuoYEyPVSmB0tpoJQCKvRQpR7apge368EaM1LHwHUMXM8gjVasxoyUaRRFoGSLIrVIkrQleVZx4oyyhFnlcfHF0+OKZsSXJSVvlQgrpMk16tSdmLIRkldLRTtEwmqxaGtKUnFC3KbEuHXJ8WtTU9arFFtIooKxbXd5q9IyajMzG7IzduaktWR5WjPcbemuzjSX3+MIu6xhhynsMISc+oCTCjqpsEsXcmoP3XsbR8LPHkBXzYlTI6Grvi3TUOvSbDUCxTpZsVZeolWW6FSlWnWJVlWiVVXowAoa2Eqpt1HqaiNUa4JqjWCdGa5n0CoDVAxLNsuEBeKULSkJRYmzSuJmlcfHlc+KL52eWDwzsSghsTg5oUgUv00hbMKUzbCiVpa6XSSsTBWVCpMKkuPXC+PWS0WbYVWpQbvdaa1JT6vJzKjOzKjNSm/Icjdn2Hd6mFansc2h77Tq/RYqyOhCZiJkwkImNMQgYQYJW5AeK3Lo7ps5Eq6aAf2zH2RqJHTWtqZTNXZ0q15RTIiLCGmRRlqkkRUTimKNogiXlxLKUkJZTioqSVUVDdQYgBqDqs4I1pqh7ZSyUJ2yQZSwISVhc2J8Ufys0oS48oT4iviE8jhhcbxwS0Ly5pTEQmF8pSK1GVPthFW1EnF5SlJJStIWUXKBOGmzQlSEqrYayZo0a22WpyrLuyPLU5XhrE531HrNDS6q2U60MmiHGe40IH49HNSjQQoKUEBQpw5RqrBeOWmH7riBI+FnD6Cr5sQpklDdkkbWWKEKSl5EiItwUSEm2oyJi1DpFlRSiIqLMGkJJivFJRWkbDulrKZV1bSi1qCqNai3a+UFiqT1ybM2JMVtjksojou/jEFCYnmKuEQoLUoVbxYLN0uSy+SiGlDWAMhrJOLypKSSlJRiibBILi6BZRU6uMqua8iw1WW5dmQ4t6XZd3gsVW5DjYOos6JNZnWrQdlJK3yUIkApAxQYIAE/oQpoFCFcHtZctkO3HuRIuGoG9M9+kKmR0L5jpxevMasqtNISQlyEiQoR0WZIuBkSbQaFm9QpmyHhFji1CE4tQ8XbSXmVVl6tldXQihq9qpKQb5Ylrk+ctSE+PkpCYnlCQnlCYmlScnFyaqFQvDFVsj5VuC41cX3yrC3ChB0SYZ1MWi2RVill21WKrYC8DFSUosoKGtlhp6s95iqvpcrLVHuMNU5drQ1rMAM7jYp2WtpFSX1aWYCU+wjAh6l9iMoPK4KIPIQowqg8jMoP3cKRwE3Wmdqctd+3bGtywjsM8jJSXKoRFiOizXDKRiBpkyppoyppvSJhozqpAEjeAqaUwilbccl2QrqDFNfoZDU6RSUmKRAnrE+I2xifuCUusTg+uTSRLZNtSUzekJCyKj5pyay4hbNiF8fFLJvOXxsn2Jqa0qRQtijVOyGwEQKrIVUloCgDpSWospxGtlm0VU5DrdtY79HXO8gGK9LIAC1GRQct7aSlPq3Up5F3Yop2RNEOybsAqQ+SBiA5ywMmP3QL5x1xJEyNhPubKuotqkqtpAwXluEpxYioEEzaoEpcL4tfJ4u/Thq3URa/SZlYqEooAlIqUNE2PHUHnlpNSmsIeSUsLhAlrI+PK4hLLJyVVBSfXJyYXJSYvCkxeXV80sIZM3L5vNxY3sKE2OXxsRuTZ+2QSnYq1a1yoF0J7VSBjSqgFlBuB+VbYWUFBmyj4CoTUWejGp1Ug13TYIGaWE1QtdHKTlreRUq7NLJ2RNEGy1tBaRsoboP/T3vnAd3GdSVsACQlkZg+g8bee++9gQQL2HuvIDoGHexFlKgu2ZKs3tl7ESWr2bLlXuTE6dlsdn/XJP+mnU37fSzH/s+AbruJKEVyQsECzz0kzuAN35t77zf39UcMeRDDnqxt3pxXrbUj6wy8h5yBN9UpM4ZyVb6YzBOVeKJid6zNGW7gAnVsoI7FrGOZSeCC7TygwxlSeFAkqH0wjR9b7cOVebCacLgeAJqYUKs93G4PihwgEQA3Q1AdhJQ6MIVbNhXDQKMzq5WLiwlEx+X28Zz62Y6DbJd+tnMv16nHybnL1dng7qTxcNJ4u+gCPY3hPsYoH0OkuyHc2RTq1B3i1BfsOBDAG/DlDnjxBrx4fZ68XndWjxve4471eGK9nlifF/HSGet5zNaY8JAxwSAzBTqSnpjMDZO4YyJXvMkJqWUDVSxmNe5Qg9k3YUArC2rnQh2OsNQNkXuiCm9U5ceW+fCa3TjVLLwKQmoBpJGJtDhAVHAAwDYQbIXhJghqQKAWDiH3cFI580gOy8Bmd7O53Ti7B+P2YNxeFref69jv5NTt4mhyc+z0du0O9uoK8zZEeGjDXTWhjroQrjGI2xnI7fbl9HizezzZ3Z68Lk+uyYNt9CCMHpjREzN6okZP9NZp676oVhIekgS9rMuXp3bHFc64xBlvcyHqHdEKAijFmRUoUA071MPMFgwSsaAOHtLhgnR4wFIvVO7PbvXhlblw8gk8H4KKALDSAW6wh5qZkAgAJRAogyAZgshxVMHGVRxCwyJ0LMKAE+YzAvFOhOjGWH0Ee4DNHWBz+jjsHidev5frYIhXf7iXKZwiQRXqqApiq/1ZOl+WwYcweuFGT0LvztJ5sHSebLOwtF6ExgsnPbGbp617ZVtJeDgSprUSkw9H5QxJebDUGWt1IWo5cCkGFKLMchyqRqBaGGpAwGYcauciIieEajp7oHJfVr0nJ4uNxTPtYxj0FAZNuGlTDQC2QrAURlQoqiWogWQdgWtZuI6FrU28+/LMzC6C00VweikSOP1sTh+b3cNh97nw+nyce4Pdu8LdtWEUCcogtsKfUPripA+m9cJ0HoTGk6X2Yqu92KQXW+VJqDxxhScmd0efOWWNCVYSHo6EKV2H0RdVuDBlToDcFW13xWq4YBFmL0SBEgwuhcAyAKyEgDoUbOLAbY4UDFInROKOFbOAUFubADo9jEFPc9hchiGtHI6Cx9M68kw8Xpcjt5PHMbJZehauI1A9Ru3sa8BwI4abcKKTxe7E2WthoY9g9xGsPoLVy2X3uHJ7/Jy7g9301OQOigR5ACH3xRQ+5iqZF67yIlSeLIUHLnPHJW6I2BXpcEXELtD1E9Z9Ua0kPBwJo2Qz6QlInbaInRwk7miLK1bJhQpQZi4CCTFEiGGFCFaIwCUwXIaBtWy4xQnr4KHtjmg+vCWURosGNgnYWI27i8THU+vjbfLy7HZ363Nx7XNy7OFxO9lsPRUZUDUCk9QSfko0CLXltQ5BDTDahRA9CNFLEH04q5fN6nbm9Hg5dge4mAJd9CHO6hBHVSBH7o/L/TCKB29c4Uko3XG5KypxhkU8oI0HtHGZrVzm1WMHrSNrDzwg9a258aFG1o5K61qdNzXzNjfzmM2OSA0XLcJhPgylglAKCKVAWAZGZOAEH8WyEaiQhVQ7Ek2OWB0BCcFNaQ6bC3lEs5e7zNdH7eWpd3fvcnPrdXHudXTs5XG7OWxzTKCm3JEookQQOQTLIVgJIWoIVgGwGgT1EGKCsW4M68bxbhbexSO6XDndXo5d/k6mEDdDqLMu2FEdxFEEshX+uNIXV7kTKhdc4YjIuJCYAEQ4c02uHbGSYI0JDxcT9nfUVnI3Vzs61HChShYixJB0CIzZ7BBsu8XPZpOv3ZZgJhwGoZEgGAs6pGFwoSNRySMqELCYuaUUApsceTI3d7mzi5LN1RBsI5vTzWZ3EkQ3i+g0k6BjY1oWpiYwJY7JEUQOw4q1vS1AUAkCJADpEcSIoiYUNeGoiY2bnFidbpxOX0dqK4AQVyMFA08TyFX6s6gOXHdC40yQXEzBgmUYKMEACe4gwYAbRw5ZY8K35tX+wA/yUDFhl6ixiAeVOKLFXEJI4GkQHLGF6UW35dLoGI2G0Wgcho0jw9aFQfdg0MMdNmURSAmbVYmhVTBUh8AiFkvO4cpwQo5gJIIZccKIY3oUNeKYkUXo2YSOjVEzsQlCzcLVOE6iOImiJIyqQFgJgioQ0kCwFjYfjIChBjZu4BFGV47Ri9vl59jt72wKcDIE8rQBXJUfofIi1M6E2gkjObiCjcpxSEYJIMOBZ45Y2wnWmPBwMWG4rTmLQLPZOJ/FSkWJCAD2tN1C0OhbaLRNNLoDncGk05k0GkSjcel0P1tGMuhQzMYb2Kw2NrsDZykIFsniaFhsLYutZ7OMOGHAUA0KaVBEg1GixVEdi+pE0uOEnjoxjdAhOAmtkQCpQEgFIyoYVsGQGoN1ayS4sI1ubKMHx+TNMXlzDd5cnRdBemAqF1TFRZVcTMHGZQQiJRAJBklQUIyC160niVjHmB9yjNlYXxe+ZUvkli1R9swoJhy0melOt+PS6ASdzrW1c7Lb7GJn525r67vJLtRhcyLoIICAUhiohaFWBBZjmAzFlTiuYbH1HLaWxVITqAZFSAxWwiAlCKhCITUCa1BUh6IGFDegLD2CkwCiAmEFBH0u1GZ4sBpH9VyW0YltdGIZnAi9E653wQ2uhN6V0LlhpDOi4MEyFiIlYCkOizGoA4NEKNiOAu0IcO0pa+3IGhMeLiZIKiud6DQ3Gs2Xzghi2IbYbgm22Ry8aUu4PTMORJIhLA1E+BCcA8FCqgcJrIKBesChCbBvBh3aILANAjsQWIIgMowSKQLKUECGAgrkS4EUCKSEIBKEdBCihzEdhKgcqHqRCoJJFFbCiBJFVDimY+OdjpxuZ16XM9vIY+m5qJ6H6p1wgzOuc8aUPETGBqUsRIxA1OZIMNiOQC0Q0AwBrShwzRoTrDHhIWOCqq7GZ7NdwGa7sC1bYplAEgQnA1A6CGXDiBAmSkGsEkCrQaQWhOthsB5iNlEzTx1aHRxaAIdmkJJWmNkOMUUI2IGBYnhNAAnClCCABAIkICVSAJAzAcr7AVgFQComoAQBqp0AwyoEUWOYliAMbMLIYRu5bCOX+kzVqdiohouTXFTBgSQsQIQx21GgFQFaYSYlFAYOjZBDMwxctcYEKwkPSUJ/e2syhqViaCaKCXAsDyfyMEyIIkUYWoGg1SBUxwQbHMBGJrMJdDCLfTNg3wLYNzG3NAJbmgD7FojZBjFFECCGwM8FBMSAfQdg38H8SsRMByngIAWYMoCpAAEF07ysBwRIBNaZm9dGajoGpjeLDsc0BEYSiJyAxTjQjto3I1uoJUGgfSPEbIaAZhhoooTZCDnUQw5PH3rS2nf0wF0u35obH6rvaJ9YXMrhlhCcYgwvwrBCSpBCDC5C4DIYqoKAWhCoA4AGgHI4SqiZSA4NgEMDYN8AbGkE7ZtBZisItIOACPp8QzsxAHQw7cVrAjiIAWYHwBSBa2IvguzNMDCpXlQY0qCwnkCNOCUGDNVjqBbBNSimwlApCooQoAm2r4c31yBbamH7OqoAzEYEaESABoTZiAJNGFgPO1w+bB1PsLYTHq6dcEgsreM6VhHscgQpguACECyAACHCLICAIohZAYE1IFADAbVUK/krqQOAeoBJ8QD9kntqAAAgAElEQVTaN4LMFhBoA5gdTKaYCYqZoMSBEilgFghc2w1bDIMixCywgxi0V8JMDQbrqOlJqA5H9RhiMPe96lFMg2EkikphqB1iNoL2daB9DWRfjTjUoMwaFKjBgWocqEEdqhCHOhbYxEHqCPCSdTzBWjt6yNrRflFHBZtThhOlCFZItQ2gfBTKw6BcBMyHwBIILofgCgiugpBKmJIqiGo2VINwDQjWgsxakFkHMhtAoAkAWplAO5MponhgygBQAa0JpEAQBQLLEFgGw1Jqm3hABtsrUUBNwDoWqiUQLQZpUHCt75VEEBkMiyGwFTBjADnUQMwqhFmJMCtQZgUGlGPMMpxZhjsUI5vKcPsqDlzBAi8etfYdWWPCw8WEXS0thShahOHFKFaMYgU4JiSwXBzLRpEcECqAkGIIKQWRMggrRSkpg7EKCKuAkEoIqoJAswA15hpUIwA0M4EWJiBiMiUAJAUhigcQojaIp/pJ15CAFCioYkFKFqQiIDUBaViwhoDVOKgynyrSATq0Un1TDo2AQx3gUAcD1TBQhQAVELMMsi9DmSWofTkLqGSBRcjmImRTBRsoJ5gr1tkW1pjwkDFhpLE+F4QKUKQYxYowrACjGs0ClOCjKB+Ec0A0H0YLIESIUFJgbkmXwFgpCpchUDkClcNQBQRWUkh8zkMDADQBYAtILdnpAJhiqu8IlICgFAIVCCLHYAULJjmokgPKWUwlAZgFUlJjZMw2aEszSHUH1UMUA3VUfQysAaEaEKqm9smjqKhFmO1OLLGHYzMHrYbt6zCgHgMuW/uOrCQ8JAnbG+rzIGYBBlPNZQTJQ5BcFM/GCD6G82E0C0KzIVQAIQIEzUXRXAwVUu1ppAiDS1C4BEVKUXgNBjMPQDVItbAbILARgppBoAVgtjEdREyHDoApgQAqLGCIkoBVXFjBBeVsQM4CpDhTjDFFiEMr1Tu0uQl1aMTAegyuR+E6GKoFgVoAqAOhBghpRpFmBBbhqMHHYyAsWO/tLsJREQZ3YMj1p6zrE6y1o4erHe1obhIiUCGKFCFIIQQLISQfxnJQIhtn8VE8HUbTYTQDgfkYKsDQHBzNw5ECHC6iyEGLELwYwUoRtBxGqswdTVWQQy3o0AABjRDYRDUemK1Mc0saBGQwNd5M4jBJIEoOpuAicg4k40BSNijlgGIeLHFGJW4suZeTytdd5eMpd3VtJfB6AKhzcGgCQGpIG8c6YFjJJgaCA/cmJwxHhZNOjjIWrsDQZ49YSbCS8HAk7G5tLcSQAgguBuESGCuh6kh4HkpkmcNCGoqmomgqDmdgsACHc3A4D4MLCEqEKJ4PcYQwuwTFKxG8GkZqqArS5lpwcyNE7QVGxQQQaDd3rcpgWInCahzWUa1kTOvMlXFwCYHIuLDGg90Z5N4X7TeUHLY9M3ZvbtrBQsFTwpw9Kcl6D08RBDU7UKcxtIEOHTBV0VJgeG9AwN6MtD38NIOfl5xDyBD0mcNWEqwkfDMkQEUQXAyjJShWiOJ5KE41FTA8A0XTUTQDQ/gYnIXBuRiSh1EwCHE4H8PyEHY+zCpCsDIErYThamrwgRpkaAKp0bdWCGiHoQ4I6jCPuMlgWIWjGhauYhFSNqFw5ui93bdGBT+RlXiyLOdsfcmZporTLVVnW+tGW5vGG+tOFgm3h4cZXJxUBC5DwDbmpnaHzRIIlCCIztdrZ1bq4fKC4ZQYjZ+HlIVeP2TtO7KS8HAk7GltLcLgAgikBIELUVSIonkImgNjAhQTIFg2jGUjqABBBAiSi6B5qBkG3EwFiuUjqJCqVkHFMFgOMasghzrAvp7p0GC/uQ1gSmBYiiJSGO4AIREEd8BIB4J14LjMkWsM8NmRFHOkUHC+oWy8vW5C0jIqbT8nEY3KJNMK2bRUNFpX/kRG4nCYX5+Pq8mVQ403I5AUQzoITOnrMZydcrShbH+JoC8xUunhdP2YNSZYSXg4Eva2tRTjSAEG5qNgPgrn4kgujgpgNAdGcxEsDybMguWYr+TAaDaKZmFoNgblYKAQgwtwWIhRk/OoMWkErkKQOghuMPcdfTnk3A4xWyGwDUE7WFypk4vG23cgNvpATubZmtLJ9ropafOEtGVMKhqVyc8rlKNK1YRKNamQXGiuPixM3ZMUtiPCb8jfrdOZa3R27PT2MgUHdSXGjBRnH2queKKueETIN0WF3Dx32jrb4lszaeKBH+ThZlu0txUTmBCDczBQgMNZOMzHYT6GCFBUgGB5EJEHEbkwRYIARrMRlI8ifATho1AOChagDgUoU4hBQgQuQNBSDKtE8XoYawRhEYqIIKgVsG9hOrQhkIhNyNxc9UFB/bEJu7MExyorL7Q2zMjbZpXt04q2SbloQiGdJDUTGsOYRjeq1oyTigvipqcqcvZnxe6ODx4J9hp0dxn09t6dkLxfKNxXVba3sfqJtrp9zdW7a8q25mS+NDP1wCScPXdhcHjkzLkLt7/79gPbwHrjo6CBNRJmZ+fv5gy0u33x2Wef7RO1F7OJfALOJqBMAk5nwWkEnEm1CtAsFBXAOCUIlo1gWSjGx7BMFMtEUT4CCxBQCDkIIWY+QgUT81ADUoagtSDaAMKtCNQCUnNFRSyU9Hbrigjemhy/L09wtKL8bEvzuFQ6pZBOqcSTirZxeeuUQjSrVsxqtdM6w4SekkmDZowUH28qfaIgbW9KxK5Q321eriMBAYeyc0/VN58QSw5LOw6I2/e3Ne9rbtxVWf76yoOfOHhhbGJweOTUmfO3v/PdR8Gc1jI8sAZOnDo7ODwyv3hXZ1iPhP0iUQmLlU9g2QSaQaDpBJyGw+konIkiFAxm4WNoJoZkECifQLNwSgQY1WAopEIBKESo2lEhChdCYAmTWQWADTDUDAFtKCxzYptC/HZnJB0pyTtdV3a+qXa0vXlCKp4klRMa5YRGNkl2TChF0wrRjLJjRiWfIZVTOs20ST/bpZ82kmdkjceq8w8JEvdFB+/289gdEnw4O+90Y/tpufKoUnVIIXtCJNrf0rq/vuH25cvr0L7+V/MLy4PDI0dPnH7jre88sA2sNz4KGjh85Njg8MjVazfuZvH1SZCWEU5CjC1A8SzM/NbHkAwU5iNwFoZkYlAmBpoF4mNQFg7l4Ag1pIAhhShSCENCCBTCYBGGlBJQOcasQoFWAlG6cDv9vQYjgnYmxTyRm3GisuhcY+VEe/10R9NUR/O4pO2CTHKBlI1r5NMa+QwpmZG3TUuaZySts/L2WVI8Y1DMdpKzXeS4WnS+pepESfahxIi9AZ57QwOO5Oadb2o/L1edUiqPKuRPikUHWloONDTevvz03R7+ntdvPHtzcHjkycNHXnvz9qNgTmsZHlgDe/c/OTg88tobb97N6OuRsE8sL2K5CHFeLsISwIQAxrMRJIuq/EDZGJiFMLOQLVnIFgHqkIsyC1BmMQqUI0AlAtZgaB2LXUMQdVxWqxtP4uWk9HHWB7hvjQx4Mj32VH7mWLlwsq5sorlqrLl6tLVmUtw4J22Zl7bNykXTasW4RjGhU07rlfM6xQIpnpO1zEma5qQNU5L6cVnjJNk+o5fMaDqmJY1jtUWn+PFPhvnsDw88npc73tI+JleeVShOyqRHJB1HxB3HOkRvX7t2t4e/5/Xbb31ncHhk974DL7/2xgPbwHrjhmvgrbe/Nzyya3B45Gc/+/e7GX09EvbIVUUungU813y2Yw7OycFwalYFCuVRXUkOxah9OcasJoAGNtTKgsRsWM5GNWxCz+N0ebj1BQf0BgUMhAdujwvdmxRxMCPquCB+VJg6WyFYqi282Fx5saN2QVI/Ja4bF9dNS5vnFG0LStGCSjKvU85SGKhmDeoFI7mkVy6pJUvK1gVZ/aykZlJUNSWpnVE0zsgb5jpqZhqKx/JSjkb7PxERcCxHMNrYNCGTX1DIT8skp2SSUwrJKZn4+zeu3+3h73n9V7/6v4PDI0Pbdjx364UNN6e1AA+sgWduPj84PDI8susPf/jD3Yy+Hgl71dpS/4BSH/9id88CnmM+geVhUCEGlRJgNRtqc8LkTrjOldXtyhl05mxz5ux04e73cH3S3/toVOiJ1ITjmQknBYln85LHClImS9LmyzJWKvgXq7JXq3NXGwsvtZWviKsXZLXziqYFZduyWrSslixqZMt6xZJeuWgg503axU7tUqdmxai6qJWsqFqWZPWzHVUzoorZjsqpttLZpuL5mrxJYdKJeP9DkX7Hs9JGa6umxe3jso4L0vYLMtE5uei0uO0H16/e7eHvef3TTz/dtfcA1dJaWnlgM1hv3HANTEzNDA6PHDtx+qOPPrqb0dcj4YDeUBkSVh0cXOXnX+HhVsjFCzCggoBaXHDSx7EnyG04wG1vgNtBX7enfFyPeLsc93I5HeQ9GhM8nh47kZcyKkwdK0wdL06dLkmbK8tcLM9YLktfKUu/WJ6+Ws2/XJ97pa3oirTyiqL+Mtl6WSO+pJZe1MhX9apVPbli1Cx0ahe7dYtd2uVOzUWD4rJWelHRuiiunRdVzrWVTTcWzNTkzJRnTOVGn4n3ORbtcyojbqJCONtSPS2qnWyvmeyom+ioG22r+dHVS3d7+Pu5Pjk9Ozg8cvzkmQ03p7UAD6yBA08eHhweWVxauXPnzt2Mvj4JuqrQ4NqQoPpA/1pfzypXbpUT1urG0ga6Dkf5HIgOOBLhezLU60yQx9kAtzMBbueCvabiQuazY+eLUqbKUsbL0sbK06cq+TM1OQu1+ct1eas1gktVmZfKUi6XJl6pSL5Rm/lcm/CmpPwZRcMNVfs1UnJFo7ii1142alc7tcvdusUe7UK3dqFLs2LSXDaQq2rpsrxlUVI3114xXZ83VZkxVZI4mRN+Id7rdIzH2dTgycLk+erc+br8mfr82YaCmYbCidr8H19auNvD38/1l19+dXB4ZPuO3W99xzqkYJFj1S+/+vrW7TsHh0deeuXVTz/99G5GX4+EgwZ9XURIQ0RwS2Rwe0SgOMxPQZ1q4zcUF7AvIfhofODJKL8zIZ5n/FxO+zqfCXIbiwmYzYpdLkufr8qcrEwdq0odr8qcqs2daypeaa243F55pa3selPh1Vr+0+VJV0rjr5UnPluT8Wxz/rPtFc/IGm6Qous65VW99rJJf7nbeLHHsNSjWyNh2aRdNWgv6ciLavmKSrQgbZhpLZ+uFUyXJk3mhl9I8j4T63YmwXc8O2KmKHG6LHm6LGW2NG2qLHW8NOXHyw8+svbZZ599+Itf7Ni9z1pBeuD38YbfODO/MLRtx579T/785/9xNww+++yz9Ug4ZNQ2RYW0x0fIk6NVKVGGtKjutMj+5JDBWL9tEV5PRnkfjfQ5Eep1ItD9eLDH6ZjAiaz4+bLshbr8ufqcybqsidqsydq86YbihbbqFUnTJXnL07Kma+Ka6+3F1xoEV6rSrlYkX69Mu14nuN5cdF1Se51sv6ZXXTHqr3R1Xunrfrq/a7XftNyjpypIJt2yQbds0C7rNct6coGUzsua51orZmpzpooTx/mh55J8Tyf5XcgMm8iNnRTGTwoTJoTx43nxF3Jjf7gwvs7z3/Orv/zlL1PmCtL+Jw+/cds6qmBhYeG1N24fPnJ8cHjkwtjkn//8l3XMvR4Jhw2a1phQZWqsLjvZlJPcm5M4kBXbmxRsDHbReeED3uzdga4HQ72ORvifSogYFSTPVRUstVQutFbMNJdMNwmnmgqmG0tmW6sXO5pX5OKLpHRVI31aLbpONt+QVV9rLbrWkHejIfdGU8H1trJr0rprZPtVg+pqd+eV3p6rA71Xh/quDPZc7uu82G1Y6TQsGfXzBt28Qbdg1M/r1fNaxaKifb6terZWOF2UOiqIOssPvyCIGsuLm8iPn8iPH8uNGxXEncuO/sHcQ5Hw6aefvvnmW9t37tm2Y/elK9c2/A1nLcA/pIGr15/ZtmP34PDIG2/eXgeDe8SE4516RUKUKStloCBrqJC/VZg6lB3fHR+o9uNKeUwFx6HHnb0r1PdoWuxokWCuvmJF0rwia1+Qtsx01M60lc+2lM22Vs2LGpYkomWlYkWnXjaqVzvVV7pV1w3SG5q2Z+SNz0pqnxXXPiNpuC5vuUaKruiVV7tNV/q6rvT3XhnsvzI4cKW/d7Wnc6XLtNCpnzFoZ4zauU7DjFE/ZzTMa9VzCslse8N0fcloGf98UfJoUfJYUcp4QfJ4ftJobsJ5QdzZ7NgfzE2sr4J7fvu73/3+4OGj1ASk86NvWScgWc5a0O9+/wdnL4wNDo+M7Nq7Tq/RmgOsFxPGB/t7+WnDQsHO0rxdZbm7irJGBEm9ccGkr1MHFxQRDjoPx5HYsJMl+XOi5lW17KJOtaxWLZLyeUX7vKxhQVK/KG5YFDcvysRLatWiUb/QY1oa6Lo41H15sPN6n/EZk/ZZrfJZlfRZleQZUnpNI7miVzzdpb3UbbjU3Xmpp+dyb/+l3r6LPd3L3aaFLv2MSTNt0sx0GiYN+imjaVpvmlZrpxSyiY6W8w1l52vyRytzxsqzRkv4FwrSzuUnnc6JPy2I//785D19/Z4Jrly9Njg8smvvgWeeu/UPvZOsiTdQA7defGlk197B4ZEXXnz5niZej4TFHdt3CHN2FeXuLsndU5K7uyhrJCupKypQ5u7YykEkTqyuEP99gozR1sZVo+ZKj/GiSbegVS9oySWtfFndsaxqX5K3L8pFCwrpvFo1a9TP9HbODvYuDvetbuu/srX/el/3DZP+hk59Q0te06muGBSXDYpLJuWKkVwxaleMhhVT10pnz1JX12KXaa5LN92pne7UznQaJnS6Cb1xQmccV+suKJXnZR1nWuvONpadrys8X5V3riLnTDH/VEH6ifzkEzlJ3194qBbzmgZ/97vf79lHDSwcPnr8O29/bwOta836PjXw+u239ps7Tw89dfTPf/7zQ5GwsH1oe07GzoKsfWW5B8rz9hVl78hKMoQFtPCIegTscHTclpx0qrZ2hlSsdOkvdRtXTNolo2bJpF42qlb0siWyY07ZMScXz6pkc1r1fKdxvrd7brB3cWv/ynD/6ta+pwd6qIpQl+Fyp+6SWVape5XLRuWKQbVi0KwYdMtGw5LJMG/Sz5i00ybtlFE7pddOarUTGs2oijwnl52SdJwQt51oazjRVHmmoexsfcnpmsJTFXknSrNPFGYeL0j/3uLMPbVwPwm+/8MfDm3bMTg8Mj41e5/GsCbbMA18/wfjE1ODwyPbduz+7tvfux/7rhcTZob7BgVJ2/PSdhdn7SsT7CnM3spPIsMCGrnsOhYh9fDeLcg5JxLNGvUrvZ2Xe0wXTdqVTs1Kl3rZpFzUy+ZJybSiY0oumlLJZ7UaMwk9cwO984N9i1v7lod6Lw72rA52X+ozrfYYl7sMS126JZNm2aRcNspX9IoVnXJFRy7rtIt67ZxBO23UTBnUU3r1lI6cIpXjCtkFacfZjtZT7Y3HWuuPNtUca6w82VB+qq70RG3hkYq8wyXZBwszDwpTv7M4fT+KuGeajz76aGFxeeu2Hdt27L5249kNs7HlVNM3UEVXbzyzc8/+weGR2fnF+wkI92gxT2/tGcxK2J6XuruYv6c0e0cRvys9ri3As4SFVfG4ZGj4E6Xl4ypyobfn4mDf5f7u1W79arf2Yje5bFLMaSXTKvGEvGNc3jGpkk9rNbOdxrmenrn+nvnBvoWhvsWh3pWhnotDPasDPav93ct9nYvdhkWTZqVTZSZBtqKRr6jlSxrVvJac1ZKTWuWEWj6uko7LxeOSttH25nNt9Wdaak41Vx9vqTreXHmssfx4Q+nRuuKnagqfqMjZV5K1tzB9b17KmwvfDAmfffbZBx9++MShp8x1pBOvWOfkPapMvnH7rcNHqZ7TXXv3/+pXv7rnO24twboxYWvvVkHyTmH67qKsnSXZQwUZqsTIcg+nDAwscXXSJSYfaWieNnUtb926um3rla39l/s6L/XoV3vUS0b5NCmaVIjGZaIxuXhSpZjW6Wa7uuZ6e+f6+xaGBheHBxaH+laGei8N9V3e2vf0cP/qYM9yr2mxW7fSRa4YFct62ZJGuqiSzpOyWVI2TcomVdIxWdv5jqbzbfXnmmvONlSeqS87W1d6pqH0dFPpmeayEw0lR+uLn6otOlhVsL9MsLuEv7swfacw9fVvKCas6eu1198YHB6hJrGcPP3293+wga89a9Z/VwNvffftQ+aOvsHhkR//5Kf3icE9YsLccO/WnOQd+ek7i7K2FWd15qY1x4TwnVlxkH2Bh5s+U3CsQzbXP3hx587Lu3ZeGRm+PNR7qc+w0kXO66VTyrZxedsoRYJ0iiRnDcaFnp6FgYGFocHl7duWt29d2tq/PNR3cWvfpeH+p4cHLg/1XxzoWe41LvdqlrqUC3rZvEY2R0pnlOIphYiKLTLRBXHT2bbas02Vp+tKTlcXnq4sOF2Vf6Ym/2x9/pl64Yla4ZFq4eFK4ZPluftKs3cX83cV8XcWZr6+NHv/6rhnyr/+9a8rFy9tN3dRHz95+tXXrbO1H6Gxtldee+P4idPU7Jide65c/cfmIK8XE6YHuwYz4rfnpu4ozB4uEmhyUkvD/SJYgJcdI9nZUZMjPCbXzG0dubhn76U9e57eNXJpeOBin2mpUz2rlUwo2sbkraMy0bhCOq3VzHV2Lfb3Lw5tXRzeujyyfWn71sWh/sWBnqWBnouDvZcG+1cH+lYGepZ6Oxe7dQud5LxBMaORzZDSaaV4UkFhMCZtG5W0jHY0XGipPltfeqZKeKpMcLKUf7I042RZ+omyjGOlmUdKsw6W8A8U8vcWZu4p5O8u5O8qyn5j+a5LV+/p9383wUcffXTl6rXtO3YPbdtx8vTZV6wwPBrVpNffvH3y9Nmt23du3b7z6avX1h9R/lvLrkfCzGD3QGb89pzUEWH2YEF2R0Z8pr+bB7SJYNAjHTnq/JJjatPc9j0X9x24uG/fpd07VrcNrfR3LpjIKVIyrmgfk7ePySUTKsWMVr/Q1bM0MLg0NLywbdv8tu1zw1tnBvtn+rpme0zzvZ2LvV1Lfd1Lfd0LvV1z3frZTs2MkZzWKqZJ+ZRSOqkQj8pEo5LWcWnrhKR5rL3ufFPFuWrhqdLsk8XpxwuSjhUkHM2Pfyo/8VBu8hM5yftykvbmpe7Jz9xdmLWnKOfN5Yeagfe3Kvvss88++uij5ZXVtaULR4+fsq5y/rsVlX/lxdffvH34qWNrnXsrq5c+vvuc079r0HvUjqb6OzuTwg0J4Zr4iPaY0Fx/j0AWhNvSIRtGhKurtqT6pK53YeeB5QMHl/bvX9mza2Vk+OJA97yBnCQlY4qOMUXHuFI6qVbOGgwLPX2LA0MLg8NzQ8OzQ1unBwem+nqnu7umu0yzZpnv7pzv6Zrt6ZzqNkx26iZN2km9elKrmlArxlSyUbn4vLR9VNo2Jmm9IGo831xN9ZZW5p0s4R8vTD1ekHQkP+FwdtyhrLgnsuL3ZyXsy07el5u5rzBnf7Hw9vLS3R7+Ya7fuXNnaWllbSR/x+59l69ce9O66n8jgsPt7769+vTVtWUk23fuufT0lXUmnK5j8fViwo9fuvX85Plnx85dHz27eu701ImjJw8+cWj/vsMHDoydOv38xcvfv/Xyz9546+e3v/Pvt2///I03fv7aqz9/+cWf3br5k5s3fvzsdbM885Pnnv3prVs/e+mlf3/5lZ+98uq/vfLqT1955acvv/yTl1786Ysv/vSFW2Z54d9eeOHfXnzxpy++8JMXb/34hed/8sLzP7n13E+ev/mT55790c1nfvTsjR/euP7DG9d+dOPaj65d+eGVSz94euUHq4vfX5n73vLs95am3l6c+s7c+Hfmxt+anbg9N3l7bur2wuztpYW3lpd+9fO7LthbRy/389XHH39887lbe/Y9sVYxPXth7KVXX/tXvgited166ZUz50e379wzODyyc8/+52+9+Je/rDfNbh2zrkfCOrdZv1rTwJ07n7zzzrsHzV2rQ9t27Nyzf3H5ojU4/AsQvf3dtxeWlnebX0NUV97xUx9++OGdO588sGdaSXhg1X114507d1YvX9llHspZ2wFgdn7xpVdfs+4X9o0jcfu7b7/48qvTcwtrA2drgwaXn776wKHgSytaSfhSFQ/14eOPP/7hj348MTWzYzc15Yuy0J79Z8+PLa9efva5W6+/+dZ3rYMPD9GKeP3Nt5557tbK6uUz50Z37aUGj9eqQ5NTMz/60Y8//viuazLv36hWEu5fV/dI+emnn/75L3957733Vy5eWttTZG0/hZ179u09cPDoiVOT07NLK6tXrz/zzHPP33z+Bauso4Fnn7t17fqNxZWLE9MzTx07uffAwZ179m0z79SyptWLq5ffe+/9hw8FXxp1PRJ+8+v/ev+dd95/550P3l2Tdz98l5JfrMl77/7ya/Kr9979UszX3/nle+98PcEv33vvK3n/vV998N7//eD9//rw/V9/+P5vzPLbD9777Qfv/e6Dd3/3wbu//eDd33zwzm8+eOe3H7zz2/ff+e37735N1q58df0377/7GyrB/75uvuWd//eH//7yaf9lH/77v/9w7dqNJw8d2bVn/1r/0tprzPr7gTWwbcfuXXv2Hzx89Pr1Z/74xz9+46ZcjwR5U70HaO8FMX0g0A+GgjA4BEfDCSyKhcay8UQuK4WLp3LxNC6eycOzebiAS0k2D8vkIWk8ONUJTndEMhyxDEciw5Gd4cRNd+amuvCSnbkZ7twcX+fCQNeKYNf6UDdRmLs8wp2McNOFOptCuZ0hHEMoSxOKkcGINhDV+WNGX8LkQxj9CIMPrvdBdd6IzhvWeaN6H0Lry1b7sEkfts4T1Xkiei/Y6IUafTCTD27ywY1e2K3TD75r/MOo+9NPP/3jH//0H//5f157/c1LT18dm5g+cerMocNH9+x7YufufSO79o7s2h66/y8AABHxSURBVGOVu2hg787d+/bsf+LgU0dPnDo7Pjl9+crV19548z//8//8MxhYs/J6JDRXVcIMOsqgEwwGy4bBsWHwbGycbW3cbG087Gz8gS0BICXBwJZQcHMYuDkc2hQBUhIC2QYjNsGITShiG4psCkUcwlAwDIVCUSgYhQNgZiDiEEowI9lALJuZwmXmuyA1fhxRiJsyzE0XzNMHc/ShLF04oQsjDMGEMZBt8mcbfVgUCb6E3gfT+6BmwfQ+hM6PpfPl6LxYajdE7Q5rPRCdJ6r3Rg0+mMEXN/gSt84eeRiH/kbu/eSTT/70pz/97ve///V//foXv/zlhx9++MEHVllPAx9++Itf/PKX//XrX//+97//05/+/MknD94pdJ8WXI+E6spKGxrNhkazNYsdjbaZRrM3C5NGQ+g0lE7DaV8Ji05j02lsBo0wf4XSaRid+syihM42C4tOx9duZNBwBo1g0JxsaL5MegIXKvR2agpxI0Nc1SE8bRhXH8k1RfJMYRxjMKcziEdJIM/oz/kSBp0vpvMjKPEldF4s0hUh3WCNB6rxwnTeFCQGP8Lgx7p19uh96sKa7HHWwHokVFZW0WkMOo3+P4VGp30lDBrtS1nDxsZ85cs0DDNLNjSanRknc2I644v/wDDTBdNobg62kRxY6OMoi/ZRR3noIpz1EU6mSKfuSOeucEdTqGNXqEtXiIsp0NEQwNH6E1o/XOOHaXwxnQ/l9zpPVOOOqj0wjSem9cJ1XrjOm6X3oeT5M1YSHmcPv99nvwcJX/PzLx2edtefL93/f6b44jKD/hU19LUkdHMGduYI47LZJoYLN0R6k4kBxngfXbiLMcypL8a9L8bdFOFsDHMxhbl1hroYg3m6AJbGDyf9UNIHVnuBag9Q4w5p3TGtJ67xwnWeLEq8WGswWEm4X194vNOtT0LlF+/uL5yZCgZ3//ky1f9OQjfHlq+TwFhLQqfTbej0tXoXTKN5ONhleHClqaG92dHd8f6mcNe+WM+tid5dsW6GKDdDlHtnpLsxzEkXwNH44So/VOUFqrwcVO5M0hVQuyNaT0zjha3BoPdi6b1ZBj/OrbPHHm8TW5/+vjRwTxK+7tR39fTPE939+7t/Q6NIoDM20+hbaDSqmmRPr4oOGCzMGMlNGEgM6Iv1Gkzw6Uv07krwNsV7mWLcDREuuhCOxh8nfVHSG1J5MZXuTKUboPSAVJ4Q6YmSnqjGG9f6sHS+bEMA99a54/elCWuix1sD/xAJX6fiH/u8Dgl0Gt3WxtbOxnYznb6JRoMYtARPRyU/fldx1t685G3JIUOJfkNpgb3pAZ3JPoZ4D32UqzaUpwsgtH6YxgchvWGVN6TwghTelCi9YaU3qvTFSH9CHcjSBXOeP2+NCY+3j9/f0288CTQ6zcbGzs52sx3d1pZOh2wZLsBmYaDXQAH/qWrhAWHyjsyIEUFEPz+4M9XXkOChj3bVhznqgth6f0Ljh6v9caUfrvDHzIIq/JG1z8oAQhXEIoPZNy9YSbg/X3i8U/2LSFg3gpgbCww7Ot2OwbC137QJtqEHoEBVuP9gUebh2vwj1dl7i5K25UZ2pftp4t3IKCd1GEcTSGgDCW0Ai/Rnyf1ZqmAeGcwmg9nqYJY6mEUGslQBbFUASxXEvnne2nf0ePv4/T39N0XCl9WfdZvUfweItRttaHQbGt2WRrdj2NhtotMxOi2SjbYkhOypFZ4VVz5Vm7OzMKEnM0iT6KGKdlKFcxXBBBnIUgdxlAFsWQBXFeasCuWRoVxNGE8b6qgJ5amDeWQQTx3iePOCtZ1wf77weKf6Rkj4Ogb/KAk0c/fUl1201GgEncKCxtvESHbnkoLEox3Vp0Tl+8ozB3OidKm+ZLybMtpJHsZWBLNVwRxVME8W7KQIc1UEOytDnMlwZzLShZIIVzLCTRvp8fzYqcfbxNanvy8NfCMk/J1X/dcvrYHy9St3/7w2wEDhZEOjOW+xzQl07ysXHO2oOtRQsK0o0ZgRpEz0kMU4SSO58nCeKtSJDHVVhLrJwzzkYe6KcHdVpDsZ7amO8VLHeKtjfLRxfs9PnL0vTVgTPd4a+FeQcHe//7vffA4Og04DGTRvhFkY5mMq4u+qK9xamqnPDJMleIqjnaVRTopoF1WUqyrSQxnhIQ/3VER6K6O9lDFeZKyPOs5PHeeviQ/QJgQ+N3nu8Tax9envSwOPIAlmPOg0Wzv6Zls6QKd7Qnb5QT5kTmpnYaaOHy1L8BFFOUsinRQxrqpoN0WUuzLSUxnprYjyUcV4K2O9yZg1DAK1CcHaxJDnpi7clyasiR5vDTyqJNBodAbN1obuYEuH6TQvGMj09WhIiJSnR8uSA0XRbuIIJ2mUsyzSRRHhqozyUkX7qKK9FdE+imgfZawfGR+oSQzRJYfoUsKfnx59vE1sffr70sCjSAL9i1a3nQ3DYZOdDY1uT6e7AvYpns71scGy1DB5gp800kUa5SSLdJZHulKVolgfRYy3PNZbFuutjPMlEwLVycHa1DBdesTzM2P3pQlrosdbA/8sEv6mlXzf/UtfYMCg0WzpDFuGDZ3GYNDpDnS6B7wly99NnBqlTQ9XxnoqYlyV0a7KWA9lnJc8zluR4KtI8FPE+yoS/cnkIHVKiDo9TJMe/tyMNSY83j5+f0//zyLhb9rC/zgJ5sl5a32sDIYdg04H6bRQDt6YFNmVl0QmBqpiPclYD1WchyreW5noR6YGq1JCVMnBymTqgzotTJ0eTmZE3LSScH+u8Jin+peR8Ddo/AMXvuhNotGcQHthZGB/Rb4mNUIZ66uM9lBEe5AJfrr0EH1mpDYjSpMeSaZHmCWSzIxUZUXffLgTBx9z/3h8Ht8iSPgKGsCWkeDtaijO6clPU8UHyiO91LE+6kR/TUowmRquyYjSZcVps+LU/BhVRrQyI0rFj7750CcOPj7e8Dg/qYWRsIlG88PRtrSErVUFmtQIWaQ3NXSQ5K9OCVKlhK2RoMtO1GTFqzJjFRkxKn6slYTH2b/v/9ktiQQ6nVpRzXHYkhfs119V1JmboowPVFIkBGhTQzTpkerMaHVmrIafQGbFk9kJZkm6Of8NnDh4/wq1prRQDVgUCeaV0LAtI4JHKIX8wYp8Iz9OEetHJvjr0sP0mdEafgyZGUtmxquy4tWCJE1Oijon7bn5b+bEQQs1sLXY96kBCyPBjkYD6TQXYFNZQvhwQ9lQaZYyPkgZ569NC9FlRlPNA36sih+n4seTWUmkIFWdk/Hcwjd5ps59qtWazOI0YEkkrE3Ls2fQMBtGvLdLV3XxSH2JNjNGERdAJgdrMiI0/BitIF4tSFBlxSuzEhVZyerczOcW5izOKtYC/+s1YEkkrHWm2tJoTDrNA2U2Z6cMN5T3Fmcpk0JUKSFkejjJj9IIYjU5CaQgUZWdrBKkUiQsWkn41/uV5eVoMSR8fWTOjkEDbG0EEcG9dWU76ss0mdFkWjiZGaHKilJmR6sEMeqcBHVeqjY/UyPMtpJgeV65ESW2GBK+GlOg0+gMui2DEeTIkRRk72qv6ynmqzLCVVkR6qxIMieazI1V5yZohKn6Qr6hOOfWP+GctY2wlDXPf64GLI8EOp1BY9Bt6DQesKk0IXKgsXKoplCTFasRRKuzI1SCSFVerDY/UZufrCtM1xdlPb/0DZ+9+c81iPW/b5AGLI8EanNKBp3BoEE29DgfN2lB9kB9ma4gVZsXr8qOVGSFkzkx2vxEjTBJlZdE5qXeXLT2om6Qc1lUthZIArXymWFjw7Cj09wwuCg+wlRTbCjhk/kJyqxIRVYE1VTIjVPlxKkECarcpJsL0xZlEWthN0YDlkoCg0FN18bs7eJ83UVCvr48l8xNUGZFK/kRisxIWWakNDNKkRWnykm4uWAdY94Y37KsXC2SBDqd2v+CQadvZtC82EhpSqyxtkSdn6rgR8nSwiSpoe3JIe3JIaLUSElG9I3ZccsyibW0G6IBiySBYV7VtrYNBotplxzsp6st7aoQqrMTxIkhrXFBzbEBDdH+9VF+DTEBT09YV/RviGtZWKaWScIXW3bTaTR7Bt3fkSMpzt3eVtNdnC1NiWyKDqiL8KkM8SgNdC0Lclu5YN3vyMKcckOK++iT8MVqzi8GFL4YYqNOIzEPLNDZEFCaErdf2b6jsVyTndwcG1wZ7Fnk71Lo61QU4LJ87uSGaNaaqWVp4NEn4QsCvvaXTi1xtqFWd9rY2NjQgc22CX4eu6Uth2UtgxUFoqToYn/PfG+XXC/nAj/3pXOnLcsk1tJuiAYskwQ6w4a+2bzOmcFg0LfY0PxYiLZIcJLseErWqsnLLAryEXi5pbk6ZXt6LJw5syGatWZqWRqwUBJs6IzPSaAzGJttaN44JM5KOipvPa2R9tcU18aG5wf58728Bd6+C2esu0Falk9uTGkfdRL+dyvBXEeiogFj01pMoDPom21oPjgkTot9StxwwajY217XkZFYEhaU5++b7+u/eNZKwsb4lmXlapEkmMcS7My/GXQ63Z5B82NBktTop9pqpjuVx5Tt6vzMiojg4qCAwoCApXPWXlTL8smNKa1lkkBjUIct0CgMGHSavS09gA2LkyIPNZXNmhQXdLK+cmF9dFh5aFBxYKCVhI3xLEvL1UJJoA5nWztpgRpSsGME81BJUuShuuJZvWTaIN9bXyFKiKoMCyoLCly2xgRLc8oNKe+jTsLX+k6//nHtsJG1U9NpTDtGhCNOZkQ/VVc0o2qd0kkPttTIkuKqggPLggJXzltrRxviWhaWqcWSQB1yTk26oNNowCabKFeWLjv+aH3RhKxxmhSd7GjSZKRUBQVWUCSctzCbWIu7ERqwQBKo7qTPj95Z+wNssol2ZRn4sUdr88dFNbOkaJKU9OcL6sKCy4MCrDFhI/zK8vK0QBKoWtIaAp//gTbbJnnzugUJx2pyzzWVjIvrp9TinVUlLbHhlSFWEizPKTekxBZJArVo7YuqEZ1GQ+w3pfs59+cnHK8RnKzJPdVUPKZsfqKpUpQUWR0RcPGCtZ2wIa5lYZl+O0iwy/Bz7M+PO1GXfbQi48kK/smOykOiKkl6VE1U4MUx68iahTnlhhTXckmgqkZrgm6x4/vxBvPiTtVnHy5J2Z4bu7c295C4SpWbUB8fvDpujQkb4loWlqlFkvBlrxHdfFgttsUuy483lB93si77YGlyT0ZIZ07M7pYiQ0l6S2rEpQlr35GFOeWGFNdSSfiy1WxDo+Fb7LL9eFsL4k/UZj9ZmqpL9m+L9uwuz+ipzhHx4y5PWs/e3BDXsrBMvxUk2Ntl+ztvLUg6Xp31RGmqMt63xBtvTw0zVuSIBUlPT1lPHLQwp9yQ4lo8CbY0Gm4mYSg/5UhF9p6iVHGMTyaPme/vLM1N68hKuTozuSGatWZqWRr4NpDAsrcT+LsM5aUeKsvZkZ/SEu6diG+OYUNVidGtmSnXZq07f1mWT25MaS2YhLWmgg2NRthvEvi7DuZTJAznJtWFuEdCm3ztN2cE+tamJV2bs+6VvTG+ZVm5WjwJdBoNM5MwJEw7WC4YyEkoDXD22UJztmX44mhhTPRVKwmW5ZIbVFqLJeGLLY8+J8HPbSA3ZV8pvys7Vujj6G5HI2g0noN9RkjI6rR1N8gNci6LyvZbQkKWn1tfTvLukkwjPybXi+tiR4NoNJRuE+vlszBu3QPPolxygwr7bSAB3bIp08+tNzd5V0mmnh8r8OY529GYNNomGi3Y2W3GOit7g3zLsrK1WBLWlvabJ1ygWzZl+Lr25KbsLMnSZsZlezs6baI50KgVDN5s3vhp6y4vluWTG1NayyaBYZ5tgW62S/Nx7spJGSnOUqfHZXo582xpW8yQuOGcCyetu0FujG9ZVq7fEhJSvZxMWUnDBXxlanSKG5fFoNmZSXCCibPHrLtBWpZPbkxpLZ4EOxoN3WyX4ulo4CduFWbKU6KS3Lg4bY0EOhciTh89sTGqteZqURpYj4RPPvnkYwv5uXPnzid37vzV/PvOnf9R6L/+9a8WZRFrYTdGA+uRsDElsuZq1cBGaMBKwkZo3Zrno6cBKwmPnk2sJdoIDVhJ2AitW/N89DRgJeHRs4m1RBuhASsJG6F1a56PngasJDx6NrGWaCM08P8B3NdMY5hbvLoAAAAASUVORK5CYII=;" vertex="1" parent="1">
          <mxGeometry x="390" y="1132" width="259" height="582" as="geometry" />
        </mxCell>
        <mxCell id="8mCYiyi_JvIo1W-B_qy7-5" value="" style="shape=image;verticalLabelPosition=bottom;labelBackgroundColor=default;verticalAlign=top;aspect=fixed;imageAspect=0;image=data:image/png,iVBORw0KGgoAAAANSUhEUgAAAKIAAAC4CAIAAADv3aCxAAAcjklEQVR4Ae1dCXgT1dpON9pSoFA2FSwtolig7LIjgl5AsagsAl5QwRUuIopQ0aspSSdbk+4b3fd939ssTZqm2ZcmfX5Fdv4LRe6j/qIIdiG/7bSn08nSJqQLcvLkKScz51vO9873zjnfGR2CHn4egQgQHoExwiHqIcyPxEVge5jv37/f3t5+7969O3fu3L79W2vrzYsXL58/f/H8+QvwayQCFy5cuHjpxo3W27/9dufOnbv37rW3t9+/f9+2V5/NYO7s7Pzpp5/O/XBeIpWXV1YnJqcxg8NICI1IQuB3MBEIIFOCWKHxiSmlZRVNYsl335/78datzs5Om+BtG5hbW1srq2uiY+PpQcEBZApuVAFkyplAKvyaioDRiFEZrMjo2JKyimvX/vfBk/uBYO7o6Lh+40ZWdi5w9EwghYTQ6MyQpNT08qqaeoFQplBpdC3waz4CMqVKIGysrK5NTc9isEJJCO1MIBVkS2JK2qVLl9vb263ObCthbmtrO3/hQlpmNvCGwQpNSE4tr6ppFEvUzVrzo4JnzUegSSKrrKlNTE4NCg5DU4iE0FLSMr77/lxbW5sVYFsD859//lnH4TKDw4gkJIBMYYVG5BeV8BsalWqNee/hWYsioG7WCoSiopKy0IgoNLNpDFZZReXPP/9iKdIWw3zz5s2w8EjUagCZUlZRqdI0W+Q97GxpBNRaXU0tm84MRsMeHhXzn+s3LELaApjb29slUhmDGUIkIWQK/Wx8kkgssdRj2N/qCAibxPFJKYFUBhp/Pr/hzh9/DBLswcLc2dlZz2+g0plEEkJlsIrLKuDcymrArBZUaprLq2qCwyJQpKtr2Xfv3RsM0oOCubOzk83hobOt0PAoqVyh1uqs9hUKPmAExFJZaEQ0kYScCaTW1HFsA3Nbe3uDUITQggLIlPCo2MYm8QN6CcUfPAIyhTIy5iw6Ca+p4/zxx13zYA+czaImMZXBIpKQsIhogVD04C5CDTaJQJNUFhufGEDuKlSwubx79/40g/QAMF+5coVMoRNJSDdXK23iH1RiqwiIZfLwqFgiCaHQg3744YKVMP/66+2YuAQiCWEGhwlFkKtHYy1PKlfQu9c+UdFnzUy8TWZzW1s7h1tPQmgkhFZUWq5uhnOu0QizRtdSy+YitCAiCSkoKjFVIzMJ89Vr1+hBXevx2LgEWN6yFc0OhR5Vszaje1uBTKErlCqj1G0c5o6OzviEZHSJLJHKh8I5qNOGEWgUS0PCuwqiZ+OTfvrpZ0OkjcP8/ffniCSEhNDKq6pt6A1UNXQRqKyu7a6Z0DSa5kHB3NHRkZicRiQh4VGxErli6DyDmm0YAVWzNiSsa68hLT1zUDBfunyZFsQKIFNy8wthtcuGSAy1qqqaOrRgcvPmjzik8aTd3t5eU8s+Q6bQgoLrG4RD7RnUb8MIKNQatNydmZWLe7oID/NPP/+MrpXjEpJV8OmAh+q5F7VWl5tfiE6qbtxoxSY0HuarV6+hz+mxufU2vNCgquGJAJcvQB/HE0tk5mCWyuTo5QDXysMDjG2tiGVydPOquKQMy9v4bC4oLCaSkMjos7Y1D7UNTwTUWu3ZhCQiCUlOTf/9999BQuNhRiflufmFw+MWtGLzCOTkdd2eI6JiWltvGof57t276NNGHB7f5uahwuGJQHUdm0hCaEHBFy5eMg5za2sr+rCmSCIdHp+gFZtHgC8UdZXDENr/fPe9cZi/++57dPNSLIN17FG6HzXgZSGVK1BKVqk1xmFWKJVEEhLECoU1zgGjOWo7qJq1KMxNEin4r3L6TcGkclnXQwQh4VI5fFDkYc1mja4FhblRJDYBs6wXZgWE+W8Ac5NxmGUQ5oequmnqxtGbzRDmvwWcEOaHmHJNgTf44zCbHwn4IcwQZr0eTsEGT4yjuSfMZpjNMJv/LtNvmM0wm2E2w2wezTMO6BsuApC0IWlD0oakjaMF+HM0RwCSNiRtSNqQtEczR0HfcBGApA1JG5I2JG0cLcCfozkCkLQhaUPShqQ9mjkK+oaLACRtSNqQtCFp42gB/hzNEYCkDUkbkjYk7dHMUdA3XAQgaUPShqQNSRtHC/DnaI4AJG1I2pC0IWmPZo6CvuEiAEkbkjYkbUjaOFqAP0dzBIaWtBVqTXFpWUFRcUFRcXUdezQHwua+icQSdOCFxSXCkX6N5tDCXMfheHt7u3d/1q1bb/NQjmaFEZGR6MCnTJnybUDAyLo6tDDX1LEnT5lC6P54e3uP7FCH2XpwSAg6cEdHx0+OfTrM1nHmIMxDNdOGMA9VZHGX8Mj+hDBDmIc7ApC0hyrif89sliqUdRxufmFRcVl5vaABffmcRVMwtVbX0CiqqKrOLywqKi2tZXPkKrVFxCuRK+o43IKi4qLSsnpBg1LTPEhxVbOW3yAsKiktKC6pqq2VWvKCRHWztkHUVF5ZVVBUXFldI5bKUKODh1nVrOXyBWUVlfmFRSXl5Rxe/eA9R22ptTour76gqLi8sqrJ2HsMbJDNDY2iL075r1ixwsdn3iwvr6eeesrX1/fNPXuKSkoGD3NKatruPXsWLVr89NPPeHl5zZ4928fHZ9269V99/e8m8UDvX9DqyioqPz58ZOmyZT4+87y8vWc/9dQCX98VK1ce/+xzgbDRDNil5RUH3nln/fPP+/ou9J4929vbe+7cucuWLfvgw4+KS8sGfFNidm7eGzt2dLv9tJeX9zNz565atYoYECCRKwYJc2h4+Cvbti1YsGDOnDleXdGbM3/+/M1bttAZQWqN1pTnO3ft8vPb7ue3/RsiUSyT+395euHChV7e3k8//fSSJUu/OHWKL+z3/r8Hglmt1cUnJDz++OPoygH3d8aMGTQ6ffLkyehxUwsqnqBh567dOFnsT09Pz7T0DFMvtFOoNaf8/ceOHYsVwba9vLzi4hMMAZMpVcQzJI9e97AiaHv8+Alfnv5KodYYjbVcqXrrrbcMpdAje/fto9PpaNvogkqt1ZVXVS9/boUpDQQCYfHixcYvNa0OjHebn98pf38HBwesHicnp88+P4F1+4FgDg2LmDFjBtYAgUCws7MDRyZMmAA8MApzLZuzceNGe3t7IEIgEOy7P9gjEydOpNLohhzO5Qt27dqNE7ezs3N0dMSJx8TGYpGubxBu2vQito+p9pt79nLr8W/t4fIFb+zYgR2pofi0adPQg0ZhTk1P9/HxwUk5ODjgdD4zd25KWjoWsK42BmYfn3kAcqDN3d09IysbK2U9zCXlFZMn95Q+CASCu7v7zl27EAqVSqcfPPSeu7s7sIo2DGGWyOTr168H3ezt7Z977jl//y9DQsMQCuXdQ4em9JZWCATCjBkzMvu7rlBr3nv/fSBOIBA8PT0/Pnw4iMkKDQ//4MMPsT7MmjUrKzcXHblMqXz34EGsoPfs2R99fJjBZFKotHcP9rPr5OR06NB7Elnf64zVWt0Xp/ydnZ2Bhmef9Tn26fEgJuv0119v3rzFyckJnCIQCIYw/1UHXeDrC/o4ODhsffnlb74lhoaHEwMCduzaNX78eHB23rx5Dbj7DgZm0M3Ozm7q1KkuLi4EAmH5c8/hUsJKmFXN2q1btwIbjo6OQSwW9vKprq2bOXMm6EAgEAxhPn78M2yHdw8exL0fJ7+oaPbs2aDPqlWrsSaSU9Mee+wxcHb+ggX1ggZsh8rqGjc3N7SDg4PDx4ePoGfDwiOwV8DSpcsbRE1YQQ6P98wzzwDN48ePz8zOAR3EUtnUqVPB2ec3bJBgXusjV6n/dfSTMWPGgA6GMPv5bQdnJ0yYcIZMxs65VM1aBpOJ9XD7a68D610NA5jnPvtsQVGRRtfCFwo/PnwkOia2X/++d11Y+H/Hz8rNA3Tt4OBAZwTh9Gp0Ldm5eTNnPgnGg4OZw6ufv2ABOLtt26sqYxPjtIzM6dOng27pGZmoIVWz9sjRo+D4osWLsbEGzjCDQ0DarV27lscXyBTKLVtfBoIbN22SK43M52vZnEWLFoNuu3bvBjqPnzgBjs+fP9/w9fQKtWbvvr7bNg7m4tIy7F3m6CfH1MbeoxvECga3HldX15KycuAADmYPD4/IqGiNVtfXwWD/1MpsJgUGurq6oqNdsnSpQmVkniKVK/bu3QeGhIM5Kjpm0iQPVMMsLy++iTdDKzXN+/75TxDWnTt3ooORKpQrVq5Cj//lSQCJjL31ggFz6vmLlixxdHR80tPzVT+/GjZHJJHOmjULFZw0ySM8Mgp0xjZUmuavvv43GOMEd/ceGtTq5syZA/w5euxTo3PDmlo2SEcczJ8e/wzcgOcvWNAolmDtgrZCrVn//AbUkKOj45enT4NTOJi3bn1ZNtALZ6yBWa5UHTjwNhgqmRTY50H/6yguIRHcZrAwq7W6U1+eBqPdsaMHPKN6EpKSga3Hn3gC5bdGsQQQo4/PvPLKKqOy6u4lqaBRJJbJZUqVWqsrK68AdteuXSsyEWWNroVbz581ywuYTuueClVUVQNxAoHAM/1OxYOHDgGQwNaFUtP84ksvAZ24+TBuCGSEAnpu3/5aX9L3J+3PT/SbVOOUoD+tgblJKtv26qtgDLFxcUZVa3QtVTW1RhdUcpV6/4EDYAxr1607efKUqe/hI0dATw+PyXVsjkbXUlFVBQ6uWLHS/OIY657/V18BQb/t27GncG21VueLmSh9QyRqdC2JySlA3NXV1QxVMpgstCc2m3l8wbJly4GGHTt3mhr1yZOn9u/vC9GGDRsawaZ1f5hDwyNwnhv+tAZmYZP4+V4+mThpUmp6hqFe9IhYKpvWe2fFZrNUoXz9jTfAaAffmDhxUlFJqUbXkoAJ94YXXlAMul62+803UXN2dnYffPiRKc/R469s2wZ8+9fRoxpdCzO4Z3uRQCDMffZZM+IZWdmoLBbmqto67BwbKB+wsXLlKh5f0GOuP8wlpWVm3EBPWQMzX9i4bNky1LPJU6akZ2WZMfNU750MC7NYJt+8ZcuAYzPsMMHdHZ300hlB4OyrfuaSEufb/v37UUE7O7tPjh3DncX9fOedd4GVQ++9p9G1fEskgiOLlizB9cf+LK+qQmd/WJhLysrnzp0LNAy+sWTp0ppuGusy0R9m3PIE6wNoWwNzg6hpzdq1qItTpkxJzzQJs7pZ5+3dsyLCwiyRK0Ci2NnZeXrOWuDrO5jvqlWri7sv3tDwcBCjTS++aHQeBAaJbby5Zw8qaGdn96+jn2BPGba3b38NWDlx8qRG10JlMMCRxYsXG4qAI6UVlejsAQtzWWUVqIrY2dn5zJs3mFEv8PXdtXs3DywX+8MsU6qAUVMNa2BukspefuUVdLRjxow5Gx9vSntDYxMoBmFhlilVWPIkByKmNJg6npqeAcK9es0aMzMpuUrdKBaDm+hHHx8Ggjt39S2TjBjS6pYsXQo6o4vG+IREcGT8+PFAraE4uItjYa7lcME6zd7evqKq2lBw4CPDA7NMody3bx8YLYVGM+VZcVm5h0fPqgkLs1LTjA33wW4+NKVEo2sxLOKzuTww4124aFEtp2teZvhVa3X+p7/y9PScM+fpF196KSMrm0LrKTUTCISNmzaZSQWRWIItziSlpGh0LcWlpWDgf2kwM/ULIJHRnliYRWLJ6jVrgAYKnW7oM/aIutnYanh4YNboWv79zbdgPbNu3TpsEQd4qdbqvvmWiJbfDKtgFBoNnPLx8TFzgzkbF+/m5jZ16tQlS5fu2/cWOuEUy+ReXj2rHQ8PjyiDug/qRqNYsvXlnmKIi4tLUkpKDZsNyg4zZ840dcdRa3XM4OAJEyagkLi4uIi7l16qZi12q+bL06eNrtcVas2qVT3LeizMGl3Lnr17AcyrVq02c52dIZHd3NxmzJixYtWqk/7+f81be2I7bDBnZuc88cQTqLsODg5hkZEAXdDg1Nev7B2qIcw5uXmenp5gwO8ePNS3LsTkpUDYuHxF3zbO6jVr0DKFXKV+Y8cOIP76668b3UrKzM55rHcD7a+tyaqaWrFMvnhxT3nLzs5u/4G3jd7XG0RN2AXuPzZvAeP65NinwK7vwoXVdXXgFGiwQkJBHxzMwSGhgIcIBMI33xKNXii1bM4TvdtC9vb2773/QV+VcNhglimU/9jcN1WePn167Nk47I1KrdEeePttUGg0hFmuUr/q5wdi4ezs7O//Ja6aI5ErDr3/PnYnIDG5iznRLyskBNRexo4d+8mxT/sC0d1HIpVhF6lv7NghU6pUzdqTp/xBQo8bN+7I0aPK/ruNMqVq71tvAbJxcnJiBgcDu1wef2rv7tOYMWN27NzZ7zEEbUtaeoa3tzcYGg5miVyBPTtjxozw8EjcpcbjCza88ALQ4OLiUlBUDBzAzbTN8AEQsWYKhgpXVFWDWiCBQJg8efLp01+xuTwuX5Cdk7Ny5UrgJdrA3ptRDcWlZWBrAd3J8dv+Wl5BIZcv4AkaiopLXnrpH6BWam9vv3r1GuC3RtfS0Cha//zzWCubN2/Ozcvn8QVcviAyJgYUNQkEwtSpU5NT03o8r65euGgRVnDjxk0ZWdlcvoDNq09MTl6EOWtnZ7dl61bs3oZaqztx8iTYYCUQCEuWLUtPz+DW89lcHoVCxW6oGN2hysjMAtcQgUBwdnY+fORIaXkFT9DA4wuSklMWLVoEMt7BweE1s1sXQwuzRtdCodKw+wqox5MnTwbYODk5AXcNYdboWsIjIsEWCIi7h4fHtGnTgBJ0B3r58ufKKiqxMGt0LXkFhWB9goqj+3EeHh7ALoFAcHNzC6RQsLJn4+KxtwxUdsqUKaAQDZxZunRpdm4eVlaja6nlcF9+5RWsCXt7+0mTJrm6du0Doh/AZLhsRlWdPOU/ceLE3r5d/zo4OEydNg0UDdFTjo6O27a9it+VGTbSRn1VapqZwSHg5od1Gr2KX3/9DYCiUZjVzdro2LNz5z6Lk8X9XLduXV5+gdF7WFlF5cZNm7C5hZP19PREEAqOz9VaXX5B4cqVK7FQ4QQdHBx27d5dUV1j1C6HV79nz15T4uPHux//7DPD8gi4XMQy+RkyGYc0zgEnJ6fdu3fXcbhAqqcxzDCjVnl8wVv/3D9u3DhnZ2en7o+zs7O7u/vnJ07IlKqNmza5jRvnNm7c/Pnz8e723mVlCuXxzz5/8sknXVxcxowZA5S4urrOmzfvrOmaOapQrlIHUiies2a5uLii4mPGjHFxcRnr5ubnt51j8OwHcEOqUH5LDJg5c6ah3TVr1iSlpOAuDiAIGglJyQt8fV1d++y6urouX768pKy8ls3x9PR0GzeuKxRffAFEsA2xVHbgwNvTpk1z7h14j+djx65eswbdQsb2B+05c+agUZ02ffqATmqs3m8G9kCDxxekpKXRGHRGEDMxOUUs6XnAEXQYsCFTqvILiyKjoql0RhArODU9o7qOPfhitVqrKyopiYiKRqg0Vkhobn6BmZoJ1hlUMDIqmkKj0YNYSSmpVTW12A7m2zKlqrikNComhkqjhUVE5hUW4SZ05sU1upYmiTQ9MyssIpJCpYWEhWVm53Dq+bhJ2YBKzHewfgpmXi88O6oiAGE2UjsbVQjZxBkIM4QZ/k8peieJNkmpEVQCsxlmM8xmmM0jSEHQtKURgKQNSRuSNiRtS3kD9h/BCEDShqQNSRuS9ghSEDRtaQQgaUPShqQNSdtS3oD9RzACkLQhaUPShqQ9ghQETVsaAUjakLQhaUPStpQ3YP8RjAAkbUjakLQhaY8gBUHTlkYAkjYkbUjakLQt5Q3YfwQjAEkbkjYkbUjaI0hB0LSlEYCkDUkbkjYkbUt5A/YfwQhA0oakDUkbkvYIUhA0bWkEIGlD0oakDUnbUt6A/UcwApC0IWlD0oakPYIUBE1bGgFI2pC0IWlD0raUN2D/EYzAAKQtlcmJJIQZEi6V97425e9ygY9g0IffdC/M4vv37+u7PwT0H/SvUqkmkpAgVqhE3vc68uH3Elp8kAioNM0ozGKJzDjM586dI5IQhBZk5j1RD+IBlB2GCEi6KZlIQtSaZpDD/bL55s0fiSQkgEwRSaTD4BA0MRQREAgbiSSETKH/z3ffG4f57t27AWQKkYSwufVD4QHUOQwRqK6tI5IQOjPk4sVLxmHW6/XhEdFEEpKTVzAMDkETQxGBnNx8IgmJiI5tvfmjSZiLSkq7OkXFDIUHUOdQR0Ct1cXGJRJJSEpa5p07d0zCLJMriSSEhNAUKs1Q+wT12zwCYqksNDyKSEJKyirANFuv1/ebgun1+qtXryFUBpGE1NQZf3muzT2DCm0YAQ6PT2WwAsgUqVQOUtkIzD//8ktsfFfWR5+NN/p+NRv6BFXZNgJqrS4nr7CLjAOpP/54yxzMHR0dtWzumUAqlcHqe+87rIU9DBGQK1XMkPCuGXRuPhZjI9ms1+uvXL1GCwoOIFOy8wqMvx/8YRizbRPlodBWXlEdQKaQENqtW/1S2TjM9+/fT05JJ5KQsMhoWPV8KADuclKrozNDiCQkMzsXl8rGYdbr9efPXwggUwLIlLLKqodmnI8yx2h15ZXVaPFLq2sZLMwdHR0paRlEEkILChaKxBDpUR6BBlFTcFgkkYQkJKX88sv/DRZmvV5/o7WV0U0CYZExSk3zKB/no+yeSqNNy8jqSmWEptXqDDE2Sdp6vb6jo4MvaCAhNBJCKygqse2bZx9lVGw+9lo2h4TQiCSkuKSss7PTMpj1ev2vv95OSknr2oEODq0XCG3uH1T44BEQNokZrFAiCYlLSMJWN3Fg46tguNOtrTfPBFJRpCUy+YO7BTXYMAIisTSku7RJCwq+eOkyDjvszwFg1uv1coWSymARSQiDFSoQimBpzIY4PYgqkUQaHRuPzq659fy2tnYsrrj2wDC3t7eLxRJaN9JhkdH8hsYHcQ7K2iQCjWJJVEwcusnEreffvXsXhyvu58Aw6/X69vZ2iUSKPljCDAlvFDXZxFeoxLoICBqbQsK7lk9nAqmNoqb2dnN5jOI9KJjRrhKJlEJnotoLi0vlSpV1XkIpqyOgUGvKq2poQcEoV3N4/La2NlziGv1pAcwdHR1yhTI0oms7k4TQziYkcesFVnsMBS2KgFqr4zcIE5PT0BkxMzhMIGy8e/eeUVAND1oAM7qYvnnzx4yMbPQRUSqDlZ2TD+veFgFmRWelWpNfWMxghQaQux7ITE7N+M9/rnd0dBjCaeqIZTCjWu7fvy9sFKE1MiIJCaQyMrJyRGIJLJZZAaEZEaWmWSSW5uQVkCl0NK8odGZVde2AEy5DsK2BWa/Xd3Z2Xrx4KSc3H12bo2AnJqeWV1bz+A0SuQKuu8zgZ/6UVKGsbxCWV9Ukp2agCxwiCaHSmZlZOefO/YB99McQTlNHrIQZVffHH3evXrtWW8umMrqmZmhZlc4MDgmPjIlLzMkrKCmvrGNz+Q2NAqEIfk1FgN8grOPwSiuqcvILziYkhYZH0ZkhIINpQayKyurLV67+/nvfI3ym4DR1/IFgBkrb2toahI0hYZGBFDo6R0BRh3+ti8CZQCqZQqfQmWw29/bt2yDOVjdsAzNq/s6dPy5dutwklpaUVaSmZ0bHxoWER9KCggOpDDKFTqbQ0Y0Q+BcbATKFHkhl0IJYIWERUTFxyWkZhcWlQlHT+QsX7tz53WpccYK2hBmo7uzs/O2332/997/Xr9+4cuXqhYuXzl+4CL+mInDh4qXLV65cv3791q3/3r79m6ldJhBeKxpDArMVfkCRIY0AhHlIwztalEOYRwsSQ+oHhHlIwztalP8/DspsK+giMToAAAAASUVORK5CYII=;" vertex="1" parent="1">
          <mxGeometry x="750" y="1331" width="162" height="184" as="geometry" />
        </mxCell>
        <mxCell id="8mCYiyi_JvIo1W-B_qy7-6" value="&lt;font style=&quot;font-size: 20px;&quot;&gt;hash&lt;/font&gt;" style="text;html=1;align=center;verticalAlign=middle;resizable=0;points=[];autosize=1;strokeColor=none;fillColor=none;" vertex="1" parent="1">
          <mxGeometry x="680" y="1645" width="70" height="40" as="geometry" />
        </mxCell>
        <mxCell id="8mCYiyi_JvIo1W-B_qy7-8" style="edgeStyle=orthogonalEdgeStyle;rounded=0;orthogonalLoop=1;jettySize=auto;html=1;entryX=0.5;entryY=-0.015;entryDx=0;entryDy=0;entryPerimeter=0;" edge="1" parent="1" source="8mCYiyi_JvIo1W-B_qy7-4" target="8mCYiyi_JvIo1W-B_qy7-6">
          <mxGeometry relative="1" as="geometry" />
        </mxCell>
        <mxCell id="8mCYiyi_JvIo1W-B_qy7-9" value="图像相似，但是生成的哈希距离远" style="text;html=1;align=center;verticalAlign=middle;resizable=0;points=[];autosize=1;strokeColor=none;fillColor=none;" vertex="1" parent="1">
          <mxGeometry x="-40" y="1748" width="200" height="30" as="geometry" />
        </mxCell>
      </root>
    </mxGraphModel>
  </diagram>
</mxfile>
